G04 ================== begin FILE IDENTIFICATION RECORD ==================*
G04 Layout Name:  F:/OneDrive/Projects/PCB/HL-VPN/allegro/HL_VPN.brd*
G04 Film Name:    3_PWR*
G04 File Format:  Gerber RS274X*
G04 File Origin:  Cadence Allegro 17.4-S037*
G04 Origin Date:  Wed Jan 29 06:07:45 2025*
G04 *
G04 Layer:  BOARD GEOMETRY/DESIGN_OUTLINE*
G04 Layer:  ETCH/PWR*
G04 Layer:  PIN/PWR*
G04 Layer:  VIA CLASS/PWR*
G04 *
G04 Offset:    (0.00 0.00)*
G04 Mirror:    No*
G04 Mode:      Positive*
G04 Rotation:  0*
G04 FullContactRelief:  No*
G04 UndefLineWidth:     0.00*
G04 ================== end FILE IDENTIFICATION RECORD ====================*
%FSLAX25Y25*MOIN*%
%IR0*IPPOS*OFA0.00000B0.00000*MIA0B0*SFA1.00000B1.00000*%
%ADD11C,.03*%
%ADD15C,.02201*%
%ADD13C,.02402*%
%ADD10C,.03402*%
%ADD12C,.01181*%
%ADD16C,.08402*%
%ADD14O,.07091X.0787*%
%ADD17C,.01*%
%ADD18C,.02*%
%ADD19C,.04*%
%ADD20C,.006*%
%ADD21C,.007*%
%ADD22C,.0035*%
%ADD23C,.04204*%
%ADD25C,.03606*%
%ADD24C,.02384*%
%ADD26C,.01984*%
G75*
%LPD*%
G75*
G36*
G01X84900Y141300D02*
X78700D01*
X77700Y140300D01*
Y136087D01*
X77543Y136052D01*
G03X76614Y135580I458J-2052D01*
G01X76587Y135557D01*
X76452Y135504D01*
X76309Y135565D01*
X76281Y135592D01*
G03X74801Y136202I-1481J-1492D01*
G01X74800D01*
G03X72698Y134100I0J-2102D01*
G03X73867Y132217I2101J0D01*
G02X73972Y131572I-179J-360D01*
G01X67800Y125400D01*
X65376D01*
G02X65144Y126130I0J402D01*
G03X65903Y127600I-1044J1470D01*
G03X62297I-1803J0D01*
G03X63056Y126130I1803J0D01*
G02X62824Y125400I-232J-328D01*
G01X58040D01*
G02X57725Y126051I1J402D01*
G03X57982Y126790I-934J739D01*
G03X55598I-1192J0D01*
G03X55855Y126051I1191J0D01*
G02X55540Y125400I-316J-249D01*
G01X34300D01*
X33400Y124500D01*
Y123873D01*
G03Y120927I1501J-1473D01*
G01Y87700D01*
X28265Y82565D01*
G02X27681Y82582I-284J284D01*
G03X26790Y82982I-891J-792D01*
G03X25598Y81790I0J-1192D01*
G03X25998Y80899I1192J0D01*
G02X26015Y80315I-267J-300D01*
G01X23265Y77565D01*
G02X22681Y77582I-284J284D01*
G03X21790Y77982I-891J-792D01*
G03X20598Y76790I0J-1192D01*
G03X20998Y75899I1192J0D01*
G02X21015Y75315I-267J-300D01*
G01X11600Y65900D01*
X3100D01*
X1600Y67400D01*
Y182000D01*
X18600Y199000D01*
X64931D01*
X64971Y198851D01*
G03X67000Y197298I2029J549D01*
G03X68883Y198467I0J2101D01*
G02X69528Y198572I360J-179D01*
G01X70687Y197413D01*
G02X70659Y196819I-284J-284D01*
G03X69898Y195200I1342J-1619D01*
G03X72000Y193098I2102J0D01*
G03X73619Y193859I0J2103D01*
G02X74213Y193887I310J-256D01*
G01X75000Y193100D01*
Y188300D01*
X77500Y185800D01*
X83200D01*
X87700Y181300D01*
Y148301D01*
G02X87170Y147920I-402J0D01*
G03X86791Y147982I-379J-1130D01*
G01X86790D01*
G03Y145598I0J-1192D01*
G01X86791D01*
G03X87170Y145660I0J1192D01*
G02X87700Y145279I128J-381D01*
G01Y144100D01*
X84900Y141300D01*
G37*
G36*
G01X287399Y271200D02*
X330900D01*
X335645Y266455D01*
X335660Y266410D01*
G03X336410Y265660I1130J380D01*
G01X336455Y265645D01*
X339026Y263074D01*
G03X338698Y261166I5393J-1909D01*
G03X341200Y256437I5720J0D01*
G01Y252826D01*
G03Y250754I590J-1036D01*
G01Y247826D01*
G03Y245754I590J-1036D01*
G01Y242826D01*
G03X340894Y242576I591J-1035D01*
G03X340700Y242592I-195J-1176D01*
G03Y240208I0J-1192D01*
G03X340956Y240236I-1J1192D01*
G01X340977Y240240D01*
X341200D01*
Y239678D01*
X340985D01*
X340970Y239680D01*
G03X340800Y239692I-169J-1180D01*
G03X339608Y238500I0J-1192D01*
G03X340799Y237308I1192J0D01*
G02X341200Y236906I-1J-402D01*
G01Y234085D01*
X341057Y234042D01*
G03X340208Y232900I344J-1142D01*
G03X340617Y232001I1193J0D01*
G03X340598Y231790I1173J-212D01*
G03X341200Y230754I1192J0D01*
G01Y227826D01*
G03Y225754I590J-1036D01*
G01Y222826D01*
G03Y220754I590J-1036D01*
G01Y214163D01*
G03Y204705I3218J-4729D01*
G01Y202826D01*
G03X340598Y201790I590J-1036D01*
G03X340753Y201202I1193J0D01*
G02X340404Y200602I-349J-198D01*
G01X328176D01*
G02X327827Y201202I0J402D01*
G03X327982Y201790I-1038J588D01*
G03X325598I-1192J0D01*
G03X325753Y201202I1193J0D01*
G02X325404Y200602I-349J-198D01*
G01X322261D01*
G03X320900Y201102I-1361J-1602D01*
G03X318798Y199000I0J-2102D01*
G03X319298Y197639I2102J0D01*
G01Y196761D01*
G03X318798Y195400I1602J-1361D01*
G03X323002I2102J0D01*
G03X322545Y196708I-2102J-1D01*
G01X322502Y196763D01*
Y197398D01*
X325209D01*
G02X325608Y196944I1J-402D01*
G03X325598Y196790I1181J-154D01*
G03X327982I1192J0D01*
G03X327972Y196944I-1191J0D01*
G02X328371Y197398I398J52D01*
G01X340209D01*
G02X340608Y196944I1J-402D01*
G03X340598Y196790I1181J-154D01*
G03X341200Y195754I1192J0D01*
G01Y192826D01*
G03Y190754I590J-1036D01*
G01Y187826D01*
G03Y185754I590J-1036D01*
G01Y182826D01*
G03Y180754I590J-1036D01*
G01Y177826D01*
G03Y175754I590J-1036D01*
G01Y152826D01*
G03Y150754I590J-1036D01*
G01Y147826D01*
G03Y145754I590J-1036D01*
G01Y118700D01*
X337900Y115400D01*
X318041D01*
G02X317725Y116051I0J402D01*
G03X317982Y116790I-934J739D01*
G03X315598I-1192J0D01*
G03X315855Y116051I1191J0D01*
G02X315539Y115400I-316J-249D01*
G01X308041D01*
G02X307725Y116051I0J402D01*
G03X307982Y116790I-934J739D01*
G03X305598I-1192J0D01*
G03X305855Y116051I1191J0D01*
G02X305539Y115400I-316J-249D01*
G01X303041D01*
G02X302725Y116051I0J402D01*
G03X302982Y116790I-934J739D01*
G03X300598I-1192J0D01*
G03X300855Y116051I1191J0D01*
G02X300539Y115400I-316J-249D01*
G01X298041D01*
G02X297725Y116051I0J402D01*
G03X297982Y116790I-934J739D01*
G03X295598I-1192J0D01*
G03X295855Y116051I1191J0D01*
G02X295539Y115400I-316J-249D01*
G01X293041D01*
G02X292725Y116051I0J402D01*
G03X292982Y116790I-934J739D01*
G03X290598I-1192J0D01*
G03X290855Y116051I1191J0D01*
G02X290539Y115400I-316J-249D01*
G01X288041D01*
G02X287725Y116051I0J402D01*
G03X287982Y116790I-934J739D01*
G03X285598I-1192J0D01*
G03X285855Y116051I1191J0D01*
G02X285539Y115400I-316J-249D01*
G01X283041D01*
G02X282725Y116051I0J402D01*
G03X282982Y116790I-934J739D01*
G03X280598I-1192J0D01*
G03X280855Y116051I1191J0D01*
G02X280539Y115400I-316J-249D01*
G01X273041D01*
G02X272725Y116051I0J402D01*
G03X272982Y116790I-934J739D01*
G03X271790Y117982I-1192J0D01*
G03X271033Y117711I0J-1193D01*
G03X270600Y117792I-432J-1111D01*
G03X269408Y116600I0J-1192D01*
G03X269568Y116003I1192J0D01*
G02X269220Y115400I-348J-201D01*
G01X263041D01*
G02X262725Y116051I0J402D01*
G03X262982Y116790I-934J739D01*
G03X260598I-1192J0D01*
G03X260855Y116051I1191J0D01*
G02X260539Y115400I-316J-249D01*
G01X258041D01*
G02X257725Y116051I0J402D01*
G03X257982Y116790I-934J739D01*
G03X256790Y117982I-1192J0D01*
G03X255800Y117454I0J-1192D01*
G03X255500Y117492I-299J-1154D01*
G03X254308Y116300I0J-1192D01*
G03X254368Y115928I1192J1D01*
G02X253986Y115400I-382J-126D01*
G01X231092D01*
Y115601D01*
G03X228708I-1192J-1D01*
G01Y115400D01*
X214300D01*
X205350Y124350D01*
Y139874D01*
G03Y141726I-749J926D01*
G01Y183550D01*
X205600Y183800D01*
Y184600D01*
X204700Y185500D01*
Y186100D01*
X210900Y192300D01*
Y193700D01*
X207000Y197600D01*
Y199600D01*
X209487Y202087D01*
G02X210165Y201885I284J-284D01*
G03X211080Y201098I971J203D01*
G03X211625Y200812I711J692D01*
G02X211959Y200376I-66J-397D01*
G03X211954Y200278I987J-99D01*
G03X213938I992J0D01*
G03X213111Y201256I-992J0D01*
G02X212777Y201692I66J397D01*
G03X212782Y201790I-987J99D01*
G03X211846Y202780I-992J0D01*
G03X211136Y203080I-711J-692D01*
G03X210982Y203068I0J-992D01*
G01X210881Y203052D01*
X210667Y203267D01*
X210900Y203500D01*
X211000D01*
X218554Y211054D01*
G02X219227Y210875I285J-284D01*
G03X220184Y210143I957J260D01*
G03X221176Y211135I0J992D01*
G03X220444Y212092I-992J0D01*
G02X220265Y212765I105J388D01*
G01X220364Y212864D01*
G02X221036Y212685I284J-285D01*
G03X221993Y211953I957J260D01*
G03Y213937I0J992D01*
G03X221715Y213897I1J-992D01*
G02X221200Y214283I-113J386D01*
G01Y215226D01*
G02X221715Y215612I402J0D01*
G03X221993Y215572I279J952D01*
G03X222985Y216564I0J992D01*
G03X222621Y217332I-992J0D01*
G03X221790Y217782I-831J-542D01*
G03X221656Y217773I-1J-992D01*
G02X221200Y218171I-54J398D01*
G01Y221520D01*
G02X221803Y221868I402J0D01*
G03X222400Y221708I597J1032D01*
G03Y224092I0J1192D01*
G03X221803Y223932I0J-1192D01*
G02X221200Y224280I-201J348D01*
G01Y233800D01*
X204700Y250300D01*
X172955D01*
G02X172661Y250976I0J402D01*
G03X172982Y251790I-872J814D01*
G03X170598I-1192J0D01*
G03X170919Y250976I1193J0D01*
G02X170625Y250300I-294J-274D01*
G01X147955D01*
G02X147661Y250976I0J402D01*
G03X147982Y251790I-872J814D01*
G03X145598I-1192J0D01*
G03X145919Y250976I1193J0D01*
G02X145625Y250300I-294J-274D01*
G01X137955D01*
G02X137661Y250976I0J402D01*
G03X137982Y251790I-872J814D01*
G03X135598I-1192J0D01*
G03X135919Y250976I1193J0D01*
G02X135625Y250300I-294J-274D01*
G01X126661D01*
X126626Y250313D01*
G03X126200Y250392I-427J-1113D01*
G03X125774Y250313I1J-1192D01*
G01X125739Y250300D01*
X122955D01*
G02X122661Y250976I0J402D01*
G03X122982Y251790I-872J814D01*
G03X120598I-1192J0D01*
G03X120919Y250976I1193J0D01*
G02X120625Y250300I-294J-274D01*
G01X112955D01*
G02X112661Y250976I0J402D01*
G03X112982Y251790I-872J814D01*
G03X110598I-1192J0D01*
G03X110919Y250976I1193J0D01*
G02X110625Y250300I-294J-274D01*
G01X107955D01*
G02X107661Y250976I0J402D01*
G03X107982Y251790I-872J814D01*
G03X105598I-1192J0D01*
G03X105919Y250976I1193J0D01*
G02X105625Y250300I-294J-274D01*
G01X102955D01*
G02X102661Y250976I0J402D01*
G03X102982Y251790I-872J814D01*
G03X100598I-1192J0D01*
G03X100919Y250976I1193J0D01*
G02X100625Y250300I-294J-274D01*
G01X97955D01*
G02X97661Y250976I0J402D01*
G03X97982Y251790I-872J814D01*
G03X95598I-1192J0D01*
G03X95919Y250976I1193J0D01*
G02X95625Y250300I-294J-274D01*
G01X91055D01*
G02X90764Y250979I0J402D01*
G03X91092Y251800I-864J821D01*
G03X88708I-1192J0D01*
G03X89036Y250979I1192J0D01*
G02X88745Y250300I-291J-277D01*
G01X82900D01*
X48600Y216000D01*
Y202700D01*
X46500Y200600D01*
X25800D01*
X19700Y206700D01*
Y241766D01*
G02X19891Y241967I201J0D01*
G03Y244347I-59J1190D01*
G02X19700Y244548I10J201D01*
G01Y244715D01*
X19843Y244758D01*
G03Y247042I-344J1142D01*
G01X19700Y247085D01*
Y250804D01*
G02X19891Y251005I201J0D01*
G03Y253385I-61J1190D01*
G02X19700Y253586I10J201D01*
G01Y253803D01*
G02X19891Y254004I201J0D01*
G03X21022Y255194I-61J1190D01*
G03X20480Y256193I-1192J0D01*
G02X20415Y256815I219J337D01*
G01X21397Y257797D01*
X21510Y257765D01*
G03X22000Y257697I490J1735D01*
G03X23803Y259500I0J1803D01*
G03X23735Y259990I-1803J0D01*
G01X23703Y260103D01*
X30914Y267314D01*
X31670D01*
G03X33456Y269100I0J1786D01*
G03X33377Y269626I-1786J1D01*
G01X33341Y269741D01*
X34798Y271198D01*
X52037D01*
X53168Y270068D01*
G03X54300Y269598I1133J1131D01*
G01X56900D01*
G03X58032Y270068I-1J1601D01*
G01X59163Y271198D01*
X92400D01*
G03X92465Y271200I-17J1601D01*
G01X93653D01*
X93698Y271060D01*
G03X95700Y269598I2002J640D01*
G03X97682Y270999I0J2102D01*
G03X97826Y271200I-892J791D01*
G01X100754D01*
G03X102826I1036J590D01*
G01X105754D01*
G03X107826I1036J590D01*
G01X115754D01*
G03X117826I1036J590D01*
G01X120754D01*
G03X122826I1036J590D01*
G01X249983D01*
G02X250315Y270572I0J-402D01*
G03X250108Y269900I985J-671D01*
G03X252492I1192J0D01*
G03X252285Y270572I-1192J1D01*
G02X252617Y271200I332J226D01*
G01X266383D01*
G02X266715Y270572I0J-402D01*
G03X266508Y269900I985J-671D01*
G03X268892I1192J0D01*
G03X268685Y270572I-1192J1D01*
G02X269017Y271200I332J226D01*
G01X285001D01*
X285036Y271042D01*
G03X287364I1164J258D01*
G01X287399Y271200D01*
G37*
G36*
G01X23807Y276407D02*
G02X21210Y279003I1822J4420D01*
G01X20600Y275700D01*
X23100D01*
X23807Y276407D01*
G37*
G36*
G01X28300Y275700D02*
X30800D01*
X30190Y279003D01*
G02X27593Y276407I-4419J1824D01*
G01X28300Y275700D01*
G37*
G36*
G01X31507Y290493D02*
G02X34103Y293090I4420J-1822D01*
G01X30800Y293700D01*
Y291200D01*
X31507Y290493D01*
G37*
G36*
G01X184360Y188500D02*
X189400D01*
X191578Y186322D01*
G02X191527Y185709I-284J-285D01*
G03X191108Y184900I573J-810D01*
G03X192027Y183911I992J0D01*
G02X192400Y183510I-29J-401D01*
G01Y182498D01*
X190652Y180750D01*
X186250D01*
X175500Y170000D01*
Y153880D01*
G02X174897Y153532I-402J0D01*
G03X174300Y153692I-597J-1032D01*
G03Y151308I0J-1192D01*
G03X174897Y151468I0J1192D01*
G02X175500Y151120I201J-348D01*
G01Y141200D01*
X110700Y76400D01*
X78200D01*
X55100Y99500D01*
X41500D01*
X37100Y103900D01*
Y116700D01*
X37900Y117500D01*
X51100D01*
X51150Y117450D01*
X55217D01*
G02X55614Y116983I0J-402D01*
G03X55598Y116790I1176J-195D01*
G03X57982I1192J0D01*
G03X57966Y116983I-1192J-2D01*
G02X58363Y117450I397J65D01*
G01X60217D01*
G02X60614Y116983I0J-402D01*
G03X60598Y116790I1176J-195D01*
G03X61790Y115598I1192J0D01*
G03X62137Y115650I-1J1192D01*
G02X62647Y115351I117J-385D01*
G03X64700Y113698I2053J448D01*
G03X66792Y115598I0J2102D01*
G03X67982Y116790I-2J1192D01*
G03X67966Y116983I-1192J-2D01*
G02X68363Y117450I397J65D01*
G01X81658D01*
G03X83942I1142J1394D01*
G01X95217D01*
G02X95614Y116983I0J-402D01*
G03X95598Y116790I1176J-195D01*
G03X97982I1192J0D01*
G03X97966Y116983I-1192J-2D01*
G02X98363Y117450I397J65D01*
G01X100350D01*
X100400Y117400D01*
X145541Y162541D01*
G02X146112Y162538I284J-284D01*
G03X147400Y161997I1288J1263D01*
G03X149203Y163800I0J1803D01*
G03X148662Y165088I-1804J0D01*
G02X148659Y165659I281J287D01*
G01X148795Y165795D01*
X148928Y165722D01*
G03X149800Y165497I872J1577D01*
G03X151603Y167300I0J1803D01*
G03X151300Y168300I-1802J0D01*
G01X171500Y188500D01*
X176281D01*
X176318Y188485D01*
G03X176700Y188408I383J915D01*
G03X177082Y188485I-1J992D01*
G01X177119Y188500D01*
X183624D01*
X183657Y188488D01*
G03X183992Y188430I334J934D01*
G03X184327Y188488I1J992D01*
G01X184360Y188500D01*
G37*
G36*
G01X54673Y96347D02*
G02X53860Y97160I567J1380D01*
G01X52712Y96100D01*
X53860Y95040D01*
G02X54673Y95853I1380J-567D01*
G03Y96347I-247J247D01*
G37*
G36*
G01X68313Y378562D02*
G02X71248Y378563I1469J-3521D01*
G01X71425Y382674D01*
X67711Y383002D01*
G02X67320Y379679I-4180J-1193D01*
G03X68313Y378562I993J-117D01*
G37*
G36*
G01X178691Y219200D02*
X189296D01*
X189307Y219199D01*
G03X189424Y219192I118J985D01*
G01X189508D01*
X192049Y216651D01*
Y216567D01*
G03X193043Y215573I992J-2D01*
G01X193127D01*
X193858Y214842D01*
Y214758D01*
G03X194853Y213763I992J-3D01*
G01X194937D01*
X198400Y210300D01*
Y210139D01*
X198384Y210101D01*
G03X198324Y209800I716J-299D01*
G01Y208900D01*
G03X198384Y208599I776J-2D01*
G01X198400Y208561D01*
Y205400D01*
X195400Y202400D01*
Y201400D01*
X197600Y199200D01*
Y198100D01*
X197050Y197550D01*
X195290D01*
X195251Y197567D01*
G03X194850Y197652I-402J-907D01*
G03X194449Y197567I1J-992D01*
G01X194410Y197550D01*
X190716D01*
G02X190342Y198101I-1J402D01*
G03X190413Y198469I-921J369D01*
G03X188429I-992J0D01*
G03X188500Y198101I992J1D01*
G02X188126Y197550I-373J-149D01*
G01X187097D01*
G02X186723Y198101I-1J402D01*
G03X186794Y198469I-921J369D01*
G03X184810I-992J0D01*
G03X184881Y198101I992J1D01*
G02X184391Y197567I-373J-149D01*
G03X183992Y197651I-399J-908D01*
G03X183593Y197567I0J-992D01*
G01X183554Y197550D01*
X168350D01*
X162101Y191301D01*
G02X161428Y191483I-284J285D01*
G03X160469Y192223I-959J-251D01*
G03X159477Y191231I0J-992D01*
G03X160217Y190272I991J0D01*
G02X160399Y189599I-103J-389D01*
G01X160292Y189492D01*
G02X159619Y189674I-284J285D01*
G03X158660Y190414I-959J-251D01*
G03X157668Y189422I0J-992D01*
G03X158408Y188463I991J0D01*
G02X158590Y187790I-103J-389D01*
G01X152657Y181857D01*
G02X152056Y181894I-284J285D01*
G03X150400Y182702I-1656J-1293D01*
G03X148298Y180600I0J-2102D01*
G03X149106Y178944I2101J0D01*
G02X149143Y178343I-248J-317D01*
G01X143641Y172841D01*
X143501Y172951D01*
G03X142200Y173402I-1301J-1651D01*
G03X140098Y171300I0J-2102D01*
G03X140549Y169999I2102J0D01*
G01X140659Y169859D01*
X137988Y167188D01*
X137849Y167291D01*
G03X136600Y167702I-1249J-1692D01*
G03X134498Y165600I0J-2102D01*
G03X135017Y164217I2102J0D01*
G01X113311Y142511D01*
G02X112715Y142542I-284J284D01*
G03X111790Y142982I-925J-752D01*
G03X110598Y141790I0J-1192D01*
G03X111038Y140865I1192J0D01*
G02X111069Y140269I-253J-312D01*
G01X96400Y125600D01*
X80100D01*
X79200Y126500D01*
Y132274D01*
G03Y135726I-1200J1726D01*
G01Y136700D01*
X81900Y139400D01*
X86700D01*
X89000Y141700D01*
Y175400D01*
X109543Y195943D01*
G02X110144Y195906I284J-284D01*
G03X111800Y195098I1656J1293D01*
G03X113902Y197200I0J2102D01*
G03X113094Y198856I-2101J0D01*
G02X113057Y199457I247J317D01*
G01X130042Y216442D01*
G02X130696Y216317I285J-284D01*
G03X131790Y215598I1094J473D01*
G03X132982Y216790I0J1192D01*
G03X132263Y217884I-1192J0D01*
G02X132138Y218538I159J369D01*
G01X132750Y219150D01*
X151350D01*
X151400Y219200D01*
X178439D01*
X178450Y219199D01*
G03X178565Y219192I118J985D01*
G03X178680Y219199I-3J992D01*
G01X178691Y219200D01*
G37*
G36*
G01X150005Y248200D02*
X202600D01*
X205369Y245431D01*
G02X205382Y245160I-142J-143D01*
G03X205108Y244400I917J-760D01*
G03X206300Y243208I1192J0D01*
G03X207060Y243482I0J1191D01*
G02X207331Y243469I128J-155D01*
G01X208664Y242136D01*
X208679Y242094D01*
G03X209394Y241379I1121J406D01*
G01X209436Y241364D01*
X219700Y231100D01*
Y227794D01*
G02X219299Y227392I-402J0D01*
G03Y225008I1J-1192D01*
G02X219700Y224606I-1J-402D01*
G01Y221227D01*
G02X219031Y220926I-402J0D01*
G03X218373Y221176I-658J-741D01*
G03Y219192I0J-992D01*
G03X219031Y219442I0J991D01*
G02X219700Y219141I267J-301D01*
G01Y215620D01*
G03Y213888I484J-866D01*
G01Y213200D01*
X215599Y209099D01*
G02X214965Y209186I-284J284D01*
G03X214100Y209692I-865J-486D01*
G03X213108Y208700I0J-992D01*
G03X213614Y207835I992J0D01*
G02X213701Y207201I-197J-350D01*
G01X212083Y205583D01*
G02X211535Y205564I-284J284D01*
G03X210885Y205807I-650J-748D01*
G03X209893Y204815I0J-992D01*
G03X210136Y204165I991J0D01*
G02X210117Y203617I-303J-264D01*
G01X207196Y200696D01*
G02X206565Y200778I-284J285D01*
G03X205708Y201270I-857J-500D01*
G03Y199286I0J-992D01*
G03X205986Y199326I-1J992D01*
G02X206500Y198940I112J-386D01*
G01Y197997D01*
G02X205986Y197611I-402J0D01*
G03X205708Y197651I-279J-952D01*
G03Y195667I0J-992D01*
G03X206677Y196447I0J992D01*
G02X207354Y196646I393J-85D01*
G01X207504Y196496D01*
G02X207305Y195819I-284J-284D01*
G03X206525Y194850I212J-969D01*
G03X207517Y193858I992J0D01*
G03X208486Y194638I0J992D01*
G02X209163Y194837I393J-85D01*
G01X209313Y194687D01*
G02X209115Y194010I-284J-284D01*
G03X208335Y193041I212J-969D01*
G03X208802Y192199I993J0D01*
G02X208874Y191574I-212J-341D01*
G01X208642Y191342D01*
X208468Y191517D01*
X208453Y191560D01*
G03X207517Y192223I-936J-329D01*
G03X206525Y191231I0J-992D01*
G03X206896Y190458I991J0D01*
G01X206770Y190100D01*
X206432D01*
G03X204984I-724J-678D01*
G01X204645D01*
X204519Y190458D01*
G03X204890Y191231I-620J773D01*
G03X202906I-992J0D01*
G03X203277Y190458I991J0D01*
G01X203151Y190100D01*
X202813D01*
G03X202490Y190329I-724J-678D01*
G01X202455Y190345D01*
X202100Y190700D01*
X201667D01*
G02X201267Y191139I0J402D01*
G03X201271Y191231I-988J89D01*
G03X199287I-992J0D01*
G03X199291Y191139I992J-3D01*
G02X198891Y190700I-400J-37D01*
G01X198000D01*
X195177Y187876D01*
X194300D01*
G03X193855Y187736I0J-777D01*
G01X193803Y187700D01*
X191000D01*
X187600Y191100D01*
Y191217D01*
G03X187782Y191790I-811J573D01*
G03X187631Y192317I-992J1D01*
G01X187600Y192366D01*
Y194000D01*
X189000Y195400D01*
X195900D01*
X198100Y197600D01*
Y199900D01*
X196200Y201800D01*
Y202400D01*
X200100Y206300D01*
Y208134D01*
G02X200297Y208335I201J0D01*
G03Y210319I-19J992D01*
G02X200100Y210520I4J201D01*
G01Y211753D01*
G02X200297Y211954I201J0D01*
G03X201270Y212946I-19J992D01*
G03X200278Y213938I-992J0D01*
G03X199968Y213888I1J-992D01*
G01X199850Y213850D01*
X197563Y216137D01*
X197601Y216255D01*
G03X197651Y216565I-942J311D01*
G03X196659Y217557I-992J0D01*
G03X196349Y217507I1J-992D01*
G01X196231Y217469D01*
X191700Y222000D01*
X181380D01*
X181351Y222166D01*
G03X179397I-977J-173D01*
G01X179368Y222000D01*
X128300D01*
X115815Y209515D01*
G02X115141Y209703I-284J285D01*
G03X113100Y211302I-2041J-503D01*
G03X110998Y209200I0J-2102D01*
G03X112597Y207159I2102J0D01*
G02X112785Y206485I-97J-390D01*
G01X93500Y187200D01*
X81200D01*
X80200Y188200D01*
Y220700D01*
X105413Y245913D01*
G02X105973Y245922I285J-284D01*
G03X106790Y245598I817J868D01*
G03X107982Y246790I0J1192D01*
G03X107535Y247720I-1191J0D01*
G02X107519Y248019I126J157D01*
G01X107700Y248200D01*
X110555D01*
G02X110867Y247544I0J-402D01*
G03X110598Y246790I922J-754D01*
G03X112982I1192J0D01*
G03X112713Y247544I-1191J0D01*
G02X113025Y248200I312J254D01*
G01X115555D01*
G02X115867Y247544I0J-402D01*
G03X115598Y246790I922J-754D01*
G03X117982I1192J0D01*
G03X117713Y247544I-1191J0D01*
G02X118025Y248200I312J254D01*
G01X125549D01*
X125596Y248172D01*
G03X125694Y248121I599J1031D01*
G02X125842Y247513I-171J-364D01*
G03X125598Y246790I949J-723D01*
G03X127982I1192J0D01*
G03X127713Y247544I-1191J0D01*
G02X128025Y248200I312J254D01*
G01X140555D01*
G02X140867Y247544I0J-402D01*
G03X140598Y246790I922J-754D01*
G03X142982I1192J0D01*
G03X142713Y247544I-1191J0D01*
G02X143025Y248200I312J254D01*
G01X147595D01*
X147620Y248028D01*
G03X149980I1180J173D01*
G01X150005Y248200D01*
G37*
G36*
G01X97801Y60501D02*
G02X96400I-701J1682D01*
G01X96347Y58747D01*
X98101Y58800D01*
G02Y60201I1682J701D01*
G03X97801Y60501I-300J0D01*
G37*
G36*
G01X109073Y130947D02*
G02X108260Y131760I567J1380D01*
G01X107112Y130700D01*
X108260Y129640D01*
G02X109073Y130453I1380J-567D01*
G03Y130947I-247J247D01*
G37*
G36*
G01X111069Y199339D02*
G02X110657Y198125I-1668J-111D01*
G01X111817Y197114D01*
X112860Y198260D01*
G02X111647Y199473I847J2060D01*
G03X111069Y199339I-247J-247D01*
G37*
G36*
G01X199500Y188600D02*
X200600D01*
X204800Y184400D01*
Y184000D01*
X204500Y183700D01*
Y160039D01*
G02X204040Y159642I-402J1D01*
G03X203897Y159652I-141J-982D01*
G03Y157668I0J-992D01*
G03X204040Y157678I2J992D01*
G02X204500Y157281I58J-398D01*
G01Y156420D01*
G02X204040Y156023I-402J1D01*
G03X203897Y156033I-141J-982D01*
G03Y154049I0J-992D01*
G03X204040Y154059I2J992D01*
G02X204500Y153662I58J-398D01*
G01Y141999D01*
X204342Y141964D01*
G03X203614Y141470I258J-1164D01*
G02X202933Y141495I-333J225D01*
G03X201900Y142092I-1033J-595D01*
G03X200708Y140900I0J-1192D01*
G03X201125Y139995I1192J1D01*
G02X201099Y139364I-262J-305D01*
G03X200608Y138400I701J-964D01*
G03X202992I1192J0D01*
G03X202575Y139305I-1192J-1D01*
G02X202601Y139936I262J305D01*
G03X202886Y140230I-701J964D01*
G02X203567Y140205I333J-225D01*
G03X204342Y139636I1033J595D01*
G01X204500Y139601D01*
Y98480D01*
G02X203897Y98132I-402J0D01*
G03X203300Y98292I-597J-1032D01*
G03Y95908I0J-1192D01*
G03X203897Y96068I0J1192D01*
G02X204500Y95720I201J-348D01*
G01Y76678D01*
G02X203947Y76305I-402J0D01*
G03X203500Y76392I-447J-1105D01*
G03Y74008I0J-1192D01*
G03X203947Y74095I0J1192D01*
G02X204500Y73722I151J-373D01*
G01Y64200D01*
X197689Y57389D01*
X197623Y57379D01*
G03X196621Y56377I177J-1179D01*
G01X196611Y56311D01*
X192925Y52625D01*
G02X192640Y52626I-142J142D01*
G03X191790Y52982I-850J-837D01*
G03X190598Y51790I0J-1192D01*
G03X190954Y50940I1193J0D01*
G01X191097Y50797D01*
X187783Y47483D01*
X187640Y47626D01*
G03X186790Y47982I-850J-837D01*
G03X185598Y46790I0J-1192D01*
G03X185954Y45940I1193J0D01*
G01X186097Y45797D01*
X182783Y42483D01*
X182640Y42626D01*
G03X181790Y42982I-850J-837D01*
G03X180598Y41790I0J-1192D01*
G03X180954Y40940I1193J0D01*
G01X181097Y40797D01*
X172783Y32483D01*
X172640Y32626D01*
G03X171790Y32982I-850J-837D01*
G03X170598Y31790I0J-1192D01*
G03X170954Y30940I1193J0D01*
G02X170955Y30655I-141J-143D01*
G01X170001Y29701D01*
X169917Y29702D01*
X169900D01*
G03X167865Y28128I0J-2103D01*
G02X167303Y27866I-389J101D01*
G03X166790Y27982I-513J-1076D01*
G03X165598Y26790I0J-1192D01*
G03X165954Y25940I1193J0D01*
G02X165955Y25655I-141J-143D01*
G01X162925Y22625D01*
G02X162640Y22626I-142J142D01*
G03X161790Y22982I-850J-837D01*
G03X160598Y21790I0J-1192D01*
G03X160753Y21202I1193J0D01*
G02X160404Y20602I-349J-198D01*
G01X158176D01*
G02X157827Y21202I0J402D01*
G03X157982Y21790I-1038J588D01*
G03X155598I-1192J0D01*
G03X155753Y21202I1193J0D01*
G02X155404Y20602I-349J-198D01*
G01X153176D01*
G02X152827Y21202I0J402D01*
G03X152982Y21790I-1038J588D01*
G03X150598I-1192J0D01*
G03X150753Y21202I1193J0D01*
G02X150404Y20602I-349J-198D01*
G01X148176D01*
G02X147827Y21202I0J402D01*
G03X147982Y21790I-1038J588D01*
G03X145598I-1192J0D01*
G03X145753Y21202I1193J0D01*
G02X145404Y20602I-349J-198D01*
G01X143176D01*
G02X142827Y21202I0J402D01*
G03X142982Y21790I-1038J588D01*
G03X140598I-1192J0D01*
G03X140754Y21201I1192J1D01*
G02X140404Y20600I-349J-199D01*
G01X122600D01*
X121600Y21600D01*
Y35397D01*
G02X121799Y35598I201J0D01*
G03Y37982I-9J1192D01*
G02X121600Y38183I2J201D01*
G01Y45397D01*
G02X121799Y45598I201J0D01*
G03Y47982I-9J1192D01*
G02X121600Y48183I2J201D01*
G01Y50397D01*
G02X121799Y50598I201J0D01*
G03Y52982I-9J1192D01*
G02X121600Y53183I2J201D01*
G01Y60397D01*
G02X121799Y60598I201J0D01*
G03Y62982I-9J1192D01*
G02X121600Y63183I2J201D01*
G01Y65397D01*
G02X121799Y65598I201J0D01*
G03Y67982I-9J1192D01*
G02X121600Y68183I2J201D01*
G01Y70397D01*
G02X121799Y70598I201J0D01*
G03Y72982I-9J1192D01*
G02X121600Y73183I2J201D01*
G01Y80000D01*
X173675Y132075D01*
G02X174348Y131894I284J-284D01*
G03X175500Y131008I1152J306D01*
G03X176692Y132200I0J1192D01*
G03X175806Y133352I-1192J0D01*
G02X175625Y134025I103J389D01*
G01X181000Y139400D01*
Y146109D01*
G02X181376Y146510I402J0D01*
G03Y148890I-76J1190D01*
G02X181000Y149291I26J401D01*
G01Y157506D01*
G02X181627Y157839I402J0D01*
G03X182184Y157668I557J822D01*
G03Y159652I0J992D01*
G03X181627Y159481I0J-993D01*
G02X181000Y159814I-225J333D01*
G01Y166937D01*
G03X181366Y167707I-627J770D01*
G03X181195Y168264I-993J0D01*
G01X181102Y168402D01*
X185108Y172408D01*
X185245Y172315D01*
G03X185803Y172143I558J819D01*
G03X186795Y173135I0J992D01*
G03X186623Y173693I-991J0D01*
G01X186530Y173830D01*
X186917Y174217D01*
X187055Y174124D01*
G03X187612Y173953I557J822D01*
G03X188604Y174945I0J992D01*
G03X188330Y175630I-993J0D01*
G01X194275Y181575D01*
Y185977D01*
X194622Y186324D01*
X197314D01*
G03X197863Y186551I0J777D01*
G01X199018Y187706D01*
G03X199246Y188255I-549J550D01*
G01Y188346D01*
X199500Y188600D01*
G37*
G36*
G01X198593Y188709D02*
G02X198886Y189004I499J-203D01*
G01X198469Y189465D01*
X198052Y189004D01*
G02X198345Y188709I-206J-498D01*
G03X198593I124J124D01*
G37*
G36*
G01X276149Y58400D02*
X279100D01*
X280600Y56900D01*
X280598Y56814D01*
Y56790D01*
G03X281790Y55598I1192J0D01*
G01X281814D01*
X281900Y55600D01*
X284900Y52600D01*
Y19300D01*
X283217Y17617D01*
G02X282645Y17621I-284J284D01*
G03X281790Y17982I-855J-832D01*
G03X280598Y16790I0J-1192D01*
G03X280959Y15935I1193J0D01*
G02X280963Y15363I-280J-288D01*
G01X278487Y12887D01*
X278355Y12959D01*
G03X277350Y13215I-1005J-1845D01*
G03X275248Y11113I0J-2102D01*
G01Y11104D01*
G02X274846Y10700I-402J-2D01*
G01X273787D01*
G03X272914Y11393I-1697J-1241D01*
G03X272982Y11790I-1125J397D01*
G03X270598I-1192J0D01*
G03X270803Y11121I1192J-1D01*
G03X270393Y10700I1286J-1663D01*
G01X268702D01*
X268689Y10886D01*
G03X267978Y11892I-1189J-86D01*
G03X266790Y12982I-1188J-102D01*
G03X265598Y11790I0J-1192D01*
G03X265872Y11029I1192J-1D01*
G02X265718Y10700I-155J-128D01*
G01X265282D01*
G03X263718I-782J-901D01*
G01X263228D01*
G02X262865Y11275I0J402D01*
G03X262982Y11790I-1075J515D01*
G03X261790Y12982I-1192J0D01*
G03X261450Y12932I2J-1192D01*
G02X260936Y13269I-115J386D01*
G03X258850Y15115I-2086J-256D01*
G03X256748Y13013I0J-2102D01*
G01Y12981D01*
G03X256219Y12836I42J-1191D01*
G02X255629Y13129I-193J353D01*
G03X254450Y14142I-1179J-180D01*
G03Y11758I0J-1192D01*
G03X255021Y11904I-1J1192D01*
G02X255611Y11611I193J-353D01*
G03X255715Y11275I1178J181D01*
G02X255352Y10700I-363J-173D01*
G01X253228D01*
G02X252865Y11275I0J402D01*
G03X252982Y11790I-1075J515D01*
G03X250598I-1192J0D01*
G03X250715Y11275I1192J0D01*
G02X250352Y10700I-363J-173D01*
G01X248228D01*
G02X247865Y11275I0J402D01*
G03X247982Y11790I-1075J515D01*
G03X245598I-1192J0D01*
G03X245715Y11275I1192J0D01*
G02X245352Y10700I-363J-173D01*
G01X243228D01*
G02X242865Y11275I0J402D01*
G03X242982Y11790I-1075J515D01*
G03X240598I-1192J0D01*
G03X240715Y11275I1192J0D01*
G02X240352Y10700I-363J-173D01*
G01X238914D01*
G02X238532Y11228I0J402D01*
G03X238592Y11600I-1132J373D01*
G03X237437Y12791I-1192J0D01*
G03X236790Y12982I-647J-1000D01*
G03X235598Y11790I0J-1192D01*
G03X235715Y11275I1192J0D01*
G02X235352Y10700I-363J-173D01*
G01X233228D01*
G02X232865Y11275I0J402D01*
G03X232982Y11790I-1075J515D01*
G03X230598I-1192J0D01*
G03X230715Y11275I1192J0D01*
G02X230352Y10700I-363J-173D01*
G01X228228D01*
G02X227865Y11275I0J402D01*
G03X227982Y11790I-1075J515D01*
G03X226790Y12982I-1192J0D01*
G03X225964Y12650I-1J-1192D01*
G03X225400Y12792I-564J-1049D01*
G03X224475Y12352I0J-1192D01*
G02X223879Y12321I-312J253D01*
G01X223500Y12700D01*
Y16600D01*
X223900Y17000D01*
X260598D01*
Y16798D01*
Y16790D01*
G03X262982I1192J0D01*
G03X262979Y16880I-1192J5D01*
G01X262972Y16972D01*
X275900Y29900D01*
Y45300D01*
X275100Y46100D01*
X258705D01*
X258680Y46272D01*
G03X256320I-1180J-173D01*
G01X256295Y46100D01*
X249300D01*
X245700Y49700D01*
Y50281D01*
X245831Y50329D01*
G03Y54271I-731J1971D01*
G01X245700Y54319D01*
Y57100D01*
X247000Y58400D01*
X272451D01*
G03X274300Y57298I1849J1000D01*
G03X275073Y57445I1J2102D01*
G02X275617Y57001I148J-374D01*
G03X275598Y56790I1173J-212D01*
G03X276790Y57982I1192J0D01*
G03X276241Y57848I0J-1192D01*
G02X275987Y58146I-92J178D01*
G03X276149Y58400I-1687J1254D01*
G37*
G36*
G01X261888Y340400D02*
X282700D01*
X283800Y339300D01*
Y305400D01*
X281256Y302856D01*
X281230Y302842D01*
G03X280738Y302350I560J-1052D01*
G01X280724Y302324D01*
X280600Y302200D01*
X277916D01*
X277861Y302313D01*
G03X275719I-1071J-523D01*
G01X275664Y302200D01*
X264782D01*
G03X264000Y302492I-782J-901D01*
G03X263270Y302242I0J-1191D01*
G01X263215Y302200D01*
X262916D01*
X262861Y302313D01*
G03X260719I-1071J-523D01*
G01X260664Y302200D01*
X252165D01*
G03X250235I-965J-700D01*
G01X232916D01*
X232861Y302313D01*
G03X230719I-1071J-523D01*
G01X230664Y302200D01*
X227916D01*
X227861Y302313D01*
G03X225719I-1071J-523D01*
G01X225664Y302200D01*
X224300D01*
X223800Y302700D01*
Y312316D01*
G03X224192Y313200I-801J884D01*
G03X223843Y314043I-1193J0D01*
G01X224600Y314800D01*
X274700D01*
X277600Y317700D01*
Y331500D01*
X275000Y334100D01*
X262300D01*
X255600Y327400D01*
X244600D01*
X243400Y328600D01*
Y336500D01*
X247300Y340400D01*
X253670D01*
G03X255730I1030J600D01*
G01X259712D01*
X259770Y340300D01*
G03X261830I1030J600D01*
G01X261888Y340400D01*
G37*
G36*
G01X269367Y90627D02*
G02X269197Y90457I-289J119D01*
G01X269614Y89952D01*
X270031Y90457D01*
G02X269861Y90627I119J289D01*
G03X269367I-247J-247D01*
G37*
G36*
G01X271824Y104410D02*
G02X271583Y104409I-122J284D01*
G01X271521Y103758D01*
X272173Y103820D01*
G02X272174Y104060I282J119D01*
G03X271824Y104410I-350J0D01*
G37*
G36*
G01X273798Y105201D02*
G02X273968Y105371I289J-119D01*
G01X273551Y105876D01*
X273134Y105371D01*
G02X273304Y105201I-119J-289D01*
G03X273798I247J247D01*
G37*
G36*
G01X273310Y105198D02*
G02X273551Y105199I122J-284D01*
G01X273613Y105850D01*
X272961Y105788D01*
G02X272960Y105548I-282J-119D01*
G03X273310Y105198I350J0D01*
G37*
G36*
G01X275813Y107653D02*
G02X275983Y107483I-119J-289D01*
G01X276488Y107900D01*
X275983Y108317D01*
G02X275813Y108147I-289J119D01*
G03Y107653I247J-247D01*
G37*
G36*
G01X279210Y96533D02*
G02X279040Y96363I-289J119D01*
G01X279457Y95858D01*
X279874Y96363D01*
G02X279704Y96533I119J289D01*
G03X279210I-247J-247D01*
G37*
G36*
G01X279698Y96536D02*
G02X279457Y96535I-122J284D01*
G01X279395Y95884D01*
X280047Y95946D01*
G02X280048Y96186I282J119D01*
G03X279698Y96536I-350J0D01*
G37*
G36*
G01X281184Y97324D02*
G02X281425Y97325I122J-284D01*
G01X281487Y97976D01*
X280835Y97914D01*
G02X280834Y97674I-282J-119D01*
G03X281184Y97324I350J0D01*
G37*
%LPC*%
G75*
G36*
G01X6135Y97786D02*
G02X6790Y97982I655J-996D01*
G02Y95598I0J-1192D01*
G02X6301Y95703I0J1191D01*
G02X4400Y94498I-1901J897D01*
G02Y98702I0J2102D01*
G02X6135Y97786I0J-2101D01*
G37*
G36*
G01X31234Y145736D02*
G03X30674Y145529I-187J-356D01*
G02X29000Y144397I-1674J672D01*
G02Y148003I0J1803D01*
G02X30259Y147491I0J-1804D01*
G03X30855Y147529I281J288D01*
G02X31790Y147982I935J-738D01*
G02Y145598I0J-1192D01*
G02X31234Y145736I1J1192D01*
G37*
G36*
G01X5600Y161864D02*
G02X6790Y162982I1190J-74D01*
G02X7719Y162537I0J-1192D01*
G02X9302Y160500I-519J-2037D01*
G02X5098I-2102J0D01*
G02X5600Y161864I2102J1D01*
G37*
G36*
G01X11825Y182981D02*
G02X13700Y184133I1875J-950D01*
G02Y179929I0J-2102D01*
G02X12120Y180645I0J2101D01*
G02X11790Y180598I-331J1145D01*
G02Y182982I0J1192D01*
G02X11825Y182981I-17J-1192D01*
G37*
G36*
G01X18098Y110810D02*
G02X17098Y112600I1102J1790D01*
G02X21302I2102J0D01*
G02X20302Y110810I-2102J0D01*
G01Y107956D01*
G03X20977Y107662I402J0D01*
G02X21790Y107982I813J-873D01*
G02Y105598I0J-1192D01*
G02X20977Y105918I0J1193D01*
G03X20302Y105624I-273J-294D01*
G01Y102256D01*
X20508Y102050D01*
X20677Y102220D01*
X20693Y102256D01*
G02X21790Y102982I1097J-466D01*
G02X21928Y102974I0J-1192D01*
G02X23600Y103802I1672J-1274D01*
G02X25400Y102785I0J-2101D01*
G03X26008Y102690I344J208D01*
G02X26790Y102982I782J-901D01*
G02X27654Y102611I0J-1192D01*
G03X28307Y102714I291J277D01*
G02X30200Y103902I1893J-914D01*
G02X31945Y102972I0J-2102D01*
G02X32982Y101790I-155J-1182D01*
G02X31930Y100606I-1192J0D01*
G02X30200Y99698I-1730J1194D01*
G02X28312Y100875I0J2103D01*
G03X27659Y100974I-361J-177D01*
G02X26790Y100598I-869J816D01*
G02X26060Y100848I0J1191D01*
G03X25458Y100718I-246J-318D01*
G02X23861Y99614I-1859J982D01*
G03X23627Y98931I50J-399D01*
G01X24979Y97579D01*
G02X25302Y96800I-778J-779D01*
G02X24200Y95698I-1102J0D01*
G02X23421Y96021I0J1101D01*
G01X18421Y101021D01*
G02X18098Y101800I778J779D01*
G01Y110810D01*
G37*
G36*
G01X46331Y142755D02*
G02X45607Y144200I1080J1445D01*
G02X49213I1803J0D01*
G02X48181Y142570I-1803J0D01*
G03X48136Y141869I172J-363D01*
G02X49102Y140100I-1137J-1769D01*
G02X44898I-2102J0D01*
G02X46237Y142059I2103J0D01*
G03X46331Y142755I-146J374D01*
G37*
G36*
G01X15330Y142799D02*
G02X13298Y144900I70J2101D01*
G02X17502I2102J0D01*
G02X17012Y143551I-2102J0D01*
G03X17187Y142914I308J-258D01*
G02X17982Y141790I-397J-1124D01*
G02X16790Y140598I-1192J0D01*
G02X16754Y140599I15J1192D01*
G03X16398Y139989I-12J-402D01*
G02X16702Y138900I-1799J-1089D01*
G02X16653Y138449I-2102J0D01*
G03X16981Y137967I393J-85D01*
G02X17982Y136790I-191J-1177D01*
G02X16790Y135598I-1192J0D01*
G02X15621Y136555I0J1192D01*
G03X15127Y136865I-394J-79D01*
G02X14600Y136798I-526J2035D01*
G02X13578Y137063I0J2103D01*
G03X12981Y136732I-196J-351D01*
G02X11790Y135598I-1191J58D01*
G02Y137982I0J1192D01*
G02X12066Y137950I2J-1192D01*
G03X12551Y138430I93J391D01*
G02X12498Y138900I2049J469D01*
G02X14600Y141002I2102J0D01*
G02X15162Y140926I2J-2102D01*
G03X15653Y141433I107J387D01*
G02X15598Y141790I1137J358D01*
G02X15688Y142244I1192J0D01*
G03X15330Y142799I-372J153D01*
G37*
G36*
G01X10219Y146960D02*
G03X10675Y147212I80J394D01*
G02X11790Y147982I1115J-422D01*
G02X12982Y146790I0J-1192D01*
G02X12154Y145655I-1192J0D01*
G03X11879Y145212I122J-383D01*
G02X11902Y144900I-2079J-310D01*
G02X11473Y143627I-2103J0D01*
G03X11792Y142982I320J-243D01*
G02X12982Y141790I-2J-1192D01*
G02X10598I-1192J0D01*
G02X10707Y142288I1192J0D01*
G03X10255Y142848I-366J167D01*
G02X9800Y142798I-456J2052D01*
G02Y147002I0J2102D01*
G02X10219Y146960I1J-2102D01*
G37*
G36*
G01X71732Y151759D02*
G02X71698Y152100I1668J339D01*
G02X73400Y150398I1702J0D01*
G02X73194Y150411I4J1702D01*
G03X72754Y149918I-49J-399D01*
G02X72803Y149500I-1754J-417D01*
G02X72617Y148703I-1803J1D01*
G03X73078Y148136I361J-178D01*
G02X73600Y148202I523J-2036D01*
G02X71498Y146100I0J-2102D01*
G02X71772Y147137I2102J-1D01*
G03X71345Y147730I-350J199D01*
G02X71000Y147697I-343J1770D01*
G02Y151303I0J1803D01*
G02X71277Y151282I3J-1803D01*
G03X71732Y151759I61J397D01*
G37*
G36*
G01X28400Y178708D02*
G02X28200Y178698I-205J2092D01*
G02X30302Y180800I0J2102D01*
G02X29999Y179712I-2102J-1D01*
G03X30353Y179102I344J-208D01*
G02X30400Y179103I62J-1802D01*
G02X28597Y177300I0J-1803D01*
G02X28796Y178124I1803J1D01*
G03X28400Y178708I-358J184D01*
G37*
G36*
G01X5983Y180913D02*
G02X5598Y181790I806J877D01*
G02X7982I1192J0D01*
G01Y181783D01*
G02X9802Y179700I-282J-2083D01*
G02X8212Y177661I-2102J0D01*
G03X7926Y177150I97J-390D01*
G02X7982Y176790I-1136J-361D01*
G02X7885Y176319I-1192J0D01*
G03X7976Y176062I185J-79D01*
G02X9102Y174200I-977J-1862D01*
G02X7873Y172288I-2102J0D01*
G02X7982Y171790I-1083J-498D01*
G02X7418Y170777I-1192J0D01*
G03X7448Y170076I211J-342D01*
G02X8602Y168200I-948J-1876D01*
G02X7979Y166706I-2103J0D01*
G02X6790Y165598I-1189J84D01*
G02X5730Y166244I0J1193D01*
G02X4398Y168200I770J1956D01*
G02X5865Y170204I2102J0D01*
G03X6008Y170890I-121J383D01*
G02X5598Y171790I783J900D01*
G02X5809Y172468I1192J1D01*
G02X4898Y174200I1191J1732D01*
G02X5737Y175880I2102J0D01*
G03X5785Y176149I-121J160D01*
G02X5598Y176790I1005J641D01*
G02X6061Y177733I1192J0D01*
G03X6118Y178316I-246J318D01*
G02X5598Y179700I1582J1384D01*
G02X5983Y180913I2103J0D01*
G37*
G36*
G01X62913Y181301D02*
G02X61898Y183100I1087J1799D01*
G02X66102I2102J0D01*
G02X64634Y181096I-2102J0D01*
G03X64527Y180382I121J-383D01*
G02X65303Y178900I-1027J-1482D01*
G02X63500Y177097I-1803J0D01*
G02X62277Y177575I0J1804D01*
G03X61639Y177448I-273J-295D01*
G02X60000Y176397I-1639J752D01*
G02Y180003I0J1803D01*
G02X61223Y179525I0J-1804D01*
G03X61861Y179652I273J295D01*
G02X62850Y180582I1639J-752D01*
G03X62913Y181301I-145J375D01*
G37*
G36*
G01X36192Y186685D02*
G02X34300Y185498I-1892J914D01*
G02Y189702I0J2102D01*
G02X36101Y188683I0J-2101D01*
G03X36808Y188715I345J207D01*
G02X38700Y189902I1892J-914D01*
G02Y185698I0J-2102D01*
G02X36899Y186717I0J2101D01*
G03X36192Y186685I-345J-207D01*
G37*
G36*
G01X292818Y132394D02*
G02X293000Y132402I183J-2094D01*
G02X290898Y130300I0J-2102D01*
G02X290988Y130908I2102J0D01*
G02X290598Y131790I802J882D01*
G02X291790Y132982I1192J0D01*
G02X292818Y132394I0J-1193D01*
G37*
G36*
G01X273957Y132468D02*
G03X273428Y132442I-250J-315D01*
G02X272600Y132108I-828J859D01*
G02Y134492I0J1192D01*
G02X273343Y134232I0J-1192D01*
G03X273872Y134258I250J315D01*
G02X274700Y134592I828J-859D01*
G02Y132208I0J-1192D01*
G02X273957Y132468I0J1192D01*
G37*
G36*
G01X271430Y137926D02*
G03X271691Y138433I-121J383D01*
G02X271634Y138798I1135J364D01*
G02X274018I1192J0D01*
G02X273186Y137662I-1192J0D01*
G03X272925Y137155I121J-383D01*
G02X272982Y136790I-1135J-364D01*
G02X270598I-1192J0D01*
G02X271430Y137926I1192J0D01*
G37*
G36*
G01X256369Y142905D02*
G02X257078Y143139I709J-957D01*
G02X258270Y141947I0J-1192D01*
G02X257499Y140832I-1192J0D01*
G02X256790Y140598I-709J957D01*
G02X255598Y141790I0J1192D01*
G02X256369Y142905I1192J0D01*
G37*
G36*
G01X217951Y150679D02*
G03X217419Y150777I-320J-243D01*
G02X216790Y150598I-628J1013D01*
G02Y152982I0J1192D01*
G02X217739Y152511I0J-1192D01*
G03X218271Y152413I320J243D01*
G02X218900Y152592I628J-1013D01*
G02Y150208I0J-1192D01*
G02X217951Y150679I0J1192D01*
G37*
G36*
G01X280373Y150857D02*
G03X280668Y151386I-83J393D01*
G02X280598Y151790I1122J403D01*
G02X282982I1192J0D01*
G02X282453Y150799I-1193J0D01*
G03X282377Y150198I224J-334D01*
G02X282909Y148800I-1571J-1398D01*
G02X282585Y147678I-2102J-1D01*
G02X282982Y146790I-795J-888D01*
G02X281790Y145598I-1192J0D01*
G02X280601Y146708I0J1192D01*
G02X278705Y148800I206J2092D01*
G02X280373Y150857I2102J0D01*
G37*
G36*
G01X283053Y153777D02*
G03X282778Y153820I-160J-122D01*
G02X282100Y153608I-679J980D01*
G02Y155992I0J1192D01*
G02X283047Y155523I0J-1191D01*
G03X283322Y155480I160J122D01*
G02X284000Y155692I679J-980D01*
G02Y153308I0J-1192D01*
G02X283053Y153777I0J1191D01*
G37*
G36*
G01X212948Y157072D02*
G02X212982Y156790I-1158J-283D01*
G02X210598I-1192J0D01*
G02X211042Y157718I1192J0D01*
G02X211008Y158000I1158J283D01*
G02X213392I1192J0D01*
G02X212948Y157072I-1192J0D01*
G37*
G36*
G01X257972Y161634D02*
G02X258270Y160845I-894J-789D01*
G02X255886I-1192J0D01*
G02X255896Y161001I1192J2D01*
G02X255598Y161790I894J789D01*
G02X257982I1192J0D01*
G02X257972Y161634I-1192J-2D01*
G37*
G36*
G01X267298Y159936D02*
G02X266527Y159653I-771J909D01*
G02X265335Y160845I0J1192D01*
G02X265612Y161609I1192J0D01*
G02X265598Y161790I1178J182D01*
G02X266790Y162982I1192J0D01*
G02X267943Y162091I0J-1192D01*
G02X268000Y162092I49J-1191D01*
G02Y159708I0J-1192D01*
G02X267298Y159936I-1J1192D01*
G37*
G36*
G01X224959Y168293D02*
G03X224467Y168129I-149J-374D01*
G02X223450Y167558I-1017J620D01*
G02Y169942I0J1192D01*
G02X223891Y169857I-1J-1192D01*
G03X224383Y170021I149J374D01*
G02X225400Y170592I1017J-620D01*
G02Y168208I0J-1192D01*
G02X224959Y168293I1J1192D01*
G37*
G36*
G01X241170Y170246D02*
G03X241092Y170824I-313J252D01*
G02X240598Y171790I697J966D01*
G02X242982I1192J0D01*
G02X242720Y171044I-1193J0D01*
G03X242798Y170466I313J-252D01*
G02X243292Y169500I-697J-966D01*
G02X240908I-1192J0D01*
G02X241170Y170246I1193J0D01*
G37*
G36*
G01X245847Y172519D02*
G03X245749Y173102I-318J246D01*
G02X245208Y174100I650J998D01*
G02X247592I1192J0D01*
G02X247343Y173371I-1192J0D01*
G03X247441Y172788I318J-246D01*
G02X247982Y171790I-650J-998D01*
G02X245598I-1192J0D01*
G02X245847Y172519I1192J0D01*
G37*
G36*
G01X210000Y174182D02*
G03X209482Y174384I-364J-169D01*
G02X209101Y174308I-381J917D01*
G02Y176292I0J992D01*
G02X210001Y175718I0J-993D01*
G03X210519Y175516I364J169D01*
G02X210900Y175592I381J-917D01*
G02Y173608I0J-992D01*
G02X210000Y174182I0J993D01*
G37*
G36*
G01X297510Y176738D02*
G03X297157Y177117I-402J-20D01*
G02X296108Y178300I143J1183D01*
G02X297300Y179492I1192J0D01*
G02X298490Y178362I0J-1192D01*
G03X298843Y177983I402J20D01*
G02X299892Y176800I-143J-1183D01*
G02X298700Y175608I-1192J0D01*
G02X297510Y176738I0J1192D01*
G37*
G36*
G01X285985Y178070D02*
G03X286014Y178330I-137J147D01*
G02X285808Y179000I987J670D01*
G02X288192I1192J0D01*
G02X287815Y178130I-1192J0D01*
G03X287786Y177870I137J-147D01*
G02X287992Y177200I-987J-670D01*
G02X285608I-1192J0D01*
G02X285985Y178070I1192J0D01*
G37*
G36*
G01X291210Y177438D02*
G03X290857Y177817I-402J-20D01*
G02X289808Y179000I143J1183D01*
G02X291000Y180192I1192J0D01*
G02X292190Y179062I0J-1192D01*
G03X292543Y178683I402J20D01*
G02X293592Y177500I-143J-1183D01*
G02X292400Y176308I-1192J0D01*
G02X291210Y177438I0J1192D01*
G37*
G36*
G01X289347Y181661D02*
G03X289102Y181546I-59J-192D01*
G02X288000Y180808I-1102J454D01*
G02Y183192I0J1192D01*
G02X288353Y183139I1J-1192D01*
G03X288598Y183254I59J192D01*
G02X289700Y183992I1102J-454D01*
G02Y181608I0J-1192D01*
G02X289347Y181661I-1J1192D01*
G37*
G36*
G01X294711Y182420D02*
G03X294509Y182608I-201J-13D01*
G01X294500D01*
G02Y184992I0J1192D01*
G02X295689Y183880I0J-1192D01*
G03X295891Y183692I201J13D01*
G01X295900D01*
G02Y181308I0J-1192D01*
G02X294711Y182420I0J1192D01*
G37*
G36*
G01X266703Y184669D02*
G03X266428Y184597I-101J-174D01*
G02X265400Y184008I-1028J603D01*
G02Y186392I0J1192D01*
G02X265998Y186231I0J-1191D01*
G03X266273Y186303I101J174D01*
G02X267301Y186892I1028J-603D01*
G02Y184508I0J-1192D01*
G02X266703Y184669I0J1191D01*
G37*
G36*
G01X307758Y187084D02*
G03X308111Y187512I-48J399D01*
G02X308108Y187600I1189J85D01*
G02X310492I1192J0D01*
G02X309442Y186416I-1193J0D01*
G03X309089Y185988I48J-399D01*
G02X309092Y185900I-1189J-85D01*
G02X306708I-1192J0D01*
G02X307758Y187084I1193J0D01*
G37*
G36*
G01X300088Y186630D02*
G03X299937Y187109I-375J145D01*
G02X299408Y188100I664J991D01*
G02X301792I1192J0D01*
G02X301712Y187670I-1192J-1D01*
G03X301863Y187191I375J-145D01*
G02X302324Y186596I-664J-990D01*
G03X302555Y186467I189J68D01*
G02X302800Y186492I243J-1167D01*
G02X303992Y185300I0J-1192D01*
G02X303748Y184578I-1192J1D01*
G03X303777Y184304I160J-122D01*
G02X304192Y183400I-777J-904D01*
G02X301808I-1192J0D01*
G02X302052Y184122I1192J-1D01*
G03X302023Y184396I-160J122D01*
G02X301676Y184904I777J904D01*
G03X301445Y185033I-189J-68D01*
G02X301200Y185008I-243J1167D01*
G02X300008Y186200I0J1192D01*
G02X300088Y186630I1192J1D01*
G37*
G36*
G01X234009Y190701D02*
G03X233681Y190689I-160J-122D01*
G02X232850Y190239I-831J542D01*
G02Y192223I0J992D01*
G02X233519Y191964I1J-992D01*
G03X234081Y191984I271J297D01*
G02X234800Y192292I719J-685D01*
G02X235792Y191300I0J-992D01*
G02X235479Y190577I-992J0D01*
G03X235439Y190035I275J-293D01*
G02X235651Y189422I-780J-613D01*
G02X233667I-992J0D01*
G02X233980Y190145I992J0D01*
G03X234020Y190687I-275J293D01*
G02X234009Y190701I775J620D01*
G37*
G36*
G01X289332Y191271D02*
G03X289086Y191372I-180J-89D01*
G02X288700Y191308I-385J1128D01*
G02Y193692I0J1192D01*
G02X289768Y193029I0J-1192D01*
G03X290014Y192928I180J89D01*
G02X290400Y192992I385J-1128D01*
G02Y190608I0J-1192D01*
G02X289332Y191271I0J1192D01*
G37*
G36*
G01X284508Y192206D02*
G03X284306Y192408I-201J1D01*
G01X284300D01*
G02X285492Y193600I0J1192D01*
G01Y193594D01*
G03X285694Y193392I201J-1D01*
G01X285700D01*
G02X284508Y192200I0J-1192D01*
G01Y192206D01*
G37*
G36*
G01X216183Y197574D02*
G02X216790Y197782I608J-784D01*
G02X217782Y196790I0J-992D01*
G02X217172Y195875I-991J0D01*
G02X216565Y195667I-608J784D01*
G02X215573Y196659I0J992D01*
G02X216183Y197574I991J0D01*
G37*
G36*
G01X284730Y195585D02*
G03X284470Y195614I-147J-137D01*
G02X283800Y195408I-670J987D01*
G02Y197792I0J1192D01*
G02X284670Y197415I0J-1192D01*
G03X284930Y197386I147J137D01*
G02X285600Y197592I670J-987D01*
G02Y195208I0J-1192D01*
G02X284730Y195585I0J1192D01*
G37*
G36*
G01X257419Y197803D02*
G02X258300Y198192I881J-803D01*
G02Y195808I0J-1192D01*
G02X257671Y195987I-1J1192D01*
G02X256790Y195598I-881J803D01*
G02Y197982I0J1192D01*
G02X257419Y197803I1J-1192D01*
G37*
G36*
G01X226734Y197664D02*
G03X226219Y197684I-269J-298D01*
G02X225612Y197477I-607J785D01*
G02Y199461I0J992D01*
G02X226278Y199205I1J-992D01*
G03X226793Y199185I269J298D01*
G02X227400Y199392I607J-785D01*
G02Y197408I0J-992D01*
G02X226734Y197664I-1J992D01*
G37*
G36*
G01X293205Y197655D02*
G03X293483Y198185I-99J390D01*
G02X293408Y198600I1117J416D01*
G02X295792I1192J0D01*
G02X294895Y197445I-1192J0D01*
G03X294617Y196915I99J-390D01*
G02X294692Y196500I-1117J-416D01*
G02X294686Y196383I-1192J2D01*
G03X294845Y196167I200J-19D01*
G02X295792Y195000I-246J-1167D01*
G02X295712Y194570I-1192J-1D01*
G03X295863Y194091I375J-145D01*
G02X296392Y193100I-664J-991D01*
G02X294008I-1192J0D01*
G02X294088Y193530I1192J1D01*
G03X293937Y194009I-375J145D01*
G02X293408Y195000I664J991D01*
G02X293414Y195117I1192J-2D01*
G03X293255Y195333I-200J19D01*
G02X292308Y196500I246J1167D01*
G02X293205Y197655I1192J0D01*
G37*
G36*
G01X242902Y200536D02*
G03X242345Y200735I-370J-157D01*
G02X241790Y200598I-555J1056D01*
G02Y202982I0J1192D01*
G02X242888Y202254I0J-1192D01*
G03X243445Y202055I370J157D01*
G02X244000Y202192I555J-1056D01*
G02Y199808I0J-1192D01*
G02X242902Y200536I0J1192D01*
G37*
G36*
G01X326097Y207760D02*
G02X327700Y208502I1603J-1361D01*
G02X325598Y206400I0J-2102D01*
G02X325610Y206623I2102J-1D01*
G02X325598Y206790I1180J169D01*
G02X326097Y207760I1192J0D01*
G37*
G36*
G01X224879Y206376D02*
G03X224876Y206922I-296J271D01*
G02X224608Y207600I724J678D01*
G02X226592I992J0D01*
G02X226333Y206931I-992J-1D01*
G03X226336Y206385I296J-271D01*
G02X226604Y205707I-724J-678D01*
G02X224620I-992J0D01*
G02X224879Y206376I992J1D01*
G37*
G36*
G01X304027Y206987D02*
G03X303460Y206975I-277J-291D01*
G02X302600Y206608I-860J824D01*
G02Y208992I0J1192D01*
G02X303423Y208663I1J-1192D01*
G03X303990Y208675I277J291D01*
G02X304850Y209042I860J-824D01*
G02Y206658I0J-1192D01*
G02X304027Y206987I-1J1192D01*
G37*
G36*
G01X291714Y216121D02*
G03X291418Y216550I-400J41D01*
G02X290532Y217702I306J1152D01*
G02X292916I1192J0D01*
G02X292910Y217581I-1192J-2D01*
G03X293206Y217152I400J-41D01*
G02X294092Y216000I-306J-1152D01*
G02X291708I-1192J0D01*
G02X291714Y216121I1192J2D01*
G37*
G36*
G01X247916Y217180D02*
G02X247982Y216790I-1126J-391D01*
G02X245598I-1192J0D01*
G02X246174Y217810I1191J0D01*
G02X246108Y218200I1126J391D01*
G02X248492I1192J0D01*
G02X247916Y217180I-1191J0D01*
G37*
G36*
G01X285972Y237657D02*
G02X286790Y237982I818J-867D01*
G02Y235598I0J-1192D01*
G02X286242Y235732I1J1192D01*
G02X285424Y235407I-818J867D01*
G02Y237791I0J1192D01*
G02X285972Y237657I-1J-1192D01*
G37*
G36*
G01X290634Y237082D02*
G02X291790Y237982I1156J-292D01*
G02X292982Y236790I0J-1192D01*
G02X292880Y236307I-1192J-1D01*
G02X291724Y235407I-1156J292D01*
G02X290532Y236599I0J1192D01*
G02X290634Y237082I1192J1D01*
G37*
G36*
G01X235430Y241480D02*
G03X235602Y241695I-28J199D01*
G02X235598Y241790I1188J98D01*
G02X237982I1192J0D01*
G02X236960Y240610I-1192J0D01*
G03X236788Y240395I28J-199D01*
G02X236792Y240300I-1188J-98D01*
G02X234408I-1192J0D01*
G02X235430Y241480I1192J0D01*
G37*
G36*
G01X251576Y240617D02*
G03X251347Y240475I-36J-198D01*
G02X250200Y239608I-1147J325D01*
G02Y241992I0J1192D01*
G02X250414Y241973I2J-1192D01*
G03X250643Y242115I36J198D01*
G02X251790Y242982I1147J-325D01*
G02Y240598I0J-1192D01*
G02X251576Y240617I-2J1192D01*
G37*
G36*
G01X262982Y241778D02*
G02X263492Y240800I-683J-978D01*
G02X261108I-1192J0D01*
G01Y240812D01*
G02X260598Y241790I683J978D01*
G02X262982I1192J0D01*
G01Y241778D01*
G37*
G36*
G01X332362Y242836D02*
G02X333192Y241700I-362J-1136D01*
G02X332000Y240508I-1192J0D01*
G02X331428Y240654I0J1192D01*
G02X330598Y241790I362J1136D01*
G02X331790Y242982I1192J0D01*
G02X332362Y242836I0J-1192D01*
G37*
G36*
G01X36417Y242507D02*
G03X36107Y242958I-397J59D01*
G02X34697Y244718I393J1760D01*
G02X38303I1803J0D01*
G02X38284Y244455I-1803J-2D01*
G03X38594Y244004I397J-59D01*
G02X40004Y242244I-393J-1760D01*
G02X36398I-1803J0D01*
G02X36417Y242507I1803J2D01*
G37*
G36*
G01X240370Y246112D02*
G03X240620Y246563I-145J375D01*
G02X240598Y246790I1170J228D01*
G02X242982I1192J0D01*
G02X242220Y245678I-1192J0D01*
G03X241970Y245227I145J-375D01*
G02X241992Y245000I-1170J-228D01*
G02X239608I-1192J0D01*
G02X240370Y246112I1192J0D01*
G37*
G36*
G01X330729Y247333D02*
G02X331790Y247982I1061J-543D01*
G02X332982Y246790I0J-1192D01*
G02X332161Y245657I-1192J0D01*
G02X331100Y245008I-1061J543D01*
G02X329908Y246200I0J1192D01*
G02X330729Y247333I1192J0D01*
G37*
G36*
G01X224072Y248948D02*
G03Y249452I-313J252D01*
G02X223808Y250200I928J748D01*
G02X226192I1192J0D01*
G02X225928Y249452I-1192J0D01*
G03Y248948I313J-252D01*
G02X226192Y248200I-928J-748D01*
G02X223808I-1192J0D01*
G02X224072Y248948I1192J0D01*
G37*
G36*
G01X286880Y257979D02*
G02X287982Y256790I-90J-1189D01*
G02X286790Y255598I-1192J0D01*
G02X285810Y256111I0J1193D01*
G02X284708Y257300I90J1189D01*
G02X285900Y258492I1192J0D01*
G02X286880Y257979I0J-1193D01*
G37*
G36*
G01X266546Y257957D02*
G02X267600Y258592I1054J-557D01*
G02X268792Y257400I0J-1192D01*
G02X267844Y256233I-1192J0D01*
G02X266790Y255598I-1054J557D01*
G02X265598Y256790I0J1192D01*
G02X266546Y257957I1192J0D01*
G37*
G36*
G01X252061Y257951D02*
G02X253200Y258792I1139J-351D01*
G02Y256408I0J-1192D01*
G02X252929Y256439I-1J1192D01*
G02X251790Y255598I-1139J351D01*
G02Y257982I0J1192D01*
G02X252061Y257951I1J-1192D01*
G37*
G36*
G01X257892Y255954D02*
G03X257626Y255940I-125J-157D01*
G02X256790Y255598I-836J851D01*
G02Y257982I0J1192D01*
G02X256943Y257972I-1J-1192D01*
G03X257164Y258122I26J199D01*
G02X259200Y259702I2036J-522D01*
G02X261200Y258247I0J-2102D01*
G03X261635Y257972I382J123D01*
G02X261790Y257982I154J-1182D01*
G02Y255598I0J-1192D01*
G02X260989Y255907I0J1193D01*
G03X260475Y255929I-270J-298D01*
G02X259200Y255498I-1275J1670D01*
G02X257892Y255954I-1J2102D01*
G37*
G36*
G01X301733Y257981D02*
G02X303800Y259702I2067J-381D01*
G02Y255498I0J-2102D01*
G02X302574Y255892I-1J2102D01*
G02X301790Y255598I-784J898D01*
G02X300598Y256790I0J1192D01*
G02X301733Y257981I1192J0D01*
G37*
G36*
G01X203455Y264883D02*
G03X203808Y265287I-49J399D01*
G01Y265300D01*
G02X206192I1192J0D01*
G02X205145Y264117I-1192J0D01*
G03X204792Y263713I49J-399D01*
G01Y263700D01*
G02X202408I-1192J0D01*
G02X203455Y264883I1192J0D01*
G37*
G36*
G01X207934Y267962D02*
G03X208236Y268441I-90J392D01*
G02X208208Y268700I1164J257D01*
G02X210592I1192J0D01*
G02X209666Y267538I-1192J0D01*
G03X209364Y267059I90J-392D01*
G02X209392Y266800I-1164J-257D01*
G02X207008I-1192J0D01*
G02X207934Y267962I1192J0D01*
G37*
G36*
G01X276528Y131110D02*
G02X276308Y131800I972J690D01*
G02X278692I1192J0D01*
G02X277948Y130696I-1191J0D01*
G03X277772Y130090I151J-373D01*
G02X277992Y129400I-972J-690D01*
G02X275608I-1192J0D01*
G02X276352Y130504I1191J0D01*
G03X276528Y131110I-151J373D01*
G37*
G36*
G01X325599Y141829D02*
G02X326790Y142982I1191J-39D01*
G02Y140598I0J-1192D01*
G02X326454Y140646I-1J1192D01*
G03X325949Y140171I-113J-385D01*
G02X326002Y139700I-2049J-469D01*
G02X323900Y137598I-2102J0D01*
G02X323406Y137657I1J2102D01*
G03X322928Y137146I-95J-391D01*
G02X322982Y136790I-1138J-355D01*
G02X320598I-1192J0D01*
G02X321775Y137982I1192J0D01*
G03X322112Y138595I-5J402D01*
G02X321798Y139700I1787J1105D01*
G02X321846Y140147I2102J0D01*
G03X321538Y140625I-393J85D01*
G02X320598Y141790I252J1165D01*
G02X321790Y142982I1192J0D01*
G02X322953Y142053I0J-1192D01*
G03X323434Y141750I392J89D01*
G02X323900Y141802I465J-2050D01*
G02X324989Y141498I0J-2103D01*
G03X325599Y141829I208J344D01*
G37*
G36*
G01X305733Y146239D02*
G02X305598Y146790I1057J551D01*
G02X306790Y147982I1192J0D01*
G02X307923Y147159I0J-1191D01*
G02X309602Y145100I-423J-2059D01*
G02X308018Y143063I-2102J0D01*
G03X307782Y142450I99J-390D01*
G02X307982Y141790I-992J-661D01*
G02X306790Y140598I-1192J0D01*
G02X305819Y141098I0J1193D01*
G03X305197Y141138I-327J-233D01*
G02X304322Y140755I-875J808D01*
G02X304115Y140773I-1J1192D01*
G03X303649Y140445I-70J-396D01*
G02X303648Y140437I-1182J144D01*
G03X304114Y139972I396J-69D01*
G02X304322Y139990I206J-1174D01*
G02X303130Y138798I0J-1192D01*
G02X303148Y139006I1192J2D01*
G03X302682Y139471I-396J69D01*
G02X302474Y139453I-206J1174D01*
G02Y141837I0J1192D01*
G02X302681Y141819I1J-1192D01*
G03X303147Y142147I70J396D01*
G02X304322Y143139I1175J-200D01*
G02X305293Y142639I0J-1193D01*
G03X305915Y142599I327J233D01*
G02X306156Y142799I875J-809D01*
G03X306192Y143454I-214J340D01*
G02X305398Y145100I1309J1646D01*
G02X305733Y146239I2102J0D01*
G37*
G36*
G01X251087Y155828D02*
G02X250598Y156790I702J962D01*
G02X252982I1192J0D01*
G02X252650Y155965I-1191J0D01*
G03X252703Y155362I290J-278D01*
G02X253192Y154400I-702J-962D01*
G02X250808I-1192J0D01*
G02X251140Y155225I1191J0D01*
G03X251087Y155828I-290J278D01*
G37*
G36*
G01X210354Y170747D02*
G02X210008Y171500I646J753D01*
G02X211992I992J0D01*
G02X211742Y170841I-992J-1D01*
G03X211781Y170269I300J-267D01*
G02X212127Y169516I-646J-753D01*
G02X210143I-992J0D01*
G02X210393Y170175I992J1D01*
G03X210354Y170747I-300J267D01*
G37*
G36*
G01X251666Y170604D02*
G02X250598Y171790I125J1186D01*
G02X252982I1192J0D01*
G02X252819Y171188I-1193J0D01*
G03X253124Y170586I347J-202D01*
G02X254192Y169400I-125J-1186D01*
G02X251808I-1192J0D01*
G02X251971Y170002I1193J0D01*
G03X251666Y170604I-347J202D01*
G37*
G36*
G01X304333Y174720D02*
G02X303308Y175900I167J1180D01*
G02X305692I1192J0D01*
G02X305415Y175136I-1192J0D01*
G03X305667Y174480I308J-258D01*
G02X306692Y173300I-167J-1180D01*
G02X304308I-1192J0D01*
G02X304585Y174064I1192J0D01*
G03X304333Y174720I-308J258D01*
G37*
G36*
G01X309081Y179028D02*
G02X308108Y180200I219J1172D01*
G02X310492I1192J0D01*
G02X310266Y179502I-1191J0D01*
G03X310519Y178872I326J-235D01*
G02X311492Y177700I-219J-1172D01*
G02X309108I-1192J0D01*
G02X309334Y178398I1191J0D01*
G03X309081Y179028I-326J235D01*
G37*
G36*
G01X222538Y181858D02*
G02X222508Y182100I961J242D01*
G02X223500Y181108I992J0D01*
G02X223389Y181114I-2J992D01*
G03X222955Y180616I-44J-399D01*
G02X222985Y180374I-961J-242D01*
G02X221993Y181366I-992J0D01*
G02X222104Y181360I2J-992D01*
G03X222538Y181858I44J399D01*
G37*
G36*
G01X312472Y181979D02*
G03X312926Y182307I58J398D01*
G02X314100Y183292I1174J-207D01*
G02X315178Y182609I0J-1192D01*
G03X315856Y182531I363J172D01*
G02X316790Y182982I934J-742D01*
G02Y180598I0J-1192D01*
G02X315712Y181281I0J1192D01*
G03X315034Y181359I-363J-172D01*
G02X314100Y180908I-934J742D01*
G02X313928Y180921I4J1192D01*
G03X313474Y180593I-58J-398D01*
G02X312300Y179608I-1174J207D01*
G02Y181992I0J1192D01*
G02X312472Y181979I-4J-1192D01*
G37*
G36*
G01X226391Y183379D02*
G02X225612Y183001I-779J614D01*
G02Y184985I0J992D01*
G02X226248Y184755I1J-992D01*
G03X226821Y184814I258J308D01*
G02X227600Y185192I779J-614D01*
G02Y183208I0J-992D01*
G02X226964Y183438I-1J992D01*
G03X226391Y183379I-258J-308D01*
G37*
G36*
G01X281866Y183156D02*
G02X281008Y184300I334J1144D01*
G02X283392I1192J0D01*
G02X283282Y183799I-1192J-1D01*
G03X283534Y183244I365J-169D01*
G02X284392Y182100I-334J-1144D01*
G02X282008I-1192J0D01*
G02X282118Y182601I1192J1D01*
G03X281866Y183156I-365J169D01*
G37*
G36*
G01X274362Y186991D02*
G02X274361Y187044I1191J49D01*
G02X275553Y185852I1192J0D01*
G02X275358Y185868I0J1192D01*
G03X274891Y185453I-66J-397D01*
G02X274892Y185400I-1191J-49D01*
G02X273700Y186592I-1192J0D01*
G02X273895Y186576I0J-1192D01*
G03X274362Y186991I66J397D01*
G37*
G36*
G01X268304Y190482D02*
G02X267300Y189933I-1004J644D01*
G02Y192317I0J1192D01*
G02X268315Y191749I0J-1191D01*
G03X268996Y191743I342J211D01*
G02X270000Y192292I1004J-644D01*
G02X271192Y191100I0J-1192D01*
G02X271130Y190722I-1192J1D01*
G03X271509Y190192I381J-128D01*
G02X272692Y189000I-9J-1192D01*
G02X272135Y187991I-1192J0D01*
G02X272292Y187400I-1034J-591D01*
G02X271554Y186298I-1192J0D01*
G03X271439Y186053I77J-186D01*
G02X271492Y185700I-1139J-352D01*
G02X269108I-1192J0D01*
G02X269846Y186802I1192J0D01*
G03X269961Y187047I-77J186D01*
G02X269908Y187400I1139J352D01*
G02X270465Y188409I1192J0D01*
G02X270308Y189000I1034J591D01*
G02X270370Y189378I1192J-1D01*
G03X269991Y189908I-381J128D01*
G02X268985Y190476I10J1192D01*
G03X268304Y190482I-342J-211D01*
G37*
G36*
G01X262513Y193388D02*
G02X262508Y193500I1187J109D01*
G02X263700Y192308I1192J0D01*
G02X263458Y192333I1J1192D01*
G03X262977Y191902I-81J-394D01*
G02X262982Y191790I-1187J-109D01*
G02X262409Y190771I-1193J0D01*
G03X262260Y190244I209J-344D01*
G02X262392Y189700I-1060J-545D01*
G02X261940Y188765I-1193J0D01*
G03Y188135I249J-315D01*
G02X262392Y187200I-741J-935D01*
G02X261200Y186008I-1192J0D01*
G02X261156Y186009I5J1192D01*
G03X260752Y185504I-15J-402D01*
G02X260792Y185200I-1152J-306D01*
G02X259600Y186392I-1192J0D01*
G02X259644Y186391I-5J-1192D01*
G03X260048Y186896I15J402D01*
G02X260008Y187200I1152J306D01*
G02X260460Y188135I1193J0D01*
G03Y188765I-249J315D01*
G02X260008Y189700I741J935D01*
G02X260018Y189856I1192J2D01*
G03X259640Y190310I-399J52D01*
G02X258508Y191500I59J1190D01*
G02X259700Y192692I1192J0D01*
G02X260359Y192493I0J-1191D01*
G03X260886Y192567I222J335D01*
G02X261790Y192982I904J-777D01*
G02X262032Y192957I-1J-1192D01*
G03X262513Y193388I81J394D01*
G37*
G36*
G01X277985Y194747D02*
G02X277961Y194984I1168J238D01*
G02X279153Y193792I1192J0D01*
G02X278936Y193812I0J1192D01*
G03X278468Y193337I-74J-395D01*
G02X278492Y193100I-1168J-238D01*
G02X277300Y194292I-1192J0D01*
G02X277517Y194272I0J-1192D01*
G03X277985Y194747I74J395D01*
G37*
G36*
G01X299318Y197799D02*
G02X299208Y198300I1082J500D01*
G02X301592I1192J0D01*
G02X300734Y197156I-1192J0D01*
G03X300482Y196601I113J-386D01*
G02X300592Y196100I-1082J-500D01*
G02X300366Y195402I-1191J0D01*
G03X300619Y194772I326J-235D01*
G02X301546Y193928I-219J-1172D01*
G03X301762Y193784I193J56D01*
G02X301900Y193792I138J-1184D01*
G02Y191408I0J-1192D01*
G02X300754Y192272I0J1192D01*
G03X300538Y192416I-193J-56D01*
G02X300400Y192408I-138J1184D01*
G02X299208Y193600I0J1192D01*
G02X299434Y194298I1191J0D01*
G03X299181Y194928I-326J235D01*
G02X298208Y196100I219J1172D01*
G02X299066Y197244I1192J0D01*
G03X299318Y197799I-113J386D01*
G37*
G36*
G01X308581Y198081D02*
G02X308408Y198700I1019J619D01*
G02X310792I1192J0D01*
G02X309796Y197524I-1192J0D01*
G03X309519Y196919I66J-396D01*
G02X309692Y196300I-1019J-619D01*
G02X309138Y195293I-1192J0D01*
G03X308987Y194789I216J-339D01*
G02X309092Y194300I-1086J-489D01*
G02X306708I-1192J0D01*
G02X306712Y194402I1192J4D01*
G03X306539Y194619I-200J18D01*
G02X305508Y195800I161J1181D01*
G02X306700Y196992I1192J0D01*
G02X307233Y196866I0J-1192D01*
G03X307493Y196938I90J180D01*
G02X308304Y197476I1007J-638D01*
G03X308581Y198081I-66J396D01*
G37*
G36*
G01X220803Y201694D02*
G02X220798Y201790I987J100D01*
G02X221085Y202488I992J0D01*
G02X221993Y203080I908J-400D01*
G02X222985Y202088I0J-992D01*
G02X222698Y201390I-992J0D01*
G02X221790Y200798I-908J400D01*
G02X221634Y200810I-2J992D01*
G03X221171Y200374I-63J-397D01*
G02X221176Y200278I-987J-100D01*
G02X220184Y199286I-992J0D01*
G02X219195Y200202I0J992D01*
G03X218673Y200554I-401J-31D01*
G02X218374Y200508I-299J946D01*
G02Y202492I0J992D01*
G02X219363Y201576I0J-992D01*
G03X219885Y201224I401J31D01*
G02X220184Y201270I299J-946D01*
G02X220340Y201258I2J-992D01*
G03X220803Y201694I63J397D01*
G37*
G36*
G01X253014Y218116D02*
G02X254200Y219192I1186J-116D01*
G02Y216808I0J-1192D01*
G02X253584Y216979I-1J1192D01*
G03X252976Y216674I-208J-344D01*
G02X251790Y215598I-1186J116D01*
G02Y217982I0J1192D01*
G02X252406Y217811I1J-1192D01*
G03X253014Y218116I208J344D01*
G37*
G36*
G01X305145Y219509D02*
G02X304008Y220700I55J1191D01*
G02X306392I1192J0D01*
G02X306228Y220096I-1192J-1D01*
G03X306555Y219491I346J-204D01*
G02X307692Y218300I-55J-1191D01*
G02X307397Y217515I-1192J0D01*
G03Y216985I302J-265D01*
G02X307692Y216200I-897J-785D01*
G02X305308I-1192J0D01*
G02X305603Y216985I1192J0D01*
G03Y217515I-302J265D01*
G02X305308Y218300I897J785D01*
G02X305472Y218904I1192J1D01*
G03X305145Y219509I-346J204D01*
G37*
G36*
G01X317669Y220985D02*
G02X316790Y220598I-879J805D01*
G02Y222982I0J1192D01*
G02X317852Y222331I0J-1192D01*
G03X318562Y222319I358J183D01*
G02X320400Y223402I1838J-1018D01*
G02X322502Y221300I0J-2102D01*
G02X321759Y219697I-2101J0D01*
G03X321776Y219071I260J-306D01*
G02X322602Y217400I-1277J-1671D01*
G02X321765Y215721I-2103J0D01*
G03Y215079I242J-321D01*
G02X322602Y213400I-1266J-1679D01*
G02X318398I-2102J0D01*
G02X319235Y215079I2103J0D01*
G03Y215721I-242J321D01*
G02X318398Y217400I1266J1679D01*
G02X319141Y219003I2101J0D01*
G03X319124Y219629I-260J306D01*
G02X318356Y220808I1276J1671D01*
G03X317669Y220985I-391J-94D01*
G37*
G36*
G01X48830Y223066D02*
G02X47000Y221998I-1830J1034D01*
G02Y226202I0J2102D01*
G02X48780Y225218I0J-2102D01*
G03X49470Y225234I340J214D01*
G02X51300Y226302I1830J-1034D01*
G02Y222098I0J-2102D01*
G02X49520Y223082I0J2102D01*
G03X48830Y223066I-340J-214D01*
G37*
G36*
G01X303152Y233220D02*
G02X303130Y233450I1170J228D01*
G02X304322Y232258I1192J0D01*
G01X304290D01*
G03X303878Y231846I-11J-401D01*
G01Y231814D01*
G02X301494I-1192J0D01*
G01Y231847D01*
G03X301113Y232259I-402J11D01*
G02X300969Y232275I59J1191D01*
G03X300736Y232043I-35J-198D01*
G02X300754Y231839I-1174J-206D01*
G02X298370I-1192J0D01*
G01Y231852D01*
G03X297982Y232259I-402J5D01*
G02X297952Y232260I25J1192D01*
G03X297527Y231835I-24J-401D01*
G02X297529Y231764I-1190J-69D01*
G02X295145I-1192J0D01*
G02X295147Y231837I1192J4D01*
G03X294778Y232262I-401J24D01*
G02X294665Y232276I90J1189D01*
G03X294200Y231810I-69J-396D01*
G02X294218Y231602I-1174J-206D01*
G02X291834I-1192J0D01*
G02X291852Y231809I1192J1D01*
G03X291524Y232275I-396J70D01*
G02X290532Y233450I200J1175D01*
G02X292916I1192J0D01*
G02X292898Y233243I-1192J-1D01*
G03X293226Y232777I396J-70D01*
G02X293234Y232776I-144J-1182D01*
G03X293699Y233242I69J396D01*
G02X293681Y233450I1174J206D01*
G02X296065I1192J0D01*
G02X296063Y233377I-1192J-4D01*
G03X296432Y232952I401J-24D01*
G02X296622Y232921I-96J-1188D01*
G03X296866Y233165I49J195D01*
G02X296831Y233450I1157J287D01*
G02X299215I1192J0D01*
G01Y233437D01*
G03X299603Y233030I402J-5D01*
G02X299765Y233014I-36J-1192D01*
G03X299998Y233246I35J198D01*
G02X299980Y233450I1174J206D01*
G02X302364I1192J0D01*
G01Y233417D01*
G03X302745Y233005I402J-11D01*
G02X302916Y232984I-59J-1191D01*
G03X303152Y233220I39J197D01*
G37*
G36*
G01X25041Y237554D02*
G02X24113Y237228I-929J1162D01*
G02Y240204I0J1488D01*
G02X25566Y239033I0J-1487D01*
G03X26239Y238829I393J85D01*
G02X29266Y237546I1241J-1284D01*
G01Y236886D01*
X31670D01*
G02Y233314I0J-1786D01*
G01X28479D01*
G02X25694Y234794I-999J1480D01*
G01Y237240D01*
G03X25041Y237554I-402J0D01*
G37*
G36*
G01X317761Y241098D02*
G02X316790Y240598I-971J693D01*
G02Y242982I0J1192D01*
G02X317696Y242564I0J-1191D01*
G03X318329Y242592I306J261D01*
G02X319300Y243092I971J-693D01*
G02Y240708I0J-1192D01*
G02X318394Y241126I0J1191D01*
G03X317761Y241098I-306J-261D01*
G37*
G36*
G01X131138Y255792D02*
G02X130598Y256790I652J998D01*
G02X132982I1192J0D01*
G02X132524Y255851I-1192J0D01*
G03X132552Y255198I248J-316D01*
G02X133092Y254200I-652J-998D01*
G02X130708I-1192J0D01*
G02X131166Y255139I1192J0D01*
G03X131138Y255792I-248J316D01*
G37*
G36*
G01X156180Y255766D02*
G02X155598Y256790I610J1024D01*
G02X157982I1192J0D01*
G02X157557Y255877I-1193J0D01*
G03X157610Y255224I259J-308D01*
G02X158192Y254200I-610J-1024D01*
G02X155808I-1192J0D01*
G02X156233Y255113I1193J0D01*
G03X156180Y255766I-259J308D01*
G37*
G36*
G01X320004Y256738D02*
G02X319300Y256508I-704J962D01*
G02Y258892I0J1192D01*
G02X320458Y257982I0J-1192D01*
G03X321086Y257752I391J95D01*
G02X321790Y257982I704J-962D01*
G02Y255598I0J-1192D01*
G02X320632Y256508I0J1192D01*
G03X320004Y256738I-391J-95D01*
G37*
G36*
G01X136274Y260716D02*
G02X135598Y261790I515J1074D01*
G02X137982I1192J0D01*
G02X137613Y260928I-1191J0D01*
G03X137716Y260274I277J-291D01*
G02X138392Y259200I-515J-1074D01*
G02X136008I-1192J0D01*
G02X136377Y260062I1191J0D01*
G03X136274Y260716I-277J291D01*
G37*
G36*
G01X245965Y260930D02*
G02X245598Y261790I824J860D01*
G02X247982I1192J0D01*
G02X247099Y260639I-1192J0D01*
G03X246925Y259960I104J-388D01*
G02X247292Y259100I-824J-860D01*
G02X244908I-1192J0D01*
G02X245791Y260251I1192J0D01*
G03X245965Y260930I-104J388D01*
G37*
G36*
G01X90069Y111661D02*
G03X90612Y111973I146J374D01*
G02X91790Y112982I1178J-183D01*
G02Y110598I0J-1192D01*
G01X91766D01*
G03X91364Y110117I-8J-402D01*
G02X91405Y109703I-2061J-413D01*
G02X87201I-2102J0D01*
G02X87242Y110118I2102J2D01*
G03X86834Y110599I-394J79D01*
G02X86790Y110598I-49J1191D01*
G02Y112982I0J1192D01*
G02X87969Y111966I0J-1192D01*
G03X88517Y111652I398J59D01*
G02X89303Y111805I787J-1949D01*
G02X90069Y111661I1J-2102D01*
G37*
G36*
G01X162620Y143268D02*
G02X163800Y144292I1180J-168D01*
G02Y141908I0J-1192D01*
G02X163477Y141953I1J1192D01*
G03X162970Y141622I-109J-387D01*
G02X161790Y140598I-1180J168D01*
G02Y142982I0J1192D01*
G02X162113Y142937I-1J-1192D01*
G03X162620Y143268I109J387D01*
G37*
G36*
G01X167904Y163032D02*
G02X167808Y163500I1096J469D01*
G02X170192I1192J0D01*
G02X169274Y162340I-1192J0D01*
G03X168996Y161791I92J-391D01*
G02X169092Y161323I-1096J-469D01*
G02X166708I-1192J0D01*
G02X167626Y162483I1192J0D01*
G03X167904Y163032I-92J391D01*
G37*
G36*
G01X181320Y180860D02*
G02X182184Y181365I864J-487D01*
G02Y179381I0J-992D01*
G02X181194Y180316I0J992D01*
G03X180792Y180304I-201J-11D01*
G02X180715Y179917I-992J-4D01*
G03X180881Y179417I371J-154D01*
G02X181366Y178564I-508J-853D01*
G02X179382I-992J0D01*
G02X179459Y178947I991J0D01*
G03X179293Y179447I-371J154D01*
G02X178808Y180300I508J853D01*
G02X179800Y181292I992J0D01*
G02X180633Y180839I0J-992D01*
G03X181320Y180860I337J219D01*
G37*
G36*
G01X94600Y151487D02*
G03X94166Y151905I-402J17D01*
G02X94000Y151898I-171J2095D01*
G02X96102Y154000I0J2102D01*
G02X96100Y153913I-2102J5D01*
G03X96534Y153495I402J-17D01*
G02X96700Y153502I171J-2095D01*
G02X94598Y151400I0J-2102D01*
G02X94600Y151487I2102J-5D01*
G37*
G36*
G01X94658Y161901D02*
G03X94273Y162398I-390J95D01*
G02X92198Y164500I27J2102D01*
G02X96402I2102J0D01*
G02X96342Y163999I-2102J-2D01*
G03X96727Y163502I390J-95D01*
G02X98802Y161400I-27J-2102D01*
G02X94598I-2102J0D01*
G02X94658Y161901I2102J2D01*
G37*
G36*
G01X94343Y171884D02*
G03X94086Y172462I-355J188D01*
G02X92498Y174500I514J2038D01*
G02X96702I2102J0D01*
G02X96457Y173516I-2102J1D01*
G03X96714Y172938I355J-188D01*
G02X98302Y170900I-514J-2038D01*
G02X94098I-2102J0D01*
G02X94343Y171884I2102J-1D01*
G37*
G36*
G01X176242Y202743D02*
G03X176218Y203062I-133J150D01*
G02X175762Y203897I537J835D01*
G02X177746I992J0D01*
G02X177412Y203154I-992J-1D01*
G03X177436Y202835I133J-150D01*
G02X177554Y202746I-537J-834D01*
G03X177835Y202760I133J151D01*
G02X178564Y203080I730J-672D01*
G02Y201096I0J-992D01*
G02X177910Y201342I0J992D01*
G03X177629Y201328I-133J-151D01*
G02X176900Y201008I-730J672D01*
G02X176173Y201325I0J992D01*
G03X175609Y201351I-295J-273D01*
G02X174945Y201096I-664J737D01*
G02Y203080I0J992D01*
G02X175672Y202763I0J-992D01*
G03X176236Y202737I295J273D01*
G02X176242Y202743I704J-697D01*
G37*
G36*
G01X162762Y197861D02*
G02X162100Y197608I-662J740D01*
G02Y199592I0J992D01*
G02X162853Y199246I0J-992D01*
G03X163426Y199208I305J262D01*
G02X164088Y199461I662J-740D01*
G02Y197477I0J-992D01*
G02X163335Y197823I0J992D01*
G03X162762Y197861I-305J-262D01*
G37*
G36*
G01X170240Y201440D02*
G02X169500Y201108I-740J659D01*
G02Y203092I0J992D01*
G02X170389Y202540I0J-992D01*
G03X171050Y202450I361J178D01*
G02X171790Y202782I740J-659D01*
G02Y200798I0J-992D01*
G02X170901Y201350I0J992D01*
G03X170240Y201440I-361J-178D01*
G37*
G36*
G01X151754Y202241D02*
G02X151500Y202208I-254J959D01*
G02Y204192I0J992D01*
G02X152478Y203368I0J-992D01*
G03X152977Y203047I396J67D01*
G02X153231Y203080I254J-959D01*
G02Y201096I0J-992D01*
G02X152253Y201920I0J992D01*
G03X151754Y202241I-396J-67D01*
G37*
G36*
G01X153491Y204188D02*
G02X153100Y204108I-390J912D01*
G02Y206092I0J992D01*
G02X154090Y205156I0J-992D01*
G03X154650Y204809I401J22D01*
G02X155041Y204889I390J-912D01*
G02Y202905I0J-992D01*
G02X154051Y203841I0J992D01*
G03X153491Y204188I-401J-22D01*
G37*
G36*
G01X205136Y206684D02*
G03X204588Y206597I-228J-331D01*
G02X203800Y206208I-788J604D01*
G02Y208192I0J992D01*
G02X204364Y208016I0J-992D01*
G03X204912Y208103I228J331D01*
G02X205700Y208492I788J-604D01*
G02Y206508I0J-992D01*
G02X205136Y206684I0J992D01*
G37*
G36*
G01X106063Y240846D02*
G02X105598Y241790I726J944D01*
G02X107982I1192J0D01*
G02X107450Y240797I-1193J0D01*
G03X107427Y240144I223J-335D01*
G02X107892Y239200I-726J-944D01*
G02X105508I-1192J0D01*
G02X106040Y240193I1193J0D01*
G03X106063Y240846I-223J335D01*
G37*
G36*
G01X171521Y44507D02*
G03X172179I329J231D01*
G02X173900Y45402I1721J-1207D01*
G02X175663Y44445I0J-2102D01*
G03X176337I337J219D01*
G02X178100Y45402I1763J-1145D01*
G02Y41198I0J-2102D01*
G02X176337Y42155I0J2102D01*
G03X175663I-337J-219D01*
G02X173900Y41198I-1763J1145D01*
G02X172179Y42093I0J2102D01*
G03X171521I-329J-231D01*
G02X169800Y41198I-1721J1207D01*
G02Y45402I0J2102D01*
G02X171521Y44507I0J-2102D01*
G37*
G36*
G01X160507Y46217D02*
G03X160643Y46464I-57J192D01*
G02X160598Y46790I1147J324D01*
G02X162982I1192J0D01*
G02X162623Y45937I-1193J0D01*
G03X162618Y45654I140J-144D01*
G02X163202Y44200I-1518J-1454D01*
G02X162694Y42829I-2102J-1D01*
G03Y42567I152J-131D01*
G02X162982Y41790I-904J-777D01*
G02X160598I-1192J0D01*
G02X160612Y41971I1192J-1D01*
G03X160473Y42194I-199J31D01*
G02X158998Y44200I627J2006D01*
G02X160507Y46217I2103J0D01*
G37*
G36*
G01X135213Y52317D02*
G03X135784Y52429I232J328D01*
G02X136790Y52982I1006J-639D01*
G02Y50598I0J-1192D01*
G02X136555Y50621I-2J1192D01*
G03X136079Y50287I-79J-394D01*
G02X134000Y48498I-2079J314D01*
G02X131906Y50417I0J2102D01*
G03X131718Y50600I-200J-18D01*
G02X130598Y51790I72J1190D01*
G02X131790Y52982I1192J0D01*
G02X132744Y52505I0J-1192D01*
G03X133000Y52449I161J121D01*
G02X134000Y52702I1000J-1850D01*
G02X135213Y52317I0J-2103D01*
G37*
G36*
G01X193102Y55749D02*
G03X192519Y55847I-337J-220D01*
G02X191790Y55598I-729J943D01*
G02Y57982I0J1192D01*
G02X192788Y57441I0J-1191D01*
G03X193371Y57343I337J220D01*
G02X194100Y57592I729J-943D01*
G02Y55208I0J-1192D01*
G02X193102Y55749I0J1191D01*
G37*
G36*
G01X171039Y57716D02*
G02X171790Y57982I751J-927D01*
G02Y55598I0J-1192D01*
G02X171372Y55674I1J1192D01*
G02X169400Y54298I-1972J725D01*
G02Y58502I0J2102D01*
G02X171039Y57716I0J-2102D01*
G37*
G36*
G01X162280Y60704D02*
G02X162392Y60200I-1080J-504D01*
G02X160008I-1192J0D01*
G02X160710Y61286I1191J0D01*
G02X160598Y61790I1080J504D01*
G02X162982I1192J0D01*
G02X162280Y60704I-1191J0D01*
G37*
G36*
G01X160673Y70644D02*
G03X160771Y71171I-246J318D01*
G02X160598Y71790I1019J619D01*
G02X162982I1192J0D01*
G02X162517Y70846I-1191J0D01*
G03X162419Y70319I246J-318D01*
G02X162592Y69700I-1019J-619D01*
G02X160208I-1192J0D01*
G02X160673Y70644I1191J0D01*
G37*
G36*
G01X162774Y91117D02*
G02X162892Y90600I-1074J-517D01*
G02X160508I-1192J0D01*
G02X160716Y91273I1193J0D01*
G02X160598Y91790I1074J517D01*
G02X162982I1192J0D01*
G02X162774Y91117I-1193J0D01*
G37*
G36*
G01X162871Y117291D02*
G02X162982Y116790I-1081J-502D01*
G02X160598I-1192J0D01*
G02X161019Y117699I1192J0D01*
G02X160908Y118200I1081J502D01*
G02X163292I1192J0D01*
G02X162871Y117291I-1192J0D01*
G37*
G36*
G01X197799Y138107D02*
G03X197892Y138359I-94J178D01*
G02X197808Y138800I1108J440D01*
G02X200192I1192J0D01*
G02X199551Y137743I-1192J0D01*
G03X199458Y137491I94J-178D01*
G02X199542Y137050I-1108J-440D01*
G02X197158I-1192J0D01*
G02X197799Y138107I1192J0D01*
G37*
G36*
G01X194113Y154396D02*
G03X193800Y154403I-159J-123D01*
G02X193041Y154049I-759J637D01*
G02Y156033I0J992D01*
G02X193719Y155765I0J-992D01*
G03X194255Y155754I274J294D01*
G02X194900Y155992I645J-755D01*
G02X195892Y155000I0J-992D01*
G02X195648Y154349I-992J1D01*
G03X195634Y153839I304J-264D01*
G02X195842Y153231I-785J-608D01*
G02X195615Y152600I-992J0D01*
G03X195630Y152072I310J-255D01*
G02X195892Y151400I-731J-672D01*
G02X195643Y150743I-991J0D01*
G03X195628Y150227I301J-267D01*
G02X195842Y149612I-777J-615D01*
G02X193858I-992J0D01*
G02X194107Y150269I991J0D01*
G03X194122Y150785I-301J267D01*
G02X193908Y151400I777J615D01*
G02X194135Y152031I992J0D01*
G03X194120Y152559I-310J255D01*
G02X193858Y153231I731J672D01*
G02X194102Y153882I992J-1D01*
G03X194116Y154392I-304J264D01*
G02X194113Y154396I792J597D01*
G37*
G36*
G01X192640Y159567D02*
G03X192751Y159810I-81J184D01*
G02X192708Y160100I949J289D01*
G02X194692I992J0D01*
G02X194101Y159193I-991J0D01*
G03X193990Y158950I81J-184D01*
G02X194033Y158660I-949J-289D01*
G02X192049I-992J0D01*
G02X192640Y159567I991J0D01*
G37*
G36*
G01X190515Y161156D02*
G03Y161713I-289J279D01*
G02X190239Y162400I717J687D01*
G02X192223I992J0D01*
G02X191947Y161713I-993J0D01*
G03Y161156I289J-279D01*
G02X192223Y160469I-717J-687D01*
G02X190239I-992J0D01*
G02X190515Y161156I993J0D01*
G37*
G36*
G01X194334Y167776D02*
G03X194418Y168045I-95J177D01*
G02X194308Y168500I882J454D01*
G02X195300Y169492I992J0D01*
G02X196245Y168802I0J-992D01*
G03X196481Y168667I192J61D01*
G02X196700Y168692I221J-967D01*
G02X197326Y168469I-1J-992D01*
G03X197837Y168471I254J312D01*
G02X198469Y168699I633J-764D01*
G02X199461Y167707I0J-992D01*
G02X199167Y167002I-992J0D01*
G03X199147Y166452I283J-286D01*
G02X199392Y165800I-747J-653D01*
G02X197408I-992J0D01*
G02X197834Y166614I991J0D01*
G03X197845Y166936I-115J165D01*
G01X197843Y166938D01*
G03X197332Y166936I-254J-312D01*
G02X196700Y166708I-633J764D01*
G02X196283Y166800I0J991D01*
G03X195735Y166569I-169J-365D01*
G02X194800Y165908I-935J331D01*
G02X193808Y166900I0J992D01*
G02X194334Y167776I992J0D01*
G37*
G36*
G01X195279Y172577D02*
G02X194600Y172308I-679J722D01*
G02Y174292I0J992D01*
G02X195386Y173905I0J-992D01*
G03X195980Y173858I318J246D01*
G02X196659Y174127I679J-722D01*
G02X197466Y173712I0J-992D01*
G03X198112Y173702I327J234D01*
G02X198900Y174092I788J-601D01*
G02Y172108I0J-992D01*
G02X198093Y172523I0J992D01*
G03X197447Y172533I-327J-234D01*
G02X196659Y172143I-788J601D01*
G02X195873Y172530I0J992D01*
G03X195279Y172577I-318J-246D01*
G37*
G36*
G01X200798Y181770D02*
Y181790D01*
G02X201790Y180798I992J0D01*
G02X201706Y180802I5J992D01*
G03X201270Y180393I-34J-401D01*
G01Y180373D01*
G02X200278Y181365I-992J0D01*
G02X200362Y181361I-5J-992D01*
G03X200798Y181770I34J401D01*
G37*
G36*
G01X256737Y310098D02*
G03X256474Y310641I-370J156D01*
G02X255598Y311790I316J1149D01*
G02X257982I1192J0D01*
G02X257974Y311652I-1192J0D01*
G03X258378Y311203I399J-47D01*
G01X258400D01*
G02X256597Y309400I0J-1803D01*
G02X256737Y310098I1803J1D01*
G37*
G36*
G01X264701Y311023D02*
G03X264928Y311578I-134J379D01*
G02X264808Y312100I1072J521D01*
G02X267192I1192J0D01*
G02X266399Y310977I-1192J0D01*
G03X266172Y310422I134J-379D01*
G02X266292Y309900I-1072J-521D01*
G02X263908I-1192J0D01*
G02X264701Y311023I1192J0D01*
G37*
G36*
G01X258156Y336617D02*
G03X257939Y336471I-23J-200D01*
G02X256790Y335598I-1149J320D01*
G02Y337982I0J1192D01*
G02X256934Y337973I-2J-1192D01*
G03X257151Y338119I23J200D01*
G02X258300Y338992I1149J-320D01*
G02Y336608I0J-1192D01*
G02X258156Y336617I2J1192D01*
G37*
G54D23*
X50930Y167000D03*
X40930D03*
X14200Y112600D03*
Y117600D03*
X19200D03*
X14200Y122600D03*
X19200D03*
X18200Y131400D03*
X42200Y138000D03*
X39100Y142500D03*
X66300Y140200D03*
X65100Y174600D03*
X26600Y195800D03*
X46030Y161600D03*
X287500Y132000D03*
X314500Y169200D03*
X327400Y191600D03*
X335800Y191300D03*
X31600Y220000D03*
X65800Y249100D03*
X49400Y250100D03*
X289200Y252000D03*
X66500Y101400D03*
Y106400D03*
Y111400D03*
X131400Y135400D03*
X136800Y149200D03*
X122700Y165700D03*
X130796Y167835D03*
X115400Y171900D03*
X125478Y172178D03*
X112200Y179300D03*
X124226Y183174D03*
X118289Y188137D03*
X128300Y187200D03*
X149000Y185200D03*
X112200Y188400D03*
X135300Y189300D03*
X143700Y190000D03*
X121100Y193500D03*
X125200Y197500D03*
X126700Y203300D03*
X143831Y216000D03*
X169700Y233499D03*
X141704Y46817D03*
X127500Y51700D03*
G54D25*
X57700Y144400D03*
X28100Y151700D03*
X20600Y191800D03*
X29500Y209600D03*
X43900Y238100D03*
X137100Y138800D03*
X133100Y203600D03*
X148200Y206400D03*
X94400Y214800D03*
X99600Y225400D03*
X277000Y21600D03*
X276900Y310500D03*
G54D24*
X6790Y81790D03*
X11790D03*
X21790D03*
X6790Y86790D03*
X11790D03*
X16790D03*
X21790D03*
X11790Y96790D03*
X6790Y101790D03*
X26790Y106790D03*
X11790Y131790D03*
X21790Y136790D03*
X26790D03*
X21790Y141790D03*
X26790D03*
X51790Y151790D03*
X36790Y166790D03*
X56790D03*
X66790D03*
X11790Y171790D03*
X16790D03*
X36790D03*
X41790D03*
X46790D03*
X51790D03*
X56790D03*
X11790Y176790D03*
X16790D03*
X11790Y186790D03*
X36790Y161790D03*
Y156790D03*
X251790Y121790D03*
X256790D03*
X276790D03*
X281790D03*
X286790D03*
X291790D03*
X296790D03*
X301790D03*
X306790D03*
X208400Y127000D03*
X211200Y129100D03*
X244300Y126300D03*
X264200Y129500D03*
X280600Y128800D03*
X283800Y128700D03*
X213500Y131900D03*
X246700Y129900D03*
X296790Y131790D03*
X311790D03*
X234000Y136400D03*
X242000Y134200D03*
X252400Y134400D03*
X252900Y137800D03*
X263899Y134107D03*
X286726Y137496D03*
X306790Y136790D03*
X244600Y137900D03*
X260228Y138798D03*
Y141947D03*
X266527D03*
X269676Y138798D03*
X279125D03*
X288574Y141947D03*
X285424D03*
X291724Y138798D03*
Y141947D03*
X294873Y138798D03*
Y141947D03*
X298023Y138798D03*
Y141947D03*
X311790Y141790D03*
X225000Y145600D03*
X246000Y143300D03*
X269700Y145100D03*
X272826Y145097D03*
X275976D03*
X288574D03*
X285424D03*
X291724D03*
X294873D03*
X298023D03*
X226400Y149800D03*
X247900Y146800D03*
X250100Y150100D03*
X258100D03*
X269300D03*
X302000Y148000D03*
X311790Y146790D03*
X321790D03*
X326790D03*
X229300Y153200D03*
X256100Y154200D03*
X279200Y153100D03*
X311790Y151790D03*
X321790D03*
X326790D03*
X218400Y157800D03*
X232700Y156700D03*
X272826Y157695D03*
X269676D03*
X274100Y155000D03*
X279125Y157695D03*
X287800Y155600D03*
X292400Y155800D03*
X296200D03*
X300000Y155700D03*
X321790Y156790D03*
X326790D03*
X215500Y160700D03*
X220700Y161900D03*
X235500Y159300D03*
X238200Y162000D03*
X246790Y161790D03*
X251790D03*
X275976Y160845D03*
X279125D03*
X288574D03*
X291724D03*
X305900Y162300D03*
X306300Y159000D03*
X310700Y160845D03*
X321790Y161790D03*
X224200Y164900D03*
X241800Y165000D03*
X246200Y165600D03*
X252900D03*
X263377Y163994D03*
X272826D03*
X296300Y165000D03*
X262500Y168800D03*
X271790Y166790D03*
X278200Y167400D03*
X299900Y168300D03*
X321790Y166790D03*
X227700Y172500D03*
X237500Y174100D03*
X256790Y171790D03*
X261790D03*
X263900Y174100D03*
X326790Y171790D03*
X331790D03*
X336790D03*
X230500Y175900D03*
X276700Y177300D03*
X274100Y176100D03*
X316790Y176790D03*
X326790D03*
X331790D03*
X336790D03*
X246000Y182000D03*
X254800D03*
X264500D03*
X326790Y181790D03*
X331790D03*
X336790D03*
X237700Y183900D03*
X240600Y186000D03*
X246000D03*
X254700D03*
X279153Y185137D03*
X326790Y186790D03*
X331790D03*
X336790D03*
X247800Y191000D03*
X255100D03*
X313700Y190900D03*
Y194600D03*
X251790Y196790D03*
X249000Y197000D03*
X268700Y198300D03*
X257850Y202850D03*
X236300Y207500D03*
X274900Y204300D03*
X296500Y205100D03*
X316790Y206790D03*
X331790D03*
X242300Y208000D03*
X240200Y211300D03*
X250300Y208100D03*
X252500Y211900D03*
X260228Y211403D03*
X264000Y208100D03*
X272826Y211403D03*
X269676D03*
X273900Y208100D03*
X292500Y210000D03*
X316790Y211790D03*
X326790D03*
X235500Y212700D03*
X260228Y214552D03*
X257078D03*
X263377D03*
X266527D03*
X269676D03*
X278500Y212800D03*
X284122Y215854D03*
X289876Y213250D03*
X309400Y214600D03*
X224800Y219800D03*
X257078Y217702D03*
X263377D03*
X266527D03*
X269676D03*
X296400Y219800D03*
X316790Y216790D03*
X326790D03*
X226790Y221790D03*
X245400Y222600D03*
X265300Y222500D03*
X272400D03*
X276790Y221790D03*
X284500Y220700D03*
X288574Y220400D03*
X301400Y221900D03*
X326790Y221790D03*
X331790D03*
X223700Y228400D03*
X231790Y226790D03*
X243000Y225700D03*
X264700Y226400D03*
X269200Y227500D03*
X278600D03*
X281790Y226790D03*
X286790D03*
X299900Y224400D03*
X306790Y226790D03*
X316790D03*
X326790D03*
X336790D03*
X226790Y231790D03*
X234000Y228900D03*
X236790Y231790D03*
X260214Y230286D03*
X257078Y230300D03*
X263377D03*
X266527D03*
X269676D03*
X288574D03*
X285424D03*
X306790Y231790D03*
X316790D03*
X326790D03*
X336790D03*
X238900Y234000D03*
X253600Y234100D03*
X258926Y234752D03*
X263377Y236599D03*
Y233450D03*
X266693Y233457D03*
X272826Y236599D03*
X269676D03*
Y233450D03*
X275976D03*
X279125Y236599D03*
X288574Y233450D03*
X285424D03*
X294873Y236599D03*
X301172D03*
X332000Y233100D03*
X231790Y236790D03*
X237300Y237900D03*
X253100Y238000D03*
X316790Y236790D03*
X331900Y238600D03*
X49172Y242162D03*
X71790Y241790D03*
X231500Y244400D03*
X241790Y241790D03*
X246790D03*
X276790D03*
X286790D03*
X296790D03*
X336790D03*
X49100Y245200D03*
X71790Y246790D03*
X76790D03*
X246790D03*
X256790D03*
X271790D03*
X276790D03*
X281790D03*
X311790D03*
X336790D03*
X42760Y253134D03*
Y250135D03*
X76790Y251790D03*
X153750Y252350D03*
X296790Y251790D03*
X301790D03*
X306790D03*
X320800Y249300D03*
X326790Y251790D03*
X331790D03*
X336790D03*
X76790Y256790D03*
X92900Y253200D03*
X96790Y256790D03*
X101790D03*
X106790D03*
X116790D03*
X141790D03*
X160900Y256000D03*
X166790Y256790D03*
X171790D03*
X230100Y255300D03*
X271790Y256790D03*
X276790D03*
X281790D03*
X291790D03*
X296790D03*
X326790D03*
X331790D03*
X336790D03*
X40600Y261323D03*
Y258200D03*
X219800Y258000D03*
X223800Y257400D03*
X228200Y257600D03*
X71790Y261790D03*
X76790D03*
X96790D03*
X101790D03*
X106790D03*
X116790D03*
X126790D03*
X142600Y263400D03*
X151790Y261790D03*
X156790D03*
X166790D03*
X171790D03*
X185400Y262700D03*
X189100Y262300D03*
X193000D03*
X210800Y262200D03*
X236790Y261790D03*
X241200Y263500D03*
X252700Y264800D03*
X268000Y264900D03*
X285900Y264500D03*
X304400Y264200D03*
X316790Y261790D03*
X321790D03*
X326790D03*
X331790D03*
X71790Y266790D03*
X76790D03*
X89900Y265800D03*
X93500D03*
X96790Y266790D03*
X101790D03*
X106790D03*
X116790D03*
X121790D03*
X131790D03*
X141790D03*
X151790D03*
X156790D03*
X166790D03*
X171790D03*
X176790D03*
X185400Y266500D03*
X188600Y267900D03*
X198800Y268500D03*
X212300Y268600D03*
X236790Y266790D03*
X241790D03*
X309000Y268000D03*
X311790Y266790D03*
X316790D03*
X321790D03*
X326790D03*
X331790D03*
X71790Y86790D03*
X76790D03*
X91790D03*
X96790D03*
X101790D03*
X106790D03*
X111790D03*
X116790D03*
X66790Y91790D03*
X71790D03*
X76790D03*
X91790D03*
X96790D03*
X101790D03*
X106790D03*
X111790D03*
X116790D03*
X121790D03*
X91790Y96790D03*
X96790D03*
X101790D03*
X106790D03*
X111790D03*
X116790D03*
X121790D03*
X126790D03*
X71790Y101790D03*
X76790D03*
X96790D03*
X101790D03*
X106790D03*
X111790D03*
X116790D03*
X121790D03*
X126790D03*
X56790Y106790D03*
X61790D03*
X71790D03*
X101790D03*
X106790D03*
X111790D03*
X116790D03*
X121790D03*
X126790D03*
X136790D03*
X56790Y111790D03*
X61790D03*
X71790D03*
X106790D03*
X111790D03*
X116790D03*
X121790D03*
X126790D03*
X136790D03*
X141790D03*
X111790Y116790D03*
X116790D03*
X121790D03*
X126790D03*
X141790D03*
X146790D03*
X136790Y121790D03*
X146790D03*
X121790Y126790D03*
X146790D03*
X126790Y131790D03*
X146790D03*
X161790D03*
Y136790D03*
X168900Y143300D03*
X172800Y147600D03*
X167900Y158200D03*
X165900Y165100D03*
X106790Y141790D03*
X91790Y146790D03*
X101790D03*
X136790Y216790D03*
X117500Y230100D03*
X132900D03*
X161400Y230300D03*
X211790Y231790D03*
X118600Y233500D03*
X132750Y233450D03*
X138800Y236600D03*
X160700Y234000D03*
X176300Y235300D03*
X104600Y237100D03*
X111790Y236790D03*
X161790D03*
X179100Y237600D03*
X111790Y241790D03*
X122100Y244100D03*
X131790Y241790D03*
X144000Y242300D03*
X141790Y26790D03*
X146790D03*
X151790D03*
X156790D03*
X161790D03*
X126790Y31790D03*
X131790D03*
X141790D03*
X146790D03*
X151790D03*
X156790D03*
X161790D03*
X166790D03*
X126790Y36790D03*
X131790D03*
X146790D03*
X156790Y41790D03*
X126790Y46790D03*
X131790D03*
X136790D03*
X141790Y51790D03*
X161790D03*
X186790D03*
X161790Y56790D03*
X176790D03*
X186790D03*
X126790Y61790D03*
X131790D03*
X136790D03*
X141790D03*
X146790D03*
X126790Y66790D03*
X131790D03*
X136790D03*
X141790D03*
X146790D03*
X161790D03*
X126790Y71790D03*
X131790D03*
X136790D03*
X141790D03*
X146790D03*
X169400Y69700D03*
X181900Y69100D03*
X184400Y71200D03*
X131790Y86790D03*
X136790D03*
X161790D03*
X202300Y85200D03*
X136790Y91790D03*
X141790D03*
X169200Y90500D03*
X176400Y88700D03*
X179500Y88800D03*
X141790Y96790D03*
X161790D03*
X198500Y100100D03*
X201800Y100200D03*
X146790Y101790D03*
X161790D03*
X190900Y103400D03*
X161790Y106790D03*
Y111790D03*
X176300Y113000D03*
X179500D03*
X201800Y112300D03*
X183300Y113257D03*
X187100D03*
X190900D03*
X194700D03*
X198500D03*
X169100Y118100D03*
X196200Y123100D03*
X200400D03*
X179600Y134800D03*
X193600Y141200D03*
X190800Y142600D03*
X266790Y16790D03*
X281790Y46790D03*
X259300Y50200D03*
X272200Y50500D03*
X270600Y52900D03*
X281790Y51790D03*
X251790Y306790D03*
X262200Y309700D03*
X226790Y311790D03*
X231790D03*
X236790D03*
X251790D03*
X281800Y316000D03*
X246790Y336790D03*
X272400Y337900D03*
G54D26*
X211135Y165898D03*
X214754D03*
X217200Y164900D03*
X214754Y169516D03*
X212945Y167707D03*
X218373Y169516D03*
X216564Y167707D03*
X214754Y173135D03*
X218374Y173136D03*
X216564Y171326D03*
X221993Y173136D03*
X214755Y176755D03*
X216565Y174946D03*
X220184D03*
Y178565D03*
X221993Y176755D03*
X223802Y174946D03*
X227421Y178565D03*
X220184Y182184D03*
X212946Y185803D03*
X218374Y183993D03*
X223802Y185803D03*
X214755Y187612D03*
X218374Y191231D03*
X221993Y187612D03*
X226400Y189400D03*
X223900Y191200D03*
X240088Y191231D03*
X220184Y193041D03*
X227421D03*
X224000Y194700D03*
X231040Y193041D03*
X221993Y198469D03*
X231040Y196659D03*
X227800Y202200D03*
X229231Y200149D03*
X216565Y203897D03*
X220184Y207516D03*
X223802Y203897D03*
X229231Y205707D03*
X238600Y204100D03*
X221993Y209326D03*
X227421Y211135D03*
X223802D03*
X230800Y211600D03*
X223802Y214754D03*
X225612Y212945D03*
X171327Y169516D03*
X173136Y167707D03*
X167707Y173136D03*
X169516Y171327D03*
X171326Y173136D03*
X173136Y171326D03*
X174946Y173135D03*
X169516Y174946D03*
X172900Y178200D03*
X173135Y174946D03*
X176755Y174945D03*
X178565Y176754D03*
X181790Y186790D03*
X153231Y191231D03*
X149612D03*
X151422Y189422D03*
X156850Y191231D03*
X145993Y194850D03*
X147803Y193041D03*
X153231Y194850D03*
X151422Y193041D03*
X147803Y196659D03*
X153231Y198469D03*
X149612D03*
X151422Y196659D03*
X155041D03*
X158660D03*
X164088Y202088D03*
X187611Y200278D03*
X189422Y202089D03*
X156850Y205707D03*
X158660Y207516D03*
X160469Y205707D03*
X158660Y203897D03*
X162279Y207516D03*
X164088Y205707D03*
X165898Y203897D03*
X162279D03*
X166790Y206790D03*
X173135Y203897D03*
X180373Y207516D03*
X182183Y205707D03*
X183993Y207517D03*
X189422Y205708D03*
X193041D03*
X191231Y207517D03*
Y203898D03*
X194850Y207517D03*
X160469Y209326D03*
X165898Y211135D03*
X162279D03*
X164088Y209326D03*
X169516Y211135D03*
X167707Y209326D03*
X171326D03*
X178564D03*
X182184Y209327D03*
X189422D03*
X187612Y211136D03*
X193041Y209327D03*
X191231Y211136D03*
X196659Y209327D03*
X194850Y211136D03*
X164088Y212945D03*
X173135Y214754D03*
X176755Y214755D03*
X185803Y212946D03*
X183993Y214755D03*
X187612D03*
X174946Y216565D03*
X185803D03*
X202089Y193041D03*
Y200278D03*
X203898Y202088D03*
X206000Y210900D03*
X209326Y211136D03*
X211136Y209326D03*
X205707Y214755D03*
X203897Y212946D03*
X216565Y214754D03*
X198469Y218374D03*
X196659Y220184D03*
X201790Y216790D03*
X200278Y220184D03*
X211790Y216790D03*
X214754Y216565D03*
Y220184D03*
X216564Y218374D03*
X198469Y221993D03*
X196659Y223802D03*
X200278D03*
X209326Y221993D03*
X214754Y223802D03*
X216564Y221993D03*
X183993Y225612D03*
X198469D03*
X196659Y227421D03*
X202088Y225612D03*
X214200Y227700D03*
X181100Y231900D03*
X185803Y231040D03*
X183993Y229231D03*
X191231D03*
X203897Y231040D03*
X207516D03*
X185803Y234659D03*
X189422D03*
X193041D03*
X198469Y232850D03*
X194850Y236469D03*
X202088D03*
Y232850D03*
X200278Y234659D03*
X205707Y232850D03*
X203897Y234659D03*
X185800Y237400D03*
X191231Y240088D03*
X198469D03*
X196659Y238278D03*
X191800Y243200D03*
X196659Y241897D03*
X195000Y246800D03*
X193041Y147803D03*
X189422Y151422D03*
X187612Y153231D03*
Y156850D03*
X189422Y155041D03*
X202088Y156850D03*
X183993Y160469D03*
X187600Y161900D03*
X196659Y162279D03*
Y158660D03*
X183993Y164088D03*
X200278Y169516D03*
X192900Y171500D03*
X200278Y176754D03*
%LPD*%
G75*
G36*
G01X19554Y110832D02*
G02X20260Y111540I1199J-489D01*
G01X19200Y112725D01*
X18140Y111540D01*
G02X18846Y110832I-493J-1197D01*
G03X19554I354J354D01*
G37*
G36*
G01X195385Y198710D02*
G02X195800Y198711I209J-497D01*
G01X195831Y199331D01*
X195211Y199300D01*
G02X195210Y198885I-498J-206D01*
G03X195385Y198710I175J0D01*
G37*
G36*
G01X197074Y202679D02*
G02X196659Y202678I-209J498D01*
G01X196628Y202058D01*
X197248Y202089D01*
G02X197249Y202504I499J206D01*
G03X197074Y202679I-175J0D01*
G37*
G54D10*
X3000Y69200D03*
X3200Y77900D03*
Y83900D03*
Y89900D03*
X9401Y42901D03*
X9200Y77900D03*
Y83900D03*
Y89900D03*
X14401Y42901D03*
X15200Y77900D03*
Y83900D03*
X19401Y42901D03*
X25100Y39200D03*
X34901Y34101D03*
X44701D03*
X54701D03*
X64701D03*
X72800Y33400D03*
X72500Y161200D03*
X76500D03*
X72500Y165200D03*
X76500D03*
X79200Y35100D03*
X80500Y161200D03*
Y165200D03*
X84500Y161200D03*
Y165200D03*
X85000Y35100D03*
X96400Y58800D03*
X102200Y58500D03*
X123300Y22000D03*
Y28000D03*
Y34000D03*
X129300Y22000D03*
Y28000D03*
Y34000D03*
X135300Y22000D03*
Y28000D03*
Y34000D03*
X335100Y107300D03*
X341100D03*
X347100D03*
G54D20*
G01X179200Y157600D02*
Y140900D01*
X98764Y60464D01*
X98064D01*
X96400Y58800D01*
G54D11*
G01X3000Y69200D02*
Y44500D01*
G03X8400Y39100I5400J0D01*
G01X21100D01*
X21200Y39200D01*
X25100D01*
G01X272800Y76100D02*
X277600D01*
X277700Y76200D01*
G01Y80800D02*
X272800D01*
G01X277700Y76200D02*
X283000D01*
G01X277700D02*
Y80800D01*
G01D02*
X282600D01*
X282900Y80500D01*
X4400Y96600D03*
X6200Y156300D03*
X4000Y273200D03*
X4100Y296000D03*
X7000Y58800D03*
X9800Y144900D03*
X7200Y160500D03*
X6500Y168200D03*
X7000Y174200D03*
X7700Y179700D03*
X8600Y334700D03*
X12000Y58700D03*
X14200Y112600D03*
Y117600D03*
Y122600D03*
X13700Y182031D03*
X16700Y58800D03*
X18200Y131400D03*
X14600Y138900D03*
X15400Y144900D03*
X18600Y323000D03*
X19000Y28700D03*
X20800Y58800D03*
X19200Y112600D03*
Y117600D03*
Y122600D03*
X19100Y344600D03*
X24600Y58800D03*
X23600Y101700D03*
X26600Y195800D03*
X28400Y58800D03*
X30200Y101800D03*
X28200Y180800D03*
X28500Y296000D03*
X34900Y122400D03*
X34100Y135000D03*
X34200Y138600D03*
X32800Y183500D03*
X34300Y187600D03*
X31600Y220000D03*
X39000Y105600D03*
Y110600D03*
Y115600D03*
X39100Y142500D03*
X38700Y187800D03*
X35800Y203500D03*
Y208500D03*
Y213500D03*
X40200Y49400D03*
X39600Y56600D03*
X42200Y138000D03*
X39400Y135600D03*
X40930Y167000D03*
X40800Y203500D03*
Y208500D03*
Y213500D03*
X41400Y345200D03*
X46900Y51400D03*
X44000Y105600D03*
Y110600D03*
Y115600D03*
X47000Y140100D03*
X46030Y161600D03*
X45800Y203500D03*
Y208500D03*
Y213500D03*
X47000Y224100D03*
X47400Y290000D03*
X45400Y328600D03*
X49300Y78200D03*
X49000Y105600D03*
Y110600D03*
Y115600D03*
X50930Y167000D03*
X51300Y224200D03*
X49400Y250100D03*
X51300Y278700D03*
X55300Y51200D03*
X52800Y96100D03*
X54200Y188200D03*
X52900Y211900D03*
X55600Y274300D03*
Y278600D03*
X55500Y345600D03*
X56300Y135400D03*
X56200Y139100D03*
X57700Y183100D03*
X57900Y211900D03*
X63900Y51300D03*
X62000Y209400D03*
Y214400D03*
X66500Y101400D03*
Y106400D03*
Y111400D03*
X64700Y115800D03*
X67200Y129500D03*
X66300Y140200D03*
X65100Y174600D03*
X64000Y183100D03*
X67000Y199400D03*
Y204400D03*
Y209400D03*
Y214400D03*
X65800Y249100D03*
X66900Y318400D03*
X64100Y329000D03*
X72000Y51700D03*
Y195200D03*
Y199400D03*
Y204400D03*
Y209400D03*
Y214400D03*
X74800Y134100D03*
X73600Y146100D03*
X72600Y345300D03*
X78700Y50900D03*
X78000Y134000D03*
X80300Y329000D03*
X82400Y127500D03*
Y132500D03*
Y137500D03*
X81900Y189100D03*
Y194100D03*
Y199100D03*
X87400Y127500D03*
Y132500D03*
Y137500D03*
X86900Y189100D03*
Y194100D03*
Y199100D03*
X89303Y109703D03*
X92400Y127500D03*
Y132500D03*
Y137500D03*
X91900Y189100D03*
Y194100D03*
Y199100D03*
X89800Y344400D03*
X95000Y44400D03*
X96700Y151400D03*
X94000Y154000D03*
X96700Y161400D03*
X94300Y164500D03*
X96200Y170900D03*
X94600Y174500D03*
X95700Y271700D03*
X100500Y44400D03*
X98900Y329200D03*
X97700Y339200D03*
X102100Y154637D03*
X107200Y130700D03*
X105500Y290000D03*
X110800Y52300D03*
X112200Y179300D03*
Y188400D03*
X111800Y197200D03*
X113100Y209200D03*
X113069Y360320D03*
X115832Y149600D03*
X115400Y171900D03*
X119000Y51900D03*
X118289Y188137D03*
X121100Y193500D03*
X118974Y360320D03*
X122700Y165700D03*
X125478Y172178D03*
X124226Y183174D03*
X125200Y197500D03*
X125500Y236300D03*
X122400Y239100D03*
X124880Y360320D03*
X127500Y51700D03*
X128300Y187200D03*
X126700Y203300D03*
X131400Y135400D03*
X130796Y167835D03*
X130785Y360320D03*
X134000Y50600D03*
X135500Y114900D03*
X136800Y149200D03*
X136600Y165600D03*
X135300Y189300D03*
X136400Y310400D03*
X141704Y46817D03*
X143278Y8825D03*
X146100Y87000D03*
X145700Y98500D03*
X142908Y128592D03*
X142200Y171300D03*
X143700Y190000D03*
X143831Y216000D03*
X142700Y306000D03*
X142596Y360320D03*
X150400Y180600D03*
X149000Y185200D03*
X155400Y341100D03*
X161100Y44200D03*
X169900Y27600D03*
X169800Y43300D03*
X169400Y56400D03*
X169700Y233499D03*
X173900Y43300D03*
X176700Y27000D03*
X178100Y43300D03*
X201351Y46815D03*
X204696Y8825D03*
X225900Y14900D03*
X226400Y304900D03*
X229900Y14900D03*
X230400Y304900D03*
X233900Y14900D03*
X234400Y304900D03*
X245100Y52300D03*
X253400Y32500D03*
X254300Y76700D03*
X253900Y320500D03*
X258850Y13013D03*
X259200Y257600D03*
X266300Y240600D03*
X266200Y244700D03*
X272090Y9459D03*
X272800Y76100D03*
Y80800D03*
X270200Y352300D03*
X277350Y11113D03*
X274300Y59400D03*
X277700Y76200D03*
Y80800D03*
X280807Y148800D03*
X278100Y224600D03*
X282400Y9300D03*
X283000Y76200D03*
X282900Y80500D03*
X288800Y80600D03*
X287500Y132000D03*
X289200Y252000D03*
X293460Y98740D03*
X293200Y107300D03*
X293000Y130300D03*
X294900Y81500D03*
X295100Y86200D03*
X295000Y91900D03*
X300700Y86100D03*
X300600Y91900D03*
X303800Y257600D03*
X307500Y145100D03*
X314500Y165000D03*
Y169200D03*
X320900Y195400D03*
Y199000D03*
X320500Y213400D03*
Y217400D03*
X320400Y221300D03*
X323900Y139700D03*
X327400Y191600D03*
X327700Y206400D03*
X335800Y191300D03*
X342800Y20900D03*
X343100Y279700D03*
X343700Y293600D03*
X343600Y313200D03*
Y323400D03*
X343700Y334400D03*
X343900Y341300D03*
X343000Y359800D03*
X346900Y96900D03*
X344300Y306100D03*
X349100Y41400D03*
X348700Y47600D03*
X348500Y53400D03*
X348700Y59200D03*
Y65400D03*
Y71900D03*
X348400Y77700D03*
X348300Y83500D03*
X356200Y44900D03*
X355900Y307900D03*
X353600Y341800D03*
X357500Y83600D03*
X358200Y314200D03*
X358100Y337800D03*
X359600Y357100D03*
X362300Y31619D03*
X360600Y51600D03*
X361200Y79400D03*
X368200Y312400D03*
X367600Y336100D03*
X370200Y51600D03*
X370700Y79800D03*
X370500Y307400D03*
X370700Y339000D03*
G54D21*
G01X52800Y96100D02*
X55800D01*
X77900Y74000D01*
X110600D01*
X176800Y140200D01*
Y160006D01*
G01X107200Y130700D02*
X109800D01*
X154603Y175503D01*
Y182203D01*
G01X111800Y197200D02*
X111605D01*
Y197495D01*
X111400Y197700D01*
Y200600D01*
X131100Y220300D01*
X167407D01*
G01X269614Y90040D02*
Y91332D01*
X269200Y91746D01*
Y104800D01*
X272300Y107900D01*
X276400D01*
G01X271583Y103820D02*
X273551Y105788D01*
G01X279457Y95946D02*
Y98590D01*
X273551Y104496D01*
Y105788D01*
G01X279457Y95946D02*
X281425Y97914D01*
G54D12*
X6790Y11790D03*
Y16790D03*
Y21790D03*
Y26790D03*
Y51790D03*
Y56790D03*
Y61790D03*
Y81790D03*
Y86790D03*
Y96790D03*
Y101790D03*
Y161790D03*
Y166790D03*
Y171790D03*
Y176790D03*
Y181790D03*
Y191790D03*
Y196790D03*
Y206790D03*
Y221790D03*
Y296790D03*
Y316790D03*
Y331790D03*
Y336790D03*
Y351790D03*
Y356790D03*
Y361790D03*
Y366790D03*
Y371790D03*
Y376790D03*
Y381790D03*
X11790Y6790D03*
Y11790D03*
Y26790D03*
Y31790D03*
Y51790D03*
Y56790D03*
Y61790D03*
Y81790D03*
Y86790D03*
Y96790D03*
Y131790D03*
Y136790D03*
Y141790D03*
Y146790D03*
Y171790D03*
Y176790D03*
Y181790D03*
Y186790D03*
Y196790D03*
Y206790D03*
Y291790D03*
Y306790D03*
Y311790D03*
Y331790D03*
Y336790D03*
Y351790D03*
Y356790D03*
Y361790D03*
Y376790D03*
Y381790D03*
X16790Y6790D03*
Y26790D03*
Y31790D03*
Y46790D03*
Y56790D03*
Y61790D03*
Y86790D03*
Y136790D03*
Y141790D03*
Y171790D03*
Y176790D03*
Y321790D03*
Y326790D03*
Y341790D03*
Y346790D03*
Y351790D03*
Y356790D03*
Y361790D03*
Y381790D03*
Y386790D03*
X21790Y6790D03*
Y26790D03*
Y31790D03*
Y46790D03*
Y56790D03*
Y71790D03*
Y76790D03*
Y81790D03*
Y86790D03*
Y101790D03*
Y106790D03*
Y136790D03*
Y141790D03*
X19831Y243157D03*
X19500Y245900D03*
X19830Y252195D03*
Y255194D03*
X21790Y301790D03*
Y306790D03*
Y316790D03*
Y321790D03*
Y326790D03*
Y341790D03*
Y346790D03*
Y351790D03*
Y356790D03*
Y361790D03*
Y381790D03*
Y386790D03*
X26790Y6790D03*
Y11790D03*
Y16790D03*
Y21790D03*
Y26790D03*
Y31790D03*
Y56790D03*
Y61790D03*
Y66790D03*
Y81790D03*
Y101790D03*
Y106790D03*
Y136790D03*
Y141790D03*
Y306790D03*
Y311790D03*
Y316790D03*
Y331790D03*
Y336790D03*
Y351790D03*
Y356790D03*
Y361790D03*
Y366790D03*
Y371790D03*
Y376790D03*
Y381790D03*
Y386790D03*
X31790Y16790D03*
Y31790D03*
Y41790D03*
Y101790D03*
Y146790D03*
Y331790D03*
Y336790D03*
Y351790D03*
Y356790D03*
Y361790D03*
Y366790D03*
Y371790D03*
Y376790D03*
Y381790D03*
Y386790D03*
X36790Y6790D03*
Y11790D03*
Y41790D03*
Y56790D03*
Y61790D03*
Y71790D03*
Y76790D03*
Y86790D03*
Y91790D03*
Y121790D03*
Y156790D03*
Y161790D03*
Y166790D03*
Y171790D03*
Y321790D03*
Y326790D03*
Y331790D03*
Y336790D03*
Y341790D03*
Y346790D03*
Y351790D03*
Y356790D03*
Y361790D03*
Y366790D03*
Y371790D03*
Y376790D03*
Y386790D03*
X41790Y6790D03*
Y11790D03*
Y31790D03*
Y46790D03*
Y51790D03*
Y56790D03*
Y71790D03*
Y86790D03*
Y91790D03*
Y121790D03*
Y171790D03*
X40600Y258200D03*
Y261323D03*
X41790Y321790D03*
Y326790D03*
Y331790D03*
Y341790D03*
Y346790D03*
Y351790D03*
Y356790D03*
Y361790D03*
Y366790D03*
Y371790D03*
Y376790D03*
X42760Y250135D03*
Y253134D03*
X46790Y6790D03*
Y11790D03*
Y16790D03*
Y21790D03*
Y46790D03*
Y51790D03*
Y56790D03*
Y61790D03*
Y66790D03*
Y71790D03*
Y86790D03*
Y171790D03*
X49172Y242162D03*
X49100Y245200D03*
X46790Y326790D03*
Y331790D03*
Y341790D03*
Y346790D03*
Y351790D03*
Y356790D03*
Y361790D03*
Y366790D03*
Y371790D03*
Y376790D03*
Y386790D03*
X51790Y6790D03*
Y11790D03*
Y16790D03*
Y21790D03*
Y31790D03*
Y36790D03*
Y41790D03*
Y46790D03*
Y51790D03*
Y56790D03*
Y61790D03*
Y66790D03*
Y71790D03*
Y91790D03*
Y151790D03*
Y171790D03*
Y331790D03*
Y341790D03*
Y346790D03*
Y351790D03*
Y356790D03*
Y361790D03*
Y366790D03*
Y371790D03*
X56790Y6790D03*
Y11790D03*
Y46790D03*
Y51790D03*
Y56790D03*
Y61790D03*
Y66790D03*
Y71790D03*
Y86790D03*
Y91790D03*
Y106790D03*
Y111790D03*
Y116790D03*
Y121790D03*
Y126790D03*
Y166790D03*
Y171790D03*
X58357Y318300D03*
X56790Y341790D03*
Y346790D03*
Y351790D03*
Y356790D03*
Y361790D03*
Y366790D03*
Y371790D03*
Y376790D03*
Y386790D03*
X61790Y6790D03*
Y11790D03*
Y26790D03*
Y31790D03*
Y46790D03*
Y51790D03*
Y56790D03*
Y61790D03*
Y66790D03*
Y71790D03*
Y86790D03*
Y106790D03*
Y111790D03*
Y116790D03*
X59000Y304000D03*
X61000Y318200D03*
X63000Y318300D03*
X61790Y331790D03*
Y341790D03*
Y346790D03*
Y351790D03*
Y356790D03*
Y361790D03*
X66790Y16790D03*
Y91790D03*
Y101790D03*
Y106790D03*
Y111790D03*
Y116790D03*
Y166790D03*
Y331790D03*
Y336790D03*
Y386790D03*
X71790Y6790D03*
Y11790D03*
Y21790D03*
Y26790D03*
Y51790D03*
Y56790D03*
Y61790D03*
Y66790D03*
Y71790D03*
Y86790D03*
Y91790D03*
Y101790D03*
Y106790D03*
Y111790D03*
Y241790D03*
Y246790D03*
Y261790D03*
Y266790D03*
Y281790D03*
Y286790D03*
Y291790D03*
Y331790D03*
Y336790D03*
Y341790D03*
Y346790D03*
Y351790D03*
Y361790D03*
Y366790D03*
Y371790D03*
Y376790D03*
X76790Y6790D03*
Y26790D03*
Y31790D03*
Y46790D03*
Y51790D03*
Y61790D03*
Y66790D03*
Y71790D03*
Y86790D03*
Y91790D03*
Y101790D03*
Y241790D03*
Y246790D03*
Y251790D03*
Y256790D03*
Y261790D03*
Y266790D03*
Y331790D03*
Y336790D03*
Y341790D03*
Y346790D03*
Y356790D03*
Y361790D03*
Y366790D03*
Y371790D03*
Y376790D03*
Y381790D03*
Y386790D03*
X81790Y6790D03*
Y11790D03*
Y21790D03*
Y26790D03*
Y31790D03*
Y241790D03*
X81000Y293500D03*
X81500Y311200D03*
X81790Y316790D03*
Y331790D03*
Y336790D03*
Y341790D03*
Y351790D03*
Y356790D03*
Y361790D03*
Y366790D03*
Y371790D03*
Y376790D03*
Y381790D03*
Y386790D03*
X86790Y6790D03*
Y11790D03*
Y16790D03*
Y111790D03*
Y146790D03*
X85100Y297100D03*
X86790Y311790D03*
Y331790D03*
Y336790D03*
Y341790D03*
Y351790D03*
Y356790D03*
Y361790D03*
Y366790D03*
Y371790D03*
Y376790D03*
Y381790D03*
Y386790D03*
X91790Y6790D03*
Y11790D03*
Y26790D03*
Y31790D03*
Y71790D03*
Y86790D03*
Y91790D03*
Y96790D03*
Y111790D03*
Y146790D03*
X89900Y251800D03*
Y265800D03*
X89600Y285800D03*
X89100Y298400D03*
Y300600D03*
X91790Y306790D03*
X89200Y307800D03*
X91790Y316790D03*
Y336790D03*
Y341790D03*
Y351790D03*
Y356790D03*
Y361790D03*
Y366790D03*
Y371790D03*
Y376790D03*
Y381790D03*
Y386790D03*
X92900Y253200D03*
X93500Y265800D03*
X93800Y299900D03*
X96790Y6790D03*
Y26790D03*
Y61790D03*
Y66790D03*
Y71790D03*
Y86790D03*
Y91790D03*
Y96790D03*
Y101790D03*
Y116790D03*
Y151790D03*
Y161790D03*
Y251790D03*
Y256790D03*
Y261790D03*
Y266790D03*
Y271790D03*
X96300Y285900D03*
X96790Y321790D03*
Y331790D03*
Y336790D03*
Y341790D03*
Y366790D03*
Y371790D03*
Y386790D03*
X101790Y6790D03*
Y66790D03*
Y71790D03*
Y86790D03*
Y91790D03*
Y96790D03*
Y101790D03*
Y106790D03*
Y146790D03*
Y246790D03*
Y251790D03*
Y256790D03*
Y261790D03*
Y266790D03*
Y271790D03*
Y321790D03*
Y346790D03*
Y366790D03*
Y371790D03*
Y386790D03*
X106790Y31790D03*
Y46790D03*
Y51790D03*
Y61790D03*
Y71790D03*
Y86790D03*
Y91790D03*
Y96790D03*
Y101790D03*
Y106790D03*
Y111790D03*
Y141790D03*
X106700Y239200D03*
X104600Y237100D03*
X106790Y241790D03*
Y246790D03*
Y251790D03*
Y256790D03*
Y261790D03*
Y266790D03*
Y271790D03*
Y281790D03*
Y286790D03*
Y291790D03*
Y296790D03*
Y301790D03*
Y306790D03*
Y316790D03*
Y321790D03*
Y331790D03*
Y336790D03*
Y341790D03*
Y346790D03*
Y351790D03*
Y356790D03*
Y361790D03*
Y366790D03*
Y371790D03*
Y376790D03*
Y381790D03*
Y386790D03*
X111790Y26790D03*
Y31790D03*
Y46790D03*
Y51790D03*
Y61790D03*
Y66790D03*
Y86790D03*
Y91790D03*
Y96790D03*
Y101790D03*
Y106790D03*
Y111790D03*
Y116790D03*
Y136790D03*
Y141790D03*
Y236790D03*
Y241790D03*
Y246790D03*
Y251790D03*
X110500Y272500D03*
X110700Y294600D03*
Y317900D03*
X110800Y344400D03*
X111790Y361790D03*
Y366790D03*
Y371790D03*
Y376790D03*
Y381790D03*
Y386790D03*
X115600Y272400D03*
Y294600D03*
X116100Y318000D03*
X115800Y346100D03*
X116790Y26790D03*
Y31790D03*
Y36790D03*
Y46790D03*
Y51790D03*
Y61790D03*
Y66790D03*
Y71790D03*
Y86790D03*
Y91790D03*
Y96790D03*
Y101790D03*
Y106790D03*
Y111790D03*
Y116790D03*
Y141790D03*
X117500Y230100D03*
X118600Y233500D03*
X116790Y246790D03*
Y256790D03*
Y261790D03*
Y266790D03*
Y271790D03*
Y281790D03*
Y286790D03*
Y291790D03*
Y296790D03*
Y301790D03*
Y306790D03*
Y316790D03*
Y321790D03*
Y326790D03*
Y336790D03*
Y341790D03*
Y361790D03*
Y366790D03*
Y371790D03*
Y376790D03*
Y381790D03*
Y386790D03*
X121790Y11790D03*
Y16790D03*
Y36790D03*
Y46790D03*
Y51790D03*
Y61790D03*
Y66790D03*
Y71790D03*
Y91790D03*
Y96790D03*
Y101790D03*
Y106790D03*
Y111790D03*
Y116790D03*
Y126790D03*
X122100Y244100D03*
X121790Y251790D03*
Y266790D03*
X121200Y272400D03*
X121790Y271790D03*
Y281790D03*
Y286790D03*
Y291790D03*
X121600Y294600D03*
X121790Y296790D03*
Y301790D03*
Y306790D03*
X122200Y317800D03*
X121790Y316790D03*
Y321790D03*
Y326790D03*
Y331790D03*
Y341790D03*
X122000Y345700D03*
X121790Y361790D03*
Y366790D03*
Y371790D03*
Y376790D03*
Y381790D03*
Y386790D03*
X126790Y11790D03*
Y16790D03*
Y31790D03*
Y36790D03*
Y46790D03*
Y51790D03*
Y61790D03*
Y66790D03*
Y71790D03*
Y96790D03*
Y101790D03*
Y106790D03*
Y111790D03*
Y116790D03*
Y131790D03*
Y246790D03*
X126200Y249200D03*
X126790Y261790D03*
X127300Y272400D03*
X127600Y294600D03*
Y317700D03*
X127800Y346400D03*
X126790Y361790D03*
Y366790D03*
Y371790D03*
Y376790D03*
Y381790D03*
Y386790D03*
X131790Y16790D03*
Y31790D03*
Y36790D03*
Y46790D03*
Y51790D03*
Y61790D03*
Y66790D03*
Y71790D03*
Y86790D03*
Y216790D03*
X132900Y230100D03*
X132750Y233450D03*
X131790Y241790D03*
X131900Y254200D03*
X131790Y256790D03*
Y266790D03*
Y361790D03*
Y366790D03*
Y371790D03*
Y376790D03*
Y381790D03*
Y386790D03*
X136790Y6790D03*
Y46790D03*
Y51790D03*
Y61790D03*
Y66790D03*
Y71790D03*
Y86790D03*
Y91790D03*
Y106790D03*
Y111790D03*
Y121790D03*
Y216790D03*
Y251790D03*
Y261790D03*
X133100Y272400D03*
X136790Y276790D03*
Y281790D03*
Y286790D03*
Y291790D03*
X133600Y294600D03*
X136790Y296790D03*
Y301790D03*
X133700Y317500D03*
X136790Y316790D03*
Y321790D03*
X133100Y345700D03*
X136790Y361790D03*
Y366790D03*
Y371790D03*
Y376790D03*
Y381790D03*
Y386790D03*
X138800Y236600D03*
X137200Y259200D03*
X141790Y6790D03*
Y11790D03*
Y21790D03*
Y26790D03*
Y31790D03*
Y46790D03*
Y51790D03*
Y61790D03*
Y66790D03*
Y71790D03*
Y91790D03*
Y96790D03*
Y111790D03*
Y116790D03*
X144000Y242300D03*
X141790Y246790D03*
Y256790D03*
X142600Y263400D03*
X141790Y266790D03*
Y276790D03*
Y281790D03*
Y286790D03*
Y291790D03*
Y296790D03*
Y301790D03*
Y306790D03*
Y321790D03*
Y361790D03*
Y366790D03*
Y371790D03*
Y376790D03*
Y381790D03*
Y386790D03*
X146790Y6790D03*
Y11790D03*
Y21790D03*
Y26790D03*
Y31790D03*
Y36790D03*
Y61790D03*
Y66790D03*
Y71790D03*
Y101790D03*
Y116790D03*
Y121790D03*
Y126790D03*
Y131790D03*
X145993Y194850D03*
X147803Y193041D03*
Y196659D03*
X148800Y248200D03*
X146790Y251790D03*
Y361790D03*
Y366790D03*
Y371790D03*
Y376790D03*
Y381790D03*
Y386790D03*
X151790Y11790D03*
Y21790D03*
Y26790D03*
Y31790D03*
X153231Y191231D03*
X151422Y189422D03*
X149612Y191231D03*
X153231Y194850D03*
X151422Y193041D03*
Y196659D03*
X153231Y198469D03*
X149612D03*
X151500Y203200D03*
X153231Y202088D03*
X153100Y205100D03*
X151790Y261790D03*
Y266790D03*
Y276790D03*
Y281790D03*
Y286790D03*
Y291790D03*
Y296790D03*
Y301790D03*
Y306790D03*
Y311790D03*
Y346790D03*
Y351790D03*
Y356790D03*
Y361790D03*
Y366790D03*
Y371790D03*
Y376790D03*
Y381790D03*
Y386790D03*
X156790Y11790D03*
Y21790D03*
Y26790D03*
Y31790D03*
Y41790D03*
X156850Y191231D03*
X155041Y196659D03*
Y203897D03*
X156850Y205707D03*
X153750Y252350D03*
X157000Y254200D03*
X156790Y256790D03*
Y261790D03*
Y266790D03*
Y276790D03*
X156600Y278400D03*
X156790Y281790D03*
Y286790D03*
Y291790D03*
X156500Y295000D03*
X156790Y296790D03*
Y301790D03*
Y306790D03*
X156700Y311300D03*
X156790Y311790D03*
Y316790D03*
X156600Y322000D03*
X156790Y321790D03*
Y326790D03*
X155400Y327800D03*
X156790Y331790D03*
Y366790D03*
Y371790D03*
Y386790D03*
X161790Y6790D03*
Y11790D03*
Y21790D03*
Y26790D03*
Y31790D03*
Y41790D03*
Y46790D03*
Y51790D03*
Y56790D03*
X161200Y60200D03*
X161790Y61790D03*
Y66790D03*
X161400Y69700D03*
X161790Y71790D03*
Y86790D03*
X161700Y90600D03*
X161790Y91790D03*
Y96790D03*
Y101790D03*
Y106790D03*
Y111790D03*
Y116790D03*
Y131790D03*
Y136790D03*
Y141790D03*
X161400Y187100D03*
X160469Y191231D03*
X158660Y189422D03*
Y196659D03*
Y207516D03*
X160469Y205707D03*
X158660Y203897D03*
X160469Y209326D03*
X161400Y230300D03*
X160700Y234000D03*
X161790Y236790D03*
X160900Y256000D03*
X160300Y278300D03*
Y294600D03*
Y311200D03*
X160000Y321800D03*
X160300Y332200D03*
X161790Y336790D03*
Y356790D03*
Y361790D03*
Y366790D03*
Y371790D03*
Y376790D03*
Y381790D03*
Y386790D03*
X162100Y118200D03*
X163800Y143100D03*
X165900Y165100D03*
X162700Y188500D03*
X164088Y198469D03*
X162100Y198600D03*
X164088Y202088D03*
X162279Y207516D03*
X164088Y205707D03*
X165898Y203897D03*
X162279D03*
Y211135D03*
X164088Y209326D03*
X165898Y211135D03*
X164088Y212945D03*
X166790Y6790D03*
Y11790D03*
Y21790D03*
Y26790D03*
Y31790D03*
X169400Y69700D03*
X169200Y90500D03*
X169100Y118100D03*
X168900Y143300D03*
X167900Y158200D03*
Y161323D03*
X169000Y163500D03*
X169516Y171327D03*
X167707Y173136D03*
X169516Y174946D03*
X169500Y193000D03*
Y202100D03*
X166790Y206790D03*
X169516Y211135D03*
X167707Y209326D03*
X166790Y256790D03*
Y261790D03*
Y266790D03*
Y276790D03*
Y281790D03*
Y286790D03*
Y291790D03*
Y296790D03*
Y301790D03*
Y306790D03*
Y311790D03*
Y316790D03*
Y321790D03*
Y326790D03*
Y331790D03*
Y336790D03*
Y341790D03*
Y346790D03*
Y361790D03*
Y366790D03*
Y371790D03*
Y376790D03*
Y381790D03*
Y386790D03*
X171790Y6790D03*
Y11790D03*
Y21790D03*
Y26790D03*
Y31790D03*
Y56790D03*
X172800Y147600D03*
X171327Y169516D03*
X173136Y167707D03*
X171326Y173136D03*
X173136Y171326D03*
X173135Y174946D03*
X172900Y178200D03*
X173135Y193041D03*
X170700Y195200D03*
X171790Y201790D03*
X173135Y203897D03*
X171326Y209326D03*
X173135Y214754D03*
X171790Y251790D03*
Y256790D03*
Y261790D03*
Y266790D03*
Y276790D03*
Y281790D03*
Y286790D03*
Y291790D03*
Y296790D03*
Y301790D03*
Y306790D03*
Y311790D03*
Y316790D03*
Y321790D03*
Y326790D03*
Y331790D03*
Y336790D03*
Y341790D03*
Y346790D03*
Y351790D03*
Y366790D03*
Y371790D03*
Y376790D03*
Y381790D03*
Y386790D03*
X176790Y6790D03*
Y11790D03*
Y21790D03*
Y26790D03*
Y31790D03*
Y56790D03*
X176400Y88700D03*
X176300Y113000D03*
X175500Y132200D03*
X174300Y152500D03*
X174946Y173135D03*
X176755Y174945D03*
X176700Y189400D03*
X175300Y193200D03*
X176900Y202000D03*
X174945Y202088D03*
X176754Y203897D03*
X176755Y214755D03*
X174946Y216565D03*
X176300Y235300D03*
X176790Y266790D03*
Y276790D03*
Y281790D03*
Y286790D03*
Y291790D03*
Y296790D03*
Y301790D03*
Y306790D03*
Y311790D03*
Y316790D03*
Y321790D03*
Y326790D03*
Y331790D03*
Y336790D03*
Y341790D03*
Y346790D03*
Y351790D03*
Y356790D03*
Y366790D03*
Y371790D03*
Y376790D03*
Y381790D03*
Y386790D03*
X181790Y6790D03*
Y11790D03*
Y21790D03*
Y26790D03*
Y31790D03*
Y36790D03*
Y41790D03*
X181900Y69100D03*
X179500Y88800D03*
Y113000D03*
X179600Y134800D03*
X181300Y147700D03*
X182184Y158660D03*
X180374Y167707D03*
X178565Y176754D03*
X180374Y178564D03*
X179800Y180300D03*
X182184Y180373D03*
X181790Y186790D03*
X180400Y194900D03*
X178564Y202088D03*
X180373Y207516D03*
X182183Y205707D03*
X178564Y209326D03*
X182184Y209327D03*
X178565Y220184D03*
X180374Y221993D03*
X181100Y231900D03*
X179100Y237600D03*
X181790Y276790D03*
Y281790D03*
Y286790D03*
Y291790D03*
Y296790D03*
Y301790D03*
Y306790D03*
Y311790D03*
Y316790D03*
Y321790D03*
Y326790D03*
Y331790D03*
Y336790D03*
Y341790D03*
Y346790D03*
Y351790D03*
Y356790D03*
Y366790D03*
Y371790D03*
Y376790D03*
Y381790D03*
Y386790D03*
X184400Y71200D03*
X183300Y113257D03*
X183993Y160469D03*
Y164088D03*
X185803Y173135D03*
X183993Y174945D03*
X185803Y183992D03*
X185802Y191231D03*
X183992Y189422D03*
Y193041D03*
X185802Y194850D03*
Y198469D03*
X183992Y196659D03*
X183993Y207517D03*
X185803Y212946D03*
X183993Y214755D03*
X185803Y216565D03*
X183993Y225612D03*
Y229231D03*
X185803Y231040D03*
Y234659D03*
X185800Y237400D03*
X185400Y262700D03*
Y266500D03*
X186790Y11790D03*
Y21790D03*
Y26790D03*
Y31790D03*
Y36790D03*
Y41790D03*
Y46790D03*
Y51790D03*
Y56790D03*
X187100Y113257D03*
X189422Y151422D03*
X187612Y153231D03*
X189422Y155041D03*
X187612Y156850D03*
X187600Y161900D03*
X187612Y174945D03*
X190300Y183100D03*
X187612Y185802D03*
X189422Y187611D03*
X186790Y191790D03*
X189421Y194850D03*
Y198469D03*
X189422Y202089D03*
X187611Y200278D03*
X189422Y205708D03*
Y209327D03*
X187612Y211136D03*
Y214755D03*
X189422Y220184D03*
Y234659D03*
X189100Y262300D03*
X188600Y267900D03*
X186790Y336790D03*
Y341790D03*
Y346790D03*
Y351790D03*
Y356790D03*
Y366790D03*
Y371790D03*
Y376790D03*
Y381790D03*
Y386790D03*
X191790Y6790D03*
Y11790D03*
Y21790D03*
Y26790D03*
X193700Y34000D03*
X191790Y31790D03*
Y36790D03*
Y41790D03*
Y46790D03*
Y51790D03*
X194100Y56400D03*
X191790Y56790D03*
X190900Y103400D03*
X194700Y113257D03*
X190900D03*
X193600Y141200D03*
X190800Y142600D03*
X193041Y147803D03*
Y155041D03*
X193700Y160100D03*
X193041Y158660D03*
X191231Y160469D03*
Y162400D03*
X194800Y166900D03*
X194600Y173300D03*
X192900Y171500D03*
X191231Y182183D03*
X192100Y184900D03*
X193041Y191230D03*
X190900Y194600D03*
X193041Y202089D03*
X191231Y203898D03*
Y207517D03*
X193041Y205708D03*
Y209327D03*
X191231Y211136D03*
X193041Y216565D03*
X191231Y229231D03*
X193041Y234659D03*
X191231Y240088D03*
X191800Y243200D03*
X193000Y262300D03*
X191790Y341790D03*
Y346790D03*
Y351790D03*
Y356790D03*
Y366790D03*
Y371790D03*
Y376790D03*
Y381790D03*
Y386790D03*
X196790Y6790D03*
Y11790D03*
Y21790D03*
Y26790D03*
X198200Y34900D03*
X196790Y31790D03*
X197800Y56200D03*
X198500Y100100D03*
Y113257D03*
X196200Y123100D03*
X198350Y137050D03*
X194850Y149612D03*
X194900Y151400D03*
X194850Y153231D03*
X194900Y155000D03*
X196659Y162279D03*
Y158660D03*
X198400Y165800D03*
X196700Y167700D03*
X195300Y168500D03*
X198469Y167707D03*
X196659Y173135D03*
X198900Y173100D03*
X198469Y182183D03*
X196659Y180373D03*
X194850Y182183D03*
Y185802D03*
X196659Y183992D03*
X198469Y185802D03*
X194850Y189421D03*
X198469D03*
X194850Y196660D03*
X198470Y196659D03*
X195800Y199300D03*
X196659Y202089D03*
X198469Y200279D03*
X194850D03*
Y207517D03*
X196659Y205708D03*
X194850Y203898D03*
Y211136D03*
X196659Y209327D03*
X194850Y214755D03*
X196659Y216565D03*
X198469Y218374D03*
X196659Y220184D03*
Y223802D03*
X198469Y221993D03*
X196659Y227421D03*
X198469Y225612D03*
X194850Y236469D03*
X198469Y232850D03*
Y240088D03*
X196659Y238278D03*
Y241897D03*
X195000Y246800D03*
X198800Y268500D03*
X196790Y276790D03*
X198100Y281200D03*
X198000Y293900D03*
X198400Y312000D03*
X198100Y328500D03*
X196790Y346790D03*
Y351790D03*
Y356790D03*
Y366790D03*
Y371790D03*
Y376790D03*
Y381790D03*
Y386790D03*
X201790Y6790D03*
Y11790D03*
Y26790D03*
Y31790D03*
Y36790D03*
Y41790D03*
Y46790D03*
Y51790D03*
X202300Y85200D03*
X201800Y100200D03*
Y112300D03*
X200400Y123100D03*
X201800Y138400D03*
X199000Y138800D03*
X201900Y140900D03*
X202088Y156850D03*
X200278Y169516D03*
Y176754D03*
Y180373D03*
X201790Y181790D03*
X202088Y185802D03*
X203044Y184750D03*
X200278Y183992D03*
X202089Y189422D03*
X200279Y191231D03*
X200278Y187611D03*
X202089Y193041D03*
X200100Y193600D03*
X202089Y200278D03*
X200278Y209327D03*
Y212946D03*
X201790Y216790D03*
X200278Y220184D03*
Y223802D03*
X202088Y225612D03*
X200278Y234659D03*
X202088Y232850D03*
Y236469D03*
X201790Y276790D03*
X202500Y281100D03*
X201790Y281790D03*
Y286790D03*
X202300Y293900D03*
X201790Y291790D03*
Y296790D03*
Y301790D03*
Y306790D03*
X202200Y312000D03*
X201790Y311790D03*
Y316790D03*
Y321790D03*
X202000Y327200D03*
X201790Y326790D03*
Y331790D03*
Y351790D03*
Y356790D03*
Y366790D03*
Y371790D03*
Y376790D03*
Y381790D03*
Y386790D03*
X206790Y6790D03*
Y11790D03*
Y16790D03*
Y31790D03*
Y36790D03*
Y41790D03*
Y46790D03*
X203500Y75200D03*
X206700Y85300D03*
X206790Y91790D03*
X203300Y97100D03*
X206300Y98500D03*
X206200Y107900D03*
Y113257D03*
X204600Y140800D03*
X203897Y155041D03*
Y158660D03*
X205707Y182183D03*
X205708Y185803D03*
X203898Y191231D03*
X205708Y189422D03*
X203898Y187612D03*
Y194850D03*
X205708Y193041D03*
Y196659D03*
X203898Y202088D03*
X205708Y200278D03*
X203800Y207200D03*
X205700Y207500D03*
X206000Y210900D03*
X205707Y214755D03*
X203897Y212946D03*
Y231040D03*
X205707Y232850D03*
X203897Y234659D03*
X206300Y244400D03*
X203600Y263700D03*
X205000Y265300D03*
X206790Y276790D03*
Y281790D03*
Y286790D03*
Y291790D03*
Y296790D03*
Y301790D03*
Y306790D03*
Y311790D03*
Y316790D03*
Y321790D03*
Y326790D03*
Y331790D03*
Y336790D03*
Y356790D03*
Y366790D03*
Y371790D03*
Y376790D03*
Y381790D03*
Y386790D03*
X210900Y16400D03*
X208700Y75200D03*
X209100Y100500D03*
X210000Y106100D03*
Y113257D03*
X208400Y127000D03*
X211200Y129100D03*
X211135Y165898D03*
Y169516D03*
X211000Y171500D03*
X210900Y174600D03*
X209101Y175300D03*
X207517Y183993D03*
X209312Y185788D03*
X207517Y191231D03*
X211136Y187612D03*
Y191231D03*
X209327Y189422D03*
X207518Y187612D03*
X209327Y193041D03*
X207517Y194850D03*
X211136D03*
Y198469D03*
X207517D03*
X209327Y196659D03*
X211136Y202088D03*
X209327Y200278D03*
X210885Y204815D03*
X209326Y211136D03*
X211136Y209326D03*
X209326Y221993D03*
X207516Y231040D03*
X209800Y242500D03*
X210800Y262200D03*
X208200Y266800D03*
X209400Y268700D03*
X209200Y282900D03*
Y293400D03*
X211100Y336700D03*
X209850Y340850D03*
X211790Y6790D03*
Y11790D03*
Y16790D03*
X214200Y19400D03*
X211790Y21790D03*
Y71790D03*
X215100Y84700D03*
X213500Y131900D03*
X212200Y158000D03*
X211790Y156790D03*
X214754Y165898D03*
Y169516D03*
X212945Y167707D03*
X214754Y173135D03*
X214755Y176755D03*
X212946Y185803D03*
X214755Y187612D03*
X212946Y189422D03*
X214762Y191238D03*
X214755Y194850D03*
X212952Y193047D03*
Y196653D03*
X212946Y200278D03*
X211790Y201790D03*
X214100Y208700D03*
X214754Y220184D03*
Y216565D03*
X211790Y216790D03*
X214754Y223802D03*
X214200Y227700D03*
X211790Y231790D03*
X212600Y240300D03*
X212300Y268600D03*
X212500Y282900D03*
X212600Y290800D03*
X211790Y296790D03*
Y301790D03*
Y306790D03*
Y311790D03*
Y316790D03*
Y321790D03*
Y326790D03*
Y331790D03*
Y336790D03*
Y341790D03*
Y366790D03*
Y371790D03*
Y376790D03*
Y381790D03*
Y386790D03*
X216790Y6790D03*
Y11790D03*
Y16790D03*
Y21790D03*
Y26790D03*
Y31790D03*
Y36790D03*
X218900Y151400D03*
X216790Y151790D03*
X218400Y157800D03*
X215500Y160700D03*
X217200Y164900D03*
X216564Y167707D03*
X218373Y169516D03*
X218374Y173136D03*
X216564Y171326D03*
X216565Y174946D03*
X218374Y183993D03*
Y191231D03*
X216565Y193041D03*
Y196659D03*
X216790Y196790D03*
X218374Y201500D03*
X216565Y203897D03*
Y214754D03*
X216564Y218374D03*
X218373Y220184D03*
X216564Y221993D03*
X219300Y226200D03*
X216790Y366790D03*
Y371790D03*
Y376790D03*
Y381790D03*
Y386790D03*
X221790Y6790D03*
X223300Y21200D03*
X219900Y21300D03*
X220100Y40400D03*
X223200Y40500D03*
X219600Y54800D03*
Y59100D03*
Y63400D03*
Y74400D03*
X220400Y84500D03*
X220700Y161900D03*
X223450Y168750D03*
X221993Y173136D03*
X220184Y178565D03*
X221993Y176755D03*
X220184Y174946D03*
X223500Y182100D03*
X220184Y182184D03*
X221993Y180374D03*
Y187612D03*
X220184Y193041D03*
X221993Y198469D03*
Y202088D03*
X221790Y201790D03*
X220184Y200278D03*
Y207516D03*
Y211135D03*
X221993Y209326D03*
Y212945D03*
X220184Y214754D03*
X221993Y216564D03*
X221790Y216790D03*
X222400Y222900D03*
X219800Y258000D03*
X220000Y280100D03*
X219700Y297800D03*
X219900Y294500D03*
X223000Y313200D03*
X219700Y313300D03*
X221790Y336790D03*
Y366790D03*
Y371790D03*
Y376790D03*
Y381790D03*
Y386790D03*
X223900Y4900D03*
X225800Y8600D03*
X225400Y11600D03*
X226790Y11790D03*
Y21790D03*
Y26790D03*
Y36790D03*
Y56790D03*
Y61790D03*
Y66790D03*
X223800Y74400D03*
X223900Y85700D03*
X226790Y101790D03*
Y106790D03*
X225100Y110500D03*
X227300Y112600D03*
X225000Y145600D03*
X226400Y149800D03*
X224200Y164900D03*
X225400Y169400D03*
X227700Y172500D03*
X227421Y178565D03*
X223802Y174946D03*
X227600Y184200D03*
X223802Y185803D03*
X225612Y183993D03*
X223900Y191200D03*
X226400Y189400D03*
X227421Y193041D03*
X224000Y194700D03*
X225612Y198469D03*
X227400Y198400D03*
X225612Y205707D03*
X223802Y203897D03*
X225600Y207600D03*
X227421Y211135D03*
X223802D03*
X225612Y212945D03*
X223802Y214754D03*
X224800Y219800D03*
X226790Y221790D03*
X223700Y228400D03*
X226790Y231790D03*
X225000Y248200D03*
Y250200D03*
X223800Y257400D03*
X224000Y280400D03*
X223800Y297800D03*
X224000Y294500D03*
X226000Y300200D03*
X226790Y301790D03*
Y311790D03*
Y316790D03*
X227400Y321500D03*
X226790Y321790D03*
Y336790D03*
Y366790D03*
Y371790D03*
Y376790D03*
Y381790D03*
Y386790D03*
X231790Y11790D03*
Y21790D03*
X231594Y34750D03*
Y30950D03*
Y38550D03*
Y42350D03*
Y46150D03*
Y49950D03*
X231790Y56790D03*
Y61790D03*
Y66790D03*
Y96790D03*
Y101790D03*
X229900Y115600D03*
X229300Y153200D03*
X230500Y175900D03*
X231040Y193041D03*
Y196659D03*
X229231Y200149D03*
X227800Y202200D03*
X229231Y205707D03*
X230800Y211600D03*
X231790Y226790D03*
Y236790D03*
X231500Y244400D03*
X230100Y255300D03*
X228200Y257600D03*
X228800Y280500D03*
X229900Y294500D03*
Y297800D03*
X231790Y301790D03*
Y311790D03*
X228000Y317500D03*
X231790Y316790D03*
X230794Y319450D03*
Y323250D03*
Y327050D03*
Y330850D03*
Y334650D03*
Y338450D03*
X231000Y341100D03*
X230900Y344300D03*
X231790Y366790D03*
Y371790D03*
Y376790D03*
Y381790D03*
Y386790D03*
X232900Y58100D03*
Y62600D03*
X234000Y136400D03*
X232700Y156700D03*
X235500Y159300D03*
X234800Y191300D03*
X232850Y191231D03*
X234659Y189422D03*
X235500Y212700D03*
X234000Y228900D03*
X235600Y240300D03*
X237400Y4800D03*
Y8000D03*
Y11600D03*
X236790Y11790D03*
Y26790D03*
X237600Y33500D03*
X238300Y40300D03*
Y53200D03*
X236790Y61790D03*
X239200Y65700D03*
X236790Y91790D03*
Y96790D03*
X238200Y162000D03*
X237500Y174100D03*
X237700Y183900D03*
X240088Y191231D03*
X238600Y204100D03*
X236300Y207500D03*
X236790Y231790D03*
X238900Y234000D03*
X237300Y237900D03*
X236790Y241790D03*
Y261790D03*
Y266790D03*
Y276790D03*
Y281790D03*
Y286790D03*
Y291790D03*
Y311790D03*
X236100Y317300D03*
X236790Y316790D03*
X236500Y325300D03*
X236800Y329100D03*
X237300Y332600D03*
X236790Y336790D03*
Y366790D03*
Y371790D03*
Y376790D03*
Y381790D03*
Y386790D03*
X241790Y11790D03*
X241100Y32900D03*
X241600Y40400D03*
X241400Y52900D03*
X241790Y51790D03*
Y56790D03*
X241600Y68000D03*
X243200Y92200D03*
X241790Y91790D03*
X242000Y134200D03*
X241800Y165000D03*
X242100Y169500D03*
X241790Y171790D03*
X240600Y186000D03*
X244000Y201000D03*
X241790Y201790D03*
X242300Y208000D03*
X240200Y211300D03*
X243000Y225700D03*
X241790Y241790D03*
X240800Y245000D03*
X241790Y246790D03*
X241200Y263500D03*
X241790Y266790D03*
Y276790D03*
Y281790D03*
Y286790D03*
Y291790D03*
Y366790D03*
Y371790D03*
Y376790D03*
Y381790D03*
Y386790D03*
X246790Y11790D03*
Y86790D03*
X245400Y94600D03*
X244300Y126300D03*
X246700Y129900D03*
X244600Y137900D03*
X246000Y143300D03*
X247900Y146800D03*
X246790Y161790D03*
X246200Y165600D03*
X246400Y174100D03*
X246790Y171790D03*
X246000Y182000D03*
Y186000D03*
X247800Y191000D03*
X247300Y218200D03*
X246790Y216790D03*
X245400Y222600D03*
X246790Y241790D03*
Y246790D03*
X246100Y259100D03*
X246790Y261790D03*
Y276790D03*
Y281790D03*
Y286790D03*
Y291790D03*
Y336790D03*
Y366790D03*
Y371790D03*
Y376790D03*
Y381790D03*
Y386790D03*
X251790Y11790D03*
Y21790D03*
Y26790D03*
Y86790D03*
X249500Y95300D03*
X251790Y121790D03*
X252400Y134400D03*
X250100Y150100D03*
X252000Y154400D03*
X251790Y156790D03*
Y161790D03*
Y171790D03*
X249000Y197000D03*
X251790Y196790D03*
X250300Y208100D03*
X251790Y216790D03*
X250200Y240800D03*
X251790Y241790D03*
Y256790D03*
X251300Y269900D03*
X251790Y276790D03*
Y281790D03*
Y286790D03*
X251000Y294200D03*
X251790Y291790D03*
X251100Y297800D03*
X251200Y301500D03*
X251790Y306790D03*
Y311790D03*
Y371790D03*
Y376790D03*
Y381790D03*
Y386790D03*
X254450Y12950D03*
X255500Y116300D03*
X252900Y137800D03*
X256100Y154200D03*
X252900Y165600D03*
X255776Y165296D03*
X253000Y169400D03*
X254800Y182000D03*
X254700Y186000D03*
X255100Y191000D03*
X252500Y211900D03*
X254200Y218000D03*
X253600Y234100D03*
X253100Y238000D03*
X253200Y257600D03*
X252700Y264800D03*
X254700Y341000D03*
X256800Y4600D03*
X257300Y8100D03*
X256790Y11790D03*
X259600Y22400D03*
X259613Y24559D03*
X256790Y26790D03*
X257500Y46100D03*
X259300Y50200D03*
X256790Y76790D03*
Y81790D03*
Y86790D03*
X257600Y88900D03*
X257700Y92100D03*
X260500Y90400D03*
X260400Y95800D03*
X260700Y93900D03*
X256790Y116790D03*
Y121790D03*
X260228Y141947D03*
X257078D03*
X256790Y141790D03*
X260228Y138798D03*
X257078D03*
X258100Y150100D03*
X257078Y160845D03*
X256790Y161790D03*
X258926Y165296D03*
X256790Y171790D03*
X259600Y185200D03*
X259700Y191500D03*
X258300Y197000D03*
X256790Y196790D03*
X257850Y202850D03*
X260228Y211403D03*
X257078D03*
X260228Y214552D03*
X257078D03*
Y217702D03*
X260228D03*
X260214Y230286D03*
X257078Y230300D03*
X258926Y234752D03*
X256790Y246790D03*
Y256790D03*
Y276790D03*
Y281790D03*
Y286790D03*
Y291790D03*
Y311790D03*
X258300Y337800D03*
X256790Y336790D03*
X257200Y344200D03*
X256790Y361790D03*
Y371790D03*
Y376790D03*
Y381790D03*
Y386790D03*
X264500Y9800D03*
X261790Y11790D03*
Y16790D03*
X264400Y22300D03*
X264338Y24559D03*
X260800Y31100D03*
X264800D03*
X260800Y35100D03*
X264800D03*
X260800Y39100D03*
Y43100D03*
X264800Y39100D03*
Y43100D03*
X261790Y76790D03*
X261300Y99700D03*
X261000Y103500D03*
X261200Y101700D03*
X261000Y105300D03*
X260900Y108900D03*
Y107100D03*
Y110700D03*
X261790Y116790D03*
X264200Y129500D03*
X263899Y134107D03*
X263377Y138798D03*
Y163994D03*
X262500Y168800D03*
X263900Y174100D03*
X261790Y171790D03*
X264500Y182000D03*
X261200Y187200D03*
Y189700D03*
X263700Y193500D03*
X261790Y191790D03*
X264000Y208100D03*
X263377Y211403D03*
Y214552D03*
Y217702D03*
X264700Y226400D03*
X263377Y230300D03*
Y236599D03*
Y233450D03*
X262300Y240800D03*
X261790Y241790D03*
Y256790D03*
Y276790D03*
Y281790D03*
Y286790D03*
Y291790D03*
X264000Y301300D03*
X261790Y301790D03*
X262200Y309700D03*
X262600Y319500D03*
Y323500D03*
Y327500D03*
Y331500D03*
X260800Y340900D03*
X261790Y356790D03*
Y361790D03*
Y371790D03*
Y376790D03*
Y381790D03*
Y386790D03*
X267500Y10800D03*
X266790Y11790D03*
Y16790D03*
X267500Y23800D03*
X268800Y31100D03*
Y35100D03*
Y39100D03*
Y43100D03*
X266790Y61790D03*
X267646Y88072D03*
X265677Y90040D03*
Y111694D03*
X267646D03*
X265677Y109725D03*
X267646Y113662D03*
X266527Y141947D03*
Y138798D03*
X268000Y160900D03*
X266527Y160845D03*
X266790Y161790D03*
X266527Y163994D03*
X265291Y166107D03*
X265400Y185200D03*
X267301Y185700D03*
X267300Y191125D03*
X268700Y198300D03*
X266527Y211403D03*
Y214552D03*
Y217702D03*
X265300Y222500D03*
X266527Y230300D03*
X266693Y233457D03*
X266527Y236599D03*
X266790Y256790D03*
X267600Y257400D03*
X268000Y264900D03*
X267700Y269900D03*
X266790Y276790D03*
Y281790D03*
Y286790D03*
X268500Y294200D03*
X266790Y291790D03*
X267100Y297500D03*
X266300Y299600D03*
X265100Y309900D03*
X266000Y312100D03*
X266600Y319500D03*
Y323500D03*
Y327500D03*
X266790Y351790D03*
Y356790D03*
Y361790D03*
Y371790D03*
Y376790D03*
Y381790D03*
Y386790D03*
X271790Y6790D03*
Y11790D03*
X272800Y31100D03*
Y35100D03*
Y39100D03*
Y43100D03*
X272200Y50500D03*
X270600Y52900D03*
X269614Y88072D03*
X271583D03*
Y90040D03*
Y92009D03*
X269614Y90040D03*
X271583Y95946D03*
Y97914D03*
Y99883D03*
Y101851D03*
Y103820D03*
X269614Y111694D03*
X271583D03*
X269614Y113662D03*
X270600Y116600D03*
X271790Y116790D03*
X271583Y113662D03*
X272600Y133300D03*
X271790Y136790D03*
X269676Y138798D03*
X272826D03*
Y141947D03*
X269700Y145100D03*
X272826Y145097D03*
X269300Y150100D03*
X269676Y157695D03*
X272826D03*
Y160845D03*
Y163994D03*
X271790Y166790D03*
X270300Y185700D03*
X271100Y187400D03*
X271500Y189000D03*
X270000Y191100D03*
X272826Y211403D03*
X269676D03*
Y214552D03*
X272826D03*
X269676Y217702D03*
X272400Y222500D03*
X269200Y227500D03*
X269676Y230300D03*
Y236599D03*
Y233450D03*
X272826Y236599D03*
Y233450D03*
X271790Y246790D03*
Y256790D03*
Y276790D03*
Y281790D03*
Y286790D03*
Y291790D03*
X270600Y319500D03*
Y323500D03*
Y327500D03*
Y331500D03*
X272400Y337900D03*
X271790Y371790D03*
Y376790D03*
Y381790D03*
Y386790D03*
X276790Y6790D03*
Y11790D03*
Y56790D03*
X273551Y88072D03*
Y92009D03*
X275520Y105788D03*
X273551D03*
X276400Y107900D03*
X273551Y111694D03*
Y113662D03*
X276790Y121790D03*
X276800Y129400D03*
X274700Y133400D03*
X275976Y138798D03*
Y145097D03*
X274100Y155000D03*
X275976Y157695D03*
Y160845D03*
Y163994D03*
X274100Y176100D03*
X276700Y177300D03*
X275553Y187044D03*
X273700Y185400D03*
X274900Y204300D03*
X273900Y208100D03*
X275976Y211403D03*
X276790Y221790D03*
X275976Y230300D03*
Y233450D03*
Y236599D03*
X276790Y241790D03*
Y246790D03*
Y256790D03*
Y276790D03*
Y281790D03*
Y286790D03*
Y291790D03*
X274800Y298800D03*
X276790Y301790D03*
X274600Y319500D03*
Y323500D03*
Y327500D03*
Y331500D03*
X276790Y341790D03*
Y346790D03*
Y351790D03*
Y356790D03*
Y361790D03*
Y371790D03*
Y376790D03*
Y381790D03*
Y386790D03*
X278840Y32763D03*
X280600D03*
X278840Y40637D03*
X280600Y40600D03*
X277488Y95946D03*
X279457D03*
X280600Y128800D03*
X277500Y131800D03*
X279125Y138798D03*
X279200Y153100D03*
X279125Y157695D03*
Y160845D03*
X278200Y167400D03*
X279153Y185137D03*
X277300Y193100D03*
X279153Y194984D03*
X277900Y207500D03*
X278500Y212800D03*
Y220500D03*
X278600Y227500D03*
X279125Y236599D03*
X279100Y299300D03*
X280603Y321263D03*
Y329137D03*
X281790Y6790D03*
Y11790D03*
Y16790D03*
Y46790D03*
Y51790D03*
Y56790D03*
Y61790D03*
X281425Y99883D03*
Y97914D03*
X281790Y116790D03*
Y121790D03*
X283800Y128700D03*
X282275Y138798D03*
Y141947D03*
X281790Y146790D03*
Y151790D03*
X284000Y154500D03*
X282100Y154800D03*
X283200Y182100D03*
X282200Y184300D03*
X284300Y193600D03*
X283800Y196600D03*
X284122Y215854D03*
X284500Y220700D03*
X281790Y226790D03*
X282275Y236599D03*
Y233450D03*
X281790Y246790D03*
Y256790D03*
Y276790D03*
Y281790D03*
Y286790D03*
Y291790D03*
X283200Y298300D03*
X281790Y301790D03*
X281800Y316000D03*
X282363Y321263D03*
Y329137D03*
X281790Y341790D03*
Y346790D03*
Y351790D03*
Y356790D03*
Y361790D03*
Y371790D03*
Y376790D03*
Y381790D03*
Y386790D03*
X286790Y6790D03*
Y11790D03*
Y16790D03*
Y21790D03*
Y46790D03*
X287500Y48800D03*
X286790Y56790D03*
Y61790D03*
Y76790D03*
Y81790D03*
Y116790D03*
Y121790D03*
Y131790D03*
X286726Y137496D03*
X288574Y141947D03*
X285424D03*
X288574Y138798D03*
Y145097D03*
X285424D03*
X287800Y155600D03*
X288574Y160845D03*
X286800Y177200D03*
X287000Y179000D03*
X288000Y182000D03*
X288700Y192500D03*
X285700Y192200D03*
X285600Y196400D03*
X288574Y220400D03*
X286790Y226790D03*
X285424Y230300D03*
X288574D03*
Y233450D03*
X285424Y236599D03*
Y233450D03*
X288574Y236599D03*
X286790Y236790D03*
Y241790D03*
Y256790D03*
X285900Y257300D03*
Y264500D03*
X286200Y271300D03*
X286790Y276790D03*
Y281790D03*
Y286790D03*
Y291790D03*
Y301790D03*
Y306790D03*
X286400Y317600D03*
X287600Y324600D03*
X289200Y334200D03*
X286790Y336790D03*
Y341790D03*
Y346790D03*
Y351790D03*
Y356790D03*
Y361790D03*
Y371790D03*
Y376790D03*
Y381790D03*
Y386790D03*
X291790Y6790D03*
Y11790D03*
Y16790D03*
Y26790D03*
Y41790D03*
X292800Y44200D03*
X291790Y51790D03*
Y61790D03*
Y76790D03*
Y81790D03*
Y86790D03*
Y91790D03*
Y96790D03*
Y101790D03*
Y106790D03*
Y111790D03*
Y116790D03*
Y121790D03*
Y131790D03*
X291724Y141947D03*
Y138798D03*
Y145097D03*
X292400Y155800D03*
X291724Y160845D03*
X291000Y179000D03*
X292400Y177500D03*
X289700Y182800D03*
X290400Y191800D03*
X293500Y196500D03*
X292500Y210000D03*
X292900Y216000D03*
X289876Y213250D03*
X291724Y217702D03*
X293026Y231602D03*
X291724Y233450D03*
Y236599D03*
X291790Y236790D03*
Y256790D03*
Y276790D03*
Y281790D03*
Y286790D03*
Y291790D03*
Y301790D03*
Y321790D03*
Y336790D03*
Y341790D03*
Y346790D03*
Y351790D03*
Y356790D03*
Y361790D03*
Y371790D03*
Y376790D03*
Y381790D03*
Y386790D03*
X296790Y6790D03*
Y11790D03*
Y21790D03*
X294100Y27900D03*
X296790Y26790D03*
X294000Y32700D03*
X293900Y41100D03*
X296790Y41790D03*
Y46790D03*
Y56790D03*
Y96790D03*
Y101790D03*
Y106790D03*
Y111790D03*
Y116790D03*
Y121790D03*
Y131790D03*
X294873Y141947D03*
Y138798D03*
Y145097D03*
X296200Y155800D03*
X296300Y165000D03*
X297300Y178300D03*
X295900Y182500D03*
X294500Y183800D03*
X295200Y193100D03*
X294600Y195000D03*
Y198600D03*
X296500Y205100D03*
X296400Y219800D03*
X296337Y231764D03*
X294873Y233450D03*
Y236599D03*
X296790Y241790D03*
Y251790D03*
Y256790D03*
Y276790D03*
Y281790D03*
Y286790D03*
Y291790D03*
Y301790D03*
X293900Y304200D03*
X295500Y308900D03*
X296790Y311790D03*
Y321790D03*
Y336790D03*
Y341790D03*
Y346790D03*
Y351790D03*
Y356790D03*
Y361790D03*
Y371790D03*
Y376790D03*
Y381790D03*
Y386790D03*
X301790Y6790D03*
Y11790D03*
Y16790D03*
Y21790D03*
Y26790D03*
Y46790D03*
Y51790D03*
Y61790D03*
Y106790D03*
Y111790D03*
Y116790D03*
Y121790D03*
X298023Y141947D03*
Y138798D03*
X301172D03*
X298023Y145097D03*
X300000Y155700D03*
X299900Y168300D03*
X298700Y176800D03*
X301200Y186200D03*
X300600Y188100D03*
X300400Y193600D03*
X299400Y196100D03*
X300400Y198300D03*
X301400Y221900D03*
X299900Y224400D03*
X299562Y231839D03*
X298023Y233450D03*
X301172D03*
Y236599D03*
X301790Y251790D03*
Y256790D03*
Y276790D03*
Y281790D03*
Y286790D03*
Y291790D03*
Y301790D03*
X298600Y312200D03*
X301790Y311790D03*
X297800Y314101D03*
X299000Y318900D03*
X297800Y317100D03*
X301790Y321790D03*
X299300Y324500D03*
X299400Y329000D03*
X299300Y334100D03*
X301790Y336790D03*
Y341790D03*
Y346790D03*
Y351790D03*
Y356790D03*
Y361790D03*
Y371790D03*
Y376790D03*
Y381790D03*
Y386790D03*
X305295Y37200D03*
X303700Y38300D03*
X304322Y141947D03*
Y138798D03*
X302474Y140645D03*
X302000Y148000D03*
X305900Y162300D03*
X305500Y173300D03*
X304500Y175900D03*
X302800Y185300D03*
X303000Y183400D03*
X301900Y192600D03*
X302600Y207800D03*
X304850Y207850D03*
X302800Y210000D03*
X305200Y220700D03*
X302686Y231814D03*
X304322Y233450D03*
Y236599D03*
X304400Y264200D03*
X306790Y6790D03*
Y11790D03*
Y16790D03*
Y21790D03*
X309600Y27800D03*
X306790Y26790D03*
X308294Y37200D03*
X309800Y38300D03*
X306790Y51790D03*
Y56790D03*
Y66790D03*
X309100Y68400D03*
X306790Y91790D03*
Y111790D03*
Y116790D03*
Y121790D03*
Y136790D03*
Y141790D03*
Y146790D03*
X306300Y159000D03*
X309300Y180200D03*
X307900Y185900D03*
X309300Y187600D03*
X307900Y194300D03*
X308500Y196300D03*
X306700Y195800D03*
X309600Y198700D03*
X309400Y214600D03*
X306500Y218300D03*
Y216200D03*
X306790Y226790D03*
Y231790D03*
Y251790D03*
X309000Y268000D03*
X306790Y276790D03*
Y281790D03*
Y286790D03*
Y291790D03*
Y301790D03*
Y311790D03*
Y321790D03*
Y336790D03*
Y341790D03*
Y346790D03*
Y351790D03*
Y356790D03*
Y361790D03*
Y371790D03*
Y376790D03*
Y381790D03*
Y386790D03*
X311790Y6790D03*
Y11790D03*
Y16790D03*
Y21790D03*
Y26790D03*
Y36790D03*
Y56790D03*
Y61790D03*
X312900Y64400D03*
X311790Y71790D03*
Y96790D03*
Y131790D03*
Y141790D03*
Y146790D03*
Y151790D03*
X310700Y160845D03*
X310300Y177700D03*
X312300Y180800D03*
X314100Y182100D03*
X313700Y190900D03*
Y194600D03*
X311790Y246790D03*
Y266790D03*
Y276790D03*
Y281790D03*
Y286790D03*
Y291790D03*
Y301790D03*
X311900Y303100D03*
X311400Y308600D03*
X311100Y314000D03*
X311790Y311790D03*
X310900Y319500D03*
X311790Y321790D03*
X310900Y324400D03*
X311300Y329200D03*
X312000Y334000D03*
X311790Y336790D03*
Y341790D03*
Y346790D03*
Y351790D03*
Y356790D03*
Y361790D03*
Y371790D03*
Y376790D03*
Y381790D03*
Y386790D03*
X316790Y6790D03*
Y11790D03*
Y16790D03*
Y21790D03*
Y26790D03*
Y31790D03*
X316500Y60300D03*
X316790Y61790D03*
Y66790D03*
Y76790D03*
Y106790D03*
Y111790D03*
Y116790D03*
Y176790D03*
Y181790D03*
Y206790D03*
Y211790D03*
Y216790D03*
Y221790D03*
Y226790D03*
Y231790D03*
Y236790D03*
Y241790D03*
Y261790D03*
Y266790D03*
Y276790D03*
Y281790D03*
Y286790D03*
Y291790D03*
Y301790D03*
Y311790D03*
Y321790D03*
Y336790D03*
Y341790D03*
Y346790D03*
Y351790D03*
Y356790D03*
Y361790D03*
Y371790D03*
Y376790D03*
Y381790D03*
Y386790D03*
X321790Y6790D03*
Y11790D03*
Y16790D03*
Y21790D03*
Y26790D03*
Y31790D03*
Y36790D03*
Y46790D03*
X319900Y56000D03*
X321790Y66790D03*
Y71790D03*
X321500Y80800D03*
X321790Y81790D03*
Y136790D03*
Y141790D03*
Y146790D03*
Y151790D03*
Y156790D03*
Y161790D03*
Y166790D03*
X319300Y241900D03*
X320800Y249300D03*
X321790Y256790D03*
X319300Y257700D03*
X321790Y261790D03*
Y266790D03*
Y276790D03*
Y281790D03*
Y286790D03*
Y291790D03*
Y301790D03*
Y311790D03*
Y321790D03*
Y331790D03*
Y341790D03*
Y346790D03*
Y351790D03*
Y356790D03*
Y361790D03*
Y371790D03*
Y376790D03*
Y381790D03*
Y386790D03*
X323800Y41000D03*
X326400Y44800D03*
X324300Y50400D03*
X325700Y70000D03*
X324000Y75000D03*
X324500Y303000D03*
Y309100D03*
X324000Y314200D03*
X323900Y318700D03*
X324400Y324500D03*
X324000Y329100D03*
X324500Y334300D03*
X324000Y339000D03*
X326790Y6790D03*
Y11790D03*
Y16790D03*
Y21790D03*
Y26790D03*
Y31790D03*
Y36790D03*
X326800Y61500D03*
X326790Y86790D03*
Y141790D03*
Y146790D03*
Y151790D03*
Y156790D03*
Y171790D03*
Y176790D03*
Y181790D03*
Y186790D03*
Y191790D03*
Y196790D03*
Y201790D03*
Y206790D03*
Y211790D03*
Y216790D03*
Y221790D03*
Y226790D03*
Y231790D03*
Y251790D03*
Y256790D03*
Y261790D03*
Y266790D03*
Y276790D03*
Y281790D03*
Y286790D03*
Y291790D03*
Y346790D03*
Y351790D03*
Y356790D03*
Y361790D03*
Y371790D03*
Y376790D03*
Y381790D03*
Y386790D03*
X331790Y6790D03*
Y11790D03*
Y16790D03*
Y21790D03*
Y26790D03*
Y31790D03*
Y36790D03*
X334100Y45300D03*
X334400Y54200D03*
X331790Y86790D03*
Y91790D03*
Y171790D03*
Y176790D03*
Y181790D03*
Y186790D03*
Y206790D03*
Y221790D03*
X332000Y233100D03*
X331900Y238600D03*
X332000Y241700D03*
X331790Y241790D03*
X331100Y246200D03*
X331790Y246790D03*
Y251790D03*
Y256790D03*
Y261790D03*
Y266790D03*
Y281790D03*
Y286790D03*
Y291790D03*
X331500Y313700D03*
X334400Y315100D03*
X334500Y329000D03*
X334300Y334000D03*
X331790Y346790D03*
Y351790D03*
Y356790D03*
Y361790D03*
Y371790D03*
Y376790D03*
Y381790D03*
Y386790D03*
X336790Y6790D03*
Y11790D03*
Y16790D03*
Y21790D03*
X338000Y51300D03*
X336790Y51790D03*
Y71790D03*
X335300Y72200D03*
X336790Y81790D03*
Y91790D03*
Y96790D03*
Y171790D03*
Y176790D03*
Y181790D03*
Y186790D03*
Y226790D03*
Y231790D03*
Y241790D03*
Y246790D03*
Y251790D03*
Y256790D03*
Y266790D03*
Y271790D03*
Y281790D03*
Y301790D03*
Y311790D03*
X335100Y323100D03*
X336790Y321790D03*
Y331790D03*
Y341790D03*
Y351790D03*
Y356790D03*
Y361790D03*
Y371790D03*
Y376790D03*
Y381790D03*
Y386790D03*
X341790Y6790D03*
Y11790D03*
X342000Y14400D03*
X341790Y16790D03*
Y21790D03*
Y26790D03*
Y31790D03*
Y36790D03*
Y41790D03*
X342500Y54600D03*
X341790Y51790D03*
Y61790D03*
Y71790D03*
X343000Y74800D03*
X341790Y81790D03*
Y91790D03*
Y96790D03*
Y146790D03*
Y151790D03*
Y176790D03*
Y181790D03*
Y186790D03*
Y191790D03*
Y196790D03*
Y201790D03*
Y221790D03*
Y226790D03*
Y231790D03*
X341400Y232900D03*
X340800Y238500D03*
X340700Y241400D03*
X341790Y241790D03*
Y246790D03*
Y251790D03*
Y271790D03*
Y281790D03*
Y286790D03*
Y301790D03*
Y331790D03*
X340500Y363900D03*
X341790Y371790D03*
Y376790D03*
Y381790D03*
Y386790D03*
X346790Y6790D03*
Y21790D03*
Y26790D03*
Y31790D03*
Y36790D03*
Y56790D03*
Y61790D03*
X344700Y66800D03*
X346790Y91790D03*
Y111790D03*
Y181790D03*
Y186790D03*
Y191790D03*
Y196790D03*
Y201790D03*
Y226790D03*
X345000Y272800D03*
X346790Y281790D03*
Y286790D03*
Y371790D03*
Y376790D03*
Y381790D03*
Y386790D03*
X351790Y6790D03*
Y41790D03*
Y46790D03*
Y51790D03*
Y56790D03*
Y61790D03*
Y66790D03*
Y71790D03*
Y76790D03*
Y81790D03*
Y111790D03*
Y116790D03*
Y156790D03*
X354026Y165974D03*
Y169097D03*
X351790Y171790D03*
Y186790D03*
Y191790D03*
Y196790D03*
Y201790D03*
Y216790D03*
Y226790D03*
Y231790D03*
Y246790D03*
Y251790D03*
Y256790D03*
Y266790D03*
Y281790D03*
Y301790D03*
Y306790D03*
Y311790D03*
Y316790D03*
Y321790D03*
Y326790D03*
Y331790D03*
Y336790D03*
Y371790D03*
Y376790D03*
Y381790D03*
Y386790D03*
X356790Y6790D03*
Y11790D03*
Y16790D03*
Y21790D03*
Y41790D03*
Y51790D03*
Y56790D03*
Y61790D03*
Y66790D03*
Y71790D03*
Y76790D03*
X356500Y105500D03*
X356790Y111790D03*
Y141790D03*
Y146790D03*
Y151790D03*
Y156790D03*
Y161790D03*
Y191790D03*
Y196790D03*
Y201790D03*
Y206790D03*
Y211790D03*
Y216790D03*
Y226790D03*
Y256790D03*
Y261790D03*
Y266790D03*
Y291790D03*
Y316790D03*
Y321790D03*
Y326790D03*
Y331790D03*
Y351790D03*
Y371790D03*
Y376790D03*
Y381790D03*
Y386790D03*
X361790Y6790D03*
Y11790D03*
Y26790D03*
Y56790D03*
Y61790D03*
Y66790D03*
Y71790D03*
Y96790D03*
Y111790D03*
Y141790D03*
Y146790D03*
Y151790D03*
Y156790D03*
Y181790D03*
Y196790D03*
Y201790D03*
Y216790D03*
Y226790D03*
Y231790D03*
Y236790D03*
Y241790D03*
Y246790D03*
Y251790D03*
Y271790D03*
Y281790D03*
Y371790D03*
Y376790D03*
Y381790D03*
Y386790D03*
X366790Y6790D03*
Y11790D03*
Y31790D03*
Y96790D03*
Y111790D03*
Y116790D03*
Y126790D03*
Y131790D03*
Y161790D03*
Y166790D03*
Y181790D03*
Y186790D03*
Y226790D03*
Y231790D03*
Y236790D03*
Y241790D03*
Y246790D03*
Y251790D03*
Y271790D03*
Y286790D03*
Y291790D03*
Y316790D03*
Y321790D03*
Y326790D03*
Y331790D03*
Y376790D03*
Y381790D03*
Y386790D03*
X371790Y6790D03*
Y26790D03*
Y31790D03*
Y36790D03*
Y56790D03*
Y61790D03*
Y66790D03*
Y71790D03*
Y76790D03*
Y96790D03*
Y111790D03*
Y116790D03*
Y121790D03*
Y126790D03*
Y131790D03*
Y216790D03*
Y226790D03*
Y231790D03*
Y236790D03*
Y241790D03*
Y246790D03*
Y251790D03*
Y276790D03*
Y281790D03*
Y291790D03*
Y296790D03*
Y301790D03*
Y311790D03*
Y316790D03*
Y321790D03*
Y326790D03*
Y331790D03*
Y341790D03*
Y346790D03*
Y381790D03*
Y386790D03*
X376790Y6790D03*
Y26790D03*
Y36790D03*
Y41790D03*
Y46790D03*
Y51790D03*
Y56790D03*
Y61790D03*
Y66790D03*
Y71790D03*
Y76790D03*
Y81790D03*
Y86790D03*
Y91790D03*
Y101790D03*
Y111790D03*
Y116790D03*
Y121790D03*
Y126790D03*
Y131790D03*
Y361790D03*
Y381790D03*
X381790Y6790D03*
Y11790D03*
Y16790D03*
Y21790D03*
Y26790D03*
Y31790D03*
Y56790D03*
Y61790D03*
Y66790D03*
Y71790D03*
Y76790D03*
Y86790D03*
Y96790D03*
Y101790D03*
Y111790D03*
Y116790D03*
Y121790D03*
Y126790D03*
Y131790D03*
Y226790D03*
Y231790D03*
Y236790D03*
Y241790D03*
Y246790D03*
Y251790D03*
Y256790D03*
Y261790D03*
Y266790D03*
Y271790D03*
Y276790D03*
Y281790D03*
Y286790D03*
Y291790D03*
Y316790D03*
Y321790D03*
Y326790D03*
Y331790D03*
Y356790D03*
Y361790D03*
Y366790D03*
Y371790D03*
Y376790D03*
Y381790D03*
X386790Y16790D03*
Y21790D03*
Y26790D03*
Y31790D03*
Y56790D03*
Y61790D03*
Y66790D03*
Y71790D03*
Y76790D03*
Y86790D03*
Y96790D03*
Y101790D03*
Y106790D03*
Y111790D03*
Y116790D03*
Y121790D03*
Y126790D03*
Y131790D03*
Y136790D03*
Y226790D03*
Y231790D03*
Y236790D03*
Y241790D03*
Y246790D03*
Y251790D03*
Y256790D03*
Y261790D03*
Y266790D03*
Y271790D03*
Y276790D03*
Y281790D03*
Y286790D03*
Y291790D03*
Y296790D03*
Y301790D03*
Y306790D03*
Y311790D03*
Y316790D03*
Y321790D03*
Y326790D03*
Y331790D03*
Y336790D03*
Y341790D03*
Y346790D03*
Y351790D03*
Y356790D03*
Y361790D03*
Y366790D03*
Y371790D03*
G54D22*
G01X176800Y160006D02*
Y168200D01*
X182800Y174200D01*
Y175400D01*
X183500Y176100D01*
X184700D01*
X188400Y179800D01*
X188848D01*
X191231Y182183D01*
G01X198469Y189421D02*
Y188255D01*
X197314Y187100D01*
X194300D01*
X193400Y186200D01*
Y182400D01*
X179200Y168200D01*
Y157600D01*
G01X154603Y182203D02*
X168800Y196400D01*
X182600D01*
X183700Y195300D01*
X184600D01*
X185700Y196400D01*
X192600D01*
X194670Y198470D01*
G01X167407Y220300D02*
X176500D01*
X177600Y221400D01*
X179000D01*
X179600Y220800D01*
X187800D01*
X188400Y221400D01*
X190100D01*
X199000Y212500D01*
Y211100D01*
X199200Y210900D01*
Y209900D01*
X199100Y209800D01*
Y208900D01*
X199200Y208800D01*
Y204800D01*
G01X194670Y198470D02*
X194970D01*
X195800Y199300D01*
G01X199200Y204800D02*
X199000Y204600D01*
Y204430D01*
X196659Y202089D01*
G54D13*
X20600Y191800D03*
X22000Y259500D03*
X21900Y263200D03*
X29000Y146200D03*
X28100Y151700D03*
X30400Y177300D03*
X29500Y209600D03*
X38201Y242244D03*
X36500Y244718D03*
X40200Y69300D03*
X43600Y21800D03*
X43900Y238100D03*
X47410Y144200D03*
X55400Y22400D03*
X57700Y144400D03*
X63500Y178900D03*
X60000Y178200D03*
X64100Y127600D03*
X71000Y149500D03*
X75500Y234400D03*
X75700Y314800D03*
X78600Y55800D03*
X79400Y228900D03*
X77400Y318300D03*
X82300Y57400D03*
X82800Y118845D03*
X83000Y123700D03*
X84200Y228900D03*
X91400Y51000D03*
X91000Y58200D03*
X95400Y123700D03*
X94400Y214800D03*
X99600Y225400D03*
X125900Y150000D03*
X133100Y203600D03*
X137100Y138800D03*
X136500Y330200D03*
X135900Y336000D03*
X139300Y325300D03*
X143300Y344200D03*
X147400Y163800D03*
X149800Y167300D03*
X148200Y206400D03*
X154700Y325200D03*
X158300Y329200D03*
X158500Y335300D03*
X248400Y49700D03*
X249800Y81100D03*
X255300Y333700D03*
X258400Y309400D03*
X271100Y23100D03*
X272900Y311400D03*
X277000Y21600D03*
X277100Y51100D03*
X276900Y310500D03*
X276000Y338500D03*
X280700Y313000D03*
X282000Y24800D03*
X319600Y105000D03*
G54D14*
X71248Y382497D03*
G54D15*
X73400Y152100D03*
G54D16*
X353492Y35008D03*
Y95992D03*
X351192Y293492D03*
Y354476D03*
G54D17*
G01X19200Y112600D02*
Y101800D01*
X24200Y96800D01*
G54D18*
G01X3900Y172800D02*
Y250500D01*
X19400Y266000D01*
Y270400D01*
X17350Y272450D01*
G01D02*
X16600Y273200D01*
X4000D01*
G01X20600Y275700D02*
Y279500D01*
X4100Y296000D01*
G01X20600Y275700D02*
X17350Y272450D01*
G01X30800Y275700D02*
X20600D01*
G01X320900Y199000D02*
X371700D01*
X378600Y205900D01*
Y264700D01*
X368300Y275000D01*
X332400D01*
X330900Y273500D01*
X135100D01*
X133900Y274700D01*
X97100D01*
X97000Y274800D01*
X94400D01*
X92400Y272800D01*
X58500D01*
X56900Y271200D01*
X54300D01*
X52700Y272800D01*
X33700D01*
X30800Y275700D01*
G01X28500Y296000D02*
X30800Y293700D01*
G01D02*
Y275700D01*
G01Y293700D02*
X46100D01*
X55600Y303200D01*
Y330500D01*
X67000Y341900D01*
Y378249D01*
X71248Y382497D01*
G01X320900Y195400D02*
Y199000D01*
G54D19*
G01X85000Y35100D02*
X95500D01*
X104300Y26300D01*
Y12700D01*
X109600Y7400D01*
X130600D01*
X141200Y18000D01*
X202400D01*
X213500Y29100D01*
Y65500D01*
X219200Y71200D01*
X305000D01*
X341100Y107300D01*
G01X102200Y58500D02*
X141100D01*
G01D02*
X147700Y51900D01*
Y46400D01*
X135300Y34000D01*
M02*
