M48
INCH,TZ
T01C.01969
T02C.02358
T03C.0276
T04C.0315
T05C.03539
T06C.03941
T07C.05118
T08C.09059
T09C.09839
;EXTENTS: -0.002  -0.002  0.019   0.005   
;LEADER: 12 
;HEADER: 
;CODE  : ASCII 
;FILE  : F:/OneDrive/Projects/PCB/HL-VPN/allegro/gerber/HL_VPN_1-6_plated.rou for board F:/OneDrive/Projects/PCB/HL-VPN/allegro/#Taaaaap03516.tmp, layers TOP to BOTTOM
%
G90
F1
M16
T01
M16
G00X27730Y235100
G40
M15
G01X31670
M16
G00X27480Y234793
G40
M15
G01Y237545
M16
G00X27730Y269100
G40
M15
G01X31670
M16
G00X27480Y266794
G40
M15
G01Y269546
M16
T02
M16
G00X8952Y235092
G40
M15
G01X14074
M16
G00X8952Y269108
G40
M15
G01X14074
M16
T06
M16
G00X346268Y221519
G40
M15
G01
M16
T09
M16
G00X344419Y261165
G40
M15
G01
M16
G00Y209434
G40
M15
G01
M16
G00X366781
G40
M15
G01
M16
T06
M16
G00X346268Y231363
G40
M15
G01
M16
G00Y239236
G40
M15
G01
M16
G00Y249078
G40
M15
G01
M16
G00X356112Y221519
G40
M15
G01
M16
G00Y231363
G40
M15
G01
M16
G00Y239236
G40
M15
G01
M16
G00Y249078
G40
M15
G01
M16
T09
M16
G00X366781Y261165
G40
M15
G01
M16
T04
M16
G00X353018Y133820
G40
M15
G01
M16
T08
M16
G00X361287Y121811
G40
M15
G01
M16
G00Y173388
G40
M15
G01
M16
T04
M16
G00X353018Y143664
G40
M15
G01
M16
G00Y151538
G40
M15
G01
M16
G00Y161380
G40
M15
G01
M16
G00X347114Y163349
G40
M15
G01
M16
G00Y155475
G40
M15
G01
M16
G00Y147601
G40
M15
G01
M16
G00Y139727
G40
M15
G01
M16
G00Y131853
G40
M15
G01
M16
T05
M16
G00X157360Y352646
G40
M15
G01Y359738
M16
G00X100273Y352646
G40
M15
G01Y359738
M16
G00Y378082
G40
M15
G01Y381232
M16
G00X157360Y378082
G40
M15
G01Y381232
M16
T07
M16
G00X76844Y16124
G40
M15
G01Y18876
M16
G00X95348Y16124
G40
M15
G01Y18876
M16
G00X113852Y16124
G40
M15
G01Y18876
M16
T03
M16
G00X31486Y22486
G40
M15
G01Y26414
M16
G00X65502Y22486
G40
M15
G01Y26414
M16
G00X31486Y6616
G40
M15
G01Y9368
M16
G00X65502Y6616
G40
M15
G01Y9368
M16
G40
M30
