M48
INCH,TZ
T01C.00787
T02C.01
T03C.01201
T04C.01598
T05C.01799
T06C.035
T07C.03941
T08C.04
T09C.05118
T10C.06402
T11C.126
T12C.12799
;LEADER: 12 
;HEADER: 
;CODE  : ASCII 
;FILE  : HL_VPN-1-6.drl for board F:/OneDrive/Projects/PCB/HL-VPN/allegro/#Taaaaai03516.tmp ... layers TOP and BOTTOM
;T01 Holesize 1. = 7.870000 Tolerance = +0.000000/-0.000000 PLATED MILS Quantity = 3126
;T02 Holesize 2. = 10.000000 Tolerance = +0.000000/-0.000000 PLATED MILS Quantity = 1
;T03 Holesize 3. = 12.010000 Tolerance = +0.000000/-0.000000 PLATED MILS Quantity = 59
;T04 Holesize 4. = 15.980000 Tolerance = +0.000000/-0.000000 PLATED MILS Quantity = 291
;T05 Holesize 5. = 17.990000 Tolerance = +0.000000/-0.000000 PLATED MILS Quantity = 42
;T06 Holesize 6. = 35.000000 Tolerance = +0.000000/-0.000000 PLATED MILS Quantity = 20
;T07 Holesize 7. = 39.410000 Tolerance = +0.000000/-0.000000 PLATED MILS Quantity = 4
;T08 Holesize 8. = 40.000000 Tolerance = +0.000000/-0.000000 PLATED MILS Quantity = 8
;T09 Holesize 9. = 51.180000 Tolerance = +0.000000/-0.000000 PLATED MILS Quantity = 5
;T10 Holesize 10. = 64.020000 Tolerance = +0.000000/-0.000000 PLATED MILS Quantity = 4
;T11 Holesize 11. = 126.000000 Tolerance = +0.000000/-0.000000 PLATED MILS Quantity = 4
%
G90
T01
X11790Y6790
R03X5000
X36790
R05X5000
X71790
R06X5000
X136790
R02X5000
X161790
R04X5000
X191790
R06X5000
X223900Y4900
X225800Y8600
X237400Y4800
Y8000
X256800Y4600
X257300Y8100
X264500Y9800
X271790Y6790
X276790
R21X5000
X386790Y16790
X381790
Y11790
X366790
X361790
X356790Y16790
Y11790
X342000Y14400
X341790Y16790
Y11790
X336790Y16790
Y11790
X331790Y16790
Y11790
X326790Y16790
Y11790
X321790Y16790
Y11790
X316790Y16790
Y11790
X311790Y16790
Y11790
X306790Y16790
Y11790
X301790Y16790
Y11790
X296790
X291790Y16790
Y11790
X286790Y16790
Y11790
X281790Y16790
Y11790
R02X-5000
X267500Y10800
X266790Y16790
Y11790
X261790Y16790
Y11790
X256790
X254450Y12950
X251790Y11790
X246790
X241790
X237400Y11600
X236790Y11790
X231790
X226790
X225400Y11600
X216790Y16790
Y11790
X214200Y19400
X211790Y16790
Y11790
X210900Y16400
X206790Y16790
Y11790
R13X-5000
X131790Y16790
X126790
Y11790
X121790Y16790
Y11790
X91790
X86790Y16790
Y11790
X81790
X71790
X66790Y16790
X61790Y11790
X56790
X51790Y16790
Y11790
X46790Y16790
Y11790
R02X-5000
X31790Y16790
X26790
Y11790
X11790
X6790Y16790
Y11790
Y21790
Y26790
X11790
R02X5000
X26790Y21790
Y26790
X46790Y21790
X51790
X61790Y26790
X71790Y21790
Y26790
X76790
X81790Y21790
Y26790
X91790
X96790
X111790
X116790
X141790Y21790
Y26790
X146790Y21790
Y26790
X151790Y21790
Y26790
X156790Y21790
Y26790
X161790Y21790
Y26790
X166790Y21790
Y26790
X171790Y21790
Y26790
X176790Y21790
Y26790
X181790Y21790
Y26790
X186790Y21790
Y26790
X191790Y21790
Y26790
X196790Y21790
Y26790
X201790
X211790Y21790
X216790
Y26790
X219900Y21300
X223300Y21200
X226790Y21790
Y26790
X231790Y21790
X236790Y26790
X251790Y21790
Y26790
X256790
X259600Y22400
X259613Y24559
X264338
X264400Y22300
X267500Y23800
X286790Y21790
X291790Y26790
X294100Y27900
X296790Y21790
Y26790
X301790Y21790
Y26790
X306790Y21790
Y26790
X309600Y27800
X311790Y21790
Y26790
X316790Y21790
Y26790
X321790Y21790
Y26790
X326790Y21790
Y26790
X331790Y21790
Y26790
X336790Y21790
X341790
Y26790
X346790Y21790
Y26790
X356790Y21790
X361790Y26790
X371790
X376790
X381790Y21790
Y26790
X386790Y21790
Y26790
Y31790
X381790
X376790Y36790
X371790
Y31790
X366790
X346790Y36790
Y31790
X341790Y36790
Y31790
X331790Y36790
Y31790
X326790Y36790
Y31790
X321790Y36790
Y31790
X316790
X311790Y36790
X309800Y38300
X308294Y37200
X305295
X303700Y38300
X294000Y32700
X280600Y32763
X278840
X272800Y39100
R02Y-4000
X268800Y39100
R02Y-4000
X264800Y39100
R02Y-4000
X260800Y39100
R02Y-4000
X241100Y32900
X237600Y33500
X231594Y38550
R02Y-3800
X226790Y36790
X216790
Y31790
X206790Y36790
Y31790
X201790Y36790
Y31790
X198200Y34900
X196790Y31790
X193700Y34000
X191790Y36790
Y31790
X186790Y36790
Y31790
X181790Y36790
Y31790
X176790
R05X-5000
X146790Y36790
Y31790
X141790
X131790Y36790
Y31790
X126790Y36790
Y31790
X121790Y36790
X116790
Y31790
X111790
X106790
X91790
X81790
X76790
X61790
X51790Y36790
Y31790
X41790
X31790
X26790
R03X-5000
X16790Y46790
X21790
X31790Y41790
X36790
X41790Y46790
X46790
X51790Y41790
Y46790
X56790
X61790
X76790
X106790
X111790
R06X5000
X156790Y41790
X161790
Y46790
X181790Y41790
X186790
Y46790
X191790Y41790
Y46790
X201790Y41790
Y46790
X206790Y41790
Y46790
X220100Y40400
X223200Y40500
X231594Y42350
Y46150
X238300Y40300
X241600Y40400
X257500Y46100
X260800Y43100
X264800
R02X4000
X278840Y40637
X280600Y40600
X281790Y46790
X286790
X287500Y48800
X291790Y41790
X292800Y44200
X293900Y41100
X296790Y41790
Y46790
X301790
X321790
X323800Y41000
X326400Y44800
X334100Y45300
X341790Y41790
X351790
Y46790
X356790Y41790
X376790
Y46790
X386790Y56790
X381790
X376790
Y51790
X371790Y56790
X361790
X356790
Y51790
X351790Y56790
Y51790
X346790Y56790
X342500Y54600
X341790Y51790
X338000Y51300
X336790Y51790
X334400Y54200
X324300Y50400
X319900Y56000
X311790Y56790
X306790
Y51790
X301790
X296790Y56790
X291790Y51790
X286790Y56790
X281790
Y51790
X276790Y56790
X272200Y50500
X270600Y52900
X259300Y50200
X241790Y56790
Y51790
X241400Y52900
X238300Y53200
X232900Y58100
X231790Y56790
X231594Y49950
X226790Y56790
X219600Y59100
Y54800
X201790Y51790
X197800Y56200
X194100Y56400
X191790Y56790
Y51790
X186790Y56790
Y51790
X176790Y56790
X171790
X161790
Y51790
X141790
X136790
R06X-5000
X76790
X71790Y56790
Y51790
X61790Y56790
Y51790
X56790Y56790
Y51790
X51790Y56790
Y51790
X46790Y56790
Y51790
X41790Y56790
Y51790
X36790Y56790
X26790
R03X-5000
Y51790
X6790Y56790
Y51790
Y61790
X11790
X16790
X26790
Y66790
X36790Y61790
X46790
Y66790
X51790Y61790
Y66790
X56790Y61790
Y66790
X61790Y61790
Y66790
X71790Y61790
Y66790
X76790Y61790
Y66790
X96790Y61790
Y66790
X101790
X106790Y61790
X111790
Y66790
X116790Y61790
Y66790
X121790Y61790
Y66790
X126790Y61790
Y66790
X131790Y61790
Y66790
X136790Y61790
Y66790
X141790Y61790
Y66790
X146790Y61790
Y66790
X161200Y60200
X161400Y69700
X161790Y61790
Y66790
X169400Y69700
X181900Y69100
X219600Y63400
X226790Y61790
Y66790
X231790Y61790
Y66790
X232900Y62600
X236790Y61790
X239200Y65700
X241600Y68000
X266790Y61790
X281790
X286790
X291790
X301790
X306790Y66790
X309100Y68400
X311790Y61790
X312900Y64400
X316500Y60300
X316790Y61790
Y66790
X321790
X326800Y61500
X341790Y61790
X344700Y66800
X346790Y61790
X351790
Y66790
X356790Y61790
Y66790
X361790Y61790
Y66790
X371790Y61790
Y66790
X376790Y61790
Y66790
X381790Y61790
Y66790
X386790Y61790
Y66790
Y76790
Y71790
X381790Y76790
Y71790
X376790Y76790
Y71790
X371790Y76790
Y71790
X361790
X356790Y76790
Y71790
X351790Y76790
Y71790
X343000Y74800
X341790Y71790
X336790
X335300Y72200
X325700Y70000
X324000Y75000
X321790Y71790
X316790Y76790
X311790Y71790
X291790Y76790
X286790
X261790
X256790
X223800Y74400
X219600
X211790Y71790
X208700Y75200
X203500
X184400Y71200
X161790Y71790
X146790
R06X-5000
X106790
R03X-5000
X76790
X71790
X61790
R04X-5000
X36790Y76790
Y71790
X21790Y76790
Y71790
X6790Y81790
Y86790
X11790Y81790
Y86790
X16790
X21790Y81790
Y86790
X26790Y81790
X36790Y86790
R02X5000
X56790
X61790
X71790
X76790
X91790
R05X5000
X131790
X136790
X161790
X176400Y88700
X179500Y88800
X202300Y85200
X206700Y85300
X215100Y84700
X220400Y84500
X223900Y85700
X246790Y86790
X251790
X256790Y81790
Y86790
X257600Y88900
X267646Y88072
X269614
X271583
X273551
X286790Y81790
X291790
Y86790
X321500Y80800
X321790Y81790
X326790Y86790
X331790
X336790Y81790
X341790
X351790
X376790
Y86790
R02X5000
Y96790
X381790
X376790Y91790
X371790Y96790
X366790
X361790
X346790Y91790
X341790Y96790
Y91790
X336790Y96790
Y91790
X331790
X311790Y96790
X306790Y91790
X296790Y96790
X291790
Y91790
X281425Y99883
Y97914
X279457Y95946
X277488
X273551Y92009
X271583Y99883
Y97914
Y95946
Y92009
Y90040
X269614
X265677
X261300Y99700
X260700Y93900
X260500Y90400
X260400Y95800
X257700Y92100
X249500Y95300
X245400Y94600
X243200Y92200
X241790Y91790
X236790Y96790
Y91790
X231790Y96790
X206790Y91790
X206300Y98500
X203300Y97100
X169200Y90500
X161790Y96790
Y91790
X161700Y90600
X141790Y96790
Y91790
X136790
X126790Y96790
X121790
Y91790
X116790Y96790
Y91790
X111790Y96790
Y91790
X106790Y96790
Y91790
X101790Y96790
Y91790
X96790Y96790
Y91790
X91790Y96790
Y91790
X76790
R02X-5000
X56790
X51790
X41790
X36790
X11790Y96790
X6790
Y101790
X21790
Y106790
X26790Y101790
Y106790
X31790Y101790
X56790Y106790
X61790
X66790Y101790
Y106790
X71790Y101790
Y106790
X76790Y101790
X96790
X101790
Y106790
X106790Y101790
Y106790
X111790Y101790
Y106790
X116790Y101790
Y106790
X121790Y101790
Y106790
X126790Y101790
Y106790
X136790
X146790Y101790
X161790
Y106790
X190900Y103400
X198500Y100100
X201800Y100200
X206200Y107900
X209100Y100500
X210000Y106100
X226790Y101790
Y106790
X231790Y101790
X260900Y107100
Y108900
X261000Y103500
Y105300
X261200Y101700
X265677Y109725
X271583Y101851
Y103820
X273551Y105788
X275520
X276400Y107900
X291790Y101790
Y106790
X296790Y101790
Y106790
X301790
X316790
X356500Y105500
X376790Y101790
X381790
X386790
Y106790
Y116790
Y111790
X381790Y116790
Y111790
X376790Y116790
Y111790
X371790Y116790
Y111790
X366790Y116790
Y111790
R02X-5000
X351790Y116790
Y111790
X346790
X316790Y116790
Y111790
X306790Y116790
Y111790
X301790Y116790
Y111790
X296790Y116790
Y111790
X291790Y116790
Y111790
X286790Y116790
X281790
X273551Y113662
Y111694
X271790Y116790
X271583Y113662
Y111694
X270600Y116600
X269614Y113662
Y111694
X267646Y113662
Y111694
X265677
X261790Y116790
X260900Y110700
X256790Y116790
X255500Y116300
X229900Y115600
X227300Y112600
X225100Y110500
X210000Y113257
X206200
X201800Y112300
X198500Y113257
R04X-3800
X179500Y113000
X176300
X169100Y118100
X162100Y118200
X161790Y116790
Y111790
X146790Y116790
X141790
Y111790
X136790
X126790Y116790
Y111790
X121790Y116790
Y111790
X116790Y116790
Y111790
X111790Y116790
Y111790
X106790
X96790Y116790
X91790Y111790
X86790
X71790
X66790Y116790
Y111790
X61790Y116790
Y111790
X56790Y116790
Y111790
X36790Y121790
X41790
X56790
Y126790
X121790
X136790Y121790
X146790
Y126790
X196200Y123100
X200400
X208400Y127000
X211200Y129100
X244300Y126300
X246700Y129900
X251790Y121790
X256790
X264200Y129500
X276790Y121790
X276800Y129400
X280600Y128800
X281790Y121790
X283800Y128700
X286790Y121790
X291790
R03X5000
X366790Y126790
X371790Y121790
Y126790
X376790Y121790
Y126790
X381790Y121790
Y126790
X386790Y121790
Y126790
Y136790
Y131790
R04X-5000
X321790Y136790
X311790Y131790
X306790Y136790
X304322Y138798
X301172
X298023
X296790Y131790
X294873Y138798
X291790Y131790
X291724Y138798
X288574
X286790Y131790
X286726Y137496
X282275Y138798
X279125
X277500Y131800
X275976Y138798
X274700Y133400
X272826Y138798
X272600Y133300
X271790Y136790
X269676Y138798
X266527
X263899Y134107
X263377Y138798
X260228
X257078
X252900Y137800
X252400Y134400
X244600Y137900
X242000Y134200
X234000Y136400
X213500Y131900
X201800Y138400
X199000Y138800
X198350Y137050
X179600Y134800
X175500Y132200
X161790Y136790
Y131790
X146790
X126790
X111790Y136790
X26790
X21790
R02X-5000
Y131790
Y141790
Y146790
X16790Y141790
X21790
X26790
X31790Y146790
X86790
X91790
X101790
X106790Y141790
R02X5000
X161790
X163800Y143100
X168900Y143300
X172800Y147600
X181300Y147700
X190800Y142600
X193041Y147803
X193600Y141200
X194850Y149612
X201900Y140900
X204600Y140800
X225000Y145600
X226400Y149800
X246000Y143300
X247900Y146800
X256790Y141790
X257078Y141947
X260228
X266527
X269700Y145100
X272826Y141947
Y145097
X275976
X281790Y146790
X282275Y141947
X285424
Y145097
X288574Y141947
Y145097
X291724Y141947
Y145097
X294873Y141947
Y145097
X298023Y141947
Y145097
X302000Y148000
X302474Y140645
X304322Y141947
X306790Y141790
Y146790
X311790Y141790
Y146790
X321790Y141790
Y146790
X326790Y141790
Y146790
X341790
X356790Y141790
Y146790
X361790Y141790
Y146790
Y156790
Y151790
X356790Y156790
Y151790
X351790Y156790
X341790Y151790
X326790Y156790
Y151790
X321790Y156790
Y151790
X311790
X306300Y159000
X300000Y155700
X296200Y155800
X292400
X287800Y155600
X284000Y154500
X282100Y154800
X281790Y151790
X279200Y153100
X279125Y157695
X275976
X274100Y155000
X272826Y157695
X269676
X269300Y150100
X258100
X256100Y154200
X252000Y154400
X251790Y156790
X250100Y150100
X235500Y159300
X232700Y156700
X229300Y153200
X218900Y151400
X218400Y157800
X216790Y151790
X212200Y158000
X211790Y156790
X203897Y158660
Y155041
X202088Y156850
X196659Y158660
X194900Y155000
Y151400
X194850Y153231
X193041Y158660
Y155041
X189422
Y151422
X187612Y156850
Y153231
X182184Y158660
X174300Y152500
X167900Y158200
X96790Y151790
X51790
X36790Y156790
X6790Y161790
Y166790
X36790Y161790
Y166790
X56790
X66790
X96790Y161790
X165900Y165100
X167900Y161323
X169000Y163500
X171327Y169516
X173136Y167707
X180374
X183993Y160469
Y164088
X187600Y161900
X191231Y160469
Y162400
X193700Y160100
X194800Y166900
X195300Y168500
X196659Y162279
X196700Y167700
X198400Y165800
X198469Y167707
X200278Y169516
X211135Y165898
Y169516
X212945Y167707
X214754Y165898
Y169516
X215500Y160700
X216564Y167707
X217200Y164900
X218373Y169516
X220700Y161900
X223450Y168750
X224200Y164900
X225400Y169400
X238200Y162000
X241800Y165000
X242100Y169500
X246200Y165600
X246790Y161790
X251790
X252900Y165600
X253000Y169400
X255776Y165296
X256790Y161790
X257078Y160845
X258926Y165296
X262500Y168800
X263377Y163994
X265291Y166107
X266527Y160845
Y163994
X266790Y161790
X268000Y160900
X271790Y166790
X272826Y160845
Y163994
X275976Y160845
Y163994
X278200Y167400
X279125Y160845
X288574
X291724
X296300Y165000
X299900Y168300
X305900Y162300
X310700Y160845
X321790Y161790
Y166790
X354026Y165974
Y169097
X356790Y161790
X366790
Y166790
X351790Y171790
X341790Y176790
X336790
Y171790
X331790Y176790
Y171790
X326790Y176790
Y171790
X316790Y176790
X310300Y177700
X305500Y173300
X304500Y175900
X298700Y176800
X297300Y178300
X292400Y177500
X291000Y179000
X287000
X286800Y177200
X276700Y177300
X274100Y176100
X263900Y174100
X261790Y171790
R03X-5000
X246400Y174100
X241790Y171790
X237500Y174100
X230500Y175900
X227700Y172500
X227421Y178565
X223802Y174946
X221993Y176755
Y173136
X220184Y178565
Y174946
X218374Y173136
X216565Y174946
X216564Y171326
X214755Y176755
X214754Y173135
X211000Y171500
X210900Y174600
X209101Y175300
X200278Y176754
X198900Y173100
X196659Y173135
X194600Y173300
X192900Y171500
X187612Y174945
X185803Y173135
X183993Y174945
X180374Y178564
X178565Y176754
X176755Y174945
X174946Y173135
X173135Y174946
X173136Y171326
X172900Y178200
X171326Y173136
X169516Y174946
Y171327
X167707Y173136
X56790Y171790
R04X-5000
X16790Y176790
Y171790
X11790Y176790
Y171790
X6790Y176790
Y171790
Y181790
X11790
Y186790
X151422Y189422
X158660
X161400Y187100
X162700Y188500
X176700Y189400
X179800Y180300
X181790Y186790
X182184Y180373
X183992Y189422
X185803Y183992
X187612Y185802
X189422Y187611
X190300Y183100
X191231Y182183
X192100Y184900
X194850Y182183
R02Y3619
X196659Y180373
Y183992
X198469Y182183
R02Y3619
X200278Y180373
R02Y3619
X201790Y181790
X202088Y185802
X202089Y189422
X203044Y184750
X203898Y187612
X205707Y182183
X205708Y185803
Y189422
X207517Y183993
X207518Y187612
X209312Y185788
X209327Y189422
X211136Y187612
X212946Y185803
Y189422
X214755Y187612
X218374Y183993
X220184Y182184
X221993Y180374
Y187612
X223500Y182100
X223802Y185803
X225612Y183993
X226400Y189400
X227600Y184200
X234659Y189422
X237700Y183900
X240600Y186000
X246000Y182000
Y186000
X254700
X254800Y182000
X259600Y185200
X261200Y187200
Y189700
X264500Y182000
X265400Y185200
X267301Y185700
X270300
X271100Y187400
X271500Y189000
X273700Y185400
X275553Y187044
X279153Y185137
X282200Y184300
X283200Y182100
X288000Y182000
X289700Y182800
X294500Y183800
X295900Y182500
X300600Y188100
X301200Y186200
X302800Y185300
X303000Y183400
X307900Y185900
X309300Y180200
Y187600
X312300Y180800
X314100Y182100
X316790Y181790
X326790
Y186790
X331790Y181790
Y186790
X336790Y181790
Y186790
X341790Y181790
Y186790
X346790Y181790
Y186790
X351790
X361790Y181790
X366790
Y186790
X361790Y196790
X356790
Y191790
X351790Y196790
Y191790
X346790Y196790
Y191790
X341790Y196790
Y191790
X326790Y196790
Y191790
X313700Y194600
Y190900
X309600Y198700
X308500Y196300
X307900Y194300
X306700Y195800
X301900Y192600
X300400Y198300
Y193600
X299400Y196100
X295200Y193100
X294600Y198600
Y195000
X293500Y196500
X290400Y191800
X288700Y192500
X285700Y192200
X285600Y196400
X284300Y193600
X283800Y196600
X279153Y194984
X277300Y193100
X270000Y191100
X268700Y198300
X267300Y191125
X263700Y193500
X261790Y191790
X259700Y191500
X258300Y197000
X256790Y196790
X255100Y191000
X251790Y196790
X249000Y197000
X247800Y191000
X240088Y191231
X234800Y191300
X232850Y191231
X231040Y196659
Y193041
X227400Y198400
X227421Y193041
X225612Y198469
X224000Y194700
X223900Y191200
X221993Y198469
X220184Y193041
X218374Y191231
X216790Y196790
X216565Y196659
Y193041
X214755Y194850
X214762Y191238
X212952Y196653
Y193047
X211136Y198469
Y194850
Y191231
X209327Y196659
Y193041
X207517Y198469
R02Y-3619
X205708Y196659
Y193041
X203898Y194850
Y191231
X202089Y193041
X200279Y191231
X200100Y193600
X198470Y196659
X195800Y199300
X194850Y196660
X193041Y191230
X190900Y194600
X189421Y198469
Y194850
X186790Y191790
X185802Y198469
Y194850
Y191231
X183992Y196659
Y193041
X180400Y194900
X175300Y193200
X173135Y193041
X170700Y195200
X169500Y193000
X164088Y198469
X162100Y198600
X160469Y191231
X158660Y196659
X156850Y191231
X155041Y196659
X153231Y198469
Y194850
Y191231
X151422Y196659
Y193041
X149612Y198469
Y191231
X147803Y196659
Y193041
X145993Y194850
X11790Y196790
X6790
Y191790
Y206790
X11790
X151500Y203200
X153100Y205100
X153231Y202088
X155041Y203897
X156850Y205707
X158660Y203897
Y207516
X160469Y205707
Y209326
X162279Y203897
Y207516
X164088Y202088
Y205707
Y209326
X165898Y203897
X166790Y206790
X167707Y209326
X169500Y202100
X171326Y209326
X171790Y201790
X173135Y203897
X174945Y202088
X176754Y203897
X176900Y202000
X178564Y202088
Y209326
X180373Y207516
X182183Y205707
X182184Y209327
X183993Y207517
X187611Y200278
X189422Y202089
Y205708
Y209327
X191231Y203898
Y207517
X193041Y202089
R02Y3619
X194850Y200279
R02Y3619
X196659Y202089
R02Y3619
X198469Y200279
X200278Y209327
X202089Y200278
X203800Y207200
X203898Y202088
X205708Y200278
X205700Y207500
X209327Y200278
X210885Y204815
X211136Y202088
Y209326
X211790Y201790
X212946Y200278
X214100Y208700
X216565Y203897
X218374Y201500
X220184Y200278
Y207516
X221790Y201790
X221993Y202088
Y209326
X223802Y203897
X225612Y205707
X225600Y207600
X227800Y202200
X229231Y200149
Y205707
X236300Y207500
X238600Y204100
X241790Y201790
X242300Y208000
X244000Y201000
X250300Y208100
X257850Y202850
X264000Y208100
X273900
X274900Y204300
X277900Y207500
X296500Y205100
X302600Y207800
X304850Y207850
X316790Y206790
X326790Y201790
Y206790
X331790
X341790Y201790
X346790
R02X5000
Y206790
X361790Y201790
X371790Y216790
X361790
X356790
Y211790
X351790Y216790
X326790
Y211790
X316790Y216790
Y211790
X309400Y214600
X306500Y218300
Y216200
X302800Y210000
X296400Y219800
X292900Y216000
X292500Y210000
X291724Y217702
X289876Y213250
X284122Y215854
X278500Y212800
X275976Y211403
X272826Y214552
Y211403
X269676Y217702
Y214552
Y211403
X266527Y217702
Y214552
Y211403
X263377Y217702
Y214552
Y211403
X260228Y217702
Y214552
Y211403
X257078Y217702
Y214552
Y211403
X254200Y218000
X252500Y211900
X251790Y216790
X247300Y218200
X246790Y216790
X240200Y211300
X235500Y212700
X230800Y211600
X227421Y211135
X225612Y212945
X224800Y219800
X223802Y214754
Y211135
X221993Y216564
Y212945
X221790Y216790
X220184Y214754
Y211135
X216564Y218374
X216565Y214754
X214754Y216565
X211790Y216790
X209326Y211136
X206000Y210900
X205707Y214755
X203897Y212946
X201790Y216790
X200278Y212946
X198469Y218374
X196659Y216565
X194850Y214755
Y211136
X193041Y216565
X191231Y211136
X187612Y214755
Y211136
X185803Y216565
Y212946
X183993Y214755
X176755
X174946Y216565
X173135Y214754
X169516Y211135
X165898
X164088Y212945
X162279Y211135
X136790Y216790
X131790
X6790Y221790
X178565Y220184
X180374Y221993
X183993Y225612
Y229231
X189422Y220184
X191231Y229231
X196659Y220184
Y223802
Y227421
X198469Y221993
Y225612
X200278Y220184
Y223802
X202088Y225612
X209326Y221993
X214200Y227700
X214754Y220184
Y223802
X216564Y221993
X218373Y220184
X219300Y226200
X222400Y222900
X223700Y228400
X226790Y221790
X231790Y226790
X234000Y228900
X243000Y225700
X245400Y222600
X264700Y226400
X265300Y222500
X269200Y227500
X272400Y222500
X276790Y221790
X278500Y220500
X278600Y227500
X281790Y226790
X284500Y220700
X286790Y226790
X288574Y220400
X299900Y224400
X301400Y221900
X305200Y220700
X306790Y226790
X316790Y221790
Y226790
X326790Y221790
Y226790
X331790Y221790
X336790Y226790
X341790Y221790
Y226790
X346790
R05X5000
X381790
X386790
Y236790
Y231790
X381790Y236790
Y231790
X371790Y236790
Y231790
X366790Y236790
Y231790
X361790Y236790
Y231790
X351790
X341790
X341400Y232900
X340800Y238500
X336790Y231790
X332000Y233100
X331900Y238600
X326790Y231790
X316790Y236790
Y231790
X306790
X304322Y236599
Y233450
X302686Y231814
X301172Y236599
Y233450
X299562Y231839
X298023Y233450
X296337Y231764
X294873Y236599
Y233450
X293026Y231602
X291790Y236790
X291724Y236599
Y233450
X288574Y236599
Y233450
Y230300
X286790Y236790
X285424Y236599
Y233450
Y230300
X282275Y236599
Y233450
X279125Y236599
X275976
Y233450
Y230300
X272826Y236599
Y233450
X269676Y236599
Y233450
Y230300
X266693Y233457
X266527Y236599
Y230300
X263377Y236599
Y233450
Y230300
X260214Y230286
X258926Y234752
X257078Y230300
X253600Y234100
X253100Y238000
X238900Y234000
X237300Y237900
X236790Y231790
X231790Y236790
X226790Y231790
X211790
X207516Y231040
X205707Y232850
X203897Y234659
Y231040
X202088Y236469
Y232850
X200278Y234659
X198469Y232850
X196659Y238278
X194850Y236469
X193041Y234659
X189422
X185800Y237400
X185803Y234659
Y231040
X181100Y231900
X179100Y237600
X176300Y235300
X161790Y236790
X161400Y230300
X160700Y234000
X138800Y236600
X132900Y230100
X132750Y233450
X118600Y233500
X117500Y230100
X111790Y236790
X106700Y239200
X104600Y237100
X19500Y245900
X19831Y243157
X49100Y245200
X49172Y242162
X71790Y241790
Y246790
X76790Y241790
Y246790
X81790Y241790
X101790Y246790
X106790Y241790
Y246790
X111790Y241790
Y246790
X116790
X122100Y244100
X126200Y249200
X126790Y246790
X131790Y241790
X141790Y246790
X144000Y242300
X148800Y248200
X191231Y240088
X191800Y243200
X195000Y246800
X196659Y241897
X198469Y240088
X206300Y244400
X209800Y242500
X212600Y240300
X225000Y248200
X231500Y244400
X235600Y240300
X236790Y241790
X240800Y245000
X241790Y241790
Y246790
X246790Y241790
Y246790
X250200Y240800
X251790Y241790
X256790Y246790
X261790Y241790
X262300Y240800
X271790Y246790
X276790Y241790
Y246790
X281790
X286790Y241790
X296790
X311790Y246790
X316790Y241790
X319300Y241900
X320800Y249300
X331100Y246200
X331790Y241790
Y246790
X332000Y241700
X336790Y241790
Y246790
X340700Y241400
X341790Y241790
Y246790
X351790
X361790Y241790
Y246790
X366790Y241790
Y246790
X371790Y241790
Y246790
X381790Y241790
Y246790
X386790Y241790
Y246790
Y256790
Y251790
X381790Y256790
Y251790
X371790
X366790
X361790
X356790Y256790
X351790
Y251790
X341790
X336790Y256790
Y251790
X331790Y256790
Y251790
X326790Y256790
Y251790
X321790Y256790
X319300Y257700
X306790Y251790
X301790Y256790
Y251790
X296790Y256790
Y251790
X291790Y256790
X286790
X285900Y257300
X281790Y256790
R02X-5000
X267600Y257400
X266790Y256790
X261790
X256790
X253200Y257600
X251790Y256790
X246100Y259100
X230100Y255300
X228200Y257600
X225000Y250200
X223800Y257400
X219800Y258000
X171790Y256790
Y251790
X166790Y256790
X160900Y256000
X157000Y254200
X156790Y256790
X153750Y252350
X146790Y251790
X141790Y256790
X137200Y259200
X136790Y251790
X131900Y254200
X131790Y256790
X121790Y251790
X116790Y256790
X111790Y251790
X106790Y256790
Y251790
X101790Y256790
Y251790
X96790Y256790
Y251790
X92900Y253200
X89900Y251800
X76790Y256790
Y251790
X42760Y253134
Y250135
X40600Y258200
X19830Y255194
Y252195
X40600Y261323
X71790Y261790
Y266790
X76790Y261790
Y266790
X89900Y265800
X93500
X96790Y261790
Y266790
X101790Y261790
Y266790
X106790Y261790
Y266790
X116790Y261790
Y266790
X121790
X126790Y261790
X131790Y266790
X136790Y261790
X141790Y266790
X142600Y263400
X151790Y261790
Y266790
X156790Y261790
Y266790
X166790Y261790
Y266790
X171790Y261790
Y266790
X176790
X185400Y262700
Y266500
X188600Y267900
X189100Y262300
X193000
X198800Y268500
X203600Y263700
X205000Y265300
X208200Y266800
X209400Y268700
X210800Y262200
X212300Y268600
X236790Y261790
Y266790
X241200Y263500
X241790Y266790
X246790Y261790
X251300Y269900
X252700Y264800
X267700Y269900
X268000Y264900
X285900Y264500
X304400Y264200
X309000Y268000
X311790Y266790
X316790Y261790
Y266790
X321790Y261790
Y266790
X326790Y261790
Y266790
X331790Y261790
Y266790
X336790
X351790
X356790Y261790
Y266790
X381790Y261790
Y266790
X386790Y261790
Y266790
Y276790
Y271790
X381790Y276790
Y271790
X371790Y276790
X366790Y271790
X361790
X345000Y272800
X341790Y271790
X336790
X326790Y276790
R08X-5000
X286200Y271300
X281790Y276790
X276790
R08X-5000
X206790
R02X-5000
X181790
R03X-5000
X160300Y278300
X156790Y276790
X156600Y278400
X151790Y276790
X141790
X136790
X133100Y272400
X127300
X121790Y271790
X121200Y272400
X116790Y271790
X115600Y272400
X110500Y272500
X106790Y271790
X101790
X96790
X71790Y281790
Y286790
X89600Y285800
X96300Y285900
X106790Y281790
Y286790
X116790Y281790
Y286790
X121790Y281790
Y286790
X136790Y281790
Y286790
X141790Y281790
Y286790
X151790Y281790
Y286790
X156790Y281790
Y286790
X166790Y281790
Y286790
X171790Y281790
Y286790
X176790Y281790
Y286790
X181790Y281790
Y286790
X198100Y281200
X201790Y281790
Y286790
X202500Y281100
X206790Y281790
Y286790
X209200Y282900
X212500
X220000Y280100
X224000Y280400
X228800Y280500
X236790Y281790
Y286790
X241790Y281790
Y286790
X246790Y281790
Y286790
X251790Y281790
Y286790
X256790Y281790
Y286790
X261790Y281790
Y286790
X266790Y281790
Y286790
X271790Y281790
Y286790
X276790Y281790
Y286790
X281790Y281790
Y286790
X286790Y281790
Y286790
X291790Y281790
Y286790
X296790Y281790
Y286790
X301790Y281790
Y286790
X306790Y281790
Y286790
X311790Y281790
Y286790
X316790Y281790
Y286790
X321790Y281790
Y286790
X326790Y281790
Y286790
X331790Y281790
Y286790
X336790Y281790
X341790
Y286790
X346790Y281790
Y286790
X351790Y281790
X361790
X366790Y286790
X371790Y281790
X381790
Y286790
X386790Y281790
Y286790
Y296790
Y291790
X381790
X371790Y296790
Y291790
X366790
X356790
X331790
X326790
R08X-5000
X283200Y298300
X281790Y291790
X279100Y299300
X276790Y291790
X274800Y298800
X271790Y291790
X268500Y294200
X267100Y297500
X266790Y291790
X266300Y299600
X261790Y291790
R02X-5000
X251100Y297800
X251000Y294200
X246790Y291790
R02X-5000
X229900Y297800
Y294500
X224000
X223800Y297800
X219900Y294500
X219700Y297800
X212600Y290800
X211790Y296790
X209200Y293400
X206790Y296790
Y291790
X202300Y293900
X201790Y296790
Y291790
X198000Y293900
X181790Y296790
Y291790
X176790Y296790
Y291790
X171790Y296790
Y291790
X166790Y296790
Y291790
X160300Y294600
X156790Y296790
Y291790
X156500Y295000
X151790Y296790
Y291790
X141790Y296790
Y291790
X136790Y296790
Y291790
X133600Y294600
X127600
X121790Y296790
Y291790
X121600Y294600
X116790Y296790
Y291790
X115600Y294600
X110700
X106790Y296790
Y291790
X93800Y299900
X89100Y298400
X85100Y297100
X81000Y293500
X71790Y291790
X11790
X6790Y296790
X11790Y306790
X21790Y301790
Y306790
X26790
X59000Y304000
X89100Y300600
X89200Y307800
X91790Y306790
X106790Y301790
Y306790
X116790Y301790
Y306790
X121790Y301790
Y306790
X136790Y301790
X141790
Y306790
X151790Y301790
Y306790
X156790Y301790
Y306790
X166790Y301790
Y306790
X171790Y301790
Y306790
X176790Y301790
Y306790
X181790Y301790
Y306790
X201790Y301790
Y306790
X206790Y301790
Y306790
X211790Y301790
Y306790
X226000Y300200
X226790Y301790
X231790
X251200Y301500
X251790Y306790
X261790Y301790
X262200Y309700
X264000Y301300
X265100Y309900
X276790Y301790
X281790
X286790
Y306790
X291790Y301790
X293900Y304200
X295500Y308900
X296790Y301790
R02X5000
X311400Y308600
X311790Y301790
X311900Y303100
X316790Y301790
X321790
X324500Y303000
Y309100
X336790Y301790
X341790
X351790
Y306790
X371790Y301790
X386790
Y306790
Y316790
Y311790
X381790Y316790
X371790
Y311790
X366790Y316790
X356790
X351790
Y311790
X336790
X334400Y315100
X331500Y313700
X324000Y314200
X323900Y318700
X321790Y311790
R02X-5000
X311100Y314000
X310900Y319500
X306790Y311790
X301790
X299000Y318900
X298600Y312200
X297800Y317100
Y314101
X296790Y311790
X286400Y317600
X281800Y316000
X274600Y319500
X270600
X266600
X266000Y312100
X262600Y319500
X256790Y311790
X251790
X236790Y316790
Y311790
X236100Y317300
X231790Y316790
Y311790
X230794Y319450
X228000Y317500
X226790Y316790
Y311790
X223000Y313200
X219700Y313300
X211790Y316790
Y311790
X206790Y316790
Y311790
X202200Y312000
X201790Y316790
Y311790
X198400Y312000
X181790Y316790
Y311790
X176790Y316790
Y311790
X171790Y316790
Y311790
X166790Y316790
Y311790
X160300Y311200
X156790Y316790
Y311790
X156700Y311300
X151790Y311790
X136790Y316790
X133700Y317500
X127600Y317700
X122200Y317800
X121790Y316790
X116790
X116100Y318000
X110700Y317900
X106790Y316790
X91790
X86790Y311790
X81790Y316790
X81500Y311200
X63000Y318300
X61000Y318200
X58357Y318300
X26790Y316790
Y311790
X21790Y316790
X11790Y311790
X6790Y316790
X16790Y321790
Y326790
X21790Y321790
Y326790
X36790Y321790
Y326790
X41790Y321790
Y326790
X46790
X96790Y321790
R02X5000
X116790
Y326790
X121790Y321790
Y326790
X136790Y321790
X141790
X155400Y327800
X156600Y322000
X156790Y321790
Y326790
X160000Y321800
X166790Y321790
Y326790
X171790Y321790
Y326790
X176790Y321790
Y326790
X181790Y321790
Y326790
X198100Y328500
X201790Y321790
Y326790
X202000Y327200
X206790Y321790
Y326790
X211790Y321790
Y326790
X226790Y321790
X227400Y321500
X230794Y323250
Y327050
X236500Y325300
X236800Y329100
X262600Y323500
Y327500
X266600Y323500
Y327500
X270600Y323500
Y327500
X274600Y323500
Y327500
X280603Y321263
Y329137
X282363Y321263
Y329137
X287600Y324600
X291790Y321790
X296790
X299300Y324500
X299400Y329000
X301790Y321790
X306790
X310900Y324400
X311300Y329200
X311790Y321790
R02X5000
X324000Y329100
X324400Y324500
X334500Y329000
X335100Y323100
X336790Y321790
X351790
Y326790
X356790Y321790
Y326790
X366790Y321790
Y326790
X371790Y321790
Y326790
X381790Y321790
Y326790
X386790Y321790
Y326790
Y336790
Y331790
X381790
X371790
X366790
X356790
X351790Y336790
Y331790
X341790
X336790
X334300Y334000
X324500Y334300
X324000Y339000
X321790Y331790
X316790Y336790
X312000Y334000
X311790Y336790
X306790
X301790
X299300Y334100
X296790Y336790
X291790
X289200Y334200
X286790Y336790
X274600Y331500
X272400Y337900
X270600Y331500
X262600
X258300Y337800
X256790Y336790
X246790
X237300Y332600
X236790Y336790
X230794Y338450
R02Y-3800
X226790Y336790
X221790
X211790
Y331790
X211100Y336700
X206790Y336790
Y331790
X201790
X186790Y336790
X181790
Y331790
X176790Y336790
Y331790
X171790Y336790
Y331790
X166790Y336790
Y331790
X161790Y336790
X160300Y332200
X156790Y331790
X121790
X116790Y336790
X106790
Y331790
X96790Y336790
Y331790
X91790Y336790
X86790
Y331790
X81790Y336790
Y331790
X76790Y336790
Y331790
X71790Y336790
Y331790
X66790Y336790
Y331790
X61790
X51790
R02X-5000
X36790Y336790
Y331790
X31790Y336790
Y331790
X26790Y336790
Y331790
X11790Y336790
Y331790
X6790Y336790
Y331790
X16790Y341790
Y346790
X21790Y341790
Y346790
X36790Y341790
Y346790
X41790Y341790
Y346790
X46790Y341790
Y346790
X51790Y341790
Y346790
X56790Y341790
Y346790
X61790Y341790
Y346790
X71790Y341790
Y346790
X76790Y341790
Y346790
X81790Y341790
R03X5000
X101790Y346790
X106790Y341790
Y346790
X110800Y344400
X115800Y346100
X116790Y341790
X121790
X122000Y345700
X127800Y346400
X133100Y345700
X151790Y346790
X166790Y341790
Y346790
X171790Y341790
Y346790
X176790Y341790
Y346790
X181790Y341790
Y346790
X186790Y341790
Y346790
X191790Y341790
Y346790
X196790
X209850Y340850
X211790Y341790
X230900Y344300
X231000Y341100
X254700Y341000
X257200Y344200
X260800Y340900
X276790Y341790
Y346790
X281790Y341790
Y346790
X286790Y341790
Y346790
X291790Y341790
Y346790
X296790Y341790
Y346790
X301790Y341790
Y346790
X306790Y341790
Y346790
X311790Y341790
Y346790
X316790Y341790
Y346790
X321790Y341790
Y346790
R02X5000
X336790Y341790
X371790
Y346790
X386790Y341790
Y346790
Y356790
Y351790
X381790Y356790
X356790Y351790
X336790Y356790
Y351790
X331790Y356790
Y351790
X326790Y356790
Y351790
X321790Y356790
Y351790
X316790Y356790
Y351790
X311790Y356790
Y351790
X306790Y356790
Y351790
X301790Y356790
Y351790
X296790Y356790
Y351790
X291790Y356790
Y351790
X286790Y356790
Y351790
X281790Y356790
Y351790
X276790Y356790
Y351790
X266790Y356790
Y351790
X261790Y356790
X206790
X201790
Y351790
X196790Y356790
Y351790
X191790Y356790
Y351790
X186790Y356790
Y351790
X181790Y356790
Y351790
X176790Y356790
Y351790
X171790
X161790Y356790
X151790
Y351790
X106790Y356790
Y351790
X91790Y356790
Y351790
X86790Y356790
Y351790
X81790Y356790
Y351790
X76790Y356790
X71790Y351790
X61790Y356790
Y351790
X56790Y356790
Y351790
X51790Y356790
Y351790
X46790Y356790
Y351790
X41790Y356790
Y351790
X36790Y356790
Y351790
X31790Y356790
Y351790
X26790Y356790
Y351790
X21790Y356790
Y351790
X16790Y356790
Y351790
X11790Y356790
Y351790
X6790Y356790
Y351790
Y361790
Y366790
X11790Y361790
X16790
R02X5000
Y366790
X31790Y361790
Y366790
X36790Y361790
Y366790
X41790Y361790
Y366790
X46790Y361790
Y366790
X51790Y361790
Y366790
X56790Y361790
Y366790
X61790Y361790
X71790
Y366790
X76790Y361790
Y366790
X81790Y361790
Y366790
X86790Y361790
Y366790
X91790Y361790
Y366790
X96790
X101790
X106790Y361790
Y366790
X111790Y361790
Y366790
X116790Y361790
Y366790
X121790Y361790
Y366790
X126790Y361790
Y366790
X131790Y361790
Y366790
X136790Y361790
Y366790
X141790Y361790
Y366790
X146790Y361790
Y366790
X151790Y361790
Y366790
X156790
X161790Y361790
Y366790
X166790Y361790
Y366790
R16X5000
X256790Y361790
R02X5000
X276790
R12X5000
X340500Y363900
X376790Y361790
X381790
Y366790
X386790Y361790
R02Y5000
X381790Y376790
Y371790
X366790Y376790
X361790
Y371790
X356790Y376790
Y371790
X351790Y376790
Y371790
X346790Y376790
Y371790
X341790Y376790
Y371790
X336790Y376790
Y371790
X331790Y376790
Y371790
X326790Y376790
Y371790
X321790Y376790
Y371790
X316790Y376790
Y371790
X311790Y376790
Y371790
X306790Y376790
Y371790
X301790Y376790
Y371790
X296790Y376790
Y371790
X291790Y376790
Y371790
X286790Y376790
Y371790
X281790Y376790
Y371790
X276790Y376790
Y371790
X271790Y376790
Y371790
X266790Y376790
Y371790
X261790Y376790
Y371790
X256790Y376790
Y371790
X251790Y376790
Y371790
X246790Y376790
Y371790
X241790Y376790
Y371790
X236790Y376790
Y371790
X231790Y376790
Y371790
X226790Y376790
Y371790
X221790Y376790
Y371790
X216790Y376790
Y371790
X211790Y376790
Y371790
X206790Y376790
Y371790
X201790Y376790
Y371790
X196790Y376790
Y371790
X191790Y376790
Y371790
X186790Y376790
Y371790
X181790Y376790
Y371790
X176790Y376790
Y371790
X171790Y376790
Y371790
X166790Y376790
Y371790
X161790Y376790
Y371790
X156790
X151790Y376790
Y371790
X146790Y376790
Y371790
X141790Y376790
Y371790
X136790Y376790
Y371790
X131790Y376790
Y371790
X126790Y376790
Y371790
X121790Y376790
Y371790
X116790Y376790
Y371790
X111790Y376790
Y371790
X106790Y376790
Y371790
X101790
X96790
X91790Y376790
Y371790
X86790Y376790
Y371790
X81790Y376790
Y371790
X76790Y376790
Y371790
X71790Y376790
Y371790
X56790Y376790
Y371790
X51790
X46790Y376790
Y371790
X41790Y376790
Y371790
X36790Y376790
Y371790
X31790Y376790
Y371790
X26790Y376790
Y371790
X11790Y376790
X6790
Y371790
Y381790
R02X5000
Y386790
X21790Y381790
Y386790
X26790Y381790
Y386790
X31790Y381790
Y386790
X36790
X46790
R02X10000
X76790Y381790
Y386790
X81790Y381790
Y386790
X86790Y381790
Y386790
X91790Y381790
Y386790
X96790
X101790
X106790Y381790
Y386790
X111790Y381790
Y386790
X116790Y381790
Y386790
X121790Y381790
Y386790
X126790Y381790
Y386790
X131790Y381790
Y386790
X136790Y381790
Y386790
X141790Y381790
Y386790
X146790Y381790
Y386790
X151790Y381790
Y386790
X156790
X161790Y381790
Y386790
X166790Y381790
Y386790
X171790Y381790
Y386790
X176790Y381790
Y386790
X181790Y381790
Y386790
X186790Y381790
Y386790
X191790Y381790
Y386790
X196790Y381790
Y386790
X201790Y381790
Y386790
X206790Y381790
Y386790
X211790Y381790
Y386790
X216790Y381790
Y386790
X221790Y381790
Y386790
X226790Y381790
Y386790
X231790Y381790
Y386790
X236790Y381790
Y386790
X241790Y381790
Y386790
X246790Y381790
Y386790
X251790Y381790
Y386790
X256790Y381790
Y386790
X261790Y381790
Y386790
X266790Y381790
Y386790
X271790Y381790
Y386790
X276790Y381790
Y386790
X281790Y381790
Y386790
X286790Y381790
Y386790
X291790Y381790
Y386790
X296790Y381790
Y386790
X301790Y381790
Y386790
X306790Y381790
Y386790
X311790Y381790
Y386790
X316790Y381790
Y386790
X321790Y381790
Y386790
X326790Y381790
Y386790
X331790Y381790
Y386790
X336790Y381790
Y386790
X341790Y381790
Y386790
X346790Y381790
Y386790
X351790Y381790
Y386790
X356790Y381790
Y386790
X361790Y381790
Y386790
X366790Y381790
Y386790
X371790Y381790
Y386790
X376790Y381790
X381790
T02
X73400Y152100
T03
X40200Y69300
X43600Y21800
X55400Y22400
X78600Y55800
X82300Y57400
X91000Y58200
X91400Y51000
X248400Y49700
X249800Y81100
X271100Y23100
X277000Y21600
X277100Y51100
X282000Y24800
X319600Y105000
X149800Y167300
X147400Y163800
X137100Y138800
X125900Y150000
X95400Y123700
X83000
X82800Y118845
X71000Y149500
X64100Y127600
X63500Y178900
X60000Y178200
X57700Y144400
X47410Y144200
X30400Y177300
X29000Y146200
X28100Y151700
X20600Y191800
X21900Y263200
X22000Y259500
X29500Y209600
X36500Y244718
X38201Y242244
X43900Y238100
X75500Y234400
X79400Y228900
X84200
X94400Y214800
X99600Y225400
X133100Y203600
X148200Y206400
X75700Y314800
X77400Y318300
X135900Y336000
X136500Y330200
X139300Y325300
X143300Y344200
X154700Y325200
X158300Y329200
X158500Y335300
X255300Y333700
X258400Y309400
X272900Y311400
X276000Y338500
X276900Y310500
X280700Y313000
T04
X19000Y28700
X40200Y49400
X46900Y51400
X39600Y56600
X12000Y58700
X7000Y58800
X16700
X20800
X24600
X28400
X49300Y78200
X4400Y96600
X23600Y101700
X30200Y101800
X39000Y105600
R02X5000
X39000Y110600
R02X5000
X14200Y112600
X19200
X39000Y115600
R02X5000
X14200Y117600
X19200
X34900Y122400
X14200Y122600
X19200
X18200Y131400
X34100Y135000
X39400Y135600
X42200Y138000
X34200Y138600
X14600Y138900
X47000Y140100
X39100Y142500
X9800Y144900
X15400
X6200Y156300
X7200Y160500
X46030Y161600
X40930Y167000
X6500Y168200
X7000Y174200
X7700Y179700
X28200Y180800
X13700Y182031
X32800Y183500
X34300Y187600
X38700Y187800
X26600Y195800
X35800Y203500
R02X5000
X35800Y208500
R02X5000
X35800Y213500
R02X5000
X31600Y220000
X47000Y224100
X49400Y250100
X4000Y273200
X47400Y290000
X4100Y296000
X28500
X18600Y323000
X45400Y328600
X8600Y334700
X19100Y344600
X41400Y345200
X55500Y345600
X72600Y345300
X89800Y344400
X97700Y339200
X98900Y329200
X80300Y329000
X64100
X66900Y318400
X51300Y278700
X55600Y278600
Y274300
X95700Y271700
X65800Y249100
X51300Y224200
X72000Y214400
R02X-5000
X57900Y211900
X52900
X72000Y209400
R02X-5000
X72000Y204400
X67000
X72000Y199400
X67000
X91900Y199100
R02X-5000
X72000Y195200
X91900Y194100
X86900
X81900
X91900Y189100
R02X-5000
X54200Y188200
X64000Y183100
X57700
X65100Y174600
X94600Y174500
X96200Y170900
X50930Y167000
X94300Y164500
X96700Y161400
X94000Y154000
X96700Y151400
X73600Y146100
X66300Y140200
X56200Y139100
X92400Y137500
R02X-5000
X56300Y135400
X74800Y134100
X78000Y134000
X92400Y132500
X87400
X82400
X67200Y129500
X92400Y127500
X87400
X82400
X64700Y115800
X66500Y111400
X89303Y109703
X66500Y106400
Y101400
X52800Y96100
X72000Y51700
X63900Y51300
X55300Y51200
X78700Y50900
X95000Y44400
X143278Y8825
X100500Y44400
X141704Y46817
X134000Y50600
X127500Y51700
X119000Y51900
X110800Y52300
X146100Y87000
X145700Y98500
X135500Y114900
X142908Y128592
X107200Y130700
X131400Y135400
X136800Y149200
X115832Y149600
X102100Y154637
X136600Y165600
X122700Y165700
X130796Y167835
X142200Y171300
X115400Y171900
X125478Y172178
X112200Y179300
X124226Y183174
X149000Y185200
X128300Y187200
X118289Y188137
X112200Y188400
X135300Y189300
X143700Y190000
X121100Y193500
X111800Y197200
X125200Y197500
X126700Y203300
X113100Y209200
X143831Y216000
X125500Y236300
X122400Y239100
X105500Y290000
X142700Y306000
X136400Y310400
X113069Y360320
X118974
X124880
X130785
X142596
X155400Y341100
X169700Y233499
X150400Y180600
X169400Y56400
X161100Y44200
X178100Y43300
X173900
X169800
X169900Y27600
X176700Y27000
X204696Y8825
X225900Y14900
R02X4000
X201351Y46815
X245100Y52300
X226400Y304900
R02X4000
X270200Y352300
X253900Y320500
X259200Y257600
X289200Y252000
X266200Y244700
X266300Y240600
X278100Y224600
X280807Y148800
X287500Y132000
X293000Y130300
X293200Y107300
X293460Y98740
X295000Y91900
X295100Y86200
X294900Y81500
X277700Y80800
X272800
X288800Y80600
X282900Y80500
X254300Y76700
X283000Y76200
X277700
X272800Y76100
X274300Y59400
X253400Y32500
X258850Y13013
X277350Y11113
X272090Y9459
X282400Y9300
X342800Y20900
X349100Y41400
X348700Y47600
X348500Y53400
X348700Y59200
Y65400
Y71900
X348400Y77700
X348300Y83500
X300700Y86100
X300600Y91900
X346900Y96900
X323900Y139700
X307500Y145100
X314500Y165000
Y169200
X335800Y191300
X327400Y191600
X320900Y195400
Y199000
X327700Y206400
X320500Y213400
Y217400
X320400Y221300
X303800Y257600
X343100Y279700
X343700Y293600
X344300Y306100
X343600Y313200
Y323400
X343700Y334400
X343900Y341300
X343000Y359800
X359600Y357100
X353600Y341800
X370700Y339000
X358100Y337800
X367600Y336100
X358200Y314200
X368200Y312400
X355900Y307900
X370500Y307400
X357500Y83600
X370700Y79800
X361200Y79400
X370200Y51600
X360600
X356200Y44900
X362300Y31619
T05
X9200Y89900
X3200
X15200Y83900
R02X-6000
X15200Y77900
R02X-6000
X3000Y69200
X19401Y42901
X14401
X9401
X25100Y39200
X34901Y34101
X44701
X54701
X72800Y33400
X64701Y34101
X79200Y35100
X85000
X72500Y161200
R03X4000
X72500Y165200
R03X4000
X96400Y58800
X102200Y58500
X123300Y22000
R02X6000
X123300Y28000
R02X6000
X123300Y34000
R02X6000
X335100Y107300
R02X6000
T06
X330500Y43000
Y53000
X340500Y48000
Y58000
X330500Y63000
Y73000
X340500Y68000
Y78000
X330500Y83000
X340500Y88000
X328200Y301484
Y311484
X338200Y306484
Y316484
X328200Y321484
Y331484
X338200Y326484
R02Y10000
X328200Y341484
T07
X41248Y382497
R03X10000
T08
X384791Y39417
Y49417
Y81583
Y91583
X382491Y297901
Y307901
Y340067
Y350067
T09
X8800Y324700
X28800
X18800Y334700
X8800Y344700
X28800
T10
X353492Y35008
Y95992
X351192Y293492
Y354476
T11
X17250Y17750
Y370750
X372250
Y17750
M30
