G04 ================== begin FILE IDENTIFICATION RECORD ==================*
G04 Layout Name:  F:/OneDrive/Projects/PCB/HL-VPN/allegro/HL_VPN.brd*
G04 Film Name:    PASTEMASK_TOP*
G04 File Format:  Gerber RS274X*
G04 File Origin:  Cadence Allegro 17.4-S037*
G04 Origin Date:  Wed Jan 29 06:07:44 2025*
G04 *
G04 Layer:  PIN/PASTEMASK_TOP*
G04 Layer:  PACKAGE GEOMETRY/PASTEMASK_TOP*
G04 Layer:  BOARD GEOMETRY/DESIGN_OUTLINE*
G04 *
G04 Offset:    (0.00 0.00)*
G04 Mirror:    No*
G04 Mode:      Positive*
G04 Rotation:  0*
G04 FullContactRelief:  No*
G04 UndefLineWidth:     5.00*
G04 ================== end FILE IDENTIFICATION RECORD ====================*
%FSLAX25Y25*MOIN*%
%IR0*IPPOS*OFA0.00000B0.00000*MIA0B0*SFA1.00000B1.00000*%
%ADD40R,.06299X.09449*%
%ADD36R,.01181X.1024*%
%ADD49C,.015*%
%ADD43C,.01181*%
%AMMACRO37*
21,1,.05512,.0472,0.0,0.0,135.*%
%ADD37MACRO37*%
%ADD28O,.0315X.00591*%
%AMMACRO38*
21,1,.0315,.03539,0.0,0.0,135.*%
%ADD38MACRO38*%
%AMMACRO39*
21,1,.02161,.02161,0.0,0.0,45.*%
%ADD39MACRO39*%
%ADD22R,.00591X.0315*%
%ADD21R,.0315X.00591*%
%ADD11R,.0315X.0315*%
%ADD10R,.02161X.02161*%
%ADD32C,.02358*%
%ADD50R,.01181X.0098*%
%AMMACRO44*
21,1,.0098,.01181,0.0,0.0,45.*%
%ADD44MACRO44*%
%ADD24R,.0098X.01181*%
%ADD47R,.03201X.00799*%
%ADD48R,.00799X.03201*%
%ADD16R,.0315X.04331*%
%ADD15R,.0602X.0535*%
%ADD29R,.0472X.05512*%
%ADD23R,.22051X.22051*%
%ADD20O,.02358X.04331*%
%ADD31C,.00941*%
%AMMACRO34*
21,1,.0315,.03539,0.0,0.0,45.*%
%ADD34MACRO34*%
%ADD18R,.0835X.05512*%
%ADD17R,.02358X.04331*%
%ADD13R,.03539X.0315*%
%ADD12R,.05118X.0374*%
%ADD45R,.07091X.05512*%
%ADD26R,.04331X.02358*%
%ADD25R,.0374X.05118*%
%ADD14R,.0315X.03539*%
%ADD19R,.0787X.04331*%
%ADD33R,.04331X.0787*%
%ADD35R,.06299X.05512*%
%ADD46R,.09799X.04201*%
%ADD42R,.0276X.06299*%
%ADD30R,.02358X.05909*%
%ADD27R,.05909X.02358*%
%ADD41R,.07091X.06299*%
%ADD51C,.005*%
G75*
%LPD*%
G75*
G36*
G01X16035Y234945D02*
X16040Y235043D01*
Y235141D01*
X16035Y235239D01*
X16025Y235337D01*
X16011Y235434D01*
X15991Y235530D01*
X15967Y235625D01*
X15938Y235719D01*
X15905Y235811D01*
X15866Y235901D01*
X15824Y235990D01*
X15777Y236076D01*
X15726Y236160D01*
X15670Y236241D01*
X15611Y236319D01*
X15548Y236394D01*
X15481Y236466D01*
X15411Y236535D01*
X15337Y236600D01*
X15261Y236661D01*
X15181Y236718D01*
X15099Y236772D01*
X15013Y236821D01*
X14926Y236865D01*
X14837Y236906D01*
X14745Y236942D01*
X14652Y236973D01*
X14558Y236999D01*
X14462Y237021D01*
X14365Y237038D01*
X14268Y237051D01*
X14170Y237058D01*
X14072Y237060D01*
X8954D01*
X8856Y237058D01*
X8758Y237051D01*
X8661Y237038D01*
X8564Y237021D01*
X8468Y236999D01*
X8374Y236973D01*
X8281Y236942D01*
X8189Y236906D01*
X8100Y236865D01*
X8013Y236821D01*
X7928Y236772D01*
X7845Y236718D01*
X7765Y236661D01*
X7689Y236600D01*
X7615Y236535D01*
X7545Y236466D01*
X7478Y236394D01*
X7415Y236319D01*
X7356Y236241D01*
X7300Y236160D01*
X7249Y236076D01*
X7202Y235990D01*
X7160Y235901D01*
X7122Y235811D01*
X7088Y235719D01*
X7059Y235625D01*
X7035Y235530D01*
X7015Y235434D01*
X7001Y235337D01*
X6991Y235239D01*
X6986Y235141D01*
Y235043D01*
X6991Y234945D01*
X7001Y234847D01*
X7015Y234750D01*
X7035Y234654D01*
X7059Y234559D01*
X7088Y234465D01*
X7122Y234373D01*
X7160Y234282D01*
X7202Y234194D01*
X7249Y234108D01*
X7300Y234024D01*
X7356Y233943D01*
X7415Y233865D01*
X7478Y233789D01*
X7545Y233717D01*
X7615Y233649D01*
X7689Y233584D01*
X7765Y233523D01*
X7845Y233465D01*
X7928Y233412D01*
X8013Y233363D01*
X8100Y233318D01*
X8189Y233278D01*
X8281Y233242D01*
X8374Y233211D01*
X8468Y233184D01*
X8564Y233162D01*
X8661Y233145D01*
X8758Y233133D01*
X8856Y233126D01*
X8954Y233123D01*
X14072D01*
X14170Y233126D01*
X14268Y233133D01*
X14365Y233145D01*
X14462Y233162D01*
X14558Y233184D01*
X14652Y233211D01*
X14745Y233242D01*
X14837Y233278D01*
X14926Y233318D01*
X15013Y233363D01*
X15099Y233412D01*
X15181Y233465D01*
X15261Y233523D01*
X15337Y233584D01*
X15411Y233649D01*
X15481Y233717D01*
X15548Y233789D01*
X15611Y233865D01*
X15670Y233943D01*
X15726Y234024D01*
X15777Y234108D01*
X15824Y234194D01*
X15866Y234282D01*
X15905Y234373D01*
X15938Y234465D01*
X15967Y234559D01*
X15991Y234654D01*
X16011Y234750D01*
X16025Y234847D01*
X16035Y234945D01*
G37*
G36*
G01X16040Y269157D02*
X16035Y269255D01*
X16025Y269353D01*
X16011Y269450D01*
X15991Y269546D01*
X15967Y269641D01*
X15938Y269735D01*
X15905Y269827D01*
X15866Y269917D01*
X15824Y270006D01*
X15777Y270092D01*
X15726Y270176D01*
X15670Y270257D01*
X15611Y270335D01*
X15548Y270410D01*
X15481Y270482D01*
X15411Y270551D01*
X15337Y270616D01*
X15261Y270677D01*
X15181Y270734D01*
X15099Y270788D01*
X15013Y270837D01*
X14926Y270881D01*
X14837Y270922D01*
X14745Y270958D01*
X14652Y270989D01*
X14558Y271015D01*
X14462Y271037D01*
X14365Y271054D01*
X14268Y271067D01*
X14170Y271074D01*
X14072Y271076D01*
X8954D01*
X8856Y271074D01*
X8758Y271067D01*
X8661Y271054D01*
X8564Y271037D01*
X8468Y271015D01*
X8374Y270989D01*
X8281Y270958D01*
X8189Y270922D01*
X8100Y270881D01*
X8013Y270837D01*
X7928Y270788D01*
X7845Y270734D01*
X7765Y270677D01*
X7689Y270616D01*
X7615Y270551D01*
X7545Y270482D01*
X7478Y270410D01*
X7415Y270335D01*
X7356Y270257D01*
X7300Y270176D01*
X7249Y270092D01*
X7202Y270006D01*
X7160Y269917D01*
X7122Y269827D01*
X7088Y269735D01*
X7059Y269641D01*
X7035Y269546D01*
X7015Y269450D01*
X7001Y269353D01*
X6991Y269255D01*
X6986Y269157D01*
Y269059D01*
X6991Y268961D01*
X7001Y268863D01*
X7015Y268766D01*
X7035Y268670D01*
X7059Y268575D01*
X7088Y268481D01*
X7122Y268389D01*
X7160Y268298D01*
X7202Y268210D01*
X7249Y268124D01*
X7300Y268040D01*
X7356Y267959D01*
X7415Y267881D01*
X7478Y267805D01*
X7545Y267733D01*
X7615Y267665D01*
X7689Y267600D01*
X7765Y267539D01*
X7845Y267481D01*
X7928Y267428D01*
X8013Y267379D01*
X8100Y267334D01*
X8189Y267294D01*
X8281Y267258D01*
X8374Y267227D01*
X8468Y267200D01*
X8564Y267178D01*
X8661Y267161D01*
X8758Y267149D01*
X8856Y267142D01*
X8954Y267139D01*
X14072D01*
X14170Y267142D01*
X14268Y267149D01*
X14365Y267161D01*
X14462Y267178D01*
X14558Y267200D01*
X14652Y267227D01*
X14745Y267258D01*
X14837Y267294D01*
X14926Y267334D01*
X15013Y267379D01*
X15099Y267428D01*
X15181Y267481D01*
X15261Y267539D01*
X15337Y267600D01*
X15411Y267665D01*
X15481Y267733D01*
X15548Y267805D01*
X15611Y267881D01*
X15670Y267959D01*
X15726Y268040D01*
X15777Y268124D01*
X15824Y268210D01*
X15866Y268298D01*
X15905Y268389D01*
X15938Y268481D01*
X15967Y268575D01*
X15991Y268670D01*
X16011Y268766D01*
X16025Y268863D01*
X16035Y268961D01*
X16040Y269059D01*
Y269157D01*
G37*
G36*
G01X21308Y229779D02*
Y228881D01*
X19812D01*
Y227582D01*
X21308D01*
Y226629D01*
X21111Y226432D01*
X18000D01*
X17804Y226629D01*
Y229779D01*
X18000Y229976D01*
X21111D01*
X21308Y229779D01*
G37*
G36*
G01X27410Y229976D02*
X24260D01*
X24063Y229779D01*
Y228881D01*
X25520D01*
Y227582D01*
X24063D01*
Y226629D01*
X24260Y226432D01*
X27410D01*
X27607Y226629D01*
Y229779D01*
X27410Y229976D01*
G37*
G36*
G01X31663Y11529D02*
X31545Y11535D01*
X31427D01*
X31310Y11529D01*
X31192Y11517D01*
X31076Y11499D01*
X30961Y11476D01*
X30846Y11447D01*
X30734Y11412D01*
X30623Y11372D01*
X30515Y11326D01*
X30408Y11275D01*
X30305Y11219D01*
X30205Y11157D01*
X30107Y11091D01*
X30013Y11020D01*
X29923Y10944D01*
X29837Y10864D01*
X29755Y10780D01*
X29677Y10692D01*
X29603Y10599D01*
X29534Y10504D01*
X29471Y10405D01*
X29412Y10303D01*
X29358Y10198D01*
X29309Y10091D01*
X29266Y9981D01*
X29229Y9869D01*
X29197Y9756D01*
X29171Y9641D01*
X29150Y9525D01*
X29136Y9408D01*
X29127Y9291D01*
X29124Y9173D01*
Y6811D01*
X29127Y6693D01*
X29136Y6576D01*
X29150Y6459D01*
X29171Y6343D01*
X29197Y6228D01*
X29229Y6115D01*
X29266Y6003D01*
X29309Y5893D01*
X29358Y5786D01*
X29412Y5681D01*
X29471Y5579D01*
X29534Y5480D01*
X29603Y5385D01*
X29677Y5293D01*
X29755Y5204D01*
X29837Y5120D01*
X29923Y5040D01*
X30013Y4964D01*
X30107Y4893D01*
X30205Y4827D01*
X30305Y4765D01*
X30408Y4709D01*
X30515Y4658D01*
X30623Y4612D01*
X30734Y4572D01*
X30846Y4537D01*
X30961Y4508D01*
X31076Y4485D01*
X31192Y4467D01*
X31310Y4455D01*
X31427Y4449D01*
X31545D01*
X31663Y4455D01*
X31780Y4467D01*
X31896Y4485D01*
X32012Y4508D01*
X32126Y4537D01*
X32238Y4572D01*
X32349Y4612D01*
X32458Y4658D01*
X32564Y4709D01*
X32667Y4765D01*
X32768Y4827D01*
X32865Y4893D01*
X32959Y4964D01*
X33049Y5040D01*
X33135Y5120D01*
X33218Y5204D01*
X33296Y5293D01*
X33369Y5385D01*
X33438Y5480D01*
X33502Y5579D01*
X33561Y5681D01*
X33614Y5786D01*
X33663Y5893D01*
X33706Y6003D01*
X33743Y6115D01*
X33775Y6228D01*
X33801Y6343D01*
X33822Y6459D01*
X33837Y6576D01*
X33845Y6693D01*
X33848Y6811D01*
Y9173D01*
X33845Y9291D01*
X33837Y9408D01*
X33822Y9525D01*
X33801Y9641D01*
X33775Y9756D01*
X33743Y9869D01*
X33706Y9981D01*
X33663Y10091D01*
X33614Y10198D01*
X33561Y10303D01*
X33502Y10405D01*
X33438Y10504D01*
X33369Y10599D01*
X33296Y10692D01*
X33218Y10780D01*
X33135Y10864D01*
X33049Y10944D01*
X32959Y11020D01*
X32865Y11091D01*
X32768Y11157D01*
X32667Y11219D01*
X32564Y11275D01*
X32458Y11326D01*
X32349Y11372D01*
X32238Y11412D01*
X32126Y11447D01*
X32012Y11476D01*
X31896Y11499D01*
X31780Y11517D01*
X31663Y11529D01*
G37*
G36*
G01Y28379D02*
X31545Y28385D01*
X31427D01*
X31310Y28379D01*
X31192Y28368D01*
X31076Y28350D01*
X30961Y28327D01*
X30846Y28298D01*
X30734Y28263D01*
X30623Y28223D01*
X30515Y28177D01*
X30408Y28126D01*
X30305Y28070D01*
X30205Y28008D01*
X30107Y27942D01*
X30013Y27871D01*
X29923Y27795D01*
X29837Y27715D01*
X29755Y27631D01*
X29677Y27542D01*
X29603Y27450D01*
X29534Y27355D01*
X29471Y27256D01*
X29412Y27154D01*
X29358Y27049D01*
X29309Y26941D01*
X29266Y26832D01*
X29229Y26720D01*
X29197Y26607D01*
X29171Y26492D01*
X29150Y26376D01*
X29136Y26259D01*
X29127Y26142D01*
X29124Y26024D01*
Y22874D01*
X29127Y22757D01*
X29136Y22639D01*
X29150Y22522D01*
X29171Y22406D01*
X29197Y22291D01*
X29229Y22178D01*
X29266Y22066D01*
X29309Y21957D01*
X29358Y21849D01*
X29412Y21745D01*
X29471Y21643D01*
X29534Y21544D01*
X29603Y21448D01*
X29677Y21356D01*
X29755Y21268D01*
X29837Y21183D01*
X29923Y21103D01*
X30013Y21027D01*
X30107Y20956D01*
X30205Y20890D01*
X30305Y20829D01*
X30408Y20772D01*
X30515Y20721D01*
X30623Y20675D01*
X30734Y20635D01*
X30846Y20600D01*
X30961Y20571D01*
X31076Y20548D01*
X31192Y20530D01*
X31310Y20519D01*
X31427Y20513D01*
X31545D01*
X31663Y20519D01*
X31780Y20530D01*
X31896Y20548D01*
X32012Y20571D01*
X32126Y20600D01*
X32238Y20635D01*
X32349Y20675D01*
X32458Y20721D01*
X32564Y20772D01*
X32667Y20829D01*
X32768Y20890D01*
X32865Y20956D01*
X32959Y21027D01*
X33049Y21103D01*
X33135Y21183D01*
X33218Y21268D01*
X33296Y21356D01*
X33369Y21448D01*
X33438Y21544D01*
X33502Y21643D01*
X33561Y21745D01*
X33614Y21849D01*
X33663Y21957D01*
X33706Y22066D01*
X33743Y22178D01*
X33775Y22291D01*
X33801Y22406D01*
X33822Y22522D01*
X33837Y22639D01*
X33845Y22757D01*
X33848Y22874D01*
Y26024D01*
X33845Y26142D01*
X33837Y26259D01*
X33822Y26376D01*
X33801Y26492D01*
X33775Y26607D01*
X33743Y26720D01*
X33706Y26832D01*
X33663Y26941D01*
X33614Y27049D01*
X33561Y27154D01*
X33502Y27256D01*
X33438Y27355D01*
X33369Y27450D01*
X33296Y27542D01*
X33218Y27631D01*
X33135Y27715D01*
X33049Y27795D01*
X32959Y27871D01*
X32865Y27942D01*
X32768Y28008D01*
X32667Y28070D01*
X32564Y28126D01*
X32458Y28177D01*
X32349Y28223D01*
X32238Y28263D01*
X32126Y28298D01*
X32012Y28327D01*
X31896Y28350D01*
X31780Y28368D01*
X31663Y28379D01*
G37*
G36*
G01X33533Y234953D02*
X33538Y235051D01*
Y235149D01*
X33533Y235247D01*
X33523Y235345D01*
X33509Y235442D01*
X33489Y235538D01*
X33465Y235633D01*
X33436Y235727D01*
X33403Y235819D01*
X33365Y235909D01*
X33322Y235998D01*
X33275Y236084D01*
X33224Y236168D01*
X33169Y236249D01*
X33109Y236327D01*
X33046Y236402D01*
X32979Y236474D01*
X32909Y236543D01*
X32835Y236608D01*
X32759Y236669D01*
X32679Y236726D01*
X32597Y236780D01*
X32512Y236829D01*
X32424Y236873D01*
X32335Y236914D01*
X32243Y236950D01*
X32150Y236981D01*
X32056Y237007D01*
X31960Y237029D01*
X31864Y237046D01*
X31766Y237059D01*
X31668Y237066D01*
X31570Y237068D01*
X29449D01*
Y237548D01*
X29446Y237646D01*
X29439Y237744D01*
X29427Y237841D01*
X29410Y237938D01*
X29388Y238033D01*
X29361Y238128D01*
X29330Y238221D01*
X29294Y238312D01*
X29254Y238402D01*
X29209Y238489D01*
X29160Y238574D01*
X29107Y238657D01*
X29049Y238736D01*
X28988Y238813D01*
X28923Y238887D01*
X28855Y238957D01*
X28783Y239024D01*
X28707Y239087D01*
X28629Y239146D01*
X28548Y239201D01*
X28464Y239253D01*
X28378Y239299D01*
X28290Y239342D01*
X28199Y239380D01*
X28107Y239414D01*
X28013Y239443D01*
X27918Y239467D01*
X27822Y239486D01*
X27725Y239501D01*
X27627Y239511D01*
X27529Y239516D01*
X27431D01*
X27333Y239511D01*
X27235Y239501D01*
X27138Y239486D01*
X27042Y239467D01*
X26947Y239443D01*
X26853Y239414D01*
X26761Y239380D01*
X26671Y239342D01*
X26582Y239299D01*
X26496Y239253D01*
X26412Y239201D01*
X26331Y239146D01*
X26253Y239087D01*
X26178Y239024D01*
X26106Y238957D01*
X26037Y238887D01*
X25972Y238813D01*
X25911Y238736D01*
X25854Y238657D01*
X25800Y238574D01*
X25751Y238489D01*
X25707Y238402D01*
X25666Y238312D01*
X25630Y238221D01*
X25599Y238128D01*
X25573Y238033D01*
X25551Y237938D01*
X25534Y237841D01*
X25521Y237744D01*
X25514Y237646D01*
X25512Y237548D01*
Y234792D01*
X25514Y234694D01*
X25521Y234596D01*
X25534Y234498D01*
X25551Y234402D01*
X25573Y234306D01*
X25599Y234212D01*
X25630Y234119D01*
X25666Y234027D01*
X25707Y233938D01*
X25751Y233850D01*
X25800Y233765D01*
X25854Y233683D01*
X25911Y233603D01*
X25972Y233527D01*
X26037Y233453D01*
X26106Y233383D01*
X26178Y233316D01*
X26253Y233253D01*
X26331Y233194D01*
X26412Y233138D01*
X26496Y233087D01*
X26582Y233040D01*
X26671Y232998D01*
X26761Y232959D01*
X26853Y232926D01*
X26947Y232897D01*
X27042Y232873D01*
X27138Y232853D01*
X27235Y232839D01*
X27333Y232829D01*
X27431Y232824D01*
X27529D01*
X27627Y232829D01*
X27725Y232839D01*
X27822Y232853D01*
X27918Y232873D01*
X28013Y232897D01*
X28107Y232926D01*
X28199Y232959D01*
X28290Y232998D01*
X28378Y233040D01*
X28464Y233087D01*
X28537Y233131D01*
X31570D01*
X31668Y233134D01*
X31766Y233141D01*
X31864Y233153D01*
X31960Y233170D01*
X32056Y233192D01*
X32150Y233219D01*
X32243Y233250D01*
X32335Y233286D01*
X32424Y233326D01*
X32512Y233371D01*
X32597Y233420D01*
X32679Y233473D01*
X32759Y233531D01*
X32835Y233592D01*
X32909Y233657D01*
X32979Y233725D01*
X33046Y233797D01*
X33109Y233873D01*
X33169Y233951D01*
X33224Y234032D01*
X33275Y234116D01*
X33322Y234202D01*
X33365Y234290D01*
X33403Y234381D01*
X33436Y234473D01*
X33465Y234567D01*
X33489Y234662D01*
X33509Y234758D01*
X33523Y234855D01*
X33533Y234953D01*
G37*
G36*
G01Y268953D02*
X33538Y269051D01*
Y269149D01*
X33533Y269247D01*
X33523Y269345D01*
X33509Y269442D01*
X33489Y269538D01*
X33465Y269633D01*
X33436Y269727D01*
X33403Y269819D01*
X33365Y269909D01*
X33322Y269998D01*
X33275Y270084D01*
X33224Y270168D01*
X33169Y270249D01*
X33109Y270327D01*
X33046Y270402D01*
X32979Y270474D01*
X32909Y270543D01*
X32835Y270608D01*
X32759Y270669D01*
X32679Y270726D01*
X32597Y270780D01*
X32512Y270829D01*
X32424Y270873D01*
X32335Y270914D01*
X32243Y270950D01*
X32150Y270981D01*
X32056Y271007D01*
X31960Y271029D01*
X31864Y271046D01*
X31766Y271059D01*
X31668Y271066D01*
X31570Y271068D01*
X28729D01*
X28707Y271087D01*
X28629Y271146D01*
X28548Y271201D01*
X28464Y271253D01*
X28378Y271299D01*
X28290Y271342D01*
X28199Y271380D01*
X28107Y271414D01*
X28013Y271443D01*
X27918Y271467D01*
X27822Y271486D01*
X27725Y271501D01*
X27627Y271511D01*
X27529Y271516D01*
X27431D01*
X27333Y271511D01*
X27235Y271501D01*
X27138Y271486D01*
X27042Y271467D01*
X26947Y271443D01*
X26853Y271414D01*
X26761Y271380D01*
X26671Y271342D01*
X26582Y271299D01*
X26496Y271253D01*
X26412Y271201D01*
X26331Y271146D01*
X26253Y271087D01*
X26178Y271024D01*
X26106Y270957D01*
X26037Y270887D01*
X25972Y270813D01*
X25911Y270736D01*
X25854Y270657D01*
X25800Y270574D01*
X25751Y270489D01*
X25707Y270402D01*
X25666Y270312D01*
X25630Y270221D01*
X25599Y270128D01*
X25573Y270033D01*
X25551Y269938D01*
X25534Y269841D01*
X25521Y269744D01*
X25514Y269646D01*
X25512Y269548D01*
Y266792D01*
X25514Y266694D01*
X25521Y266596D01*
X25534Y266498D01*
X25551Y266402D01*
X25573Y266306D01*
X25599Y266212D01*
X25630Y266119D01*
X25666Y266027D01*
X25707Y265938D01*
X25751Y265850D01*
X25800Y265765D01*
X25854Y265683D01*
X25911Y265603D01*
X25972Y265527D01*
X26037Y265453D01*
X26106Y265383D01*
X26178Y265316D01*
X26253Y265253D01*
X26331Y265194D01*
X26412Y265138D01*
X26496Y265087D01*
X26582Y265040D01*
X26671Y264998D01*
X26761Y264959D01*
X26853Y264926D01*
X26947Y264897D01*
X27042Y264873D01*
X27138Y264853D01*
X27235Y264839D01*
X27333Y264829D01*
X27431Y264824D01*
X27529D01*
X27627Y264829D01*
X27725Y264839D01*
X27822Y264853D01*
X27918Y264873D01*
X28013Y264897D01*
X28107Y264926D01*
X28199Y264959D01*
X28290Y264998D01*
X28378Y265040D01*
X28464Y265087D01*
X28548Y265138D01*
X28629Y265194D01*
X28707Y265253D01*
X28783Y265316D01*
X28855Y265383D01*
X28923Y265453D01*
X28988Y265527D01*
X29049Y265603D01*
X29107Y265683D01*
X29160Y265765D01*
X29209Y265850D01*
X29254Y265938D01*
X29294Y266027D01*
X29330Y266119D01*
X29361Y266212D01*
X29388Y266306D01*
X29410Y266402D01*
X29427Y266498D01*
X29439Y266596D01*
X29446Y266694D01*
X29449Y266792D01*
Y267131D01*
X31570D01*
X31668Y267134D01*
X31766Y267141D01*
X31864Y267153D01*
X31960Y267170D01*
X32056Y267192D01*
X32150Y267219D01*
X32243Y267250D01*
X32335Y267286D01*
X32424Y267326D01*
X32512Y267371D01*
X32597Y267420D01*
X32679Y267473D01*
X32759Y267531D01*
X32835Y267592D01*
X32909Y267657D01*
X32979Y267725D01*
X33046Y267797D01*
X33109Y267873D01*
X33169Y267951D01*
X33224Y268032D01*
X33275Y268116D01*
X33322Y268202D01*
X33365Y268290D01*
X33403Y268381D01*
X33436Y268473D01*
X33465Y268567D01*
X33489Y268662D01*
X33509Y268758D01*
X33523Y268855D01*
X33533Y268953D01*
G37*
G36*
G01X36240Y37195D02*
Y40345D01*
X36043Y40542D01*
X35145D01*
Y39085D01*
X33846D01*
Y40542D01*
X32893D01*
X32696Y40345D01*
Y37195D01*
X32893Y36998D01*
X36043D01*
X36240Y37195D01*
G37*
G36*
G01X36043Y43297D02*
X35145D01*
Y44793D01*
X33846D01*
Y43297D01*
X32893D01*
X32696Y43494D01*
Y46605D01*
X32893Y46801D01*
X36043D01*
X36240Y46605D01*
Y43494D01*
X36043Y43297D01*
G37*
G36*
G01X36240Y48895D02*
Y52045D01*
X36043Y52242D01*
X35145D01*
Y50785D01*
X33846D01*
Y52242D01*
X32893D01*
X32696Y52045D01*
Y48895D01*
X32893Y48698D01*
X36043D01*
X36240Y48895D01*
G37*
G36*
G01X36043Y54997D02*
X35145D01*
Y56493D01*
X33846D01*
Y54997D01*
X32893D01*
X32696Y55194D01*
Y58305D01*
X32893Y58501D01*
X36043D01*
X36240Y58305D01*
Y55194D01*
X36043Y54997D01*
G37*
G36*
G01X35871Y65975D02*
Y65077D01*
X34375D01*
Y63778D01*
X35871D01*
Y62825D01*
X35674Y62628D01*
X32563D01*
X32367Y62825D01*
Y65975D01*
X32563Y66172D01*
X35674D01*
X35871Y65975D01*
G37*
G36*
G01X31270Y193598D02*
X32168D01*
Y192102D01*
X33467D01*
Y193598D01*
X34420D01*
X34617Y193401D01*
Y190290D01*
X34420Y190094D01*
X31270D01*
X31073Y190290D01*
Y193401D01*
X31270Y193598D01*
G37*
G36*
G01X31073Y199700D02*
Y196550D01*
X31270Y196353D01*
X32168D01*
Y197810D01*
X33467D01*
Y196353D01*
X34420D01*
X34617Y196550D01*
Y199700D01*
X34420Y199897D01*
X31270D01*
X31073Y199700D01*
G37*
G36*
G01X40727Y190290D02*
Y193440D01*
X40530Y193637D01*
X39632D01*
Y192180D01*
X38333D01*
Y193637D01*
X37380D01*
X37183Y193440D01*
Y190290D01*
X37380Y190093D01*
X40530D01*
X40727Y190290D01*
G37*
G36*
G01X40530Y196392D02*
X39632D01*
Y197888D01*
X38333D01*
Y196392D01*
X37380D01*
X37183Y196589D01*
Y199700D01*
X37380Y199896D01*
X40530D01*
X40727Y199700D01*
Y196589D01*
X40530Y196392D01*
G37*
G36*
G01X39476Y219154D02*
Y222304D01*
X39279Y222501D01*
X38381D01*
Y221044D01*
X37082D01*
Y222501D01*
X36129D01*
X35932Y222304D01*
Y219154D01*
X36129Y218957D01*
X39279D01*
X39476Y219154D01*
G37*
G36*
G01X39279Y225256D02*
X38381D01*
Y226752D01*
X37082D01*
Y225256D01*
X36129D01*
X35932Y225453D01*
Y228564D01*
X36129Y228760D01*
X39279D01*
X39476Y228564D01*
Y225453D01*
X39279Y225256D01*
G37*
G36*
G01X41973Y66172D02*
X38823D01*
X38626Y65975D01*
Y65077D01*
X40083D01*
Y63778D01*
X38626D01*
Y62825D01*
X38823Y62628D01*
X41973D01*
X42170Y62825D01*
Y65975D01*
X41973Y66172D01*
G37*
G36*
G01X42127Y124095D02*
Y127245D01*
X41930Y127442D01*
X41032D01*
Y125985D01*
X39733D01*
Y127442D01*
X38780D01*
X38583Y127245D01*
Y124095D01*
X38780Y123898D01*
X41930D01*
X42127Y124095D01*
G37*
G36*
G01X41930Y130197D02*
X41032D01*
Y131693D01*
X39733D01*
Y130197D01*
X38780D01*
X38583Y130394D01*
Y133505D01*
X38780Y133701D01*
X41930D01*
X42127Y133505D01*
Y130394D01*
X41930Y130197D01*
G37*
G36*
G01X49172Y94395D02*
Y97545D01*
X48975Y97742D01*
X48077D01*
Y96285D01*
X46778D01*
Y97742D01*
X45825D01*
X45628Y97545D01*
Y94395D01*
X45825Y94198D01*
X48975D01*
X49172Y94395D01*
G37*
G36*
G01X48975Y100497D02*
X48077D01*
Y101993D01*
X46778D01*
Y100497D01*
X45825D01*
X45628Y100694D01*
Y103805D01*
X45825Y104001D01*
X48975D01*
X49172Y103805D01*
Y100694D01*
X48975Y100497D01*
G37*
G36*
G01X42184Y218624D02*
X45334D01*
X45531Y218821D01*
Y219719D01*
X44074D01*
Y221018D01*
X45531D01*
Y221971D01*
X45334Y222168D01*
X42184D01*
X41987Y221971D01*
Y218821D01*
X42184Y218624D01*
G37*
G36*
G01X45502Y229579D02*
Y228681D01*
X44006D01*
Y227382D01*
X45502D01*
Y226429D01*
X45305Y226232D01*
X42194D01*
X41998Y226429D01*
Y229579D01*
X42194Y229776D01*
X45305D01*
X45502Y229579D01*
G37*
G36*
G01X45438Y235779D02*
Y234881D01*
X43942D01*
Y233582D01*
X45438D01*
Y232629D01*
X45241Y232432D01*
X42130D01*
X41934Y232629D01*
Y235779D01*
X42130Y235976D01*
X45241D01*
X45438Y235779D01*
G37*
G36*
G01X48286Y218821D02*
Y219719D01*
X49782D01*
Y221018D01*
X48286D01*
Y221971D01*
X48483Y222168D01*
X51594D01*
X51790Y221971D01*
Y218821D01*
X51594Y218624D01*
X48483D01*
X48286Y218821D01*
G37*
G36*
G01X51604Y229776D02*
X48454D01*
X48257Y229579D01*
Y228681D01*
X49714D01*
Y227382D01*
X48257D01*
Y226429D01*
X48454Y226232D01*
X51604D01*
X51801Y226429D01*
Y229579D01*
X51604Y229776D01*
G37*
G36*
G01X51540Y235976D02*
X48390D01*
X48193Y235779D01*
Y234881D01*
X49650D01*
Y233582D01*
X48193D01*
Y232629D01*
X48390Y232432D01*
X51540D01*
X51737Y232629D01*
Y235779D01*
X51540Y235976D01*
G37*
G36*
G01X53872Y232524D02*
X57022D01*
X57219Y232721D01*
Y233619D01*
X55762D01*
Y234918D01*
X57219D01*
Y235871D01*
X57022Y236068D01*
X53872D01*
X53675Y235871D01*
Y232721D01*
X53872Y232524D01*
G37*
G36*
G01X57232Y241879D02*
Y240981D01*
X55736D01*
Y239682D01*
X57232D01*
Y238729D01*
X57035Y238532D01*
X53924D01*
X53728Y238729D01*
Y241879D01*
X53924Y242076D01*
X57035D01*
X57232Y241879D01*
G37*
G36*
G01X59974Y232721D02*
Y233619D01*
X61470D01*
Y234918D01*
X59974D01*
Y235871D01*
X60171Y236068D01*
X63282D01*
X63478Y235871D01*
Y232721D01*
X63282Y232524D01*
X60171D01*
X59974Y232721D01*
G37*
G36*
G01X63334Y242076D02*
X60184D01*
X59987Y241879D01*
Y240981D01*
X61444D01*
Y239682D01*
X59987D01*
Y238729D01*
X60184Y238532D01*
X63334D01*
X63531Y238729D01*
Y241879D01*
X63334Y242076D01*
G37*
G36*
G01X65679Y11529D02*
X65561Y11535D01*
X65443D01*
X65326Y11529D01*
X65208Y11517D01*
X65092Y11499D01*
X64977Y11476D01*
X64862Y11447D01*
X64750Y11412D01*
X64639Y11372D01*
X64531Y11326D01*
X64424Y11275D01*
X64321Y11219D01*
X64221Y11157D01*
X64123Y11091D01*
X64029Y11020D01*
X63939Y10944D01*
X63853Y10864D01*
X63771Y10780D01*
X63693Y10692D01*
X63619Y10599D01*
X63550Y10504D01*
X63487Y10405D01*
X63428Y10303D01*
X63374Y10198D01*
X63325Y10091D01*
X63282Y9981D01*
X63245Y9869D01*
X63213Y9756D01*
X63187Y9641D01*
X63166Y9525D01*
X63152Y9408D01*
X63143Y9291D01*
X63140Y9173D01*
Y6811D01*
X63143Y6693D01*
X63152Y6576D01*
X63166Y6459D01*
X63187Y6343D01*
X63213Y6228D01*
X63245Y6115D01*
X63282Y6003D01*
X63325Y5893D01*
X63374Y5786D01*
X63428Y5681D01*
X63487Y5579D01*
X63550Y5480D01*
X63619Y5385D01*
X63693Y5293D01*
X63771Y5204D01*
X63853Y5120D01*
X63939Y5040D01*
X64029Y4964D01*
X64123Y4893D01*
X64221Y4827D01*
X64321Y4765D01*
X64424Y4709D01*
X64531Y4658D01*
X64639Y4612D01*
X64750Y4572D01*
X64862Y4537D01*
X64977Y4508D01*
X65092Y4485D01*
X65208Y4467D01*
X65326Y4455D01*
X65443Y4449D01*
X65561D01*
X65679Y4455D01*
X65796Y4467D01*
X65912Y4485D01*
X66028Y4508D01*
X66142Y4537D01*
X66254Y4572D01*
X66365Y4612D01*
X66474Y4658D01*
X66580Y4709D01*
X66683Y4765D01*
X66784Y4827D01*
X66881Y4893D01*
X66975Y4964D01*
X67065Y5040D01*
X67151Y5120D01*
X67234Y5204D01*
X67312Y5293D01*
X67385Y5385D01*
X67454Y5480D01*
X67518Y5579D01*
X67577Y5681D01*
X67630Y5786D01*
X67679Y5893D01*
X67722Y6003D01*
X67759Y6115D01*
X67791Y6228D01*
X67817Y6343D01*
X67838Y6459D01*
X67853Y6576D01*
X67861Y6693D01*
X67864Y6811D01*
Y9173D01*
X67861Y9291D01*
X67853Y9408D01*
X67838Y9525D01*
X67817Y9641D01*
X67791Y9756D01*
X67759Y9869D01*
X67722Y9981D01*
X67679Y10091D01*
X67630Y10198D01*
X67577Y10303D01*
X67518Y10405D01*
X67454Y10504D01*
X67385Y10599D01*
X67312Y10692D01*
X67234Y10780D01*
X67151Y10864D01*
X67065Y10944D01*
X66975Y11020D01*
X66881Y11091D01*
X66784Y11157D01*
X66683Y11219D01*
X66580Y11275D01*
X66474Y11326D01*
X66365Y11372D01*
X66254Y11412D01*
X66142Y11447D01*
X66028Y11476D01*
X65912Y11499D01*
X65796Y11517D01*
X65679Y11529D01*
G37*
G36*
G01Y28379D02*
X65561Y28385D01*
X65443D01*
X65326Y28379D01*
X65208Y28368D01*
X65092Y28350D01*
X64977Y28327D01*
X64862Y28298D01*
X64750Y28263D01*
X64639Y28223D01*
X64531Y28177D01*
X64424Y28126D01*
X64321Y28070D01*
X64221Y28008D01*
X64123Y27942D01*
X64029Y27871D01*
X63939Y27795D01*
X63853Y27715D01*
X63771Y27631D01*
X63693Y27542D01*
X63619Y27450D01*
X63550Y27355D01*
X63487Y27256D01*
X63428Y27154D01*
X63374Y27049D01*
X63325Y26941D01*
X63282Y26832D01*
X63245Y26720D01*
X63213Y26607D01*
X63187Y26492D01*
X63166Y26376D01*
X63152Y26259D01*
X63143Y26142D01*
X63140Y26024D01*
Y22874D01*
X63143Y22757D01*
X63152Y22639D01*
X63166Y22522D01*
X63187Y22406D01*
X63213Y22291D01*
X63245Y22178D01*
X63282Y22066D01*
X63325Y21957D01*
X63374Y21849D01*
X63428Y21745D01*
X63487Y21643D01*
X63550Y21544D01*
X63619Y21448D01*
X63693Y21356D01*
X63771Y21268D01*
X63853Y21183D01*
X63939Y21103D01*
X64029Y21027D01*
X64123Y20956D01*
X64221Y20890D01*
X64321Y20829D01*
X64424Y20772D01*
X64531Y20721D01*
X64639Y20675D01*
X64750Y20635D01*
X64862Y20600D01*
X64977Y20571D01*
X65092Y20548D01*
X65208Y20530D01*
X65326Y20519D01*
X65443Y20513D01*
X65561D01*
X65679Y20519D01*
X65796Y20530D01*
X65912Y20548D01*
X66028Y20571D01*
X66142Y20600D01*
X66254Y20635D01*
X66365Y20675D01*
X66474Y20721D01*
X66580Y20772D01*
X66683Y20829D01*
X66784Y20890D01*
X66881Y20956D01*
X66975Y21027D01*
X67065Y21103D01*
X67151Y21183D01*
X67234Y21268D01*
X67312Y21356D01*
X67385Y21448D01*
X67454Y21544D01*
X67518Y21643D01*
X67577Y21745D01*
X67630Y21849D01*
X67679Y21957D01*
X67722Y22066D01*
X67759Y22178D01*
X67791Y22291D01*
X67817Y22406D01*
X67838Y22522D01*
X67853Y22639D01*
X67861Y22757D01*
X67864Y22874D01*
Y26024D01*
X67861Y26142D01*
X67853Y26259D01*
X67838Y26376D01*
X67817Y26492D01*
X67791Y26607D01*
X67759Y26720D01*
X67722Y26832D01*
X67679Y26941D01*
X67630Y27049D01*
X67577Y27154D01*
X67518Y27256D01*
X67454Y27355D01*
X67385Y27450D01*
X67312Y27542D01*
X67234Y27631D01*
X67151Y27715D01*
X67065Y27795D01*
X66975Y27871D01*
X66881Y27942D01*
X66784Y28008D01*
X66683Y28070D01*
X66580Y28126D01*
X66474Y28177D01*
X66365Y28223D01*
X66254Y28263D01*
X66142Y28298D01*
X66028Y28327D01*
X65912Y28350D01*
X65796Y28368D01*
X65679Y28379D01*
G37*
G36*
G01X69016Y117073D02*
X72166D01*
X72363Y117270D01*
Y118168D01*
X70906D01*
Y119467D01*
X72363D01*
Y120420D01*
X72166Y120617D01*
X69016D01*
X68819Y120420D01*
Y117270D01*
X69016Y117073D01*
G37*
G36*
G01Y123373D02*
X72166D01*
X72363Y123570D01*
Y124468D01*
X70906D01*
Y125767D01*
X72363D01*
Y126720D01*
X72166Y126917D01*
X69016D01*
X68819Y126720D01*
Y123570D01*
X69016Y123373D01*
G37*
G36*
G01X78575Y105308D02*
Y108458D01*
X78378Y108655D01*
X77480D01*
Y107198D01*
X76181D01*
Y108655D01*
X75228D01*
X75031Y108458D01*
Y105308D01*
X75228Y105111D01*
X78378D01*
X78575Y105308D01*
G37*
G36*
G01X78378Y111410D02*
X77480D01*
Y112906D01*
X76181D01*
Y111410D01*
X75228D01*
X75031Y111607D01*
Y114718D01*
X75228Y114914D01*
X78378D01*
X78575Y114718D01*
Y111607D01*
X78378Y111410D01*
G37*
G36*
G01X75118Y117270D02*
Y118168D01*
X76614D01*
Y119467D01*
X75118D01*
Y120420D01*
X75315Y120617D01*
X78426D01*
X78622Y120420D01*
Y117270D01*
X78426Y117073D01*
X75315D01*
X75118Y117270D01*
G37*
G36*
G01Y123570D02*
Y124468D01*
X76614D01*
Y125767D01*
X75118D01*
Y126720D01*
X75315Y126917D01*
X78426D01*
X78622Y126720D01*
Y123570D01*
X78426Y123373D01*
X75315D01*
X75118Y123570D01*
G37*
G36*
G01X84825Y53903D02*
X85723D01*
Y52407D01*
X87022D01*
Y53903D01*
X87975D01*
X88172Y53706D01*
Y50595D01*
X87975Y50399D01*
X84825D01*
X84628Y50595D01*
Y53706D01*
X84825Y53903D01*
G37*
G36*
G01X84628Y60005D02*
Y56855D01*
X84825Y56658D01*
X85723D01*
Y58115D01*
X87022D01*
Y56658D01*
X87975D01*
X88172Y56855D01*
Y60005D01*
X87975Y60202D01*
X84825D01*
X84628Y60005D01*
G37*
G36*
G01X91075Y115402D02*
Y118552D01*
X90878Y118749D01*
X89980D01*
Y117292D01*
X88681D01*
Y118749D01*
X87728D01*
X87531Y118552D01*
Y115402D01*
X87728Y115205D01*
X90878D01*
X91075Y115402D01*
G37*
G36*
G01X90878Y121504D02*
X89980D01*
Y123000D01*
X88681D01*
Y121504D01*
X87728D01*
X87531Y121701D01*
Y124812D01*
X87728Y125008D01*
X90878D01*
X91075Y124812D01*
Y121701D01*
X90878Y121504D01*
G37*
G36*
G01X94695Y47428D02*
X97845D01*
X98042Y47625D01*
Y48523D01*
X96585D01*
Y49822D01*
X98042D01*
Y50775D01*
X97845Y50972D01*
X94695D01*
X94498Y50775D01*
Y47625D01*
X94695Y47428D01*
G37*
G36*
G01X97259Y131675D02*
Y130777D01*
X95763D01*
Y129478D01*
X97259D01*
Y128525D01*
X97062Y128328D01*
X93951D01*
X93755Y128525D01*
Y131675D01*
X93951Y131872D01*
X97062D01*
X97259Y131675D01*
G37*
G36*
G01X93695Y195328D02*
X96845D01*
X97042Y195525D01*
Y196423D01*
X95585D01*
Y197722D01*
X97042D01*
Y198675D01*
X96845Y198872D01*
X93695D01*
X93498Y198675D01*
Y195525D01*
X93695Y195328D01*
G37*
G36*
G01X100797Y47625D02*
Y48523D01*
X102293D01*
Y49822D01*
X100797D01*
Y50775D01*
X100994Y50972D01*
X104105D01*
X104301Y50775D01*
Y47625D01*
X104105Y47428D01*
X100994D01*
X100797Y47625D01*
G37*
G36*
G01X103361Y131872D02*
X100211D01*
X100014Y131675D01*
Y130777D01*
X101471D01*
Y129478D01*
X100014D01*
Y128525D01*
X100211Y128328D01*
X103361D01*
X103558Y128525D01*
Y131675D01*
X103361Y131872D01*
G37*
G36*
G01X99797Y195525D02*
Y196423D01*
X101293D01*
Y197722D01*
X99797D01*
Y198675D01*
X99994Y198872D01*
X103105D01*
X103301Y198675D01*
Y195525D01*
X103105Y195328D01*
X99994D01*
X99797Y195525D01*
G37*
G36*
G01X135746Y183872D02*
X136381Y183237D01*
X135324Y182179D01*
X136242Y181261D01*
X137300Y182318D01*
X137974Y181644D01*
Y181366D01*
X135774Y179166D01*
X135496Y179167D01*
X133269Y181394D01*
X133268Y181672D01*
X135468Y183872D01*
X135746D01*
G37*
G36*
G01X137817Y207712D02*
X137182Y207077D01*
X136124Y208134D01*
X135206Y207216D01*
X136263Y206158D01*
X135589Y205484D01*
X135311D01*
X133111Y207684D01*
X133112Y207962D01*
X135339Y210189D01*
X135617Y210190D01*
X137817Y207990D01*
Y207712D01*
G37*
G36*
G01X140204Y174736D02*
X142431Y176963D01*
Y177242D01*
X141796Y177877D01*
X140766Y176847D01*
X139848Y177765D01*
X140878Y178796D01*
X140204Y179469D01*
X139925D01*
X137698Y177242D01*
Y176963D01*
X139925Y174736D01*
X140204D01*
G37*
G36*
G01X139922Y188326D02*
X137695Y186099D01*
Y185820D01*
X138330Y185185D01*
X139360Y186215D01*
X140278Y185297D01*
X139248Y184266D01*
X139922Y183593D01*
X140201D01*
X142428Y185820D01*
Y186099D01*
X140201Y188326D01*
X139922D01*
G37*
G36*
G01X142271Y203536D02*
X140044Y205763D01*
X139765D01*
X139130Y205128D01*
X140160Y204098D01*
X139242Y203180D01*
X138211Y204210D01*
X137538Y203536D01*
Y203257D01*
X139765Y201030D01*
X140044D01*
X142271Y203257D01*
Y203536D01*
G37*
G36*
G01X141923Y211874D02*
X141288Y211239D01*
X140230Y212296D01*
X139312Y211378D01*
X140369Y210320D01*
X139695Y209646D01*
X139417D01*
X137217Y211846D01*
X137218Y212124D01*
X139445Y214351D01*
X139723Y214352D01*
X141923Y212152D01*
Y211874D01*
G37*
G36*
G01X144380Y179190D02*
X143745Y179825D01*
X144802Y180883D01*
X143884Y181801D01*
X142826Y180744D01*
X142152Y181418D01*
Y181696D01*
X144352Y183896D01*
X144630Y183895D01*
X146857Y181668D01*
X146858Y181390D01*
X144658Y179190D01*
X144380D01*
G37*
G36*
G01X146377Y207698D02*
X144150Y209925D01*
X143871D01*
X143236Y209290D01*
X144266Y208260D01*
X143348Y207342D01*
X142317Y208372D01*
X141644Y207698D01*
Y207419D01*
X143871Y205192D01*
X144150D01*
X146377Y207419D01*
Y207698D01*
G37*
G36*
G01X152733Y58751D02*
Y61901D01*
X152536Y62098D01*
X151638D01*
Y60641D01*
X150339D01*
Y62098D01*
X149386D01*
X149189Y61901D01*
Y58751D01*
X149386Y58554D01*
X152536D01*
X152733Y58751D01*
G37*
G36*
G01X152536Y64853D02*
X151638D01*
Y66349D01*
X150339D01*
Y64853D01*
X149386D01*
X149189Y65050D01*
Y68161D01*
X149386Y68357D01*
X152536D01*
X152733Y68161D01*
Y65050D01*
X152536Y64853D01*
G37*
G36*
G01X158594Y58751D02*
Y61901D01*
X158397Y62098D01*
X157499D01*
Y60641D01*
X156200D01*
Y62098D01*
X155247D01*
X155050Y61901D01*
Y58751D01*
X155247Y58554D01*
X158397D01*
X158594Y58751D01*
G37*
G36*
G01X158397Y64853D02*
X157499D01*
Y66349D01*
X156200D01*
Y64853D01*
X155247D01*
X155050Y65050D01*
Y68161D01*
X155247Y68357D01*
X158397D01*
X158594Y68161D01*
Y65050D01*
X158397Y64853D01*
G37*
G36*
G01X167333Y58751D02*
Y61901D01*
X167136Y62098D01*
X166238D01*
Y60641D01*
X164939D01*
Y62098D01*
X163986D01*
X163789Y61901D01*
Y58751D01*
X163986Y58554D01*
X167136D01*
X167333Y58751D01*
G37*
G36*
G01X167136Y64853D02*
X166238D01*
Y66349D01*
X164939D01*
Y64853D01*
X163986D01*
X163789Y65050D01*
Y68161D01*
X163986Y68357D01*
X167136D01*
X167333Y68161D01*
Y65050D01*
X167136Y64853D01*
G37*
G36*
G01X174233Y58751D02*
Y61901D01*
X174036Y62098D01*
X173138D01*
Y60641D01*
X171839D01*
Y62098D01*
X170886D01*
X170689Y61901D01*
Y58751D01*
X170886Y58554D01*
X174036D01*
X174233Y58751D01*
G37*
G36*
G01X174036Y64853D02*
X173138D01*
Y66349D01*
X171839D01*
Y64853D01*
X170886D01*
X170689Y65050D01*
Y68161D01*
X170886Y68357D01*
X174036D01*
X174233Y68161D01*
Y65050D01*
X174036Y64853D01*
G37*
G36*
G01X180233Y58751D02*
Y61901D01*
X180036Y62098D01*
X179138D01*
Y60641D01*
X177839D01*
Y62098D01*
X176886D01*
X176689Y61901D01*
Y58751D01*
X176886Y58554D01*
X180036D01*
X180233Y58751D01*
G37*
G36*
G01X180036Y64853D02*
X179138D01*
Y66349D01*
X177839D01*
Y64853D01*
X176886D01*
X176689Y65050D01*
Y68161D01*
X176886Y68357D01*
X180036D01*
X180233Y68161D01*
Y65050D01*
X180036Y64853D01*
G37*
G36*
G01X186347Y58751D02*
Y61901D01*
X186150Y62098D01*
X185252D01*
Y60641D01*
X183953D01*
Y62098D01*
X183000D01*
X182803Y61901D01*
Y58751D01*
X183000Y58554D01*
X186150D01*
X186347Y58751D01*
G37*
G36*
G01X186150Y64853D02*
X185252D01*
Y66349D01*
X183953D01*
Y64853D01*
X183000D01*
X182803Y65050D01*
Y68161D01*
X183000Y68357D01*
X186150D01*
X186347Y68161D01*
Y65050D01*
X186150Y64853D01*
G37*
G36*
G01X266306Y29794D02*
Y36306D01*
X259794D01*
Y29794D01*
X266306D01*
G37*
G36*
G01Y37094D02*
Y43606D01*
X259794D01*
Y37094D01*
X266306D01*
G37*
G36*
G01X268069Y318294D02*
Y324806D01*
X261557D01*
Y318294D01*
X268069D01*
G37*
G36*
G01Y325594D02*
Y332106D01*
X261557D01*
Y325594D01*
X268069D01*
G37*
G36*
G01X273606Y29794D02*
Y36306D01*
X267094D01*
Y29794D01*
X273606D01*
G37*
G36*
G01Y37094D02*
Y43606D01*
X267094D01*
Y37094D01*
X273606D01*
G37*
G36*
G01X275369Y318294D02*
Y324806D01*
X268857D01*
Y318294D01*
X275369D01*
G37*
G36*
G01Y325594D02*
Y332106D01*
X268857D01*
Y325594D01*
X275369D01*
G37*
G36*
G01X324920Y127079D02*
Y126181D01*
X323424D01*
Y124882D01*
X324920D01*
Y123929D01*
X324723Y123732D01*
X321612D01*
X321416Y123929D01*
Y127079D01*
X321612Y127276D01*
X324723D01*
X324920Y127079D01*
G37*
G36*
G01X331022Y127276D02*
X327872D01*
X327675Y127079D01*
Y126181D01*
X329132D01*
Y124882D01*
X327675D01*
Y123929D01*
X327872Y123732D01*
X331022D01*
X331219Y123929D01*
Y127079D01*
X331022Y127276D01*
G37*
G36*
G01X349613Y16026D02*
Y15128D01*
X348117D01*
Y13829D01*
X349613D01*
Y12876D01*
X349416Y12679D01*
X346305D01*
X346109Y12876D01*
Y16026D01*
X346305Y16223D01*
X349416D01*
X349613Y16026D01*
G37*
G36*
G01X346305Y18777D02*
X349455D01*
X349652Y18974D01*
Y19872D01*
X348195D01*
Y21171D01*
X349652D01*
Y22124D01*
X349455Y22321D01*
X346305D01*
X346108Y22124D01*
Y18974D01*
X346305Y18777D01*
G37*
G36*
G01X347518Y365426D02*
Y364528D01*
X346022D01*
Y363229D01*
X347518D01*
Y362276D01*
X347321Y362079D01*
X344210D01*
X344014Y362276D01*
Y365426D01*
X344210Y365623D01*
X347321D01*
X347518Y365426D01*
G37*
G36*
G01X350203Y274426D02*
Y273528D01*
X348707D01*
Y272229D01*
X350203D01*
Y271276D01*
X350006Y271079D01*
X346895D01*
X346699Y271276D01*
Y274426D01*
X346895Y274623D01*
X350006D01*
X350203Y274426D01*
G37*
G36*
G01X346895Y277213D02*
X350045D01*
X350242Y277410D01*
Y278308D01*
X348785D01*
Y279607D01*
X350242D01*
Y280560D01*
X350045Y280757D01*
X346895D01*
X346698Y280560D01*
Y277410D01*
X346895Y277213D01*
G37*
G36*
G01X353620Y365623D02*
X350470D01*
X350273Y365426D01*
Y364528D01*
X351730D01*
Y363229D01*
X350273D01*
Y362276D01*
X350470Y362079D01*
X353620D01*
X353817Y362276D01*
Y365426D01*
X353620Y365623D01*
G37*
G36*
G01X355715Y16223D02*
X352565D01*
X352368Y16026D01*
Y15128D01*
X353825D01*
Y13829D01*
X352368D01*
Y12876D01*
X352565Y12679D01*
X355715D01*
X355912Y12876D01*
Y16026D01*
X355715Y16223D01*
G37*
G36*
G01X352407Y18974D02*
Y19872D01*
X353903D01*
Y21171D01*
X352407D01*
Y22124D01*
X352604Y22321D01*
X355715D01*
X355911Y22124D01*
Y18974D01*
X355715Y18777D01*
X352604D01*
X352407Y18974D01*
G37*
G36*
G01X356305Y274623D02*
X353155D01*
X352958Y274426D01*
Y273528D01*
X354415D01*
Y272229D01*
X352958D01*
Y271276D01*
X353155Y271079D01*
X356305D01*
X356502Y271276D01*
Y274426D01*
X356305Y274623D01*
G37*
G36*
G01X352997Y277410D02*
Y278308D01*
X354493D01*
Y279607D01*
X352997D01*
Y280560D01*
X353194Y280757D01*
X356305D01*
X356501Y280560D01*
Y277410D01*
X356305Y277213D01*
X353194D01*
X352997Y277410D01*
G37*
G36*
G01X364468Y107226D02*
Y106328D01*
X362972D01*
Y105029D01*
X364468D01*
Y104076D01*
X364271Y103879D01*
X361160D01*
X360964Y104076D01*
Y107226D01*
X361160Y107423D01*
X364271D01*
X364468Y107226D01*
G37*
G36*
G01X370570Y107423D02*
X367420D01*
X367223Y107226D01*
Y106328D01*
X368680D01*
Y105029D01*
X367223D01*
Y104076D01*
X367420Y103879D01*
X370570D01*
X370767Y104076D01*
Y107226D01*
X370570Y107423D01*
G37*
G36*
G01X24899Y242356D02*
X28639D01*
Y241175D01*
X24899D01*
Y242356D01*
G37*
G36*
G01Y244325D02*
X28639D01*
Y243144D01*
X24899D01*
Y244325D01*
G37*
G36*
G01Y246293D02*
X28639D01*
Y245112D01*
X24899D01*
Y246293D01*
G37*
G36*
G01Y248262D02*
X28639D01*
Y247081D01*
X24899D01*
Y248262D01*
G37*
G36*
G01Y250230D02*
X28639D01*
Y249049D01*
X24899D01*
Y250230D01*
G37*
G36*
G01Y252199D02*
X28639D01*
Y251018D01*
X24899D01*
Y252199D01*
G37*
G36*
G01Y254167D02*
X28639D01*
Y252986D01*
X24899D01*
Y254167D01*
G37*
G36*
G01Y256136D02*
X28639D01*
Y254955D01*
X24899D01*
Y256136D01*
G37*
G36*
G01Y258104D02*
X28639D01*
Y256923D01*
X24899D01*
Y258104D01*
G37*
G36*
G01Y260073D02*
X28639D01*
Y258892D01*
X24899D01*
Y260073D01*
G37*
G36*
G01Y262041D02*
X28639D01*
Y260860D01*
X24899D01*
Y262041D01*
G37*
G36*
G01Y264010D02*
X28639D01*
Y262829D01*
X24899D01*
Y264010D01*
G37*
G36*
G01X30017Y241372D02*
X33757D01*
Y240191D01*
X30017D01*
Y241372D01*
G37*
G36*
G01Y245309D02*
X33757D01*
Y244128D01*
X30017D01*
Y245309D01*
G37*
G36*
G01Y243340D02*
X33757D01*
Y242159D01*
X30017D01*
Y243340D01*
G37*
G36*
G01Y249246D02*
X33757D01*
Y248065D01*
X30017D01*
Y249246D01*
G37*
G36*
G01Y247277D02*
X33757D01*
Y246096D01*
X30017D01*
Y247277D01*
G37*
G36*
G01Y253183D02*
X33757D01*
Y252002D01*
X30017D01*
Y253183D01*
G37*
G36*
G01Y251214D02*
X33757D01*
Y250033D01*
X30017D01*
Y251214D01*
G37*
G36*
G01Y257120D02*
X33757D01*
Y255939D01*
X30017D01*
Y257120D01*
G37*
G36*
G01Y255151D02*
X33757D01*
Y253970D01*
X30017D01*
Y255151D01*
G37*
G36*
G01Y261057D02*
X33757D01*
Y259876D01*
X30017D01*
Y261057D01*
G37*
G36*
G01Y259088D02*
X33757D01*
Y257907D01*
X30017D01*
Y259088D01*
G37*
G36*
G01Y263025D02*
X33757D01*
Y261844D01*
X30017D01*
Y263025D01*
G37*
G36*
G01X34911Y24665D02*
Y29350D01*
X36880D01*
Y24665D01*
X34911D01*
G37*
G36*
G01X38061D02*
Y29350D01*
X40030D01*
Y24665D01*
X38061D01*
G37*
G36*
G01X41014Y24468D02*
Y29547D01*
X42195D01*
Y24468D01*
X41014D01*
G37*
G36*
G01X44951D02*
Y29547D01*
X46132D01*
Y24468D01*
X44951D01*
G37*
G36*
G01X42983D02*
Y29547D01*
X44164D01*
Y24468D01*
X42983D01*
G37*
G36*
G01X48888D02*
Y29547D01*
X50069D01*
Y24468D01*
X48888D01*
G37*
G36*
G01X46920D02*
Y29547D01*
X48101D01*
Y24468D01*
X46920D01*
G37*
G36*
G01X50857D02*
Y29547D01*
X52038D01*
Y24468D01*
X50857D01*
G37*
G36*
G01X52824D02*
Y29547D01*
X54005D01*
Y24468D01*
X52824D01*
G37*
G36*
G01X56959Y24664D02*
Y29349D01*
X58928D01*
Y24664D01*
X56959D01*
G37*
G36*
G01X54794Y24468D02*
Y29547D01*
X55975D01*
Y24468D01*
X54794D01*
G37*
G36*
G01X60109Y24665D02*
Y29350D01*
X62078D01*
Y24665D01*
X60109D01*
G37*
G54D10*
X3597Y197322D03*
Y200866D03*
X3397Y210622D03*
Y214166D03*
X4022Y278703D03*
X4122Y299803D03*
X8428Y38500D03*
X7566Y278703D03*
X7666Y299803D03*
X11972Y38500D03*
X11722Y278703D03*
X11822Y299803D03*
X15266Y278703D03*
X15366Y299803D03*
X19444Y278703D03*
X19544Y299803D03*
X22988Y278703D03*
X23088Y299803D03*
X27822D03*
X31366D03*
X35522D03*
X39066D03*
X40200Y331313D03*
Y334857D03*
X46788Y299803D03*
X43244D03*
X44254Y334900D03*
X47798D03*
X51800Y331299D03*
Y334843D03*
X55771Y334900D03*
X59315D03*
X63328Y269500D03*
X66872D03*
X181600Y255628D03*
Y259172D03*
X187100Y115428D03*
X183300D03*
X187100Y118972D03*
X183300D03*
X185400Y255628D03*
Y259172D03*
X190900Y115428D03*
Y118972D03*
X189200Y255628D03*
Y259172D03*
X194700Y115428D03*
Y118972D03*
X193000Y255628D03*
Y259172D03*
X198500Y115428D03*
Y118972D03*
X196800Y255628D03*
Y259172D03*
X202400Y115428D03*
Y118972D03*
X200600Y255628D03*
Y259172D03*
X206200Y115428D03*
Y118972D03*
X204400Y255628D03*
Y259172D03*
X210000Y115428D03*
Y118972D03*
X208200Y255628D03*
Y259172D03*
X231594Y30950D03*
Y34750D03*
Y38550D03*
Y42350D03*
Y46150D03*
Y49950D03*
X230794Y319450D03*
Y323250D03*
Y327050D03*
Y330850D03*
Y334650D03*
Y338450D03*
X235138Y30950D03*
Y34750D03*
Y38550D03*
Y42350D03*
Y46150D03*
Y49950D03*
X234338Y319450D03*
Y323250D03*
Y327050D03*
Y330850D03*
Y334650D03*
Y338450D03*
X264450Y16194D03*
Y19738D03*
X267650Y302494D03*
Y306038D03*
X323900Y191328D03*
Y194872D03*
X323760Y218000D03*
Y222100D03*
X331240Y191328D03*
Y194872D03*
X327304Y218000D03*
X331240Y218328D03*
X327304Y222100D03*
X331240Y221872D03*
G54D20*
X28768Y64400D03*
G54D11*
X6850Y33212D03*
X8872Y286038D03*
X8852Y292338D03*
X8972Y307138D03*
X8952Y313438D03*
X13150Y33232D03*
X32672Y307138D03*
X32652Y313438D03*
G54D30*
X63300Y277413D03*
X59800D03*
Y323787D03*
X63300D03*
X66900Y277413D03*
Y323787D03*
X70400Y277413D03*
Y323787D03*
X74000Y277413D03*
Y323787D03*
X77500Y277413D03*
Y323787D03*
X81000Y277413D03*
Y323787D03*
X88100Y277413D03*
X84600D03*
Y323787D03*
X88100D03*
X91700Y277413D03*
Y323787D03*
X95200Y277413D03*
Y323787D03*
G54D12*
X8468Y47952D03*
Y54448D03*
X11510Y150052D03*
Y156548D03*
X13968Y63252D03*
Y69748D03*
Y90152D03*
Y96648D03*
X30190Y106830D03*
Y113326D03*
X47100Y39252D03*
Y45748D03*
X55500Y39252D03*
Y45748D03*
X63900Y39152D03*
Y45648D03*
X72100Y39152D03*
Y45648D03*
X89600Y141352D03*
Y147848D03*
X90079Y178680D03*
Y185176D03*
X119100Y39889D03*
Y46385D03*
X127300Y39889D03*
Y46385D03*
X233610Y18179D03*
Y24675D03*
X233110Y307379D03*
Y313875D03*
G54D21*
X32250Y150580D03*
Y151950D03*
Y153330D03*
Y154710D03*
Y156090D03*
Y157470D03*
Y158840D03*
Y160220D03*
Y161600D03*
Y162980D03*
Y164360D03*
Y165730D03*
Y167110D03*
Y168490D03*
Y169870D03*
Y171250D03*
Y172620D03*
X59810Y153330D03*
Y151950D03*
Y157470D03*
Y156090D03*
Y154710D03*
Y161600D03*
Y160220D03*
Y158840D03*
Y165730D03*
Y164360D03*
Y162980D03*
Y169870D03*
Y168490D03*
Y167110D03*
Y172620D03*
Y171250D03*
G54D13*
X7168Y63744D03*
Y69256D03*
X12960Y168586D03*
Y174098D03*
X15568Y49644D03*
Y55156D03*
X18371Y168586D03*
Y174098D03*
X21440Y139211D03*
Y144723D03*
X23400Y107322D03*
Y112834D03*
X23940Y168586D03*
Y174098D03*
X28768Y39144D03*
Y44656D03*
X34540Y126044D03*
Y131556D03*
X40200Y39252D03*
Y44764D03*
X41400Y96344D03*
Y101856D03*
X50360Y206494D03*
Y212006D03*
X56500Y126044D03*
Y131556D03*
X78900Y39644D03*
Y45156D03*
X88900Y154844D03*
Y160356D03*
Y166344D03*
Y171856D03*
X96500Y141844D03*
Y147356D03*
Y179844D03*
Y185356D03*
X134100Y40381D03*
Y45893D03*
X136840Y300193D03*
Y305705D03*
X226690Y18214D03*
Y23726D03*
X226150Y308259D03*
Y313771D03*
G54D31*
X86275Y39987D03*
X84700D03*
X86275Y41562D03*
X84700D03*
X86275Y43137D03*
X84700D03*
X86275Y44712D03*
X84700D03*
X86275Y46287D03*
X84700D03*
X89424Y39987D03*
X87849D03*
X89424Y41562D03*
X87849D03*
X89424Y43137D03*
X87849D03*
X89424Y44712D03*
X87849D03*
X89424Y46287D03*
X87849D03*
G54D22*
X37760Y147820D03*
X36380D03*
X35010D03*
Y175380D03*
X36380D03*
X37760D03*
X41900Y147820D03*
X40520D03*
X39140D03*
Y175380D03*
X40520D03*
X41900D03*
X46030Y147820D03*
X44650D03*
X43270D03*
Y175380D03*
X44650D03*
X46030D03*
X50160Y147820D03*
X48790D03*
X47410D03*
Y175380D03*
X48790D03*
X50160D03*
X54300Y147820D03*
X52920D03*
X51540D03*
Y175380D03*
X52920D03*
X54300D03*
X57050Y147820D03*
X55680D03*
Y175380D03*
X57050D03*
G54D40*
X143278Y8825D03*
X204696D03*
G54D41*
X141704Y46817D03*
G54D14*
X6834Y163040D03*
X12346D03*
X18411Y152560D03*
Y157800D03*
X18166Y179890D03*
X23923Y152560D03*
Y157800D03*
X23678Y179890D03*
X53644Y102600D03*
X59156D03*
X57502Y188890D03*
X63014D03*
X65589Y134010D03*
X71101D03*
X96644Y54800D03*
X95900Y136100D03*
X95644Y191100D03*
X101156D03*
X102156Y54800D03*
X101412Y136100D03*
X110754Y237440D03*
X110734Y242840D03*
X116266Y237440D03*
X116246Y242840D03*
X134107Y87075D03*
X139619D03*
X140161Y92484D03*
X145673D03*
X161135Y341640D03*
X166647D03*
X336754Y26510D03*
X337154Y284950D03*
X342266Y26510D03*
X342666Y284950D03*
X348254Y26510D03*
X348844Y284950D03*
X353766Y26510D03*
X354356Y284950D03*
G54D23*
X46030Y161600D03*
G54D50*
X275553Y178817D03*
Y180983D03*
Y183298D03*
Y185464D03*
X279153Y186717D03*
Y191238D03*
Y188883D03*
Y193404D03*
G54D32*
X91700Y297057D03*
Y304143D03*
Y311230D03*
G54D51*
G01X0Y19685D02*
Y370015D01*
G02X19685Y389700I19685J0D01*
G01X370015D01*
G02X389700Y370015I0J-19685D01*
G01Y19685D01*
G02X370015Y0I-19685J0D01*
G01X19685D01*
G02X0Y19685I0J19685D01*
G54D42*
X148200Y50175D03*
X152530D03*
X156861D03*
X161192D03*
X165523D03*
X169853D03*
X174184D03*
X178515D03*
X182845D03*
G54D33*
X95200Y38300D03*
X103800D03*
G54D15*
X9376Y200908D03*
X9328Y214208D03*
X25400Y200908D03*
X25352Y214208D03*
G54D24*
X41683Y245015D03*
X41668Y242415D03*
X43849Y245015D03*
X43834Y242415D03*
X46417Y277500D03*
X46386Y280100D03*
X46352Y282994D03*
X48583Y277500D03*
X48552Y280100D03*
X48518Y282994D03*
X263117Y187200D03*
Y189700D03*
X265283Y187200D03*
Y189700D03*
X337779Y157585D03*
X335613D03*
X337710Y160585D03*
X335544D03*
G54D25*
X53152Y109600D03*
X53144Y118100D03*
X59648Y109600D03*
X59640Y118100D03*
X57010Y196390D03*
Y204890D03*
X63506Y196390D03*
Y204890D03*
X71652Y141100D03*
Y186100D03*
X78148Y141100D03*
Y186100D03*
G54D34*
X105971Y142942D03*
X102167Y146774D03*
X106065Y150672D03*
X109869Y146840D03*
X114391Y184239D03*
X118289Y188137D03*
X130796Y167835D03*
X134694Y171733D03*
G54D16*
X15312Y283672D03*
X15412Y304772D03*
X22792Y283672D03*
X19052Y292334D03*
X22892Y304772D03*
X19152Y313434D03*
X39112Y304772D03*
X42852Y313434D03*
X46592Y304772D03*
G54D43*
X149612Y191231D03*
X145993Y194850D03*
X147803Y193041D03*
X149612Y194850D03*
X147803Y196659D03*
X149612Y198469D03*
X153231Y187612D03*
X151422Y189422D03*
X153231Y191231D03*
X151422Y193041D03*
X153231Y194850D03*
X151422Y196659D03*
X153231Y198469D03*
X151422Y200278D03*
X153231Y202088D03*
X155041Y185803D03*
X156850Y187612D03*
Y183993D03*
X155041Y189422D03*
X156850Y191231D03*
X155041Y193041D03*
Y196659D03*
X156850Y198469D03*
X155041Y203897D03*
Y200278D03*
X156850Y202088D03*
Y205707D03*
X158660Y182184D03*
X160469Y180374D03*
X158660Y185803D03*
X160469Y183993D03*
X158660Y189422D03*
X160469Y191231D03*
X158660Y193041D03*
Y196659D03*
X160469Y198469D03*
X158660Y203897D03*
Y200278D03*
Y207516D03*
X160469Y205707D03*
Y209326D03*
X165898Y174946D03*
X162279Y178565D03*
X164088Y176755D03*
X165898Y178565D03*
X162279Y182184D03*
X164088Y180374D03*
X162279Y185803D03*
X164088Y187612D03*
Y183993D03*
X165898Y185803D03*
X164088Y191231D03*
X165898Y189422D03*
X162279Y193041D03*
X165898D03*
X162279Y196659D03*
X164088Y198469D03*
X165898Y196659D03*
X162279Y203897D03*
X164088Y202088D03*
X165898Y203897D03*
Y200278D03*
X162279Y207516D03*
X164088Y205707D03*
X162279Y211135D03*
X164088Y209326D03*
X165898Y211135D03*
X164088Y212945D03*
X165898Y214754D03*
X167707Y173136D03*
X169516Y174946D03*
Y171327D03*
X167707Y176755D03*
X169516Y178565D03*
X167707Y180374D03*
X169516Y182184D03*
X167707Y187612D03*
Y191231D03*
X169516Y189422D03*
Y193041D03*
X167707Y198469D03*
X169516Y196659D03*
X167707Y202088D03*
X169516Y200278D03*
Y207516D03*
X167707Y209326D03*
X169516Y211135D03*
X167707Y212945D03*
X169516Y214754D03*
X167707Y216564D03*
X169516Y218373D03*
X171327Y169516D03*
X173136Y167707D03*
X171326Y173136D03*
X173135Y174946D03*
X173136Y171326D03*
X171326Y180374D03*
X173135Y182184D03*
X171326Y183993D03*
X173135Y185803D03*
X171326Y191231D03*
X173135Y193041D03*
X171326Y198469D03*
X173135Y196659D03*
Y203897D03*
X171326Y205707D03*
X173135Y207516D03*
X171326Y209326D03*
X173135Y214754D03*
X171327Y220184D03*
X171326Y216564D03*
X173136Y218374D03*
Y221993D03*
X178565Y162279D03*
X174946Y165898D03*
X176755Y164088D03*
X178565Y165898D03*
X174946Y169516D03*
X176755Y167707D03*
X178565Y169516D03*
X174946Y173135D03*
X176755Y174945D03*
X174945Y176755D03*
X176754Y178565D03*
X178565Y176754D03*
X178564Y180374D03*
X174945Y187612D03*
Y183993D03*
X176754Y185803D03*
X178564Y187612D03*
X176754Y189422D03*
X178564Y191231D03*
X174945Y194850D03*
X178564D03*
Y198469D03*
X174945Y202088D03*
X176754Y203897D03*
Y200278D03*
X178564Y202088D03*
X174945Y205707D03*
X176754Y211135D03*
X178564Y209326D03*
X174945Y212945D03*
X176755Y214755D03*
X178565Y212946D03*
X174946Y220184D03*
Y216565D03*
X178565Y220184D03*
X174946Y223802D03*
X176755Y221993D03*
X178565Y223802D03*
X176755Y225612D03*
X178565Y227421D03*
X182184Y158660D03*
X180374Y160469D03*
X182184Y162279D03*
X180374Y164088D03*
Y167707D03*
X182184Y169516D03*
X180374Y171326D03*
X182184Y173135D03*
X180374Y178564D03*
X180373Y182184D03*
X182184Y180373D03*
X182183Y183993D03*
X180373Y189422D03*
X182183Y191231D03*
X180373Y193041D03*
X182183Y194850D03*
X180373Y196659D03*
X182183Y198469D03*
X180373Y200278D03*
Y207516D03*
X182183Y205707D03*
X180374Y211136D03*
X182184Y209327D03*
X180374Y218374D03*
X182184Y220184D03*
Y216565D03*
X180374Y221993D03*
Y225612D03*
X182184Y227421D03*
X180374Y229231D03*
X182184Y231040D03*
X183993Y156850D03*
X185803Y158660D03*
Y155041D03*
X183993Y160469D03*
X185803Y162279D03*
X183993Y164088D03*
X185803Y165898D03*
X183993Y174945D03*
Y171326D03*
X185803Y173135D03*
Y176754D03*
X183993Y182183D03*
X183992Y185803D03*
X185802Y187612D03*
X185803Y183992D03*
X183992Y189422D03*
X185802Y191231D03*
X183992Y193041D03*
X185802Y194850D03*
X183992Y196659D03*
X185802Y198469D03*
X183992Y203897D03*
Y200278D03*
X185802Y202088D03*
X183993Y207517D03*
X185803Y205708D03*
X183993Y214755D03*
X185803Y212946D03*
X183993Y218374D03*
X185803Y216565D03*
Y223802D03*
X183993Y225612D03*
X185803Y227421D03*
X183993Y232850D03*
Y229231D03*
X185803Y231040D03*
Y234659D03*
X187612Y153231D03*
X189422Y151422D03*
X187612Y156850D03*
X189422Y158660D03*
Y155041D03*
X187612Y164088D03*
X189422Y165898D03*
X187612Y167707D03*
X189422Y169516D03*
X187612Y174945D03*
Y178564D03*
X189422Y176754D03*
Y180373D03*
X187612Y185802D03*
X189422Y187611D03*
Y183992D03*
X187611Y189422D03*
X189421Y191231D03*
X187611Y193041D03*
X189421Y194850D03*
X187611Y196659D03*
X189421Y198469D03*
X187612Y203898D03*
X187611Y200278D03*
X189422Y202089D03*
Y205708D03*
X187612Y211136D03*
X189422Y209327D03*
X187612Y214755D03*
X189422Y212946D03*
Y220184D03*
X187612Y221993D03*
X189422Y223802D03*
X187612Y225612D03*
Y232850D03*
X189422Y231040D03*
X187612Y236469D03*
X189422Y234659D03*
Y238278D03*
X194850Y145993D03*
X191231Y149612D03*
X193041Y147803D03*
X194850Y149612D03*
X191231Y153231D03*
X193041Y151422D03*
X194850Y153231D03*
X191231Y156850D03*
X193041Y158660D03*
Y155041D03*
X191231Y160469D03*
X193041Y162279D03*
X191231Y164088D03*
X193041Y165898D03*
X191231Y167707D03*
X193041Y169516D03*
X191231Y171326D03*
X193041Y173135D03*
X194850Y174945D03*
X191231Y178564D03*
X194850D03*
X191231Y182183D03*
X193041Y180373D03*
X194850Y182183D03*
X191231Y185802D03*
X193041Y187611D03*
Y183992D03*
X194850Y185802D03*
X191231Y189421D03*
X193041Y191230D03*
X194850Y189421D03*
X191230Y193041D03*
X193040Y194850D03*
X194850Y193040D03*
X191230Y196659D03*
X193041Y198470D03*
X194850Y196660D03*
X191231Y203898D03*
Y200279D03*
X193041Y202089D03*
X194850Y203898D03*
Y200279D03*
X191231Y207517D03*
X193041Y205708D03*
X194850Y207517D03*
X191231Y211136D03*
X193041Y209327D03*
X194850Y211136D03*
Y214755D03*
X191231Y218374D03*
X193041Y220184D03*
Y216565D03*
X191231Y221993D03*
X193041Y223802D03*
X191231Y225612D03*
X193041Y227421D03*
X191231Y232850D03*
Y229231D03*
X193041Y231040D03*
X191231Y236469D03*
X193041Y234659D03*
X194850Y236469D03*
X191231Y240088D03*
X193041Y238278D03*
X194850Y240088D03*
X193041Y241897D03*
X194850Y243707D03*
X196659Y147803D03*
X198469Y149612D03*
X196659Y151422D03*
X198469Y153231D03*
X196659Y158660D03*
Y155041D03*
X198469Y156850D03*
X196659Y162279D03*
X198469Y160469D03*
X196659Y165898D03*
X198469Y164088D03*
X196659Y169516D03*
X198469Y167707D03*
X196659Y173135D03*
X198469Y171326D03*
Y178564D03*
X196659Y180373D03*
X198469Y182183D03*
X196659Y187611D03*
Y183992D03*
X198469Y185802D03*
X196659Y191230D03*
X198469Y189421D03*
X196660Y194850D03*
X198470Y193041D03*
X196659Y198470D03*
X198470Y196659D03*
X196659Y202089D03*
X198469Y203898D03*
Y200279D03*
X196659Y205708D03*
X198469Y207517D03*
X196659Y209327D03*
X198469Y211136D03*
X196659Y220184D03*
Y216565D03*
X198469Y218374D03*
X196659Y223802D03*
X198469Y221993D03*
X196659Y227421D03*
X198469Y225612D03*
X196659Y231040D03*
X198469Y232850D03*
Y229231D03*
X196659Y234659D03*
X198469Y236469D03*
X196659Y238278D03*
X198469Y240088D03*
X196659Y241897D03*
X200278Y151422D03*
X202088Y153231D03*
X200278Y158660D03*
Y155041D03*
X202088Y156850D03*
X200278Y165898D03*
X202088Y164088D03*
X200278Y169516D03*
X202088Y167707D03*
Y174945D03*
X200278Y176754D03*
X202088Y178564D03*
X200278Y180373D03*
Y187611D03*
Y183992D03*
X202088Y185802D03*
X200279Y191231D03*
X202089Y189422D03*
X200279Y194850D03*
X202089Y193041D03*
X200279Y198469D03*
X202089Y196659D03*
X200278Y202089D03*
X202088Y203898D03*
X202089Y200278D03*
X200278Y205708D03*
Y209327D03*
X202088Y211136D03*
X200278Y212946D03*
X202088Y214755D03*
X200278Y220184D03*
Y223802D03*
X202088Y221993D03*
Y225612D03*
X200278Y231040D03*
X202088Y232850D03*
X200278Y234659D03*
X202088Y236469D03*
X200278Y238278D03*
X203897Y158660D03*
Y155041D03*
X205707Y156850D03*
X207516Y158660D03*
X203897Y162279D03*
X205707Y160469D03*
X207516Y162279D03*
X203897Y165898D03*
X205707Y164088D03*
X207516Y169516D03*
X203897Y173135D03*
X205707Y174945D03*
Y171326D03*
X207516Y173135D03*
X203897Y176754D03*
X205707Y182183D03*
X207516Y180373D03*
X203898Y187612D03*
X203897Y183992D03*
X205708Y185803D03*
X207517Y183993D03*
X203898Y191231D03*
X205708Y189422D03*
X207517Y191231D03*
X203898Y194850D03*
X205708Y193041D03*
X207517Y194850D03*
X203898Y198469D03*
X205708Y196659D03*
X207517Y198469D03*
X203898Y202088D03*
X205708Y203897D03*
Y200278D03*
X203897Y205708D03*
X205707Y207517D03*
X207517Y205707D03*
X207516Y209327D03*
X203897Y212946D03*
X205707Y214755D03*
X203897Y216565D03*
X205707Y218374D03*
X207516Y220184D03*
Y216565D03*
X203897Y223802D03*
Y227421D03*
X205707Y225612D03*
X207516Y227421D03*
X203897Y231040D03*
X205707Y232850D03*
Y229231D03*
X207516Y231040D03*
X203897Y234659D03*
X209326Y160469D03*
X211135Y162279D03*
X209326Y164088D03*
X211135Y165898D03*
X209326Y167707D03*
X211135Y169516D03*
X209326Y171326D03*
Y178564D03*
X211135Y176754D03*
X209327Y182184D03*
X211136Y180374D03*
Y187612D03*
X209327Y189422D03*
X211136Y191231D03*
X209327Y193041D03*
X211136Y194850D03*
X209327Y196659D03*
X211136Y198469D03*
X209327Y200278D03*
X211136Y202088D03*
X209327Y207516D03*
X209326Y211136D03*
X211136Y209326D03*
X211135Y212946D03*
X209326Y218374D03*
X211135Y220184D03*
X209326Y221993D03*
X211135Y223802D03*
X209326Y225612D03*
X211135Y227421D03*
X209326Y229231D03*
X212945Y164088D03*
X214754Y165898D03*
X212945Y167707D03*
X214754Y169516D03*
X212945Y174945D03*
X214754Y173135D03*
X212946Y178565D03*
X214755Y176755D03*
X212946Y185803D03*
X214755Y187612D03*
Y183993D03*
X212946Y189422D03*
X214755Y194850D03*
X212946Y203897D03*
Y200278D03*
X214755Y202088D03*
Y205707D03*
X212946Y211135D03*
X212945Y214755D03*
X214755Y212945D03*
X214754Y220184D03*
Y216565D03*
X212945Y221993D03*
X214754Y223802D03*
X212945Y225612D03*
X216564Y167707D03*
X218373Y169516D03*
X216565Y174946D03*
X216564Y171326D03*
X218374Y173136D03*
X216565Y182184D03*
X218374Y180374D03*
X216565Y185803D03*
X218374Y183993D03*
Y191231D03*
X216565Y193041D03*
Y196659D03*
X218374Y198469D03*
X216565Y203897D03*
Y207516D03*
X218374Y205707D03*
Y209326D03*
X216565Y214754D03*
X216564Y218374D03*
X218373Y220184D03*
X218374Y216564D03*
X216564Y221993D03*
X220184Y174946D03*
Y171327D03*
X221993Y173136D03*
X223802Y174946D03*
X220184Y178565D03*
X221993Y176755D03*
X223802Y178565D03*
X220184Y182184D03*
X221993Y180374D03*
Y187612D03*
X223802Y185803D03*
X220184Y189422D03*
X221993Y191231D03*
X223802Y189422D03*
X220184Y193041D03*
X223802D03*
X220184Y196659D03*
X221993Y198469D03*
X223802Y196659D03*
X220184Y200278D03*
X221993Y202088D03*
X223802Y203897D03*
Y200278D03*
X220184Y207516D03*
Y211135D03*
X221993Y209326D03*
X223802Y211135D03*
X220184Y214754D03*
X221993Y212945D03*
X223802Y214754D03*
X220184Y218373D03*
X221993Y216564D03*
X225612Y176755D03*
X227421Y178565D03*
X225612Y180374D03*
X227421Y182184D03*
X225612Y187612D03*
Y183993D03*
X227421Y185803D03*
X225612Y191231D03*
X227421Y193041D03*
X225612Y198469D03*
X227421Y196659D03*
X225612Y202088D03*
X227421Y203897D03*
X225612Y205707D03*
X227421Y207516D03*
X225612Y209326D03*
X227421Y211135D03*
X225612Y212945D03*
X229231Y180374D03*
X231040Y182184D03*
X229231Y183993D03*
X231040Y185803D03*
X229231Y191231D03*
X231040Y189422D03*
Y193041D03*
X229231Y198469D03*
X231040Y196659D03*
Y203897D03*
Y200278D03*
X229231Y205707D03*
X231040Y207516D03*
X229231Y209326D03*
X232850Y187612D03*
Y183993D03*
X234659Y185803D03*
X232850Y191231D03*
X234659Y189422D03*
Y193041D03*
X232850Y198469D03*
X234659Y196659D03*
X232850Y202088D03*
X234659Y203897D03*
Y200278D03*
X232850Y205707D03*
X236469Y187612D03*
Y191231D03*
X238278Y189422D03*
X240088Y191231D03*
X236469Y194850D03*
X238278Y193041D03*
X240088Y194850D03*
X236469Y198469D03*
X238278Y196659D03*
X240088Y198469D03*
X236469Y202088D03*
X238278Y200278D03*
X241897Y193041D03*
X243707Y194850D03*
X241897Y196659D03*
X263709Y88072D03*
Y90040D03*
Y92009D03*
Y93977D03*
Y95946D03*
Y97914D03*
Y99883D03*
Y101851D03*
Y103820D03*
Y105788D03*
Y107757D03*
Y109725D03*
Y111694D03*
X267646Y88072D03*
X265677D03*
X267646Y90040D03*
X265677D03*
X267646Y92009D03*
X265677D03*
X267646Y93977D03*
X265677D03*
X267646Y95946D03*
X265677D03*
X267646Y97914D03*
X265677D03*
X267646Y99883D03*
X265677D03*
X267646Y101851D03*
X265677D03*
X267646Y103820D03*
X265677D03*
X267646Y105788D03*
X265677D03*
X267646Y107757D03*
X265677D03*
X267646Y109725D03*
X265677D03*
X267646Y111694D03*
X265677D03*
X267646Y113662D03*
X265677D03*
X271583Y88072D03*
X269614D03*
X271583Y90040D03*
X269614D03*
X271583Y92009D03*
X269614D03*
X271583Y95946D03*
Y97914D03*
Y99883D03*
Y101851D03*
Y103820D03*
Y105788D03*
X269614Y107757D03*
Y109725D03*
X271583Y111694D03*
X269614D03*
X271583Y113662D03*
X269614D03*
X275520Y88072D03*
X273551D03*
X275520Y90040D03*
X273551D03*
X275520Y92009D03*
X273551D03*
X275520Y95946D03*
X273551D03*
X275520Y105788D03*
X273551D03*
X275520Y109725D03*
X273551D03*
X275520Y111694D03*
X273551D03*
X275520Y113662D03*
X273551D03*
X279457Y88072D03*
X277488D03*
X279457Y90040D03*
X277488D03*
X279457Y92009D03*
X277488D03*
X279457Y95946D03*
X277488D03*
X279457Y105788D03*
X277488D03*
X279457Y109725D03*
X277488D03*
X279457Y111694D03*
X277488D03*
X279457Y113662D03*
X277488D03*
X285362Y88072D03*
X283394D03*
X281425D03*
X285362Y90040D03*
X283394D03*
X281425D03*
X285362Y92009D03*
X283394D03*
X281425D03*
X285362Y93977D03*
Y95946D03*
X281425D03*
X285362Y97914D03*
X281425D03*
X285362Y99883D03*
X281425D03*
X285362Y101851D03*
X281425D03*
X285362Y103820D03*
X281425D03*
X285362Y105788D03*
X281425D03*
X285362Y107757D03*
Y109725D03*
X283394D03*
X281425D03*
X285362Y111694D03*
X283394D03*
X281425D03*
X285362Y113662D03*
X283394D03*
X281425D03*
X289299Y88072D03*
X287331D03*
X289299Y90040D03*
X287331D03*
X289299Y92009D03*
X287331D03*
X289299Y93977D03*
X287331D03*
X289299Y95946D03*
X287331D03*
X289299Y97914D03*
X287331D03*
X289299Y99883D03*
X287331D03*
X289299Y101851D03*
X287331D03*
X289299Y103820D03*
X287331D03*
X289299Y105788D03*
X287331D03*
X289299Y107757D03*
X287331D03*
X289299Y109725D03*
X287331D03*
X289299Y111694D03*
X287331D03*
X289299Y113662D03*
X287331D03*
G54D35*
X110700Y38537D03*
Y47737D03*
G54D26*
X56281Y220360D03*
Y224100D03*
Y227840D03*
X66518Y220360D03*
Y227840D03*
G54D17*
X20894Y53376D03*
Y64400D03*
X24831D03*
X28768Y53376D03*
X323260Y107850D03*
Y118087D03*
X327000D03*
X323760Y201881D03*
Y212118D03*
X330740Y107850D03*
Y118087D03*
X331240Y201881D03*
X327500D03*
X331240Y212118D03*
G54D44*
X156719Y168633D03*
X158753Y166592D03*
X158251Y170165D03*
X160285Y168124D03*
G54D27*
X54313Y282900D03*
Y286400D03*
Y290000D03*
Y293500D03*
Y297100D03*
Y300600D03*
Y304100D03*
Y307700D03*
Y311200D03*
Y314800D03*
Y318300D03*
X100687Y286400D03*
Y282900D03*
Y290000D03*
Y293500D03*
Y297100D03*
Y300600D03*
Y304100D03*
Y311200D03*
Y307700D03*
Y314800D03*
Y318300D03*
G54D45*
X201351Y46815D03*
G54D18*
X28768Y73216D03*
Y89184D03*
G54D36*
X111100Y353200D03*
X115037D03*
X113069D03*
X118974D03*
X117006D03*
X124880D03*
X122911D03*
X120943D03*
X128817D03*
X126848D03*
X132754D03*
X130785D03*
X136691D03*
X134722D03*
X140628D03*
X138659D03*
X144565D03*
X142596D03*
X146533D03*
G54D46*
X243950Y18200D03*
Y28300D03*
X243550Y308950D03*
Y319050D03*
G54D19*
X26326Y124500D03*
Y133100D03*
X48500Y124500D03*
Y133100D03*
X47974Y190695D03*
Y199295D03*
X80400Y147800D03*
Y156400D03*
Y170300D03*
Y178900D03*
G54D28*
X59810Y150580D03*
G54D37*
X119354Y178302D03*
X125478Y172178D03*
X124226Y183174D03*
X130350Y177050D03*
G54D29*
X63333Y254611D03*
Y263273D03*
X70223Y254611D03*
Y263273D03*
G54D47*
X257250Y29613D03*
Y31188D03*
Y32763D03*
Y34338D03*
Y35913D03*
Y37487D03*
Y39062D03*
Y40637D03*
Y42212D03*
Y43787D03*
X259013Y318113D03*
Y319688D03*
Y321263D03*
Y322838D03*
Y324413D03*
Y325987D03*
Y327562D03*
Y329137D03*
Y330712D03*
Y332287D03*
X276150Y29613D03*
Y34338D03*
Y32763D03*
Y31188D03*
Y37487D03*
Y35913D03*
Y42212D03*
Y40637D03*
Y39062D03*
Y43787D03*
X277913Y318113D03*
Y322838D03*
Y321263D03*
Y319688D03*
Y325987D03*
Y324413D03*
Y330712D03*
Y329137D03*
Y327562D03*
Y332287D03*
G54D38*
X139008Y119915D03*
X142906Y116017D03*
X142770Y123790D03*
X146668Y119892D03*
G54D48*
X259613Y27250D03*
Y46150D03*
X264338Y27250D03*
X262763D03*
X261188D03*
Y46150D03*
X262763D03*
X264338D03*
X264526Y315750D03*
X262951D03*
X261376D03*
Y334650D03*
X262951D03*
X264526D03*
X267487Y27250D03*
X265913D03*
Y46150D03*
X267487D03*
X267676Y315750D03*
X266101D03*
Y334650D03*
X267676D03*
X272212Y27250D03*
X270637D03*
X269062D03*
Y46150D03*
X270637D03*
X272212D03*
X272400Y315750D03*
X270825D03*
X269250D03*
Y334650D03*
X270825D03*
X272400D03*
X273787Y27250D03*
Y46150D03*
X275550Y315750D03*
X273975D03*
Y334650D03*
X275550D03*
G54D39*
X138232Y229041D03*
X140738Y226535D03*
X140990Y231799D03*
X143496Y229293D03*
X146183Y231980D03*
X146364Y237173D03*
X143677Y234486D03*
X148870Y234667D03*
X149051Y239860D03*
X151557Y237354D03*
X154244Y240041D03*
X154425Y245234D03*
X151738Y242547D03*
X156931Y242728D03*
X157112Y247921D03*
X159618Y245415D03*
G54D49*
X260228Y141947D03*
Y138798D03*
X257078Y141947D03*
Y138798D03*
X260228Y145097D03*
X257078D03*
X260228Y157695D03*
X257078D03*
X260228Y160845D03*
X257078D03*
X260228Y163994D03*
X257078D03*
X260228Y211403D03*
X257078D03*
X260228Y214552D03*
X257078D03*
X260228Y217702D03*
X257078D03*
X260228Y230300D03*
X257078D03*
X260228Y236599D03*
Y233450D03*
X257078Y236599D03*
Y233450D03*
X263377Y141947D03*
Y138798D03*
Y145097D03*
Y157695D03*
Y160845D03*
Y163994D03*
Y211403D03*
Y214552D03*
Y217702D03*
Y230300D03*
Y236599D03*
Y233450D03*
X266527Y141947D03*
Y138798D03*
Y145097D03*
Y157695D03*
Y160845D03*
Y163994D03*
Y211403D03*
Y214552D03*
Y217702D03*
Y230300D03*
Y236599D03*
Y233450D03*
X272826Y141947D03*
Y138798D03*
X269676Y141947D03*
Y138798D03*
X272826Y145097D03*
X269676D03*
X272826Y157695D03*
X269676D03*
X272826Y160845D03*
X269676D03*
X272826Y163994D03*
X269676D03*
X272826Y211403D03*
X269676D03*
X272826Y214552D03*
X269676D03*
X272826Y217702D03*
X269676D03*
X272826Y230300D03*
X269676D03*
X272826Y236599D03*
Y233450D03*
X269676Y236599D03*
Y233450D03*
X275976Y141947D03*
Y138798D03*
Y145097D03*
Y157695D03*
Y160845D03*
Y163994D03*
Y211403D03*
Y214552D03*
Y217702D03*
Y230300D03*
Y236599D03*
Y233450D03*
X279125Y141947D03*
Y138798D03*
Y145097D03*
Y157695D03*
Y160845D03*
Y163994D03*
Y211403D03*
Y214552D03*
Y217702D03*
Y230300D03*
Y236599D03*
Y233450D03*
X285424Y141947D03*
Y138798D03*
X282275Y141947D03*
Y138798D03*
X285424Y145097D03*
X282275D03*
X285424Y157695D03*
X282275D03*
X285424Y160845D03*
X282275D03*
X285424Y163994D03*
X282275D03*
X285424Y211403D03*
X282275D03*
X285424Y214552D03*
X282275D03*
X285424Y217702D03*
X282275D03*
X285424Y230300D03*
X282275D03*
X285424Y236599D03*
Y233450D03*
X282275Y236599D03*
Y233450D03*
X288574Y141947D03*
Y138798D03*
Y145097D03*
Y157695D03*
Y160845D03*
Y163994D03*
Y211403D03*
Y214552D03*
Y217702D03*
Y230300D03*
Y236599D03*
Y233450D03*
X291724Y141947D03*
Y138798D03*
Y145097D03*
Y157695D03*
Y160845D03*
Y163994D03*
Y211403D03*
Y214552D03*
Y217702D03*
Y230300D03*
Y236599D03*
Y233450D03*
X294873Y141947D03*
Y138798D03*
Y145097D03*
Y157695D03*
Y160845D03*
Y163994D03*
Y211403D03*
Y214552D03*
Y217702D03*
Y230300D03*
Y236599D03*
Y233450D03*
X301172Y141947D03*
Y138798D03*
X298023Y141947D03*
Y138798D03*
X301172Y145097D03*
X298023D03*
X301172Y157695D03*
X298023D03*
X301172Y160845D03*
X298023D03*
X301172Y163994D03*
X298023D03*
X301172Y211403D03*
X298023D03*
X301172Y214552D03*
X298023D03*
X301172Y217702D03*
X298023D03*
X301172Y230300D03*
X298023D03*
X301172Y236599D03*
Y233450D03*
X298023Y236599D03*
Y233450D03*
X304322Y141947D03*
Y138798D03*
Y145097D03*
Y157695D03*
Y160845D03*
Y163994D03*
Y211403D03*
Y214552D03*
Y217702D03*
Y230300D03*
Y236599D03*
Y233450D03*
M02*
