G04 ================== begin FILE IDENTIFICATION RECORD ==================*
G04 Layout Name:  F:/OneDrive/Projects/PCB/HL-VPN/allegro/HL_VPN.brd*
G04 Film Name:    PASTEMASK_BOTTOM*
G04 File Format:  Gerber RS274X*
G04 File Origin:  Cadence Allegro 17.4-S037*
G04 Origin Date:  Wed Jan 29 06:07:44 2025*
G04 *
G04 Layer:  PIN/PASTEMASK_BOTTOM*
G04 Layer:  PACKAGE GEOMETRY/PASTEMASK_BOTTOM*
G04 Layer:  BOARD GEOMETRY/DESIGN_OUTLINE*
G04 *
G04 Offset:    (0.00 0.00)*
G04 Mirror:    No*
G04 Mode:      Positive*
G04 Rotation:  0*
G04 FullContactRelief:  No*
G04 UndefLineWidth:     5.00*
G04 ================== end FILE IDENTIFICATION RECORD ====================*
%FSLAX25Y25*MOIN*%
%IR0*IPPOS*OFA0.00000B0.00000*MIA0B0*SFA1.00000B1.00000*%
%ADD23C,.0276*%
%AMMACRO22*
21,1,.0315,.03539,0.0,0.0,135.*%
%ADD22MACRO22*%
%AMMACRO17*
21,1,.02161,.02161,0.0,0.0,45.*%
%ADD17MACRO17*%
%ADD19R,.02161X.02161*%
%ADD20R,.01181X.0098*%
%AMMACRO18*
21,1,.0098,.01181,0.0,0.0,45.*%
%ADD18MACRO18*%
%ADD14R,.0098X.01181*%
%ADD15R,.00098X.00098*%
%AMMACRO16*
21,1,.0098,.01181,0.0,0.0,135.*%
%ADD16MACRO16*%
%AMMACRO25*
21,1,.0374,.05118,0.0,0.0,45.*%
%ADD25MACRO25*%
%AMMACRO21*
21,1,.0315,.03539,0.0,0.0,45.*%
%ADD21MACRO21*%
%ADD13R,.05118X.0374*%
%ADD10R,.03539X.0315*%
%ADD24R,.0374X.05118*%
%ADD11R,.0315X.03539*%
%ADD12R,.06299X.05512*%
%ADD26C,.005*%
G75*
%LPD*%
G75*
G36*
G01X25530Y153336D02*
X24632D01*
Y151840D01*
X23333D01*
Y153336D01*
X22380D01*
X22183Y153139D01*
Y150028D01*
X22380Y149832D01*
X25530D01*
X25727Y150028D01*
Y153139D01*
X25530Y153336D01*
G37*
G36*
G01X25727Y159438D02*
Y156288D01*
X25530Y156091D01*
X24632D01*
Y157548D01*
X23333D01*
Y156091D01*
X22380D01*
X22183Y156288D01*
Y159438D01*
X22380Y159635D01*
X25530D01*
X25727Y159438D01*
G37*
G36*
G01X35895Y19272D02*
X39045D01*
X39242Y19075D01*
Y18177D01*
X37785D01*
Y16878D01*
X39242D01*
Y15925D01*
X39045Y15728D01*
X35895D01*
X35698Y15925D01*
Y19075D01*
X35895Y19272D01*
G37*
G36*
G01X39424Y146370D02*
Y147268D01*
X37928D01*
Y148567D01*
X39424D01*
Y149520D01*
X39227Y149717D01*
X36116D01*
X35920Y149520D01*
Y146370D01*
X36116Y146173D01*
X39227D01*
X39424Y146370D01*
G37*
G36*
G01X41997Y19075D02*
Y18177D01*
X43493D01*
Y16878D01*
X41997D01*
Y15925D01*
X42194Y15728D01*
X45305D01*
X45501Y15925D01*
Y19075D01*
X45305Y19272D01*
X42194D01*
X41997Y19075D01*
G37*
G36*
G01X45526Y146173D02*
X42376D01*
X42179Y146370D01*
Y147268D01*
X43636D01*
Y148567D01*
X42179D01*
Y149520D01*
X42376Y149717D01*
X45526D01*
X45723Y149520D01*
Y146370D01*
X45526Y146173D01*
G37*
G36*
G01X51112Y146370D02*
Y147268D01*
X49616D01*
Y148567D01*
X51112D01*
Y149520D01*
X50915Y149717D01*
X47804D01*
X47608Y149520D01*
Y146370D01*
X47804Y146173D01*
X50915D01*
X51112Y146370D01*
G37*
G36*
G01X56953Y15925D02*
Y16823D01*
X55457D01*
Y18122D01*
X56953D01*
Y19075D01*
X56756Y19272D01*
X53645D01*
X53449Y19075D01*
Y15925D01*
X53645Y15728D01*
X56756D01*
X56953Y15925D01*
G37*
G36*
G01X57214Y146173D02*
X54064D01*
X53867Y146370D01*
Y147268D01*
X55324D01*
Y148567D01*
X53867D01*
Y149520D01*
X54064Y149717D01*
X57214D01*
X57411Y149520D01*
Y146370D01*
X57214Y146173D01*
G37*
G36*
G01X63055Y15728D02*
X59905D01*
X59708Y15925D01*
Y16823D01*
X61165D01*
Y18122D01*
X59708D01*
Y19075D01*
X59905Y19272D01*
X63055D01*
X63252Y19075D01*
Y15925D01*
X63055Y15728D01*
G37*
G36*
G01X130523Y311186D02*
X130326Y311383D01*
X124814D01*
X124617Y311186D01*
Y309414D01*
X124814Y309217D01*
X130326D01*
X130523Y309414D01*
Y311186D01*
G37*
G36*
G01X130326Y314217D02*
X130523Y314414D01*
Y316186D01*
X130326Y316383D01*
X124814D01*
X124617Y316186D01*
Y314414D01*
X124814Y314217D01*
X130326D01*
G37*
G36*
G01X124617Y321186D02*
Y319414D01*
X124814Y319217D01*
X130326D01*
X130523Y319414D01*
Y321186D01*
X130326Y321383D01*
X124814D01*
X124617Y321186D01*
G37*
G36*
G01X130523Y326186D02*
X130326Y326383D01*
X124814D01*
X124617Y326186D01*
Y324414D01*
X124814Y324217D01*
X130326D01*
X130523Y324414D01*
Y326186D01*
G37*
G36*
G01X124617Y331186D02*
Y329414D01*
X124814Y329217D01*
X130326D01*
X130523Y329414D01*
Y331186D01*
X130326Y331383D01*
X124814D01*
X124617Y331186D01*
G37*
G36*
G01X130523Y336186D02*
X130326Y336383D01*
X124814D01*
X124617Y336186D01*
Y334414D01*
X124814Y334217D01*
X130326D01*
X130523Y334414D01*
Y336186D01*
G37*
G36*
G01Y341186D02*
X130326Y341383D01*
X124814D01*
X124617Y341186D01*
Y339414D01*
X124814Y339217D01*
X130326D01*
X130523Y339414D01*
Y341186D01*
G37*
G36*
G01X151783Y311186D02*
X151586Y311383D01*
X146074D01*
X145877Y311186D01*
Y309414D01*
X146074Y309217D01*
X151586D01*
X151783Y309414D01*
Y311186D01*
G37*
G36*
G01X151586Y314217D02*
X151783Y314414D01*
Y316186D01*
X151586Y316383D01*
X146074D01*
X145877Y316186D01*
Y314414D01*
X146074Y314217D01*
X151586D01*
G37*
G36*
G01X146074Y321383D02*
X145877Y321186D01*
Y319414D01*
X146074Y319217D01*
X151586D01*
X151783Y319414D01*
Y321186D01*
X151586Y321383D01*
X146074D01*
G37*
G36*
G01X151586Y324217D02*
X151783Y324414D01*
Y326186D01*
X151586Y326383D01*
X146074D01*
X145877Y326186D01*
Y324414D01*
X146074Y324217D01*
X151586D01*
G37*
G36*
G01X146074Y331383D02*
X145877Y331186D01*
Y329414D01*
X146074Y329217D01*
X151586D01*
X151783Y329414D01*
Y331186D01*
X151586Y331383D01*
X146074D01*
G37*
G36*
G01X145877Y334414D02*
X146074Y334217D01*
X151586D01*
X151783Y334414D01*
Y336186D01*
X151586Y336383D01*
X146074D01*
X145877Y336186D01*
Y334414D01*
G37*
G36*
G01X151586Y341383D02*
X146074D01*
X145877Y341186D01*
Y339414D01*
X146074Y339217D01*
X151586D01*
X151783Y339414D01*
Y341186D01*
X151586Y341383D01*
G37*
G36*
G01X165616Y185163D02*
X164981Y185798D01*
X163923Y184741D01*
X163005Y185659D01*
X164062Y186717D01*
X163388Y187391D01*
X163110D01*
X160910Y185191D01*
X160911Y184913D01*
X163138Y182686D01*
X163416Y182685D01*
X165616Y184885D01*
Y185163D01*
G37*
G36*
G01X170070Y189339D02*
X167843Y187112D01*
X167564D01*
X166929Y187747D01*
X167959Y188777D01*
X167041Y189695D01*
X166010Y188665D01*
X165337Y189339D01*
Y189618D01*
X167564Y191845D01*
X167843D01*
X170070Y189618D01*
Y189339D01*
G37*
G36*
G01X169026Y213362D02*
X169661Y213997D01*
X168604Y215055D01*
X169522Y215973D01*
X170580Y214916D01*
X171254Y215590D01*
Y215868D01*
X169054Y218068D01*
X168776Y218067D01*
X166549Y215840D01*
X166548Y215562D01*
X168748Y213362D01*
X169026D01*
G37*
G36*
G01X173202Y208908D02*
X170975Y211135D01*
Y211414D01*
X171610Y212049D01*
X172640Y211019D01*
X173558Y211937D01*
X172528Y212968D01*
X173202Y213641D01*
X173481D01*
X175708Y211414D01*
Y211135D01*
X173481Y208908D01*
X173202D01*
G37*
G36*
G01X257503Y118525D02*
Y119423D01*
X256007D01*
Y120722D01*
X257503D01*
Y121675D01*
X257306Y121872D01*
X254195D01*
X253999Y121675D01*
Y118525D01*
X254195Y118328D01*
X257306D01*
X257503Y118525D01*
G37*
G36*
G01X258164Y85713D02*
X261314D01*
X261511Y85516D01*
Y84618D01*
X260054D01*
Y83319D01*
X261511D01*
Y82366D01*
X261314Y82169D01*
X258164D01*
X257967Y82366D01*
Y85516D01*
X258164Y85713D01*
G37*
G36*
G01X263605Y118328D02*
X260455D01*
X260258Y118525D01*
Y119423D01*
X261715D01*
Y120722D01*
X260258D01*
Y121675D01*
X260455Y121872D01*
X263605D01*
X263802Y121675D01*
Y118525D01*
X263605Y118328D01*
G37*
G36*
G01X264266Y85516D02*
Y84618D01*
X265762D01*
Y83319D01*
X264266D01*
Y82366D01*
X264463Y82169D01*
X267574D01*
X267770Y82366D01*
Y85516D01*
X267574Y85713D01*
X264463D01*
X264266Y85516D01*
G37*
G36*
G01X265866Y121813D02*
X269016D01*
X269213Y121616D01*
Y120718D01*
X267756D01*
Y119419D01*
X269213D01*
Y118466D01*
X269016Y118269D01*
X265866D01*
X265669Y118466D01*
Y121616D01*
X265866Y121813D01*
G37*
G36*
G01X271968Y121616D02*
Y120718D01*
X273464D01*
Y119419D01*
X271968D01*
Y118466D01*
X272165Y118269D01*
X275276D01*
X275472Y118466D01*
Y121616D01*
X275276Y121813D01*
X272165D01*
X271968Y121616D01*
G37*
G36*
G01X279116Y87840D02*
X278218D01*
Y86344D01*
X276919D01*
Y87840D01*
X275966D01*
X275769Y87643D01*
Y84532D01*
X275966Y84336D01*
X279116D01*
X279313Y84532D01*
Y87643D01*
X279116Y87840D01*
G37*
G36*
G01X279313Y93942D02*
Y90792D01*
X279116Y90595D01*
X278218D01*
Y92052D01*
X276919D01*
Y90595D01*
X275966D01*
X275769Y90792D01*
Y93942D01*
X275966Y94139D01*
X279116D01*
X279313Y93942D01*
G37*
G54D10*
X18240Y151777D03*
Y157289D03*
X23960Y174794D03*
Y180306D03*
X34460Y125434D03*
Y130946D03*
X31690Y167325D03*
Y172837D03*
X37960Y177134D03*
Y182646D03*
X40360Y125574D03*
Y131086D03*
X61910Y131909D03*
Y137421D03*
X61140Y147934D03*
Y153446D03*
X66574Y147909D03*
Y153421D03*
X65010Y188029D03*
Y193541D03*
X70590Y172839D03*
Y178351D03*
X138440Y345555D03*
Y351067D03*
X148640Y345975D03*
Y351487D03*
X169880Y32749D03*
Y38261D03*
X272090Y13034D03*
Y18546D03*
X274290Y301574D03*
Y307086D03*
X282390Y14794D03*
Y20306D03*
X281791Y239960D03*
Y245472D03*
X283450Y301634D03*
Y307146D03*
G54D11*
X22879Y186210D03*
X27754Y142540D03*
X28391Y186210D03*
X33266Y142540D03*
X33099Y191910D03*
X38611D03*
X47119Y181910D03*
X49494Y176440D03*
X55006D03*
X52631Y181910D03*
X57874Y159560D03*
X63386D03*
X244254Y31210D03*
X244214Y43810D03*
X243154Y319710D03*
Y332584D03*
X248666Y319710D03*
Y332584D03*
X249766Y31210D03*
X249726Y43810D03*
X250208Y165391D03*
X256488Y160491D03*
X255720Y165391D03*
X262000Y160491D03*
X277174Y47090D03*
X279154Y335749D03*
X283514Y32890D03*
X283394Y40690D03*
X282686Y47090D03*
X283344Y85700D03*
X285394Y321290D03*
X285374Y329190D03*
X284666Y335749D03*
X289026Y32890D03*
X288906Y40690D03*
X288856Y85700D03*
X290906Y321290D03*
X290886Y329190D03*
G54D20*
X175484Y194613D03*
X178484Y194637D03*
X175484Y196779D03*
X178484Y196803D03*
X174982Y206279D03*
Y204113D03*
X189618Y172752D03*
Y174918D03*
X204285Y211201D03*
Y209035D03*
X224081Y194727D03*
Y196893D03*
X272647Y177217D03*
Y181717D03*
Y179383D03*
Y183883D03*
G54D12*
X48500Y123200D03*
Y132400D03*
X47900Y189700D03*
Y198900D03*
X80400Y140000D03*
Y149200D03*
Y178000D03*
Y187200D03*
G54D21*
X185842Y178848D03*
X186391Y190062D03*
X189740Y182746D03*
X190289Y193960D03*
X193639Y178001D03*
X197537Y181899D03*
X204310Y179695D03*
X208208Y183593D03*
X283983Y94980D03*
X287881Y98878D03*
G54D13*
X70436Y308011D03*
Y314507D03*
X176600Y31354D03*
Y37850D03*
G54D22*
X188910Y203923D03*
X192808Y200025D03*
G54D14*
X69999Y319494D03*
X72165D03*
X175359Y199782D03*
X177525D03*
X185553Y170618D03*
X187719D03*
X205927Y202115D03*
X208093D03*
X209631Y204815D03*
X207465D03*
X257117Y187200D03*
X259283D03*
X257117Y189700D03*
X259283D03*
X263117Y187200D03*
Y189700D03*
X265283Y187200D03*
Y189700D03*
X269999Y83981D03*
X272165D03*
G54D23*
X193590Y143993D03*
X196740Y140593D03*
G54D24*
X260269Y76780D03*
X266765D03*
G54D15*
X127570Y310300D03*
Y315300D03*
Y320300D03*
Y325300D03*
Y330300D03*
Y335300D03*
Y340300D03*
X148830Y310300D03*
Y315300D03*
Y320300D03*
Y325300D03*
Y330300D03*
Y335300D03*
Y340300D03*
G54D25*
X276911Y100890D03*
X281505Y105484D03*
G54D16*
X146225Y198235D03*
X147757Y196703D03*
X177847Y179913D03*
X178342Y187739D03*
X178659Y191239D03*
X176810Y189271D03*
X179379Y178381D03*
X180191Y189707D03*
X182176Y191308D03*
X180644Y192840D03*
X192277Y208314D03*
X193809Y206782D03*
X196983Y170417D03*
X198915Y175344D03*
X195451Y171949D03*
X197672Y187253D03*
X196140Y188785D03*
X197237Y211248D03*
X195705Y212780D03*
X196741Y215726D03*
X198273Y214194D03*
X200447Y173812D03*
X206514Y189891D03*
X208046Y188359D03*
G54D26*
G01X0Y19685D02*
Y370015D01*
G02X19685Y389700I19685J0D01*
G01X370015D01*
G02X389700Y370015I0J-19685D01*
G01Y19685D01*
G02X370015Y0I-19685J0D01*
G01X19685D01*
G02X0Y19685I0J19685D01*
G54D17*
X154686Y172990D03*
X152180Y175496D03*
X173495Y174623D03*
X174203Y181663D03*
X171697Y184169D03*
X174952Y186662D03*
X178780Y172873D03*
X176001Y177129D03*
X177458Y184156D03*
X181286Y175379D03*
X183610Y196326D03*
X186116Y198832D03*
X189831Y163906D03*
X193670Y162703D03*
X192337Y166412D03*
X192114Y188244D03*
X194620Y185738D03*
X194503Y191810D03*
X195996Y205054D03*
X199510Y144884D03*
X197004Y147390D03*
X197935Y151776D03*
X197863Y156380D03*
X198633Y161773D03*
X196176Y165209D03*
X197009Y194316D03*
X198711Y200735D03*
X198502Y207560D03*
X200441Y149270D03*
X200369Y153874D03*
X201139Y159267D03*
X204202Y163648D03*
X201696Y166154D03*
X202559Y170790D03*
X203681Y187697D03*
X201175Y185191D03*
X202118Y191487D03*
X201217Y203241D03*
X205065Y168284D03*
X204624Y193993D03*
X208808Y192919D03*
X211314Y195425D03*
X209086Y198615D03*
X211592Y201121D03*
G54D18*
X156111Y170131D03*
X158003Y168399D03*
X157643Y171663D03*
X159535Y169931D03*
X174335Y170055D03*
X171575Y191501D03*
X173107Y193033D03*
X175867Y171587D03*
X180415Y182555D03*
X181947Y184087D03*
X181658Y187421D03*
X180126Y185889D03*
X183919Y182542D03*
X185451Y184074D03*
X194953Y196554D03*
X196485Y198086D03*
X203781Y197811D03*
X205313Y199343D03*
X214888Y194689D03*
X216420Y196221D03*
G54D19*
X172178Y198445D03*
Y201989D03*
X181176Y204125D03*
Y200581D03*
X207719Y209093D03*
X211263D03*
X231548Y30950D03*
Y34750D03*
Y38550D03*
X231562Y42350D03*
Y46150D03*
Y49950D03*
X230792Y319453D03*
X230794Y323250D03*
Y327050D03*
Y330850D03*
Y334650D03*
X230792Y338450D03*
X235092Y30950D03*
Y34750D03*
Y38550D03*
X235106Y42350D03*
Y46150D03*
Y49950D03*
X234336Y319453D03*
X234338Y323250D03*
Y327050D03*
Y330850D03*
Y334650D03*
X234336Y338450D03*
X252413Y134807D03*
X252519Y209407D03*
X255050Y16094D03*
Y19638D03*
X255957Y134807D03*
X256063Y209407D03*
X258850Y16094D03*
Y19638D03*
X259439Y113084D03*
X260355Y134107D03*
X258575Y154907D03*
X260093Y241543D03*
Y245087D03*
X258238Y302494D03*
Y306038D03*
X262650Y16094D03*
Y19638D03*
X262983Y113084D03*
X263899Y134107D03*
X265291Y137752D03*
X262119Y154907D03*
X261747Y166107D03*
X265291D03*
X262050Y302494D03*
Y306038D03*
X266450Y16094D03*
Y19638D03*
X268835Y137752D03*
X267859Y161007D03*
X268931Y164490D03*
Y168034D03*
X269345Y210693D03*
X265801D03*
X266693Y233457D03*
Y237001D03*
X265850Y302494D03*
Y306038D03*
X270762Y55450D03*
X271403Y161007D03*
X271585Y226607D03*
X272459Y233852D03*
X272348Y242162D03*
Y245706D03*
X269650Y302494D03*
Y306038D03*
X272450Y345162D03*
Y348706D03*
X277350Y14194D03*
Y17738D03*
X274306Y55450D03*
X275125Y137093D03*
X275207Y157795D03*
Y161339D03*
X275211Y164893D03*
X275659Y210793D03*
X277711Y214507D03*
X275129Y226607D03*
X276003Y233852D03*
X278669Y137093D03*
X280807Y141953D03*
Y145497D03*
X278755Y164893D03*
X281417Y207493D03*
X277873D03*
X279203Y210793D03*
X281255Y214507D03*
X281452Y229851D03*
Y233395D03*
X278850Y302494D03*
Y306038D03*
X283400Y132928D03*
Y136472D03*
X285769Y210407D03*
X289313D03*
X286871Y240707D03*
Y244176D03*
Y247900D03*
X293000Y133128D03*
Y136672D03*
X293005Y209693D03*
X290415Y240707D03*
Y244176D03*
Y247900D03*
X296549Y209693D03*
X297139Y238507D03*
X297125Y242307D03*
X301328Y135400D03*
X302457Y210293D03*
X300683Y238507D03*
X300669Y242307D03*
X304872Y135400D03*
X306001Y210293D03*
X304615Y241593D03*
X307993Y234427D03*
Y237971D03*
X308159Y241593D03*
X314493Y158189D03*
Y161733D03*
X314607Y172683D03*
Y176227D03*
M02*
