G04 ================== begin FILE IDENTIFICATION RECORD ==================*
G04 Layout Name:  F:/OneDrive/Projects/PCB/HL-VPN/allegro/HL_VPN.brd*
G04 Film Name:    SOLDMASK_BOTTOM*
G04 File Format:  Gerber RS274X*
G04 File Origin:  Cadence Allegro 17.4-S037*
G04 Origin Date:  Wed Jan 29 06:07:44 2025*
G04 *
G04 Layer:  PIN/SOLDERMASK_BOTTOM*
G04 Layer:  PACKAGE GEOMETRY/SOLDERMASK_BOTTOM*
G04 Layer:  BOARD GEOMETRY/SOLDERMASK_BOTTOM*
G04 Layer:  BOARD GEOMETRY/DESIGN_OUTLINE*
G04 *
G04 Offset:    (0.00 0.00)*
G04 Mirror:    No*
G04 Mode:      Positive*
G04 Rotation:  0*
G04 FullContactRelief:  No*
G04 UndefLineWidth:     5.00*
G04 ================== end FILE IDENTIFICATION RECORD ====================*
%FSLAX25Y25*MOIN*%
%IR0*IPPOS*OFA0.00000B0.00000*MIA0B0*SFA1.00000B1.00000*%
%AMMACRO28*
21,1,.03579,.03799,0.0,0.0,45.*%
%ADD28MACRO28*%
%ADD19R,.06689X.05909*%
%ADD14R,.03799X.03579*%
%ADD17R,.03579X.03799*%
%ADD43C,.06*%
%ADD34C,.0315*%
%ADD37C,.055*%
%ADD39C,.08402*%
%ADD38C,.05118*%
%ADD23O,.06299X.1024*%
%ADD40R,.05118X.05118*%
%AMMACRO25*
21,1,.01382,.01579,0.0,0.0,135.*%
%ADD25MACRO25*%
%AMMACRO33*
21,1,.03539,.03941,0.0,0.0,135.*%
%ADD33MACRO33*%
%AMMACRO26*
21,1,.02559,.02559,0.0,0.0,45.*%
%ADD26MACRO26*%
%ADD30R,.02559X.02559*%
%ADD22O,.06299X.14169*%
%AMMACRO29*
21,1,.03579,.03799,0.0,0.0,135.*%
%ADD29MACRO29*%
%ADD41C,.12201*%
%ADD11C,.134*%
%AMMACRO36*
21,1,.0413,.05512,0.0,0.0,45.*%
%ADD36MACRO36*%
%ADD20R,.05512X.0413*%
%ADD35R,.0413X.05512*%
%ADD16O,.05118X.08272*%
%ADD10O,.09449X.04331*%
%ADD31R,.01579X.01382*%
%AMMACRO27*
21,1,.01382,.01579,0.0,0.0,45.*%
%ADD27MACRO27*%
%ADD18O,.0748X.08272*%
%ADD42C,.12799*%
%AMMACRO32*
21,1,.03539,.03941,0.0,0.0,45.*%
%ADD32MACRO32*%
%ADD21R,.01382X.01579*%
%ADD12R,.03941X.03539*%
%ADD13R,.03539X.03941*%
%ADD15O,.05118X.07488*%
%ADD24R,.06098X.02358*%
%ADD44C,.005*%
G75*
%LPD*%
G75*
G54D10*
X11513Y235092D03*
Y269108D03*
G54D20*
X70436Y308011D03*
Y314507D03*
X176600Y31354D03*
Y37850D03*
G54D11*
X17250Y17750D03*
Y370750D03*
X372250Y17750D03*
Y370750D03*
G54D12*
X18240Y151777D03*
Y157289D03*
X23960Y174794D03*
Y180306D03*
X34460Y125434D03*
Y130946D03*
X31690Y167325D03*
Y172837D03*
X37960Y177134D03*
Y182646D03*
X40360Y125574D03*
Y131086D03*
X61910Y131909D03*
Y137421D03*
X61140Y147934D03*
Y153446D03*
X66574Y147909D03*
Y153421D03*
X65010Y188029D03*
Y193541D03*
X70590Y172839D03*
Y178351D03*
X138440Y345555D03*
Y351067D03*
X148640Y345975D03*
Y351487D03*
X169880Y32749D03*
Y38261D03*
X272090Y13034D03*
Y18546D03*
X274290Y301574D03*
Y307086D03*
X282390Y14794D03*
Y20306D03*
X281791Y239960D03*
Y245472D03*
X283450Y301634D03*
Y307146D03*
G54D21*
X69999Y319494D03*
X72165D03*
X175359Y199782D03*
X177525D03*
X185553Y170618D03*
X187719D03*
X205927Y202115D03*
X208093D03*
X209631Y204815D03*
X207465D03*
X257117Y187200D03*
X259283D03*
X257117Y189700D03*
X259283D03*
X263117Y187200D03*
Y189700D03*
X265283Y187200D03*
Y189700D03*
X269999Y83981D03*
X272165D03*
G54D30*
X172178Y198445D03*
Y201989D03*
X181176Y204125D03*
Y200581D03*
X207719Y209093D03*
X211263D03*
X231548Y30950D03*
Y34750D03*
Y38550D03*
X231562Y42350D03*
Y46150D03*
Y49950D03*
X230792Y319453D03*
X230794Y323250D03*
Y327050D03*
Y330850D03*
Y334650D03*
X230792Y338450D03*
X235092Y30950D03*
Y34750D03*
Y38550D03*
X235106Y42350D03*
Y46150D03*
Y49950D03*
X234336Y319453D03*
X234338Y323250D03*
Y327050D03*
Y330850D03*
Y334650D03*
X234336Y338450D03*
X252413Y134807D03*
X252519Y209407D03*
X255050Y16094D03*
Y19638D03*
X255957Y134807D03*
X256063Y209407D03*
X258850Y16094D03*
Y19638D03*
X259439Y113084D03*
X260355Y134107D03*
X258575Y154907D03*
X260093Y241543D03*
Y245087D03*
X258238Y302494D03*
Y306038D03*
X262650Y16094D03*
Y19638D03*
X262983Y113084D03*
X263899Y134107D03*
X265291Y137752D03*
X262119Y154907D03*
X261747Y166107D03*
X265291D03*
X262050Y302494D03*
Y306038D03*
X266450Y16094D03*
Y19638D03*
X268835Y137752D03*
X267859Y161007D03*
X268931Y164490D03*
Y168034D03*
X269345Y210693D03*
X265801D03*
X266693Y233457D03*
Y237001D03*
X265850Y302494D03*
Y306038D03*
X270762Y55450D03*
X271403Y161007D03*
X271585Y226607D03*
X272459Y233852D03*
X272348Y242162D03*
Y245706D03*
X269650Y302494D03*
Y306038D03*
X272450Y345162D03*
Y348706D03*
X277350Y14194D03*
Y17738D03*
X274306Y55450D03*
X275125Y137093D03*
X275207Y157795D03*
Y161339D03*
X275211Y164893D03*
X275659Y210793D03*
X277711Y214507D03*
X275129Y226607D03*
X276003Y233852D03*
X278669Y137093D03*
X280807Y141953D03*
Y145497D03*
X278755Y164893D03*
X281417Y207493D03*
X277873D03*
X279203Y210793D03*
X281255Y214507D03*
X281452Y229851D03*
Y233395D03*
X278850Y302494D03*
Y306038D03*
X283400Y132928D03*
Y136472D03*
X285769Y210407D03*
X289313D03*
X286871Y240707D03*
Y244176D03*
Y247900D03*
X293000Y133128D03*
Y136672D03*
X293005Y209693D03*
X290415Y240707D03*
Y244176D03*
Y247900D03*
X296549Y209693D03*
X297139Y238507D03*
X297125Y242307D03*
X301328Y135400D03*
X302457Y210293D03*
X300683Y238507D03*
X300669Y242307D03*
X304872Y135400D03*
X306001Y210293D03*
X304615Y241593D03*
X307993Y234427D03*
Y237971D03*
X308159Y241593D03*
X314493Y158189D03*
Y161733D03*
X314607Y172683D03*
Y176227D03*
G54D13*
X22879Y186210D03*
X27754Y142540D03*
X28391Y186210D03*
X33266Y142540D03*
X33099Y191910D03*
X38611D03*
X47119Y181910D03*
X49494Y176440D03*
X55006D03*
X52631Y181910D03*
X57874Y159560D03*
X63386D03*
X244254Y31210D03*
X244214Y43810D03*
X243154Y319710D03*
Y332584D03*
X248666Y319710D03*
Y332584D03*
X249766Y31210D03*
X249726Y43810D03*
X250208Y165391D03*
X256488Y160491D03*
X255720Y165391D03*
X262000Y160491D03*
X277174Y47090D03*
X279154Y335749D03*
X283514Y32890D03*
X283394Y40690D03*
X282686Y47090D03*
X283344Y85700D03*
X285394Y321290D03*
X285374Y329190D03*
X284666Y335749D03*
X289026Y32890D03*
X288906Y40690D03*
X288856Y85700D03*
X290906Y321290D03*
X290886Y329190D03*
G54D31*
X175484Y194613D03*
X178484Y194637D03*
X175484Y196779D03*
X178484Y196803D03*
X174982Y206279D03*
Y204113D03*
X189618Y172752D03*
Y174918D03*
X204285Y211201D03*
Y209035D03*
X224081Y194727D03*
Y196893D03*
X272647Y177217D03*
Y181717D03*
Y179383D03*
Y183883D03*
G54D22*
X100273Y356192D03*
X157360D03*
G54D40*
X353018Y133820D03*
G54D32*
X185842Y178848D03*
X186391Y190062D03*
X189740Y182746D03*
X190289Y193960D03*
X193639Y178001D03*
X197537Y181899D03*
X204310Y179695D03*
X208208Y183593D03*
X283983Y94980D03*
X287881Y98878D03*
G54D41*
X361287Y121812D03*
Y173388D03*
G54D23*
X100273Y379657D03*
X157360D03*
G54D14*
X23955Y151767D03*
Y157699D03*
X277541Y86271D03*
Y92203D03*
G54D24*
X127570Y310300D03*
Y315300D03*
Y320300D03*
Y325300D03*
Y330300D03*
Y335300D03*
Y340300D03*
X148830Y310300D03*
Y315300D03*
Y320300D03*
Y325300D03*
Y330300D03*
Y335300D03*
Y340300D03*
G54D15*
X31486Y7992D03*
X65502D03*
G54D42*
X363200Y301484D03*
Y346484D03*
X365500Y43000D03*
Y88000D03*
G54D33*
X188910Y203923D03*
X192808Y200025D03*
G54D16*
X31486Y24450D03*
X65502D03*
G54D25*
X146225Y198235D03*
X147757Y196703D03*
X177847Y179913D03*
X178342Y187739D03*
X178659Y191239D03*
X176810Y189271D03*
X179379Y178381D03*
X180191Y189707D03*
X182176Y191308D03*
X180644Y192840D03*
X192277Y208314D03*
X193809Y206782D03*
X196983Y170417D03*
X198915Y175344D03*
X195451Y171949D03*
X197672Y187253D03*
X196140Y188785D03*
X197237Y211248D03*
X195705Y212780D03*
X196741Y215726D03*
X198273Y214194D03*
X200447Y173812D03*
X206514Y189891D03*
X208046Y188359D03*
G54D34*
X193590Y143993D03*
X196740Y140593D03*
G54D43*
X382491Y297901D03*
Y307901D03*
Y340067D03*
Y350067D03*
X384791Y39417D03*
Y49417D03*
Y81583D03*
Y91583D03*
G54D44*
G01X0Y19685D02*
Y370015D01*
G02X19685Y389700I19685J0D01*
G01X370015D01*
G02X389700Y370015I0J-19685D01*
G01Y19685D01*
G02X370015Y0I-19685J0D01*
G01X19685D01*
G02X0Y19685I0J19685D01*
G54D35*
X260269Y76780D03*
X266765D03*
G54D26*
X154686Y172990D03*
X152180Y175496D03*
X173495Y174623D03*
X174203Y181663D03*
X171697Y184169D03*
X174952Y186662D03*
X178780Y172873D03*
X176001Y177129D03*
X177458Y184156D03*
X181286Y175379D03*
X183610Y196326D03*
X186116Y198832D03*
X189831Y163906D03*
X193670Y162703D03*
X192337Y166412D03*
X192114Y188244D03*
X194620Y185738D03*
X194503Y191810D03*
X195996Y205054D03*
X199510Y144884D03*
X197004Y147390D03*
X197935Y151776D03*
X197863Y156380D03*
X198633Y161773D03*
X196176Y165209D03*
X197009Y194316D03*
X198711Y200735D03*
X198502Y207560D03*
X200441Y149270D03*
X200369Y153874D03*
X201139Y159267D03*
X204202Y163648D03*
X201696Y166154D03*
X202559Y170790D03*
X203681Y187697D03*
X201175Y185191D03*
X202118Y191487D03*
X201217Y203241D03*
X205065Y168284D03*
X204624Y193993D03*
X208808Y192919D03*
X211314Y195425D03*
X209086Y198615D03*
X211592Y201121D03*
G54D17*
X37634Y17500D03*
X37855Y147945D03*
X43566Y17500D03*
X43787Y147945D03*
X49543D03*
X55384Y17500D03*
X55475Y147945D03*
X61316Y17500D03*
X255934Y120100D03*
X259903Y83941D03*
X261866Y120100D03*
X265835Y83941D03*
X267605Y120041D03*
X273537D03*
G54D18*
X41248Y382497D03*
X51248D03*
X61248D03*
X71248D03*
G54D27*
X156111Y170131D03*
X158003Y168399D03*
X157643Y171663D03*
X159535Y169931D03*
X174335Y170055D03*
X171575Y191501D03*
X173107Y193033D03*
X175867Y171587D03*
X180415Y182555D03*
X181947Y184087D03*
X181658Y187421D03*
X180126Y185889D03*
X183919Y182542D03*
X185451Y184074D03*
X194953Y196554D03*
X196485Y198086D03*
X203781Y197811D03*
X205313Y199343D03*
X214888Y194689D03*
X216420Y196221D03*
G54D36*
X276911Y100890D03*
X281505Y105484D03*
G54D37*
X328200Y301484D03*
Y311484D03*
Y321484D03*
Y331484D03*
Y341484D03*
X330500Y43000D03*
Y53000D03*
Y63000D03*
Y73000D03*
Y83000D03*
X340500Y48000D03*
Y58000D03*
Y68000D03*
Y78000D03*
Y88000D03*
X338200Y306484D03*
Y316484D03*
Y326484D03*
Y336484D03*
Y346484D03*
G54D19*
X48500Y123200D03*
Y132400D03*
X47900Y189700D03*
Y198900D03*
X80400Y140000D03*
Y149200D03*
Y178000D03*
Y187200D03*
G54D28*
X163393Y185168D03*
X167587Y189362D03*
G54D29*
X169031Y215585D03*
X173225Y211391D03*
G54D38*
X347114Y131853D03*
Y139727D03*
Y147601D03*
Y155475D03*
Y163349D03*
X353018Y143664D03*
Y151538D03*
Y161380D03*
G54D39*
X353492Y35008D03*
Y95992D03*
X351192Y293492D03*
Y354476D03*
M02*
